<svg id="Layer_1" data-name="Layer 1" xmlns="http://www.w3.org/2000/svg" viewBox="0 0 400 400"><defs><style>.cls-1{fill:#ecd2cf;}.cls-2{fill:#edd2cf;}.cls-11,.cls-12,.cls-15,.cls-16,.cls-17,.cls-18,.cls-19,.cls-2,.cls-20,.cls-21,.cls-5,.cls-6,.cls-7{stroke:#231f20;}.cls-11,.cls-12,.cls-13,.cls-15,.cls-16,.cls-17,.cls-18,.cls-19,.cls-2,.cls-20,.cls-21,.cls-4,.cls-5,.cls-6,.cls-7{stroke-miterlimit:10;}.cls-13,.cls-15,.cls-18,.cls-2,.cls-7{stroke-width:2px;}.cls-3{fill:#e78ebb;}.cls-11,.cls-12,.cls-4{fill:none;}.cls-4{stroke:#6d6e70;}.cls-12,.cls-16,.cls-4,.cls-5,.cls-6{stroke-width:3px;}.cls-13,.cls-15,.cls-5,.cls-8{fill:#fff;}.cls-6,.cls-7{fill:#6d6e70;}.cls-9{fill:#96186c;}.cls-10{fill:#540a3b;}.cls-11{stroke-width:4px;}.cls-13{stroke:#aa5c92;}.cls-14{fill:#eb008b;}.cls-16,.cls-17{fill:#bbbdbf;}.cls-18{fill:#ec1c24;}.cls-19{fill:#9d4a23;}.cls-20{fill:#58595b;}.cls-21{fill:#a6a8ab;stroke-width:0.75px;}</style></defs><g id="Head"><polyline id="Neck" class="cls-1" points="184.21 194.64 204.11 194.48 204.35 198.93 194.33 204.65 183.54 199.13 184.21 194.64"/><path id="FAce" class="cls-2" d="M168.24,188.11s14.53,9.89,33.19,7.46c0,0,16.62-1,25.11-13.41l6.94-40.72s-15.62-19.35-40.91-13.51c0,0-23.93.45-37,15.57,0,0-8.37,32.23,12.64,44.61h0"/></g><g id="Blush"><ellipse class="cls-3" cx="175.04" cy="184.24" rx="7.71" ry="4.86" transform="translate(-4.41 4.29) rotate(-1.39)"/><ellipse class="cls-3" cx="215.07" cy="182.12" rx="7.71" ry="4.86" transform="translate(-4.35 5.26) rotate(-1.39)"/></g><g id="eye_patch" data-name="eye patch"><path id="patch_string_2" data-name="patch string 2" class="cls-4" d="M209.14,180.35s-31.76,9.25-42.2,7.31"/><path id="patch_string" data-name="patch string" class="cls-4" d="M207.72,154.43s-24.92-9-42.71-2.05"/><polygon id="eye_patch-2" data-name="eye patch" class="cls-5" points="209.13 180.35 209.28 154.35 228.02 153.33 230.68 179.18 209.13 180.35"/><polyline id="patch_inside" data-name="patch inside" class="cls-4" points="215.31 161.45 216.06 175.28 221.99 174.95"/></g><g id="hair"><path id="hair-2" data-name="hair" class="cls-6" d="M195.15,153.55l6.93-10.71,3.84-9.92,1.65,1.48.73,13.42L219.24,136l.63,11.56,7.29-4.16,2.65,8.31,10.69-10.6s-6.07-31-35.94-38.76l-11.39-2.19s-12.71-3.38-21.74,3.38c0,0-20.87-3.56-25.16,9.51l11.2-1.24s-15.79,9-16.4,26.58L165.59,163,165,152.38l4.5-3.69-.17-3.12,3.78,6.05,2.09-13.26,2.21-5.45,7.15,16.21,7.86-16.71Z"/><polygon class="cls-7" points="160.5 213.54 159.06 187.31 179.04 194.25 160.5 213.54"/></g><g id="EYE"><path id="eye_white" data-name="eye white" class="cls-8" d="M183,179.58l4.62-.25a7.63,7.63,0,0,0,3.53-4.13l-.53-9.73s-4-5-8.66-4.89-9.28,7.39-9.28,7.39l.46,8.59s1.74,3.71,4.14,3.34Z"/><ellipse id="eye_color" data-name="eye color" class="cls-9" cx="182.47" cy="170.17" rx="7.5" ry="9.48" transform="translate(-15.52 18.34) rotate(-5.52)"/><ellipse id="eye_black" data-name="eye black" class="cls-10" cx="182.09" cy="168.83" rx="5.89" ry="7.9" transform="matrix(1, -0.05, 0.05, 1, -8.93, 10.17)"/><path id="eye_detail_1" data-name="eye detail 1" class="cls-11" d="M177.5,166l-5.54.3"/><path id="eye_deatil_2" data-name="eye deatil 2" class="cls-12" d="M170.34,168.11s6.81-13.76,20.66-4.18l2.19,1.16"/><line id="eye_detail_3" data-name="eye detail 3" class="cls-12" x1="190.06" y1="162.91" x2="190.36" y2="168.38"/><ellipse id="eye_reflection" data-name="eye reflection" class="cls-8" cx="188.06" cy="170.25" rx="3.28" ry="1.74" transform="translate(-9 10.5) rotate(-3.12)"/><circle id="eye_reflection_2" data-name="eye reflection 2" class="cls-8" cx="182.35" cy="175.24" r="1.17"/></g><g id="Mouth"><line id="Mouth-2" data-name="Mouth" class="cls-13" x1="201.35" y1="188.29" x2="205.72" y2="188.05"/></g><g id="Left_ear_muff" data-name="Left ear muff"><path id="ear_left" data-name="ear left" class="cls-5" d="M118.49,154.92l23.57,1.53-6.57-5.59-9.23-11.4s1.23-7.87,10.37-2.13S171.52,174,171.52,174s2.38,14.9-11.42,20.35-22.66-7.68-22.66-7.68L137,172.08l.84-7.57S116.47,163.8,118.49,154.92Z"/><circle id="right_eye" data-name="right eye" class="cls-14" cx="154.87" cy="177.91" r="3.67"/><circle id="left_eye" data-name="left eye" class="cls-14" cx="144.24" cy="183.17" r="3.05"/></g><g id="Right_Ear_muff" data-name="Right Ear muff"><path id="ear_right" data-name="ear right" class="cls-5" d="M241.94,138.79l7.19-.4s4.34,5.09-1.26,11.35-9,6.75-9,6.75l.2,3.66s12,13.22-1.56,23l-2.64,3.28-12.18.66,7.15-35.47Z"/><ellipse id="eye_right_bunny" data-name="eye right bunny" class="cls-14" cx="239.75" cy="170.93" rx="2.38" ry="3.05" transform="translate(-8.96 13.32) rotate(-3.12)"/></g><g id="feet"><path class="cls-2" d="M202.67,237.32l1.2-.06c2-.11,3.51.37,3.62,2.37l-.27,3.64a7.69,7.69,0,0,1-.69,2.52c-.64,1.36-1.4,5.09.34,10.2.53,1.54-.35,2.53,1.27,2.44l8.86-.68a3.59,3.59,0,0,1,3.64,2.46,9.27,9.27,0,0,1,.48,2.79,3.58,3.58,0,0,1-3.5,3.48l-20.42.78c-2,.08-3-1.61-3-3.65l-.51-9.25a3,3,0,0,1,.52-1.59,46.64,46.64,0,0,0,3.62-12.31,3.59,3.59,0,0,1,3.4-3.06Z"/><path class="cls-2" d="M186.11,238.26l1.2-.06c2-.11,3.51.36,3.62,2.37l-.27,3.64a7.45,7.45,0,0,1-.69,2.52c-.64,1.36-1.39,5.08.35,10.2.52,1.54-.36,2.53,1.27,2.44l7.44-.57a3.71,3.71,0,0,1,3.62,2.63,12,12,0,0,1,.17,3.16c0,1.89-4.25,2.93-6.14,3l-16,.61c-2,.08-4.2-2.25-4.25-4.29l.2-8.46c0-.63.74-1.18,1-1.74a47.07,47.07,0,0,0,3.61-12.31,3.6,3.6,0,0,1,3.4-3.06Z"/></g><g id="Dress"><path id="Dress-2" data-name="Dress" class="cls-15" d="M204.92,204.24,206.38,218a2,2,0,0,0,.43,1.06L223,235.54c1,1.23-2.11,3.6-3.64,3.68l-46,2.52a2,2,0,0,1-1.72-2.94l8.56-15.42a2,2,0,0,0,.18-1.53l-5.19-18.51a1.93,1.93,0,0,1,1.89-2.49l26.18,1.65A1.9,1.9,0,0,1,204.92,204.24Z"/><line class="cls-16" x1="184.32" y1="232.83" x2="218.48" y2="230.97"/><line class="cls-17" x1="212.18" y1="225.81" x2="178.09" y2="227.68"/><line class="cls-17" x1="222.95" y1="235.54" x2="181.69" y2="237.79"/><line class="cls-16" x1="180.82" y1="221.83" x2="207.83" y2="220.35"/><line class="cls-17" x1="205.18" y1="214.13" x2="178.75" y2="215.58"/><line class="cls-16" x1="178.44" y1="210.01" x2="206.6" y2="208.48"/></g><g id="Scarf"><path class="cls-18" d="M183.35,195.62s8.9,12.43,19.32,1.06l3.25-.65.33,6.09S198,214.78,182.92,205l-8.53-5.65Z"/><path class="cls-18" d="M171.67,199.78l-13.47.73a.57.57,0,0,1-.34-.08c-1.38-.86-12.4-7.11-31.55-1.72a.37.37,0,0,0-.18.08c-1.29.92-18.46,13.11-24.41,11.85,0,0-16.75.46-21.5-9.06a.55.55,0,0,0-.51-.32c-2,0-12,.39-15.51,4.27a.5.5,0,0,1-.26.16c-1.16.29-8.44,1.82-11.59-4.52,0,0,4.17,9.4,12.06,11.56a.57.57,0,0,0,.53-.13c1.35-1.3,8.8-7.77,16.6-.75l.08.08c.72.92,13.09,16.4,20.91,13.47l13.77-2.84a.76.76,0,0,0,.28-.15c1.68-1.64,21.47-20.34,41.39-13.41l.07,0,4.86,2.29a.57.57,0,0,0,.69-.16l8.55-10.44A.57.57,0,0,0,171.67,199.78Z"/></g><g id="Glove"><path id="Glove-2" data-name="Glove" class="cls-19" d="M171.7,200.6l6.11,3.91a3.58,3.58,0,0,1,1.64,3.23l-.78,12.44a3.54,3.54,0,0,0,1.9,3.37c2.34,1.22,5.88,4.08,6.18,10.36a3.68,3.68,0,0,1-.66,2.32c-1.44,2-5,6.66-9,8.44a3.52,3.52,0,0,1-2.26.23c-3.08-.71-11.77-3.46-12-12a3.49,3.49,0,0,1,.28-1.39l1.67-4.06a3.37,3.37,0,0,0,.27-1.47l-.49-15.29a3.53,3.53,0,0,1,.79-2.36l6.3-7.78"/><polygon id="Glove_deatil2" data-name="Glove deatil2" class="cls-17" points="171.67 221.89 185.46 228.62 172.44 235.91 163.75 226.36 171.67 221.89"/><polygon id="Glove_detail1" data-name="Glove detail1" class="cls-20" points="164.16 226.34 172.7 232.45 179.35 225.51 185.45 228.47 185.97 237.99 163.27 239.23 164.16 226.34"/><polygon id="Spike3" class="cls-21" points="168.65 244.3 170.97 236.42 165.48 236.72 168.65 244.3"/><polygon id="Spike2" class="cls-21" points="174.77 241.32 177.22 235.72 171.72 236.02 174.77 241.32"/><polygon id="Spike1" class="cls-21" points="181.66 243.73 183.98 235.71 178.48 236.01 181.66 243.73"/></g></svg>