<?xml version="1.0" encoding="utf-8"?>
<!-- Generator: Adobe Illustrator 24.1.0, SVG Export Plug-In . SVG Version: 6.00 Build 0)  -->
<svg version="1.1" id="Layer_1" xmlns="http://www.w3.org/2000/svg" xmlns:xlink="http://www.w3.org/1999/xlink" x="0px" y="0px"
	 viewBox="0 0 960 50" style="enable-background:new 0 0 960 50;" xml:space="preserve">
<style type="text/css">
	.st0{display:none;fill:#444444;enable-background:new    ;}
	.st1{font-family:'HelveticaNeue-Light';}
	.st2{font-size:11.9px;}
	.st3{fill:#CBD6B0;}
	.st4{fill:none;stroke:#000000;stroke-miterlimit:10;}
	.st5{fill:#444444;}
</style>
<text transform="matrix(1.1765 0 0 1 810.0176 28.2188)" class="st0 st1 st2">JEREMYHUANG</text>
<g>
	<path d="M482.1,12c0.1-0.4,0.3-0.7,0.6-0.9c0.3-0.3,0.6-0.5,1-0.6c0.4-0.2,0.9-0.2,1.4-0.2c0.4,0,0.8,0.1,1.2,0.2
		c0.4,0.1,0.7,0.3,1,0.5c0.3,0.2,0.5,0.5,0.7,0.8s0.2,0.7,0.2,1c0,0.4-0.1,0.7-0.2,1s-0.3,0.5-0.5,0.8c-0.2,0.2-0.5,0.4-0.8,0.6
		c-0.3,0.2-0.6,0.4-0.9,0.5c-0.3,0.2-0.6,0.3-0.9,0.5c-0.3,0.2-0.6,0.3-0.8,0.5c-0.2,0.2-0.5,0.4-0.7,0.6c-0.2,0.2-0.3,0.4-0.4,0.7
		h5.1v0.9h-6.5c0-0.5,0.2-0.9,0.3-1.3s0.4-0.7,0.6-0.9c0.2-0.2,0.5-0.5,0.9-0.7s0.6-0.4,1-0.6c0.4-0.2,0.8-0.4,1.1-0.6
		c0.3-0.2,0.6-0.4,0.8-0.6c0.2-0.2,0.4-0.4,0.5-0.6c0.1-0.2,0.2-0.5,0.2-0.8c0-0.2-0.1-0.4-0.2-0.6s-0.2-0.3-0.4-0.5
		s-0.4-0.2-0.6-0.3c-0.2-0.1-0.5-0.1-0.7-0.1c-0.3,0-0.6,0.1-0.9,0.2c-0.2,0.1-0.5,0.3-0.6,0.5c-0.2,0.2-0.3,0.4-0.3,0.7
		c-0.1,0.2-0.1,0.5-0.1,0.8H482C481.9,12.8,481.9,12.4,482.1,12z"/>
	<path d="M493.7,12.7c-0.4,0.6-0.8,1.2-1.2,1.9c-0.3,0.7-0.6,1.3-0.8,2c-0.2,0.7-0.3,1.4-0.4,2H490c0.1-0.7,0.2-1.4,0.4-2.1
		c0.2-0.7,0.5-1.3,0.8-2c0.3-0.6,0.7-1.2,1.2-1.8s0.9-1.1,1.5-1.5h-5.2v-1h6.4v0.9C494.7,11.6,494.2,12.1,493.7,12.7z"/>
</g>
<circle class="st3" cx="472.2" cy="33.2" r="7"/>
<line class="st4" x1="464.8" y1="9.8" x2="495.2" y2="40.2"/>
<path d="M470.9,29.9l-0.5,2.4l0,0c0.2-0.2,0.5-0.4,0.8-0.5c0.3-0.1,0.7-0.1,1-0.1c0.4,0,0.9,0.1,1.2,0.2c0.4,0.1,0.7,0.3,1,0.5
	c0.3,0.2,0.5,0.5,0.7,0.9s0.3,0.8,0.3,1.3c0,0.4-0.1,0.7-0.2,1s-0.4,0.6-0.7,0.9c-0.3,0.3-0.7,0.5-1.1,0.6s-0.9,0.2-1.5,0.2
	c-0.4,0-0.8-0.1-1.2-0.2c-0.4-0.1-0.7-0.3-1-0.5c-0.3-0.2-0.5-0.5-0.7-0.8s-0.3-0.6-0.3-1h1.3c0,0.2,0.1,0.4,0.2,0.6
	c0.1,0.2,0.3,0.3,0.4,0.5c0.2,0.1,0.4,0.2,0.6,0.3c0.2,0.1,0.5,0.1,0.8,0.1s0.5,0,0.8-0.1c0.3-0.1,0.5-0.2,0.7-0.4s0.3-0.4,0.5-0.6
	c0.1-0.2,0.2-0.5,0.2-0.9c0-0.3-0.1-0.5-0.2-0.8c-0.1-0.2-0.3-0.4-0.5-0.6c-0.2-0.2-0.4-0.3-0.7-0.4c-0.3-0.1-0.6-0.1-0.9-0.1
	c-0.4,0-0.7,0.1-1,0.2c-0.3,0.1-0.6,0.3-0.8,0.6h-1L470,29h4.9v0.9H470.9z"/>
<g>
	<path class="st5" d="M714.9,111.7c0.1,0.3,0.3,0.5,0.5,0.7c0.2,0.2,0.5,0.3,0.8,0.4c0.3,0.1,0.7,0.2,1.1,0.2c0.3,0,0.6,0,0.9-0.1
		c0.3-0.1,0.6-0.2,0.8-0.4c0.2-0.2,0.4-0.4,0.6-0.6c0.1-0.2,0.2-0.5,0.2-0.8c0-0.3-0.1-0.6-0.2-0.8c-0.1-0.2-0.3-0.4-0.5-0.5
		c-0.2-0.1-0.5-0.3-0.7-0.3c-0.3-0.1-0.6-0.1-0.9-0.1h-0.7v-0.6h0.7c0.2,0,0.5,0,0.7-0.1c0.2-0.1,0.5-0.2,0.6-0.3
		c0.2-0.1,0.3-0.3,0.5-0.5c0.2-0.2,0.2-0.4,0.2-0.7c0-0.3-0.1-0.5-0.2-0.7c-0.1-0.2-0.3-0.4-0.5-0.5s-0.4-0.2-0.7-0.3
		s-0.5-0.1-0.8-0.1c-0.4,0-0.7,0.1-1,0.2c-0.3,0.1-0.5,0.2-0.7,0.4c-0.2,0.2-0.3,0.4-0.4,0.7c-0.1,0.3-0.1,0.5-0.1,0.9h-0.9
		c0-0.4,0.1-0.8,0.2-1.1c0.1-0.3,0.4-0.6,0.6-0.9c0.3-0.2,0.6-0.4,1-0.6c0.4-0.1,0.8-0.2,1.3-0.2c0.4,0,0.8,0,1.1,0.1
		c0.4,0.1,0.7,0.2,1,0.4s0.5,0.4,0.7,0.7c0.2,0.3,0.3,0.6,0.3,1c0,0.5-0.1,0.8-0.4,1.2c-0.3,0.3-0.7,0.6-1.2,0.7l0,0
		c0.6,0.1,1.1,0.3,1.5,0.7c0.3,0.4,0.5,0.8,0.5,1.4c0,0.4-0.1,0.8-0.3,1.1c-0.2,0.3-0.4,0.6-0.7,0.8c-0.3,0.2-0.7,0.4-1.1,0.5
		c-0.4,0.1-0.8,0.2-1.3,0.2s-1-0.1-1.4-0.2c-0.4-0.1-0.8-0.3-1.1-0.5c-0.3-0.2-0.5-0.5-0.7-0.9c-0.2-0.3-0.2-0.8-0.2-1.2h0.9
		C714.7,111.2,714.8,111.5,714.9,111.7z"/>
	<path class="st5" d="M727.2,105.3v0.7c-0.3,0.3-0.7,0.6-1.1,1.1c-0.4,0.5-0.8,1-1.3,1.6c-0.5,0.6-0.8,1.3-1.1,2.2
		c-0.3,0.8-0.5,1.7-0.5,2.7h-1c0.1-0.7,0.2-1.4,0.3-2c0.1-0.6,0.4-1.2,0.7-1.8s0.7-1.2,1.2-1.8s1.1-1.2,1.7-1.9h-5.4v-0.7h6.5V105.3
		z"/>
	<path class="st5" d="M728.2,112.2h1.2v1.3h-1.2V112.2z"/>
	<path class="st5" d="M736.7,105.3v0.7c-0.3,0.3-0.7,0.6-1.1,1.1c-0.4,0.5-0.8,1-1.3,1.6c-0.5,0.6-0.8,1.3-1.1,2.2
		c-0.3,0.8-0.5,1.7-0.5,2.7h-1c0.1-0.7,0.2-1.4,0.3-2c0.1-0.6,0.4-1.2,0.7-1.8s0.7-1.2,1.2-1.8s1.1-1.2,1.7-1.9h-5.4v-0.7h6.5V105.3
		z"/>
	<path class="st5" d="M743.5,105.3v0.7c-0.3,0.3-0.7,0.6-1.1,1.1c-0.4,0.5-0.8,1-1.3,1.6c-0.5,0.6-0.8,1.3-1.1,2.2
		c-0.3,0.8-0.5,1.7-0.5,2.7h-1c0.1-0.7,0.2-1.4,0.3-2c0.2-0.6,0.4-1.2,0.7-1.8s0.7-1.2,1.2-1.8s1.1-1.2,1.7-1.9H737v-0.7h6.5V105.3z
		"/>
	<path class="st5" d="M748.2,105.2h0.8v5.6h1.5v0.6H749v2.1h-0.8v-2.1h-4.5v-0.7L748.2,105.2z M748.1,106.2L748.1,106.2l-3.7,4.5
		h3.7V106.2z"/>
	<path class="st5" d="M752.2,112.6c0.4,0.3,0.8,0.4,1.4,0.4c0.6,0,1-0.1,1.4-0.4c0.3-0.2,0.6-0.6,0.8-0.9c0.2-0.3,0.3-0.8,0.4-1.2
		c0.1-0.4,0.1-0.8,0.1-1.2l0,0c-0.2,0.4-0.6,0.7-1.1,1c-0.5,0.3-1,0.4-1.5,0.4s-0.9-0.1-1.3-0.2c-0.4-0.1-0.7-0.3-1-0.6
		c-0.3-0.2-0.5-0.5-0.7-0.9c-0.2-0.3-0.2-0.7-0.2-1.1s0.1-0.8,0.2-1.1c0.2-0.3,0.4-0.6,0.7-0.9c0.3-0.2,0.6-0.4,1-0.6
		c0.4-0.1,0.9-0.2,1.3-0.2c0.6,0,1.1,0.1,1.5,0.2c0.4,0.2,0.8,0.4,1.1,0.8c0.3,0.4,0.5,0.8,0.6,1.4s0.2,1.2,0.2,2.1
		c0,0.2,0,0.4,0,0.7c0,0.3-0.1,0.6-0.2,0.9c-0.1,0.3-0.2,0.6-0.4,0.9c-0.2,0.3-0.4,0.6-0.6,0.8c-0.3,0.2-0.6,0.5-1,0.6
		c-0.4,0.2-0.8,0.2-1.4,0.2c-0.9,0-1.6-0.2-2.1-0.5c-0.5-0.4-0.8-0.9-0.9-1.6h0.9C751.6,111.9,751.8,112.3,752.2,112.6z
		 M754.7,109.9c0.3-0.1,0.6-0.3,0.8-0.5c0.2-0.2,0.4-0.4,0.5-0.7c0.1-0.3,0.2-0.6,0.2-0.9c0-0.3,0-0.6-0.1-0.8s-0.2-0.5-0.4-0.7
		c-0.2-0.2-0.5-0.3-0.8-0.5c-0.3-0.2-0.7-0.2-1.1-0.2c-0.3,0-0.7,0.1-1,0.2c-0.3,0.1-0.5,0.3-0.7,0.5c-0.2,0.2-0.4,0.4-0.5,0.7
		s-0.2,0.5-0.2,0.8c0,0.3,0.1,0.6,0.2,0.9c0.1,0.3,0.3,0.5,0.5,0.7c0.2,0.2,0.4,0.4,0.7,0.5c0.3,0.1,0.6,0.2,1,0.2
		C754,110.1,754.4,110,754.7,109.9z"/>
	<path class="st5" d="M757.6,106.1c0.1-0.2,0.2-0.4,0.4-0.5c0.2-0.2,0.4-0.3,0.6-0.4c0.2-0.1,0.5-0.1,0.8-0.1s0.5,0,0.8,0.1
		c0.2,0.1,0.5,0.2,0.6,0.4c0.2,0.2,0.3,0.3,0.4,0.5c0.1,0.2,0.2,0.4,0.2,0.7c0,0.3-0.1,0.5-0.2,0.7c-0.1,0.2-0.3,0.4-0.4,0.5
		s-0.4,0.3-0.6,0.4c-0.2,0.1-0.5,0.1-0.8,0.1s-0.5,0-0.8-0.1c-0.2-0.1-0.5-0.2-0.6-0.4s-0.3-0.3-0.4-0.5c-0.1-0.2-0.2-0.4-0.2-0.7
		C757.4,106.5,757.5,106.3,757.6,106.1z M758.4,107.7c0.3,0.2,0.6,0.4,1,0.4c0.2,0,0.4,0,0.6-0.1c0.2-0.1,0.3-0.2,0.5-0.3
		s0.2-0.2,0.3-0.4c0.1-0.2,0.1-0.3,0.1-0.5c0-0.2,0-0.3-0.1-0.5c-0.1-0.2-0.2-0.3-0.3-0.4c-0.1-0.1-0.3-0.2-0.5-0.3
		s-0.4-0.1-0.6-0.1c-0.2,0-0.4,0-0.6,0.1c-0.2,0.1-0.3,0.2-0.5,0.3s-0.2,0.2-0.3,0.4c-0.1,0.2-0.1,0.3-0.1,0.5
		C758,107.2,758.1,107.5,758.4,107.7z"/>
	<path class="st5" d="M766.1,105l5.8,7.2l0,0V105h1v8.5h-1.1l-5.8-7.2l0,0v7.2h-1V105H766.1z"/>
	<path class="st5" d="M775.4,113.5c0,0.2,0,0.3-0.1,0.5c-0.1,0.2-0.1,0.3-0.2,0.5c-0.1,0.1-0.2,0.3-0.4,0.4
		c-0.2,0.1-0.3,0.2-0.5,0.2v-0.5c0.1,0,0.2-0.1,0.3-0.2c0.1-0.1,0.2-0.2,0.2-0.3c0.1-0.1,0.1-0.2,0.1-0.3s0-0.2,0-0.3h-0.6v-1.3h1.2
		V113.5z"/>
	<path class="st5" d="M781,106.7c0.3,0,0.6-0.1,0.8-0.2c0.2-0.1,0.4-0.3,0.6-0.5c0.2-0.2,0.3-0.5,0.3-0.9h0.7v8.3h-0.9v-6.2h-2.6
		v-0.5C780.3,106.8,780.6,106.7,781,106.7z"/>
	<path class="st5" d="M785.8,113.5c0-0.4,0.1-0.8,0.3-1.1c0.2-0.3,0.4-0.6,0.6-0.9c0.3-0.3,0.6-0.5,0.9-0.7c0.3-0.2,0.7-0.4,1-0.6
		c0.3-0.2,0.7-0.4,1-0.6c0.3-0.2,0.6-0.4,0.9-0.6c0.3-0.2,0.5-0.5,0.6-0.7c0.1-0.2,0.2-0.5,0.2-0.9c0-0.3-0.1-0.5-0.2-0.7
		c-0.1-0.2-0.3-0.4-0.5-0.5c-0.2-0.1-0.4-0.3-0.7-0.3c-0.3-0.1-0.5-0.1-0.8-0.1c-0.4,0-0.7,0.1-1,0.2c-0.3,0.1-0.5,0.3-0.7,0.5
		c-0.2,0.2-0.3,0.5-0.4,0.7c-0.1,0.3-0.1,0.6-0.1,0.9H786c0-0.4,0-0.8,0.2-1.2s0.3-0.7,0.6-0.9c0.3-0.3,0.6-0.5,1-0.6
		s0.9-0.2,1.4-0.2c0.4,0,0.8,0,1.2,0.1s0.7,0.2,1,0.4c0.3,0.2,0.5,0.4,0.6,0.7c0.2,0.3,0.2,0.6,0.2,1c0,0.3-0.1,0.7-0.2,1
		c-0.1,0.3-0.3,0.5-0.5,0.8c-0.2,0.3-0.5,0.5-0.8,0.7c-0.3,0.2-0.6,0.4-0.9,0.6c-0.2,0.1-0.5,0.3-0.8,0.4c-0.3,0.2-0.6,0.3-0.9,0.5
		c-0.3,0.2-0.6,0.4-0.8,0.6c-0.2,0.2-0.4,0.5-0.4,0.8h5.4v0.7C792.3,113.5,785.8,113.5,785.8,113.5z"/>
	<path class="st5" d="M792.5,113.5c0-0.4,0.1-0.8,0.3-1.1c0.2-0.3,0.4-0.6,0.6-0.9c0.3-0.3,0.6-0.5,0.9-0.7c0.3-0.2,0.7-0.4,1-0.6
		c0.3-0.2,0.7-0.4,1-0.6c0.3-0.2,0.6-0.4,0.9-0.6c0.3-0.2,0.5-0.5,0.6-0.7c0.1-0.2,0.2-0.5,0.2-0.9c0-0.3-0.1-0.5-0.2-0.7
		c-0.1-0.2-0.3-0.4-0.5-0.5c-0.2-0.1-0.4-0.3-0.7-0.3c-0.3-0.1-0.5-0.1-0.8-0.1c-0.4,0-0.7,0.1-1,0.2c-0.3,0.1-0.5,0.3-0.7,0.5
		c-0.2,0.2-0.3,0.5-0.4,0.7c-0.1,0.3-0.1,0.6-0.1,0.9h-0.9c0-0.4,0-0.8,0.2-1.2s0.3-0.7,0.6-0.9c0.3-0.3,0.6-0.5,1-0.6
		s0.9-0.2,1.4-0.2c0.4,0,0.8,0,1.2,0.1s0.7,0.2,1,0.4c0.3,0.2,0.5,0.4,0.6,0.7c0.2,0.3,0.2,0.6,0.2,1c0,0.3-0.1,0.7-0.2,1
		c-0.1,0.3-0.3,0.5-0.5,0.8c-0.2,0.3-0.5,0.5-0.8,0.7c-0.3,0.2-0.6,0.4-0.9,0.6c-0.2,0.1-0.5,0.3-0.8,0.4c-0.3,0.2-0.6,0.3-0.9,0.5
		c-0.3,0.2-0.6,0.4-0.8,0.6c-0.2,0.2-0.4,0.5-0.4,0.8h5.4v0.7C799,113.5,792.5,113.5,792.5,113.5z"/>
	<path class="st5" d="M800.1,112.2h1.2v1.3h-1.2V112.2z"/>
	<path class="st5" d="M806.5,105.2h0.8v5.6h1.5v0.6h-1.5v2.1h-0.8v-2.1H802v-0.7L806.5,105.2z M806.5,106.2L806.5,106.2l-3.7,4.5
		h3.7V106.2z"/>
	<path class="st5" d="M810.7,106.7c0.3,0,0.6-0.1,0.8-0.2c0.2-0.1,0.4-0.3,0.6-0.5c0.2-0.2,0.3-0.5,0.3-0.9h0.7v8.3h-0.9v-6.2h-2.6
		v-0.5C810.1,106.8,810.4,106.7,810.7,106.7z"/>
	<path class="st5" d="M817.3,112.6c0.4,0.3,0.8,0.4,1.4,0.4c0.6,0,1-0.1,1.4-0.4c0.3-0.2,0.6-0.6,0.8-0.9c0.2-0.4,0.3-0.8,0.4-1.2
		s0.1-0.8,0.1-1.2l0,0c-0.2,0.4-0.6,0.7-1.1,1c-0.5,0.3-1,0.4-1.5,0.4s-0.9-0.1-1.3-0.2c-0.4-0.1-0.7-0.3-1-0.6
		c-0.3-0.2-0.5-0.5-0.7-0.9c-0.2-0.3-0.2-0.7-0.2-1.1s0.1-0.8,0.2-1.1c0.2-0.3,0.4-0.6,0.7-0.9c0.3-0.3,0.6-0.4,1-0.6
		c0.4-0.1,0.9-0.2,1.3-0.2c0.6,0,1.1,0.1,1.5,0.2c0.4,0.2,0.8,0.4,1.1,0.8c0.3,0.4,0.5,0.8,0.6,1.4s0.2,1.2,0.2,2.1
		c0,0.2,0,0.4,0,0.7c0,0.3-0.1,0.6-0.2,0.9c-0.1,0.3-0.2,0.6-0.4,0.9c-0.2,0.3-0.4,0.6-0.6,0.8c-0.3,0.2-0.6,0.5-1,0.6
		c-0.4,0.2-0.8,0.2-1.4,0.2c-0.9,0-1.6-0.2-2.1-0.5c-0.5-0.4-0.8-0.9-0.9-1.6h0.9C816.7,111.9,816.9,112.3,817.3,112.6z
		 M819.8,109.9c0.3-0.1,0.6-0.3,0.8-0.5c0.2-0.2,0.4-0.4,0.5-0.7s0.2-0.6,0.2-0.9c0-0.3,0-0.6-0.1-0.8c-0.1-0.3-0.2-0.5-0.4-0.7
		c-0.2-0.2-0.5-0.3-0.8-0.5c-0.3-0.1-0.7-0.2-1.1-0.2c-0.3,0-0.7,0.1-1,0.2c-0.3,0.1-0.5,0.3-0.7,0.5c-0.2,0.2-0.4,0.4-0.5,0.7
		c-0.1,0.3-0.2,0.5-0.2,0.8c0,0.3,0.1,0.6,0.2,0.9c0.1,0.3,0.3,0.5,0.5,0.7c0.2,0.2,0.4,0.4,0.7,0.5c0.3,0.1,0.6,0.2,1,0.2
		C819.2,110.1,819.5,110,819.8,109.9z"/>
	<path class="st5" d="M826.8,105.2h0.8v5.6h1.5v0.6h-1.5v2.1h-0.8v-2.1h-4.5v-0.7L826.8,105.2z M826.7,106.2L826.7,106.2l-3.7,4.5
		h3.7V106.2z"/>
	<path class="st5" d="M829.5,106.1c0.1-0.2,0.2-0.4,0.4-0.5c0.2-0.2,0.4-0.3,0.6-0.4c0.2-0.1,0.5-0.1,0.8-0.1s0.5,0,0.8,0.1
		c0.2,0.1,0.5,0.2,0.6,0.4c0.2,0.2,0.3,0.3,0.4,0.5c0.1,0.2,0.2,0.4,0.2,0.7c0,0.3-0.1,0.5-0.2,0.7c-0.1,0.2-0.3,0.4-0.4,0.5
		c-0.2,0.2-0.4,0.3-0.6,0.4c-0.2,0.1-0.5,0.1-0.8,0.1s-0.5,0-0.8-0.1c-0.2-0.1-0.5-0.2-0.6-0.4c-0.2-0.2-0.3-0.3-0.4-0.5
		c-0.1-0.2-0.2-0.4-0.2-0.7C829.3,106.5,829.4,106.3,829.5,106.1z M830.3,107.7c0.3,0.2,0.6,0.4,1,0.4c0.2,0,0.4,0,0.6-0.1
		c0.2-0.1,0.3-0.2,0.5-0.3c0.1-0.1,0.2-0.2,0.3-0.4c0.1-0.2,0.1-0.3,0.1-0.5c0-0.2,0-0.3-0.1-0.5c-0.1-0.2-0.2-0.3-0.3-0.4
		c-0.1-0.1-0.3-0.2-0.5-0.3s-0.4-0.1-0.6-0.1s-0.4,0-0.6,0.1c-0.2,0.1-0.3,0.2-0.5,0.3c-0.1,0.1-0.2,0.2-0.3,0.4
		c-0.1,0.2-0.1,0.3-0.1,0.5C829.9,107.2,830,107.5,830.3,107.7z"/>
	<path class="st5" d="M836.9,105l2.3,7.4l0,0l2.4-7.4h1.2l2.4,7.4l0,0l2.3-7.4h1l-2.8,8.5h-1l-2.5-7.6l0,0l-2.5,7.6h-1l-2.8-8.5
		H836.9z"/>
</g>
<g>
	<path class="st5" d="M68.4,162.6c0.1,0.3,0.3,0.5,0.5,0.7c0.2,0.2,0.5,0.3,0.8,0.4s0.7,0.2,1.1,0.2c0.3,0,0.6,0,0.9-0.1
		c0.3-0.1,0.6-0.2,0.8-0.4s0.4-0.4,0.6-0.6c0.1-0.2,0.2-0.5,0.2-0.8s-0.1-0.6-0.2-0.8c-0.1-0.2-0.3-0.4-0.5-0.5s-0.5-0.3-0.7-0.3
		c-0.3-0.1-0.6-0.1-0.9-0.1h-0.7v-0.6H71c0.2,0,0.5,0,0.7-0.1c0.2-0.1,0.5-0.2,0.6-0.3c0.2-0.1,0.3-0.3,0.5-0.5
		c0.2-0.2,0.2-0.4,0.2-0.7c0-0.3-0.1-0.5-0.2-0.7c-0.1-0.2-0.3-0.4-0.5-0.5c-0.2-0.1-0.4-0.2-0.7-0.3c-0.3-0.1-0.5-0.1-0.8-0.1
		c-0.4,0-0.7,0.1-1,0.2s-0.5,0.2-0.7,0.4c-0.2,0.2-0.3,0.4-0.4,0.7c-0.1,0.3-0.1,0.5-0.1,0.9h-0.9c0-0.4,0.1-0.8,0.2-1.1
		c0.1-0.3,0.4-0.6,0.6-0.9c0.3-0.2,0.6-0.4,1-0.6c0.4-0.1,0.8-0.2,1.3-0.2c0.4,0,0.8,0,1.1,0.1c0.4,0.1,0.7,0.2,1,0.4
		s0.5,0.4,0.7,0.7c0.2,0.3,0.3,0.6,0.3,1c0,0.5-0.1,0.8-0.4,1.2c-0.3,0.3-0.7,0.6-1.2,0.7l0,0c0.6,0.1,1.1,0.3,1.5,0.7
		c0.3,0.4,0.5,0.8,0.5,1.4c0,0.4-0.1,0.8-0.3,1.1s-0.4,0.6-0.7,0.8s-0.7,0.4-1.1,0.5c-0.4,0.1-0.8,0.2-1.3,0.2s-1-0.1-1.4-0.2
		s-0.8-0.3-1.1-0.5s-0.5-0.5-0.7-0.9c-0.2-0.3-0.2-0.8-0.2-1.2h0.9C68.2,162.1,68.3,162.4,68.4,162.6z"/>
	<path class="st5" d="M80.6,156.1v0.7c-0.3,0.3-0.7,0.6-1.1,1.1c-0.4,0.5-0.8,1-1.3,1.6c-0.5,0.6-0.8,1.3-1.1,2.2
		c-0.3,0.8-0.5,1.7-0.5,2.7h-1c0.1-0.7,0.2-1.4,0.3-2c0.1-0.6,0.4-1.2,0.7-1.8c0.3-0.6,0.7-1.2,1.2-1.8c0.5-0.6,1.1-1.2,1.7-1.9
		h-5.4v-0.7h6.5V156.1z"/>
	<path class="st5" d="M84.2,163.1h1.2v1.3h-1.2V163.1z"/>
	<path class="st5" d="M93.5,156.1v0.7c-0.3,0.3-0.7,0.6-1.1,1.1c-0.4,0.5-0.8,1-1.3,1.6s-0.8,1.3-1.1,2.2c-0.3,0.8-0.5,1.7-0.5,2.7
		h-1c0.1-0.7,0.2-1.4,0.3-2c0.1-0.6,0.4-1.2,0.7-1.8c0.3-0.6,0.7-1.2,1.2-1.8s1.1-1.2,1.7-1.9H87v-0.7L93.5,156.1L93.5,156.1z"/>
	<path class="st5" d="M100.9,156.1v0.7c-0.3,0.3-0.7,0.6-1.1,1.1c-0.4,0.5-0.8,1-1.3,1.6c-0.5,0.6-0.8,1.3-1.1,2.2
		c-0.3,0.8-0.5,1.7-0.5,2.7h-1c0.1-0.7,0.2-1.4,0.3-2c0.2-0.6,0.4-1.2,0.7-1.8c0.3-0.6,0.7-1.2,1.2-1.8c0.5-0.6,1.1-1.2,1.7-1.9
		h-5.4v-0.7h6.5V156.1z"/>
	<path class="st5" d="M105.2,156.1h0.8v5.6h1.5v0.6H106v2.1h-0.8v-2.1h-4.5v-0.7L105.2,156.1z M105.1,157.1L105.1,157.1l-3.7,4.5
		h3.7V157.1z"/>
	<path class="st5" d="M110,163.5c0.4,0.3,0.8,0.4,1.4,0.4c0.6,0,1-0.1,1.4-0.4c0.3-0.2,0.6-0.6,0.8-0.9c0.2-0.3,0.3-0.8,0.4-1.2
		c0.1-0.4,0.1-0.8,0.1-1.2l0,0c-0.2,0.4-0.6,0.7-1.1,1s-1,0.4-1.5,0.4s-0.9-0.1-1.3-0.2c-0.4-0.1-0.7-0.3-1-0.6
		c-0.3-0.2-0.5-0.5-0.7-0.9c-0.2-0.3-0.2-0.7-0.2-1.1c0-0.4,0.1-0.8,0.2-1.1c0.2-0.3,0.4-0.6,0.7-0.9c0.3-0.2,0.6-0.4,1-0.6
		c0.4-0.1,0.9-0.2,1.3-0.2c0.6,0,1.1,0.1,1.5,0.2c0.4,0.2,0.8,0.4,1.1,0.8c0.3,0.4,0.5,0.8,0.6,1.4s0.2,1.2,0.2,2.1
		c0,0.2,0,0.4,0,0.7s-0.1,0.6-0.2,0.9c-0.1,0.3-0.2,0.6-0.4,0.9c-0.2,0.3-0.4,0.6-0.6,0.8c-0.3,0.2-0.6,0.5-1,0.6
		c-0.4,0.2-0.8,0.2-1.4,0.2c-0.9,0-1.6-0.2-2.1-0.5c-0.5-0.4-0.8-0.9-0.9-1.6h0.9C109.4,162.8,109.6,163.2,110,163.5z M112.5,160.8
		c0.3-0.1,0.6-0.3,0.8-0.5s0.4-0.4,0.5-0.7c0.1-0.3,0.2-0.6,0.2-0.9s0-0.6-0.1-0.8c-0.1-0.2-0.2-0.5-0.4-0.7s-0.5-0.3-0.8-0.5
		s-0.7-0.2-1.1-0.2c-0.3,0-0.7,0.1-1,0.2c-0.3,0.1-0.5,0.3-0.7,0.5s-0.4,0.4-0.5,0.7c-0.1,0.3-0.2,0.5-0.2,0.8s0.1,0.6,0.2,0.9
		c0.1,0.3,0.3,0.5,0.5,0.7s0.4,0.4,0.7,0.5c0.3,0.1,0.6,0.2,1,0.2C111.8,161,112.2,160.9,112.5,160.8z"/>
	<path class="st5" d="M115.2,157c0.1-0.2,0.2-0.4,0.4-0.5c0.2-0.2,0.4-0.3,0.6-0.4c0.2-0.1,0.5-0.1,0.8-0.1s0.5,0,0.8,0.1
		c0.2,0.1,0.5,0.2,0.6,0.4c0.2,0.2,0.3,0.3,0.4,0.5c0.1,0.2,0.2,0.4,0.2,0.7s-0.1,0.5-0.2,0.7c-0.1,0.2-0.3,0.4-0.4,0.5
		c-0.1,0.1-0.4,0.3-0.6,0.4c-0.2,0.1-0.5,0.1-0.8,0.1s-0.5,0-0.8-0.1c-0.2-0.1-0.5-0.2-0.6-0.4c-0.1-0.2-0.3-0.3-0.4-0.5
		c-0.1-0.2-0.2-0.4-0.2-0.7S115.1,157.2,115.2,157z M116,158.6c0.3,0.2,0.6,0.4,1,0.4c0.2,0,0.4,0,0.6-0.1c0.2-0.1,0.3-0.2,0.5-0.3
		c0.2-0.1,0.2-0.2,0.3-0.4s0.1-0.3,0.1-0.5c0-0.2,0-0.3-0.1-0.5c-0.1-0.2-0.2-0.3-0.3-0.4s-0.3-0.2-0.5-0.3
		c-0.2-0.1-0.4-0.1-0.6-0.1c-0.2,0-0.4,0-0.6,0.1c-0.2,0.1-0.3,0.2-0.5,0.3c-0.2,0.1-0.2,0.2-0.3,0.4c-0.1,0.2-0.1,0.3-0.1,0.5
		C115.6,158.1,115.7,158.4,116,158.6z"/>
	<path class="st5" d="M121.6,155.9l5.8,7.2l0,0v-7.2h1v8.5h-1.1l-5.8-7.2l0,0v7.2h-1v-8.5H121.6z"/>
</g>
<g>
	<path class="st5" d="M873.9,106.5c0.3,0,0.6-0.1,0.8-0.2s0.4-0.3,0.6-0.5c0.2-0.2,0.3-0.5,0.3-0.9h0.7v8.3h-0.9V107h-2.6v-0.5
		C873.2,106.6,873.5,106.5,873.9,106.5z"/>
	<path class="st5" d="M877,113.3c0-0.4,0.1-0.8,0.3-1.1s0.4-0.6,0.6-0.9c0.3-0.3,0.6-0.5,0.9-0.7c0.3-0.2,0.7-0.4,1-0.6
		c0.3-0.2,0.7-0.4,1-0.6c0.3-0.2,0.6-0.4,0.9-0.6c0.3-0.2,0.5-0.5,0.6-0.7c0.1-0.2,0.2-0.5,0.2-0.9c0-0.3-0.1-0.5-0.2-0.7
		c-0.1-0.2-0.3-0.4-0.5-0.5s-0.4-0.3-0.7-0.3c-0.3-0.1-0.5-0.1-0.8-0.1c-0.4,0-0.7,0.1-1,0.2s-0.5,0.3-0.7,0.5
		c-0.2,0.2-0.3,0.5-0.4,0.7c-0.1,0.3-0.1,0.6-0.1,0.9h-0.9c0-0.4,0-0.8,0.2-1.2s0.3-0.7,0.6-0.9c0.3-0.3,0.6-0.5,1-0.6
		c0.4-0.1,0.9-0.2,1.4-0.2c0.4,0,0.8,0,1.2,0.1c0.4,0.1,0.7,0.2,1,0.4c0.3,0.2,0.5,0.4,0.6,0.7c0.2,0.3,0.2,0.6,0.2,1
		c0,0.3-0.1,0.7-0.2,1c-0.1,0.3-0.3,0.5-0.5,0.8c-0.2,0.3-0.5,0.5-0.8,0.7c-0.3,0.2-0.6,0.4-0.9,0.6c-0.2,0.1-0.5,0.3-0.8,0.4
		c-0.3,0.2-0.6,0.3-0.9,0.5c-0.3,0.2-0.6,0.4-0.8,0.6c-0.2,0.2-0.4,0.5-0.4,0.8h5.4v0.7C883.5,113.3,877,113.3,877,113.3z"/>
	<path class="st5" d="M883.8,113.3c0-0.4,0.1-0.8,0.3-1.1s0.4-0.6,0.6-0.9c0.3-0.3,0.6-0.5,0.9-0.7c0.3-0.2,0.7-0.4,1-0.6
		c0.3-0.2,0.7-0.4,1-0.6c0.3-0.2,0.6-0.4,0.9-0.6c0.3-0.2,0.5-0.5,0.6-0.7c0.1-0.2,0.2-0.5,0.2-0.9c0-0.3-0.1-0.5-0.2-0.7
		c-0.1-0.2-0.3-0.4-0.5-0.5s-0.4-0.3-0.7-0.3c-0.3-0.1-0.5-0.1-0.8-0.1c-0.4,0-0.7,0.1-1,0.2s-0.5,0.3-0.7,0.5
		c-0.2,0.2-0.3,0.5-0.4,0.7c-0.1,0.3-0.1,0.6-0.1,0.9H884c0-0.4,0-0.8,0.2-1.2s0.3-0.7,0.6-0.9c0.3-0.3,0.6-0.5,1-0.6
		c0.4-0.1,0.9-0.2,1.4-0.2c0.4,0,0.8,0,1.2,0.1c0.4,0.1,0.7,0.2,1,0.4c0.3,0.2,0.5,0.4,0.6,0.7c0.2,0.3,0.2,0.6,0.2,1
		c0,0.3-0.1,0.7-0.2,1c-0.1,0.3-0.3,0.5-0.5,0.8c-0.2,0.3-0.5,0.5-0.8,0.7c-0.3,0.2-0.6,0.4-0.9,0.6c-0.2,0.1-0.5,0.3-0.8,0.4
		c-0.3,0.2-0.6,0.3-0.9,0.5c-0.3,0.2-0.6,0.4-0.8,0.6c-0.2,0.2-0.4,0.5-0.4,0.8h5.4v0.7C890.3,113.3,883.8,113.3,883.8,113.3z"/>
	<path class="st5" d="M894.1,112h1.2v1.3h-1.2V112z"/>
	<path class="st5" d="M900.6,105h0.8v5.6h1.5v0.6h-1.5v2.1h-0.8v-2.1h-4.5v-0.7L900.6,105z M900.6,106L900.6,106l-3.7,4.5h3.7V106z"
		/>
	<path class="st5" d="M903.5,106.5c0.3,0,0.6-0.1,0.8-0.2s0.4-0.3,0.6-0.5c0.2-0.2,0.3-0.5,0.3-0.9h0.7v8.3H905V107h-2.6v-0.5
		C902.9,106.6,903.2,106.5,903.5,106.5z"/>
	<path class="st5" d="M909.3,112.4c0.4,0.3,0.8,0.4,1.4,0.4c0.6,0,1-0.1,1.4-0.4c0.3-0.2,0.6-0.6,0.8-0.9c0.2-0.4,0.3-0.8,0.4-1.2
		s0.1-0.8,0.1-1.2l0,0c-0.2,0.4-0.6,0.7-1.1,1c-0.5,0.3-1,0.4-1.5,0.4s-0.9-0.1-1.3-0.2c-0.4-0.1-0.7-0.3-1-0.6
		c-0.3-0.2-0.5-0.5-0.7-0.9c-0.2-0.3-0.2-0.7-0.2-1.1c0-0.4,0.1-0.8,0.2-1.1c0.2-0.3,0.4-0.6,0.7-0.9c0.3-0.3,0.6-0.4,1-0.6
		c0.4-0.1,0.9-0.2,1.3-0.2c0.6,0,1.1,0.1,1.5,0.2c0.4,0.2,0.8,0.4,1.1,0.8s0.5,0.8,0.6,1.4c0.1,0.6,0.2,1.2,0.2,2.1
		c0,0.2,0,0.4,0,0.7c0,0.3-0.1,0.6-0.2,0.9c-0.1,0.3-0.2,0.6-0.4,0.9c-0.2,0.3-0.4,0.6-0.6,0.8c-0.3,0.2-0.6,0.5-1,0.6
		c-0.4,0.2-0.8,0.2-1.4,0.2c-0.9,0-1.6-0.2-2.1-0.5c-0.5-0.4-0.8-0.9-0.9-1.6h0.9C908.7,111.7,908.9,112.1,909.3,112.4z
		 M911.8,109.7c0.3-0.1,0.6-0.3,0.8-0.5c0.2-0.2,0.4-0.4,0.5-0.7c0.1-0.3,0.2-0.6,0.2-0.9c0-0.3,0-0.6-0.1-0.8
		c-0.1-0.3-0.2-0.5-0.4-0.7c-0.2-0.2-0.5-0.3-0.8-0.5c-0.3-0.1-0.7-0.2-1.1-0.2c-0.3,0-0.7,0.1-1,0.2s-0.5,0.3-0.7,0.5
		c-0.2,0.2-0.4,0.4-0.5,0.7c-0.1,0.3-0.2,0.5-0.2,0.8c0,0.3,0.1,0.6,0.2,0.9c0.1,0.3,0.3,0.5,0.5,0.7c0.2,0.2,0.4,0.4,0.7,0.5
		s0.6,0.2,1,0.2C911.2,109.9,911.5,109.8,911.8,109.7z"/>
	<path class="st5" d="M919.7,105h0.8v5.6h1.5v0.6h-1.5v2.1h-0.8v-2.1h-4.5v-0.7L919.7,105z M919.6,106L919.6,106l-3.7,4.5h3.7V106z"
		/>
	<path class="st5" d="M922.6,105.9c0.1-0.2,0.2-0.4,0.4-0.5c0.2-0.2,0.4-0.3,0.6-0.4c0.2-0.1,0.5-0.1,0.8-0.1s0.5,0,0.8,0.1
		c0.2,0.1,0.5,0.2,0.6,0.4c0.2,0.2,0.3,0.3,0.4,0.5c0.1,0.2,0.2,0.4,0.2,0.7s-0.1,0.5-0.2,0.7c-0.1,0.2-0.3,0.4-0.4,0.5
		c-0.2,0.2-0.4,0.3-0.6,0.4c-0.2,0.1-0.5,0.1-0.8,0.1s-0.5,0-0.8-0.1c-0.2-0.1-0.5-0.2-0.6-0.4c-0.2-0.2-0.3-0.3-0.4-0.5
		c-0.1-0.2-0.2-0.4-0.2-0.7S922.5,106.1,922.6,105.9z M923.4,107.5c0.3,0.2,0.6,0.4,1,0.4c0.2,0,0.4,0,0.6-0.1
		c0.2-0.1,0.3-0.2,0.5-0.3c0.1-0.1,0.2-0.2,0.3-0.4c0.1-0.2,0.1-0.3,0.1-0.5c0-0.2,0-0.3-0.1-0.5c-0.1-0.2-0.2-0.3-0.3-0.4
		s-0.3-0.2-0.5-0.3c-0.2-0.1-0.4-0.1-0.6-0.1s-0.4,0-0.6,0.1c-0.2,0.1-0.3,0.2-0.5,0.3c-0.1,0.1-0.2,0.2-0.3,0.4s-0.1,0.3-0.1,0.5
		C923,107,923.1,107.3,923.4,107.5z"/>
	<path class="st5" d="M928.8,104.8l2.3,7.4l0,0l2.4-7.4h1.2l2.4,7.4l0,0l2.3-7.4h1l-2.8,8.5h-1l-2.5-7.6l0,0l-2.5,7.6h-1l-2.8-8.5
		H928.8z"/>
</g>
</svg>
