<?xml version="1.0" encoding="utf-8"?>
<!-- Generator: Adobe Illustrator 24.1.0, SVG Export Plug-In . SVG Version: 6.00 Build 0)  -->
<svg version="1.1" id="Layer_1" xmlns="http://www.w3.org/2000/svg" xmlns:xlink="http://www.w3.org/1999/xlink" x="0px" y="0px"
	 viewBox="0 0 659 957" enable-background="new 0 0 659 957" xml:space="preserve">
<rect display="none" fill="#1CD3C6" width="1500" height="2000"/>
<g>
	<path fill="#282728" d="M403.4,765.5c-2.5,20.2,5.1,41.9,12.8,63.2c7,19.3,15.9,38.5,28.3,54.9c11.4,15,26.6,26.3,45.3,30
		c16.7,3.3,35.3-1.3,46.9-14.4c14-15.8,15.8-38.1,14.8-58.2c-0.9-20.1-5.8-39.6-14.3-57.7c-7.9-16.8-19.2-32-32.6-44.7
		c-6.7-6.4-14-12.1-21.8-17.1c-8.2-5.2-17.2-10.9-27.3-10.3c-6.3,0.4-12.9,4.2-18.2,7.3c-5.7,3.4-11,7.5-15.8,12.1
		C410.2,741.4,404.9,753.2,403.4,765.5z"/>
	<path fill="#282728" d="M178.2,707.2c-17.4,13.7-28.1,36.6-38.3,59.2c-9.3,20.5-17.1,42.5-20,65c-2.7,20.6,0.5,41.5,12.1,59.1
		c10.4,15.7,28.2,26.9,47.2,25.8c22.9-1.3,41.2-17.2,55.8-33.5c14.6-16.4,25.8-35.4,32.9-56.2c6.7-19.3,9.6-40,8.9-60.5
		c-0.3-10.3-1.6-20.4-3.8-30.5c-2.3-10.5-5-22.1-13.2-29.5c-5.2-4.7-13.1-6.9-19.6-8.7c-7-1.9-14.2-2.9-21.4-3.1
		C201.8,693.9,188.8,698.9,178.2,707.2z"/>
	<circle fill="#FFFFFF" cx="345.2" cy="626.8" r="178.5"/>
	<path fill="#282728" d="M519.6,663.4c0.9-1.2,1.6-2.6,2.3-4c5.2-11,5.6-24.8,6.5-36.8c1.9-25.4,0.6-51.6-8.4-74.9
		c-8.9-23.2-25.9-40.5-43.5-55c-9.5-7.8-19.5-15-30.2-20.5c-11.2-5.8-23.5-8.5-35.7-10c-26.2-3.4-53-3.7-79.5-3.2
		c-43.8,0.8-93.5,6.1-127.2,43c-21.8,23.8-36.2,56.2-40.6,89.8c-3.1,23.8-3.9,52.4,8.1,71.7H519.6z"/>
	<path fill="#282728" d="M180.5,83.9c-3.6-3.7-7.5-7-11.6-10.2C131.8,45.5,90.1,49,65.5,84.3C42.4,117.3,48.1,159,81,188.7
		c-1.1,2.2-0.2,5.6,3.1,5.9c9.5,0.9,16.2-5,22.8-10.5c8.1-6.8,16.1-13.9,23.8-21.2c15.4-14.5,30-29.8,43.6-46
		c3.3-3.9,6.5-7.9,9.7-11.9c2.4-3,6.3-6.5,4.6-11C187.1,90.1,183.3,86.9,180.5,83.9z"/>
	<path fill="#282728" d="M478.1,97.7c-1.7,4.5,2.2,8,4.6,11c3.2,4,6.4,8,9.7,11.9c13.6,16.2,28.2,31.6,43.6,46
		c7.7,7.3,15.7,14.4,23.8,21.2c6.5,5.5,13.3,11.3,22.8,10.5c3.3-0.3,4.2-3.7,3.1-5.9c33-29.7,38.6-71.4,15.5-104.4
		c-24.6-35.2-66.3-38.8-103.4-10.5c-4.1,3.1-8,6.5-11.6,10.2C483.4,90.5,479.6,93.8,478.1,97.7z"/>
	<path fill="#FFFFFF" d="M592.2,163c-17.1-24.7-37.7-48-62.9-65.6C388.2-1.1,80.4,50.5,45.7,256.1c-6.9,41.2-2.2,84.2,15.1,122.4
		C111,489.3,232.5,518.7,349.7,513.7c113.3-4.9,231.5-43.3,272.9-154C648.3,290.8,632,220.4,592.2,163z"/>
	<path fill="#F9AFAF" d="M227.5,372.6c-0.1,12.7-5.4,25.4-15.9,34.3c-20.8,17.7-55.3,16.2-74.9-2.5c-44.2-42.3,23.9-104.1,72.3-68.6
		C221.4,344.9,227.5,358.7,227.5,372.6z"/>
	<path fill="#F9AFAF" d="M574,359.9c-0.1,12.5-5.4,25-15.9,33.9c-20.8,17.5-55.3,16-74.9-2.5c-44.2-41.7,23.9-102.8,72.3-67.7
		C567.9,332.6,574.1,346.3,574,359.9z"/>
	<path fill="#282728" d="M271.8,210.1c-14.1-9.4-32.7-13.4-49.1-14.1c-48.9-2-102.1,30.6-108.7,81.2c-2.9,22,5.9,44.3,22.4,59.2
		c17.2,15.6,42.4,20,64.5,13.9c23.4-6.4,37.1-26.3,54.6-41.3c8.7-7.4,18.7-13,26.7-21.2c16.2-16.5,16.8-43.4,4.9-62.5
		C283.2,219.3,277.9,214.2,271.8,210.1z"/>
	<path fill="#282728" d="M383,233.1c-10.2,19.7-7.4,46.1,9.9,61c8.6,7.4,18.9,12.1,28,18.7c18.4,13.3,33.5,31.7,57,36.1
		c22.3,4.2,46.6-2.2,62.2-18.9c15-16,21.8-38.6,17.1-60c-10.7-49.2-65.6-77-113.5-71.1c-16,2-33.9,7.4-47,17.8
		C391.1,221.2,386.4,226.6,383,233.1z"/>
	<path fill="#282728" d="M351.8,303.4c-5.3-5.2-13.4-6.9-20.9-6.7c-8.1-1-16.3-0.6-23.5,4.1c-8.8,5.7-11.1,15.7-6.9,24.9
		c4.5,9.8,16.3,13.4,26.2,14.3c10.6,0.9,21.2-2.9,27.4-11.6C359.6,320.5,358.6,309.9,351.8,303.4z"/>
	<path fill="#282728" d="M333,329.9c-0.2-5.7-9.2-5.7-8.9,0c0.2,5,0.2,10-0.1,15c-0.2,5.2-0.4,10.9-2.6,15.7
		c-1.6,3.3-5.4,6.3-9.1,4.4c-3.3-1.7-4.8-6.7-5.9-9.9c-1.8-5.4-10.5-3.1-8.6,2.3c1.8,5.3,4.2,11.3,9.2,14.6
		c5.3,3.5,11.8,2.9,16.8-0.8c5.7-4.2,7.8-11,8.5-17.7C333.1,345.8,333.3,337.8,333,329.9z"/>
	<path fill="#282728" d="M360.9,352.7c-3.2-4.7-11-0.2-7.7,4.5c6.1,8.7-5.1,18.3-12.7,10.7c-3.2-3.1-4-8.5-4.8-12.6
		c-1.2-6-2.2-12-3.4-18c-1-5.6-9.7-3.2-8.6,2.3c1.5,8.2,2.5,16.8,5,24.8c2.1,6.9,6.7,12.8,14.1,14.7
		C358.1,383,369.6,365.2,360.9,352.7z"/>
	<path fill="#282728" d="M225.3,504.2c-5.1-21.6-21.3-40.9-37.5-59.7c-14.7-17.1-31.3-33.4-50.5-45.6c-17.6-11.1-37.8-17.1-58.6-14
		c-18.6,2.8-36.2,14.2-43.3,31.9c-8.5,21.3-1.8,44.6,6.8,64.7c8.7,20.1,21.2,38.3,37,53.6c14.7,14.2,32.2,25.6,51.1,33.6
		c9.4,4,19.2,7.2,29.2,9.4c10.5,2.3,22.1,4.8,32.3,0.5c6.4-2.7,11.8-9,16.1-14.1c4.7-5.6,8.6-11.7,11.8-18.1
		C227.4,531.3,228.4,517.3,225.3,504.2z"/>
	<path fill="#282728" d="M527.9,569.7c17.5-10.4,30-29.7,42.1-48.8c10.9-17.4,20.7-36.1,26-56c4.9-18.2,4.5-37.2-4.1-54.2
		c-7.7-15.2-22.6-27.1-40.2-28.2c-21.1-1.4-39.8,10.9-55,23.9c-15.3,13-27.8,28.9-36.8,46.7c-8.4,16.6-13.5,34.7-15.3,53.1
		c-0.9,9.2-0.9,18.5-0.1,27.7c0.9,9.6,2,20.3,8.6,27.9c4.2,4.8,11.2,7.6,16.9,9.9c6.2,2.5,12.7,4.1,19.3,5.1
		C504.7,579,517.2,576,527.9,569.7z"/>
	<path fill="#FFFFFF" d="M177.2,290.8c-1-14.8,7.7-28.5,21.7-34c14.4-5.7,32.3,2,39.7,14.8c3.1,5.3,11.6,1,8.5-4.4
		c-9.7-16.6-30.4-25.3-49.2-20.1c-18.5,5.2-31.7,24.3-30.4,43.1C168,296.2,177.6,296.9,177.2,290.8z"/>
	<path fill="#FFFFFF" d="M434.1,271.6c9.3-16,29.2-22.5,46.2-14.3c15.7,7.6,25.4,27.3,18.6,43.7c-2.3,5.6,6.8,8.1,9.1,2.6
		c8.7-20.8-4.4-45.5-24-54.9c-21-10.1-46.5-1.8-58,18C423,271.9,431.1,276.8,434.1,271.6z"/>
</g>
</svg>
