<?xml version="1.0" encoding="utf-8"?>
<!-- Generator: Adobe Illustrator 24.1.0, SVG Export Plug-In . SVG Version: 6.00 Build 0)  -->
<svg version="1.1" id="Layer_1" xmlns="http://www.w3.org/2000/svg" xmlns:xlink="http://www.w3.org/1999/xlink" x="0px" y="0px"
	 viewBox="0 0 103.5 157.9" enable-background="new 0 0 103.5 157.9" xml:space="preserve">
<rect display="none" fill="#1CD3C6" width="1500" height="2000"/>
<g>
	<path fill="#282728" d="M62.2,128.5c-0.4,3.4,0.8,7,2.1,10.5c1.1,3.2,2.6,6.4,4.6,9.2c1.8,2.5,4.3,4.4,7.3,5
		c2.7,0.5,5.7-0.2,7.6-2.4c2.3-2.6,2.5-6.4,2.4-9.7c-0.2-3.3-0.9-6.6-2.3-9.6c-1.3-2.8-3.1-5.3-5.2-7.5c-1.1-1.1-2.3-2-3.5-2.8
		c-1.3-0.9-2.8-1.8-4.4-1.7c-1,0.1-2.1,0.7-2.9,1.2c-0.9,0.6-1.8,1.2-2.5,2C63.3,124.4,62.5,126.4,62.2,128.5z"/>
	<path fill="#282728" d="M26,118.7c-2.8,2.3-4.5,6.1-6.2,9.9c-1.5,3.4-2.8,7.1-3.2,10.8c-0.4,3.4,0.1,6.9,1.9,9.9
		c1.7,2.6,4.5,4.5,7.6,4.3c3.7-0.2,6.6-2.9,9-5.6c2.3-2.7,4.1-5.9,5.3-9.4c1.1-3.2,1.5-6.7,1.4-10.1c-0.1-1.7-0.3-3.4-0.6-5.1
		c-0.4-1.8-0.8-3.7-2.1-4.9c-0.8-0.8-2.1-1.2-3.2-1.4c-1.1-0.3-2.3-0.5-3.5-0.5C29.8,116.5,27.7,117.3,26,118.7z"/>
	<ellipse fill="#FFFFFF" cx="52.8" cy="105.3" rx="28.7" ry="29.8"/>
	<path fill="#282728" d="M80.9,111.4c0.1-0.2,0.3-0.4,0.4-0.7c0.8-1.8,0.9-4.1,1-6.1c0.3-4.2,0.1-8.6-1.3-12.5
		c-1.4-3.9-4.2-6.8-7-9.2c-1.5-1.3-3.1-2.5-4.9-3.4c-1.8-1-3.8-1.4-5.7-1.7c-4.2-0.6-8.5-0.6-12.8-0.5c-7.1,0.1-15,1-20.5,7.2
		c-3.5,4-5.8,9.4-6.5,15c-0.5,4-0.6,8.7,1.3,12H80.9z"/>
	<path fill="#282728" d="M26.3,14.7c-0.6-0.6-1.2-1.2-1.9-1.7c-6-4.7-12.7-4.1-16.6,1.7C4.1,20.3,5,27.3,10.3,32.2
		c-0.2,0.4,0,0.9,0.5,1c1.5,0.1,2.6-0.8,3.7-1.7c1.3-1.1,2.6-2.3,3.8-3.5c2.5-2.4,4.8-5,7-7.7c0.5-0.7,1-1.3,1.6-2
		c0.4-0.5,1-1.1,0.7-1.8C27.4,15.8,26.8,15.2,26.3,14.7z"/>
	<path fill="#282728" d="M74.2,17c-0.3,0.8,0.4,1.3,0.7,1.8c0.5,0.7,1,1.3,1.6,2c2.2,2.7,4.5,5.3,7,7.7c1.2,1.2,2.5,2.4,3.8,3.5
		c1.1,0.9,2.1,1.9,3.7,1.7c0.5,0,0.7-0.6,0.5-1c5.3-5,6.2-11.9,2.5-17.4c-4-5.9-10.7-6.5-16.6-1.7c-0.7,0.5-1.3,1.1-1.9,1.7
		C75.1,15.8,74.5,16.4,74.2,17z"/>
	<path fill="#FFFFFF" d="M92.6,27.9c-2.8-4.1-6.1-8-10.1-11C59.8,0.5,10.2,9.1,4.6,43.5c-1.1,6.9-0.4,14.1,2.4,20.4
		c8.1,18.5,27.6,23.4,46.5,22.5c18.2-0.8,37.3-7.2,43.9-25.7C101.6,49.2,99,37.5,92.6,27.9z"/>
	<path fill="#F9AFAF" d="M33.9,62.9c0,2.1-0.9,4.2-2.6,5.7c-3.4,3-8.9,2.7-12.1-0.4c-7.1-7.1,3.8-17.4,11.6-11.4
		C32.9,58.3,33.9,60.6,33.9,62.9z"/>
	<path fill="#F9AFAF" d="M89.7,60.8c0,2.1-0.9,4.2-2.6,5.7c-3.4,2.9-8.9,2.7-12.1-0.4c-7.1-7,3.8-17.2,11.6-11.3
		C88.7,56.2,89.7,58.5,89.7,60.8z"/>
	<path fill="#282728" d="M41,35.8c-2.3-1.6-5.3-2.2-7.9-2.3c-7.9-0.3-16.4,5.1-17.5,13.6c-0.5,3.7,0.9,7.4,3.6,9.9
		c2.8,2.6,6.8,3.3,10.4,2.3c3.8-1.1,6-4.4,8.8-6.9c1.4-1.2,3-2.2,4.3-3.5c2.6-2.8,2.7-7.2,0.8-10.4C42.9,37.3,42,36.5,41,35.8z"/>
	<path fill="#282728" d="M58.9,39.6c-1.6,3.3-1.2,7.7,1.6,10.2c1.4,1.2,3,2,4.5,3.1c3,2.2,5.4,5.3,9.2,6c3.6,0.7,7.5-0.4,10-3.2
		c2.4-2.7,3.5-6.4,2.8-10c-1.7-8.2-10.6-12.8-18.3-11.9c-2.6,0.3-5.5,1.2-7.6,3C60.2,37.6,59.5,38.5,58.9,39.6z"/>
	<path fill="#282728" d="M53.9,51.3c-0.9-0.9-2.2-1.2-3.4-1.1c-1.3-0.2-2.6-0.1-3.8,0.7c-1.4,1-1.8,2.6-1.1,4.2
		c0.7,1.6,2.6,2.2,4.2,2.4c1.7,0.2,3.4-0.5,4.4-1.9C55.2,54.2,55,52.4,53.9,51.3z"/>
	<path fill="#282728" d="M50.9,55.8c0-0.9-1.5-1-1.4,0c0,0.8,0,1.7,0,2.5c0,0.9-0.1,1.8-0.4,2.6c-0.3,0.6-0.9,1.1-1.5,0.7
		c-0.5-0.3-0.8-1.1-0.9-1.7c-0.3-0.9-1.7-0.5-1.4,0.4c0.3,0.9,0.7,1.9,1.5,2.4c0.9,0.6,1.9,0.5,2.7-0.1c0.9-0.7,1.2-1.8,1.4-3
		C50.9,58.4,50.9,57.1,50.9,55.8z"/>
	<path fill="#282728" d="M55.4,59.6c-0.5-0.8-1.8,0-1.2,0.7c1,1.5-0.8,3-2,1.8c-0.5-0.5-0.6-1.4-0.8-2.1c-0.2-1-0.4-2-0.5-3
		c-0.2-0.9-1.6-0.5-1.4,0.4c0.2,1.4,0.4,2.8,0.8,4.1c0.3,1.2,1.1,2.1,2.3,2.5C54.9,64.6,56.8,61.7,55.4,59.6z"/>
	<path fill="#282728" d="M33.5,84.9c-0.8-3.6-3.4-6.8-6-10c-2.4-2.8-5-5.6-8.1-7.6c-2.8-1.9-6.1-2.9-9.4-2.3c-3,0.5-5.8,2.4-7,5.3
		c-1.4,3.5-0.3,7.4,1.1,10.8c1.4,3.4,3.4,6.4,6,8.9c2.4,2.4,5.2,4.3,8.2,5.6c1.5,0.7,3.1,1.2,4.7,1.6c1.7,0.4,3.6,0.8,5.2,0.1
		c1-0.4,1.9-1.5,2.6-2.4c0.8-0.9,1.4-1.9,1.9-3C33.9,89.4,34,87.1,33.5,84.9z"/>
	<path fill="#282728" d="M82.2,95.8c2.8-1.7,4.8-5,6.8-8.1c1.8-2.9,3.3-6,4.2-9.3c0.8-3,0.7-6.2-0.7-9c-1.2-2.5-3.6-4.5-6.5-4.7
		c-3.4-0.2-6.4,1.8-8.9,4c-2.5,2.2-4.5,4.8-5.9,7.8c-1.3,2.8-2.2,5.8-2.5,8.9c-0.1,1.5-0.2,3.1,0,4.6c0.1,1.6,0.3,3.4,1.4,4.6
		c0.7,0.8,1.8,1.3,2.7,1.6c1,0.4,2,0.7,3.1,0.8C78.5,97.3,80.5,96.8,82.2,95.8z"/>
	<path fill="#FFFFFF" d="M25.8,49.2c-0.2-2.5,1.2-4.7,3.5-5.7c2.3-1,5.2,0.3,6.4,2.5c0.5,0.9,1.9,0.2,1.4-0.7
		c-1.6-2.8-4.9-4.2-7.9-3.4c-3,0.9-5.1,4-4.9,7.2C24.3,50.2,25.9,50.3,25.8,49.2z"/>
	<path fill="#FFFFFF" d="M67.2,46c1.5-2.7,4.7-3.8,7.4-2.4c2.5,1.3,4.1,4.6,3,7.3c-0.4,0.9,1.1,1.4,1.5,0.4c1.4-3.5-0.7-7.6-3.9-9.2
		c-3.4-1.7-7.5-0.3-9.3,3C65.4,46.1,66.7,46.9,67.2,46z"/>
</g>
</svg>
