<?xml version="1.0" encoding="utf-8"?>
<!-- Generator: Adobe Illustrator 24.1.0, SVG Export Plug-In . SVG Version: 6.00 Build 0)  -->
<svg version="1.1" id="Layer_1" xmlns="http://www.w3.org/2000/svg" xmlns:xlink="http://www.w3.org/1999/xlink" x="0px" y="0px"
	 viewBox="0 0 59.4 80.8" enable-background="new 0 0 59.4 80.8" xml:space="preserve">
<rect y="-4.4" display="none" fill="#1CD3C6" width="1500" height="2000"/>
<g>
	<path fill="#282728" d="M33.9,67.5c-0.2,1.8,0.4,3.7,1.1,5.6c0.6,1.7,1.3,3.4,2.4,4.8c1,1.3,2.3,2.3,3.8,2.6c1.4,0.3,3-0.1,4-1.3
		c1.2-1.4,1.3-3.4,1.3-5.1c-0.1-1.8-0.5-3.5-1.2-5.1c-0.7-1.5-1.6-2.8-2.8-3.9c-0.6-0.6-1.2-1.1-1.9-1.5c-0.7-0.5-1.5-1-2.3-0.9
		c-0.5,0-1.1,0.4-1.5,0.6c-0.5,0.3-0.9,0.7-1.3,1.1C34.5,65.4,34,66.4,33.9,67.5z"/>
	<path fill="#282728" d="M14.8,62.4c-1.5,1.2-2.4,3.2-3.2,5.2c-0.8,1.8-1.5,3.7-1.7,5.7c-0.2,1.8,0,3.7,1,5.2c0.9,1.4,2.4,2.4,4,2.3
		c1.9-0.1,3.5-1.5,4.7-2.9c1.2-1.4,2.2-3.1,2.8-4.9c0.6-1.7,0.8-3.5,0.8-5.3c0-0.9-0.1-1.8-0.3-2.7c-0.2-0.9-0.4-1.9-1.1-2.6
		c-0.4-0.4-1.1-0.6-1.7-0.8c-0.6-0.2-1.2-0.3-1.8-0.3C16.8,61.2,15.7,61.6,14.8,62.4z"/>
	<ellipse fill="#FFFFFF" cx="29" cy="55.3" rx="15.1" ry="15.7"/>
	<path fill="#282728" d="M43.8,58.5c0.1-0.1,0.1-0.2,0.2-0.4c0.4-1,0.5-2.2,0.6-3.2c0.2-2.2,0-4.5-0.7-6.6c-0.8-2-2.2-3.6-3.7-4.8
		c-0.8-0.7-1.7-1.3-2.6-1.8c-1-0.5-2-0.7-3-0.9c-2.2-0.3-4.5-0.3-6.7-0.3c-3.7,0.1-7.9,0.5-10.8,3.8c-1.9,2.1-3.1,4.9-3.4,7.9
		c-0.3,2.1-0.3,4.6,0.7,6.3H43.8z"/>
	<path fill="#282728" d="M15,7.6c-0.3-0.3-0.6-0.6-1-0.9c-3.1-2.5-6.7-2.2-8.8,0.9c-2,2.9-1.5,6.6,1.3,9.2c-0.1,0.2,0,0.5,0.3,0.5
		c0.8,0.1,1.4-0.4,1.9-0.9c0.7-0.6,1.4-1.2,2-1.9c1.3-1.3,2.5-2.6,3.7-4.1c0.3-0.3,0.6-0.7,0.8-1c0.2-0.3,0.5-0.6,0.4-1
		C15.5,8.1,15.2,7.8,15,7.6z"/>
	<path fill="#282728" d="M40.2,8.8c-0.1,0.4,0.2,0.7,0.4,1c0.3,0.4,0.5,0.7,0.8,1c1.2,1.4,2.4,2.8,3.7,4.1c0.7,0.6,1.3,1.3,2,1.9
		c0.6,0.5,1.1,1,1.9,0.9c0.3,0,0.4-0.3,0.3-0.5c2.8-2.6,3.3-6.3,1.3-9.2c-2.1-3.1-5.6-3.4-8.8-0.9c-0.3,0.3-0.7,0.6-1,0.9
		C40.7,8.1,40.4,8.4,40.2,8.8z"/>
	<path fill="#FFFFFF" d="M49.9,14.5c-1.5-2.2-3.2-4.2-5.3-5.8c-12-8.7-38.1-4.1-41,14C3,26.3,3.4,30.1,4.8,33.5
		c4.3,9.7,14.6,12.3,24.5,11.9C39,44.9,49,41.5,52.5,31.8C54.7,25.7,53.3,19.6,49.9,14.5z"/>
	<path fill="#F9AFAF" d="M19,32.9c0,1.1-0.5,2.2-1.4,3c-1.8,1.6-4.7,1.4-6.4-0.2c-3.8-3.7,2-9.2,6.1-6C18.4,30.5,19,31.7,19,32.9z"
		/>
	<path fill="#F9AFAF" d="M48.4,31.8c0,1.1-0.5,2.2-1.4,3c-1.8,1.5-4.7,1.4-6.4-0.2c-3.8-3.7,2-9,6.1-6
		C47.9,29.4,48.4,30.6,48.4,31.8z"/>
	<path fill="#282728" d="M22.7,18.7c-1.2-0.8-2.8-1.2-4.2-1.2c-4.2-0.2-8.7,2.7-9.2,7.1c-0.2,1.9,0.5,3.9,1.9,5.2
		c1.5,1.4,3.6,1.8,5.5,1.2c2-0.6,3.1-2.3,4.6-3.6c0.7-0.7,1.6-1.1,2.3-1.9C25,24,25,21.7,24,20C23.7,19.5,23.2,19,22.7,18.7z"/>
	<path fill="#282728" d="M32.2,20.7c-0.9,1.7-0.6,4.1,0.8,5.4c0.7,0.6,1.6,1.1,2.4,1.6c1.6,1.2,2.8,2.8,4.8,3.2
		c1.9,0.4,4-0.2,5.3-1.7c1.3-1.4,1.8-3.4,1.5-5.3c-0.9-4.3-5.6-6.8-9.6-6.3c-1.4,0.2-2.9,0.6-4,1.6C32.9,19.6,32.4,20.1,32.2,20.7z"
		/>
	<path fill="#282728" d="M29.5,26.9c-0.5-0.5-1.1-0.6-1.8-0.6c-0.7-0.1-1.4-0.1-2,0.4c-0.7,0.5-0.9,1.4-0.6,2.2
		c0.4,0.9,1.4,1.2,2.2,1.3c0.9,0.1,1.8-0.3,2.3-1C30.2,28.4,30.1,27.4,29.5,26.9z"/>
	<path fill="#282728" d="M27.9,29.2c0-0.5-0.8-0.5-0.8,0c0,0.4,0,0.9,0,1.3c0,0.5,0,1-0.2,1.4c-0.1,0.3-0.5,0.6-0.8,0.4
		c-0.3-0.2-0.4-0.6-0.5-0.9c-0.2-0.5-0.9-0.3-0.7,0.2c0.2,0.5,0.4,1,0.8,1.3c0.5,0.3,1,0.3,1.4-0.1c0.5-0.4,0.7-1,0.7-1.6
		C27.9,30.6,27.9,29.9,27.9,29.2z"/>
	<path fill="#282728" d="M30.3,31.2c-0.3-0.4-0.9,0-0.7,0.4c0.5,0.8-0.4,1.6-1.1,0.9c-0.3-0.3-0.3-0.7-0.4-1.1
		c-0.1-0.5-0.2-1.1-0.3-1.6c-0.1-0.5-0.8-0.3-0.7,0.2c0.1,0.7,0.2,1.5,0.4,2.2c0.2,0.6,0.6,1.1,1.2,1.3C30.1,33.9,31,32.3,30.3,31.2
		z"/>
	<path fill="#282728" d="M18.8,44.5c-0.4-1.9-1.8-3.6-3.2-5.3c-1.2-1.5-2.7-2.9-4.3-4c-1.5-1-3.2-1.5-5-1.2
		c-1.6,0.2-3.1,1.3-3.7,2.8c-0.7,1.9-0.2,3.9,0.6,5.7C4,44.3,5,45.9,6.4,47.2c1.2,1.2,2.7,2.3,4.3,3c0.8,0.4,1.6,0.6,2.5,0.8
		c0.9,0.2,1.9,0.4,2.7,0c0.5-0.2,1-0.8,1.4-1.2c0.4-0.5,0.7-1,1-1.6C19,46.9,19,45.7,18.8,44.5z"/>
	<path fill="#282728" d="M44.5,50.3c1.5-0.9,2.5-2.6,3.6-4.3c0.9-1.5,1.8-3.2,2.2-4.9c0.4-1.6,0.4-3.3-0.3-4.8
		c-0.7-1.3-1.9-2.4-3.4-2.5c-1.8-0.1-3.4,1-4.7,2.1c-1.3,1.1-2.4,2.5-3.1,4.1c-0.7,1.5-1.1,3.1-1.3,4.7c-0.1,0.8-0.1,1.6,0,2.4
		c0.1,0.8,0.2,1.8,0.7,2.5c0.4,0.4,0.9,0.7,1.4,0.9c0.5,0.2,1.1,0.4,1.6,0.4C42.5,51.1,43.6,50.8,44.5,50.3z"/>
	<path fill="#FFFFFF" d="M14.7,25.7c-0.1-1.3,0.7-2.5,1.8-3c1.2-0.5,2.7,0.2,3.4,1.3c0.3,0.5,1,0.1,0.7-0.4
		c-0.8-1.5-2.6-2.2-4.2-1.8c-1.6,0.5-2.7,2.1-2.6,3.8C13.9,26.2,14.7,26.3,14.7,25.7z"/>
	<path fill="#FFFFFF" d="M36.5,24.1c0.8-1.4,2.5-2,3.9-1.3c1.3,0.7,2.2,2.4,1.6,3.8c-0.2,0.5,0.6,0.7,0.8,0.2c0.7-1.8-0.4-4-2-4.8
		c-1.8-0.9-3.9-0.2-4.9,1.6C35.6,24.1,36.2,24.5,36.5,24.1z"/>
</g>
</svg>
