<?xml version="1.0" encoding="utf-8"?>
<!-- Generator: Adobe Illustrator 25.0.0, SVG Export Plug-In . SVG Version: 6.00 Build 0)  -->
<svg version="1.1" id="Layer_1" xmlns="http://www.w3.org/2000/svg" xmlns:xlink="http://www.w3.org/1999/xlink" x="0px" y="0px"
	 viewBox="0 0 917.43 1042.81" style="enable-background:new 0 0 917.43 1042.81;" xml:space="preserve">
<style type="text/css">
	.st0{fill:#2C2521;}
	.st1{fill:#050404;}
	.st2{opacity:0.64;}
	.st3{opacity:0.43;}
	.st4{fill-rule:evenodd;clip-rule:evenodd;}
</style>
<path d="M587.23,547.46L587.23,547.46C587.23,547.47,587.23,547.46,587.23,547.46c0,0-5.39-14.28-8.65-32.72
	c-0.93-5.22-1.69-10.8-2.1-16.46c-0.22-3-0.34-6.03-0.34-9.04c0-5.13-0.18-9.6-0.53-13.65c-0.12-1.51-0.28-2.96-0.45-4.38
	c-0.82-6.67-2.15-12.32-3.91-18.24c0,0,0-0.01,0-0.01c0.04-0.5,0.06-0.93,0.04-1.16c-0.02-0.38-0.3-0.59-0.64-0.81
	c-2.43-7.85-5.58-16.41-9.28-28.53c-9.06-29.65-61.73-44.34-61.73-44.34c-25.12-1.33-51.74-36.31-51.74-36.31c0-0.01,0-0.02,0-0.03
	c-0.56-31.76-17.74-36.3-17.74-36.3c-9.61-3.21-42.5-50.75-43.24-59.83c-0.74-9.08-2.96-12.29-2.96-12.29
	c-5.73-7.21-20.33-49.14-20.33-49.14c-11.66-46.81-37.26-78.34-43.99-86.03c0.43-0.92,0.85-1.84,1.26-2.74
	c1.33-2.79,3.44-7,5.02-8.99c3.71-3.75,3.2-5.23,2.62-6.21c-0.08-0.41-0.2-0.83-0.4-1.29c0.55-1.36-5.91,0.02-5.91,0.02
	c-4.33-0.42-10.47,5.52-16.47,12.86c-8.04-6.94-13.09-8.04-13.09-8.04c-5.2-6.76-1.96-18.68,2.43-24.11c0,0,0,0,0.01-0.01
	c0.29-0.36,0.59-0.69,0.89-0.99c0.01-0.01,0.01-0.01,0.02-0.02c2.21-0.38,3.97-4.9-2.57-8.39c-0.67-0.43-1.15-0.68-1.15-0.68
	c-0.53-0.2-1.03-0.34-1.5-0.42c-2.03-0.53-3.58,0-4.77,1.04c-0.38-0.21-0.78-0.41-1.22-0.61c-7.95-3.61-9.24,9.08-9.24,9.08
	c0.1,0.26,0.39,0.54,0.81,0.83c-0.6,4.94,0.7,10.97,0.75,15.63c0.05,3.91-0.84,8.04-1.69,11.1c-14.09,13.46-15.67,24.79-15.67,24.79
	c-3.69,19.76-12.75,36.59-16.63,41.12c-3.88,4.55-3.88,6.15-4.07,14.97c-0.18,8.81,1.85,10.67,1.85,10.67s4.8-4.26,7.76-0.53
	c0.94,1.19,2.79,0.05,4.87-2.07c0.01-0.01,0.03-0.03,0.05-0.04c5.58-4.25,9.87-13.38,9.87-13.38c0.01,0,0.02,0,0.03,0
	c16.69,2.74,30.11-13.42,31.61-15.31c0.1-0.11,0.14-0.18,0.14-0.18c0.02-0.01,0.05-0.01,0.07-0.01l6.34-0.83c0.01,0,0.01,0,0.02,0
	c1.99,0.75,3.54,1.91,3.54,1.91c9.95,1.07,29.04,111.06,30.95,118.36c0.84,5.66,1.38,10.25,1.54,13.31
	c0.01,0.26,0.01,0.51,0.02,0.75c0.01,0.45,0.02,0.88,0.02,1.27c0,0.04,0,0.07,0,0.11c0,0.09,0,0.18-0.01,0.28
	c-0.03,0.76-0.03,1.59,0.01,2.48c0,0.04,0,0.07,0,0.07c-0.1,4.12,1.06,10.36,2.81,17.28c0.01,0.05,0.02,0.1,0.04,0.16
	c0.01,0.06,0.03,0.13,0.04,0.19c4.38,18.67,12.32,40.83,13.74,42.32c0,0,0.01,0.01,0.01,0.01c0.11,0.23,5.26,10.9,5.53,11.52
	c0,0,0,0,0,0.01c2.81,6.62,5.54,13.57,5.54,13.57c9.42,24.29,4.44,34.18,4.44,34.18c-3.88,17.1-6.28,36.86-6.28,36.86
	c0.22,4.07,5.51,17.6,9.61,27.6c1.89,13.73,3.54,32.01,0,37.95c0,0-27.72,87.59-27.72,92.55c0,4.96-4.25,101.36-9.24,111.83
	c0,0-7.39,11.02-7.39,17.08s0,14.32,0,14.32s-6.28,11.57-4.07,14.87c0,0-6.28,2.23-4.8,14.06h4.8l-0.47,4.67
	c0,0,14.7-0.55,19.69-9.37c0,0,1.11-5.23-2.96-9.37c0,0-2.77-10.74,0-13.22c2.77-2.48,7.71-10.74,8.75-20.93
	c1.04-10.19,5.66-92,5.66-92s0.55-11.84,4.44-12.12c3.88-0.28,11.64-16.89,8.87-32.41c0,0,17.53-49.62,27.97-62.38v0l20.38,73.38
	c-5.04,25.64-2.52,28.85-2.52,28.85c5.36,8.54,7.38,18.69,7.38,18.69s9.8,75.06,9.25,91.35c-0.55,16.3-9.98,27.24-9.98,27.24
	l5.61,6.09c-2-1.1-3.92-3-5.61-6.08c0,0-6.65,12.55-4.07,17.63c0,0,3.88-1.07,5.91,0c2.03,1.07,6.28,3.47,12.2,0
	c0,0,8.13-2.94,9.61-5.34c1.48-2.4,1.48-2.4,1.48-2.4l-2.22-8.28c0,0-1.46,1.4-3.72,2.82c0.61-0.39,1.18-0.79,1.66-1.14
	c0.38-0.29,0.71-0.54,0.99-0.77c0.11-0.08,0.22-0.18,0.31-0.26c0.11-0.1,0.21-0.18,0.3-0.26c0.3-0.24,0.45-0.4,0.45-0.4
	s-0.92-14.15,0.38-17.08c1.29-2.95,4.44-6.96,4.44-6.96c0-4.26-3.33-14.42-3.33-14.42c-10.17-50.74-8.69-96.15-7.4-99.36
	c1.3-3.21-0.92-16.83-6.65-30.45c-5.73-13.62-5.54-62.5-4.8-78.53c0.73-16.03,9.24-23.49,9.24-23.49
	c6.31,7.6,13.13,12.4,19.89,15.26c0.05,0.03,0.1,0.05,0.15,0.07c5.9,2.96,12.42,3.85,18.64,3.65c0.01,0,0.01,0,0.02,0h0.14
	c7.78-0.03,14.64-1.79,19.5-3.49c3.77,14.34,10.82,38.21,20.68,59.02v19.83c0,0-1.79,26.06,0,42.48
	c1.79,16.43-20.46,86.67-20.66,88.37c-0.2,1.7-0.79,11.61-1.19,13.03c-0.4,1.42-15.89,19.83-15.89,23.79c0,0-5.76,7.08-2.78,11.9
	c2.98,4.81,19.86,1.42,21.45,0c1.59-1.42,0.25-7.73,0.25-7.73s-2.36,0.07-5.6-0.25c3.14,0.22,5.6,0.25,5.6,0.25
	s-0.65-12.94,4.91-13.23s11.12-13.59,9.93-18.69c-1.19-5.1,9.73-74.21,17.88-88.93c4.21-7.62,8.77-19.25,11.37-29.38c0,0,0,0,0,0
	c2.1,8.78,1.79,12.8,1.79,12.8s0.18,104.17-2.59,111.1c-2.77,6.96-3.33,13.89-3.33,13.89c-4.23,3.72-9.93,10.63-9.98,10.68
	c0,0,0,0,0,0c0,0-7.95,8.03-5.54,12.03c2.4,4,19.96,7.94,26.98,1.96c0,0,2.96-2.51,0.74-7.58c0,0-0.01,0-0.01,0
	c-0.91-0.57,0.38-10.69,0.38-10.69c8.68-10.69,6.1-24.31,5.17-27.77c-0.92-3.48,1.11-83.88,7.03-108.97
	c5.91-25.11-1.66-29.39-5.18-38.46c-3.51-9.09-0.74-55.56-0.74-55.56c4.07-17.9,7.4-61.97,7.4-61.97c1.45,1.01,2.77,4.68,3.87,9.09
	c0,0,0,0.02,0,0.03c0.12,0.43,0.23,0.85,0.33,1.3c1.96,8.32,3.19,18.43,3.19,18.43c0.03,0.59,0.08,1.17,0.12,1.76
	c0.09,1.25,0.2,2.5,0.32,3.75c2.76,28,12.84,54.81,12.86,54.85l0,0c0,0-7.39,19.76-1.85,33.65c0,0,2.03,6.14-0.37,9.62
	C580.95,593.94,604.42,578.18,587.23,547.46z M316.96,103.56c1.07,1.2,2.28,2.79,3.57,4.62
	C319.32,106.53,318.13,104.99,316.96,103.56z M420.92,309.75c5.16,2.49,9.4,5.68,12.88,9.08c-0.05-0.04-0.1-0.09-0.14-0.13
	c-0.02-0.02-0.03-0.03-0.06-0.05c-0.03-0.03-0.06-0.05-0.09-0.08c-5.44-4.73-10.67-7.76-12.16-8.59
	C421.07,309.84,420.91,309.76,420.92,309.75c0-0.01-0.01-0.01-0.01-0.03c-2.43-5.38-5.98-9.57-9.08-12.52
	c-0.27-0.26-0.52-0.48-0.78-0.72C418.76,303.37,420.92,309.75,420.92,309.75z M405.45,292.16c-0.01-0.01-0.01-0.01-0.02-0.01
	c-0.02-0.02-0.03-0.02-0.03-0.02s0-0.01-0.01-0.01c0.01,0,0.01,0.01,0.01,0.01C405.41,292.14,405.43,292.15,405.45,292.16z
	 M336.37,134.35c-0.01-0.01-0.01-0.03-0.02-0.04c-0.02-0.05-0.04-0.1-0.08-0.14c-0.01-0.02-0.02-0.03-0.02-0.05
	c0.07,0.12,0.11,0.19,0.11,0.19L336.37,134.35z M526.26,758.51c1.21,3.16,3.18,5.19,5.49,6.44
	C529.15,763.84,527.05,761.87,526.26,758.51z"/>
<g>
	<path class="st0" d="M410.77,604.42c0,0,1.52,46.46,22.23,66.53c0,0,5.21,14.74-4.12,32.28s-15.64,41.54-15.64,41.54
		s-11.11,18.81,14.82,24.14c0,0,16.46,1.54,21.13,1.68c4.66,0.14,19.89,8,28.81,8.42l-4.52-23.97l-0.93-15.61
		c0,0,4.37-14.04-3.18-24.64s-17.77-22.19-20.38-27.21s-13.85-29.53-13.85-29.53s-4.3-9.68-8.01-12.29
		C423.4,643.16,413.65,620.56,410.77,604.42z"/>
	<path class="st1" d="M640.45,563.61c-3.88,1.84-7.84,3.53-11.84,5.1c-2,0.78-4.03,1.49-6.09,2.12c-2.05,0.62-4.17,1.2-6.35,1.27
		c-8.55,0.42-17.1,0.78-25.6,1.65c-2.13,0.2-4.24,0.47-6.35,0.79c-1.04,0.19-2.1,0.36-3.11,0.64c-0.52,0.11-0.99,0.31-1.47,0.48
		c-0.48,0.18-0.98,0.44-1.47,0.66c-3.94,1.76-7.96,3.3-12.06,4.6c-4.1,1.29-8.26,2.38-12.49,3.14c-4.23,0.72-8.52,1.16-12.8,0.89
		c4.28,0.08,8.54-0.44,12.73-1.29c4.19-0.84,8.31-1.99,12.37-3.35c4.04-1.39,8.06-2.9,11.95-4.68c0.49-0.22,0.94-0.47,1.47-0.67
		c0.52-0.2,1.05-0.42,1.58-0.53c1.05-0.3,2.12-0.47,3.18-0.68c2.13-0.33,4.26-0.62,6.39-0.83c8.54-0.81,17.1-1.18,25.65-1.46
		c2.11-0.03,4.18-0.55,6.23-1.13c2.05-0.59,4.08-1.27,6.1-2C632.51,566.89,636.49,565.28,640.45,563.61z"/>
	<path d="M787.85,770.48c-0.69-8.7-3.16-9.68-1.65-24.42c0,0,0.14-6.03-5.49-12.07l-0.55-32c0,0-4.39-22.03-7.96-32.56
		c-3.57-10.53-17.84-40.7-17.84-40.7s-8.1-21.89-6.86-25.26s-4.94-10.11-4.94-10.11c-2.37,0.1-4.79,0.17-7.2,0.05
		c-2.36-0.47-4.84-0.56-7.14-1.47c-4.78-1.23-9.11-4.13-12.75-7.64c-3.59-3.61-6.36-8.1-8-12.96c-1.65-4.85-2.54-9.97-2.23-15.03
		c0.44,2.48,0.91,4.92,1.69,7.27c0.65,2.38,1.53,4.67,2.5,6.88c2.02,4.39,4.62,8.45,7.96,11.71c3.3,3.25,7.17,5.98,11.52,7.62
		c2.08,1.12,4.42,1.44,6.66,2.18c2.28,0.6,4.63,0.82,6.99,1.38c0,0,3.43,0.84,6.59-5.61c3.16-6.46,3.29-11.79,3.29-11.79
		s2.47-4.91,0-12.07c0,0,5.76-10.39-3.02-15.72c0,0-3.29-6.18,1.65-9.26c4.94-3.09,14.41-5.19,10.98-11.51s-9.19-8-11.53-23.3
		c0,0-2.47-12.35-6.86-15.16c0,0,8.64-2.53,0-17.68c0,0-2.06-21.05-15.64-29.47c-13.58-8.42-30.05-15.16-39.51-5.05
		c0,0-70.39,48.42-84.79,56.42c0,0-51.86,31.58-89.73,27.79c0,0-93.02,6.32-105.37,59.79c0,0-15.23,34.53,19.76,78.31
		c0,0,16.05,39.16,23.87,45.47s17.7,18.95,14.82,35.37c0,0-0.41,39.16,9.88,45.47s65.03,6.74,65.03,6.74s6.45,0.98,6.04-2.53h12.35
		c0,0,2.74-0.28,3.29-3.09s3.84,0.7,1.37-5.33c0,0,8.64,0,1.1-5.33l-9.33-2.81c0,0,3.43-4.07-5.49-8.7
		c-8.92-4.63-17.01-8.7-17.01-8.7s-1.65-25.82-3.29-30.6c-1.65-4.77,3.84-30.03-1.92-34.81c0,0,1.23-14.88,4.66-13.19
		c3.43,1.68,49.81-5.89,59.55-24.98c9.74-19.09,31.28-28.07,31.28-28.07s9.6-3.79,1.92,13.75c-7.68,17.54-14.41,39.3-10.7,62.03
		c3.7,22.74,6.04,40.14,6.04,40.14l5.49,42.95c0,0-9.88,14.74-3.02,17.96c6.86,3.23,33.2,0,33.2,0s10.29-6.32,2.2-9.82
		c0,0,8.92-5.75,5.49-14.03c0,0,12.07-51.23,16.74-54.46c4.66-3.23,9.74-35.65,7.41-45.47c-2.33-9.82-0.27-38.46-0.27-38.46
		c1.69-5.45,3.06-11.01,4.2-16.6c1.15-5.59,2.11-11.23,2.69-16.91c0.57-5.68,0.88-11.38,0.71-17.08
		c-0.09-5.71-1.19-11.31-1.87-17.01c-0.72-5.67-1.31-11.37-2.5-16.93c-1.18-5.54-3.1-11-6.45-15.54
		c-3.31-4.55-7.85-8.08-12.78-10.71c-2.46-1.34-5-2.53-7.62-3.53c-2.6-1.05-5.27-1.91-7.94-2.74c2.69,0.77,5.39,1.56,8.01,2.55
		c2.64,0.95,5.23,2.07,7.73,3.36c5,2.57,9.65,6.08,13.1,10.69c3.5,4.58,5.45,10.17,6.67,15.76c1.22,5.62,1.84,11.32,2.58,16.99
		l1.12,8.5c0.15,1.43,0.34,2.86,0.47,4.29l0.22,4.3c0.13,5.74-0.16,11.49-0.83,17.18c-1.37,11.38-3.92,22.6-7.52,33.43
		c0,0,7.13,0.28,8.23,16.56c1.1,16.28,9.33,32,9.33,32l29.09,42.39l1.65,3.93c0,0-1.37,17.26,0.82,23.02
		c2.2,5.75-0.82,8.42-0.82,8.42s-4.12,8.7,6.04,7.86c6.07-0.5,7.33-1.01,7.37-1.33c1.37,0.86,5.44,2.8,11.29,0.21
		c0,0,4.66,3.93,8.51,2.53C770.57,774.13,788.54,779.18,787.85,770.48z M560.89,611.19c-0.1,4.34-0.41,8.69-1.12,13.01
		c-0.7,4.33-1.88,8.59-3.53,12.69c-1.69,4.06-3.89,7.95-6.82,11.34c0,0,0,0,0,0l0,0c-0.02,0.02-0.03,0.04-0.05,0.06l-2.43-2.02
		c2.54-3.2,4.54-6.84,6-10.7c1.5-3.88,2.53-7.92,3.17-12.03c0.64-4.15,1.03-8.35,1.16-12.55c0.09-4.2-0.02-8.44-0.28-12.66
		c-0.53-8.45-1.68-16.87-3.22-25.24c-0.74-4.19-1.61-8.35-2.55-12.51c-0.46-2.08-0.94-4.15-1.45-6.22c-0.5-2.07-1.03-4.14-1.6-6.2
		c0,0,0,0,0,0c3.25,7.95,5.74,16.21,7.84,24.55c2.06,8.37,3.56,16.87,4.38,25.49C560.76,602.52,560.96,606.83,560.89,611.19z
		 M683.64,515.65c-2.21-1.79-4.54-3.43-6.98-4.87c-4.86-2.9-10.14-5.08-15.63-6.3c-5.48-1.29-11.17-1.53-16.76-0.93
		c-5.6,0.63-11.1,2.12-16.39,4.19c1.31-0.56,2.6-1.15,3.93-1.65l2.01-0.72l1.01-0.36l1.02-0.3l2.05-0.58
		c0.69-0.18,1.39-0.31,2.08-0.47c1.38-0.34,2.8-0.52,4.21-0.75c5.65-0.74,11.44-0.49,17.02,0.75c5.56,1.3,10.93,3.51,15.78,6.56
		c4.84,3.05,9.3,6.79,12.91,11.27C687.98,519.37,685.87,517.43,683.64,515.65z"/>
</g>
<g>
	<g>
		<g>
			<path d="M336.78,637.04c0,0,7.52,66.25-11.88,114.91c0,0-5,9.36-5,12.2s-13.08,12.62-21.76,13.9c0,0-5,1.56-5,3.12
				c0,1.56,7.79-1.99,2.65,6.52c0,0,7.5,3.97,25.29-11.91l-5.4,6.81c0,0,5.04,1.73,0,5.55c0,0,16.42-4.98,14.51-16.33
				c0,0,9.29-7.66,8.03-17.02s12.85-70.64,12.85-74.04s11.91-26.1,3.23-40.57l-1.29-10.57l-4.3,8.59l-3.82-2.84l-5,13.33
				L336.78,637.04z"/>
			<path d="M293.14,781.16c0,0,7.84-0.33,2.65,6.52c0,0-4.8-1.42-6.47,1.13C287.65,791.37,287.01,781.68,293.14,781.16z"/>
			<path d="M311.57,785.2c0,0-0.06-3.38,4.11-2.62c0,0,5.63,2.02,0,5.55C315.68,788.13,309.7,791.23,311.57,785.2z"/>
			<g class="st2">
				<path d="M335.28,750.9c1.1-5.44,2.1-10.89,3.08-16.34c0.98-5.45,1.89-10.92,2.83-16.38c0.87-5.47,1.77-10.94,2.59-16.42
					c0.79-5.48,1.66-10.96,2.19-16.48c-0.42,2.74-0.93,5.46-1.42,8.19l-1.44,8.19l-2.79,16.39l-2.62,16.41
					C336.85,739.93,336.02,745.41,335.28,750.9z"/>
			</g>
			<g class="st2">
				<path d="M350.08,644.24c0.46,1.06,0.89,2.12,1.23,3.21c0.37,1.08,0.68,2.18,0.93,3.28c0.49,2.21,0.79,4.46,0.77,6.71
					c0.04,2.25-0.42,4.48-1.11,6.62l-0.59,1.59l-0.81,1.51c-0.13,0.25-0.25,0.52-0.4,0.76l-0.49,0.71
					c-0.33,0.47-0.66,0.95-0.98,1.43c1.59-1.68,3.1-3.56,3.91-5.77c0.87-2.17,1.37-4.5,1.35-6.83c0-2.33-0.34-4.65-1-6.88
					C352.23,648.35,351.34,646.19,350.08,644.24z"/>
			</g>
		</g>
		<g>
			<path d="M371.35,605.76c0,0,7.06,16.34,7.64,22.67c0.59,6.33,4.26,20.61,4.41,29.44s9.85,50.19,4.7,66.53
				c0,0-1.32,14.87-1.47,15.9c-0.15,1.03-2.15,15.31-25.29,14.72c0,0-0.74,5.59-1.76,5.59c-1.03,0,14.26,7.8,28.52,0
				c0,0,5.59-7.21,5.59-9.71s10.58-4.27,8.23-19.14c0,0-2.79-7.8-3.53-22.37c-0.74-14.57-1.18-44.31-1.18-46.51
				s7.42-35.99-1.76-47.69c0,0-7.56-17.69-4.96-21.06l-7.98,27.54L371.35,605.76z"/>
			<path d="M361.35,755.35c0,0-7.69,1.23-9.11,6.62c0,0,1.13,1.42,7.35-1.23C359.59,760.74,361.5,760.12,361.35,755.35z"/>
			<g class="st2">
				<path d="M396.44,733.79c-0.27-5.09-0.62-10.17-0.96-15.26l-1.07-15.25c-0.4-5.08-0.73-10.16-1.07-15.24
					c-0.18-2.54-0.32-5.08-0.44-7.62c-0.08-2.54-0.3-5.09,0.01-7.62c-0.09,0.63-0.23,1.26-0.28,1.9l-0.1,1.91
					c-0.05,1.28-0.04,2.55-0.06,3.83c0.04,2.55,0.1,5.1,0.19,7.65c0.2,5.09,0.53,10.18,0.86,15.27c0.4,5.08,0.79,10.16,1.27,15.24
					C395.29,723.65,395.81,728.73,396.44,733.79z"/>
			</g>
			<g class="st2">
				<path d="M390.66,625.13c1.04,1.94,2.04,3.9,2.91,5.9c0.85,2,1.63,4.05,1.93,6.14c0.14,1.03,0.19,2.11-0.21,3.01
					c-0.39,0.97-0.93,2.02-1.21,3.09c-0.63,2.13-0.92,4.36-0.73,6.54c0.08-1.09,0.23-2.17,0.48-3.23c0.22-1.06,0.51-2.11,0.89-3.11
					c0.19-0.5,0.4-1,0.62-1.49c0.21-0.52,0.5-0.91,0.71-1.49c0.51-1.12,0.45-2.32,0.31-3.43c-0.35-2.24-1.18-4.33-2.19-6.29
					C393.17,628.79,392.01,626.9,390.66,625.13z"/>
			</g>
		</g>
	</g>
	<g>
		<path d="M189.35,423.15c0,0-18.67,74.33,31.46,93.9c0,0-0.88,54.89,27.64,68.08l2.06-5.11l2.94,8.79l2.35-10.21
			c0,0-3.09,18.58,29.4,16.74c0,0-9.26-5.96-10.88-7.66c0,0,9.26,5.82,19.11,6.52v-5.67l8.23,6.94c0,0-0.15-11.05,2.35-12.89
			c0,0-1.62,7.09,5.59,10.21c0,0,5.29-1.42,6.17-6.52c0,0,8.53,23.4,6.76,24.68c-1.76,1.28,1.76-1.28,1.76-1.28v-6.67
			c0,0,0.29,37.3-5.29,40c0,0,12.5-10.5,17.05-16.45c0,0,0.59,20.28,3.82,22.13c0,0,5.15-4.96,5-13.33l3.82,2.84
			c0,0,4.26-11.21,7.35-11.06c0,0,2.06,8.94,4.41,10.78c0,0-2.06-17.02,10.88-26.38l11.17,15.32c0,0,1.91-21.13,10.59-29.79
			l3.53,5.96c0,0,4.41-16.74,1.76-19.29l4.7,12.2c0,0,7.64-17.45,3.23-38.3c0,0,6.91-15.18,19.41-16.74l2.65,5.67l7.35-7.09v5.39
			c0,0,9.11-12.91,9.11-15.89c0-2.98,0,2.98,0,2.98v8.37c0,0,8.38-7.09,6.47-13.33l1.76,4.26c0,0,6.47-5.25,3.82-17.3
			c0,0,3.09,3.97,2.94,4.82c-0.15,0.85,3.97-14.89,2.06-21.28c0,0,0.59,4.26,4.12-5.39v-5.39l4.41,3.12v-6.52l6.76,1.7
			c0,0,1.47-13.19-9.41-21.56c0,0,10,3.69,13.23,10.5c0,0,11.03-2.84,2.35-17.87l6.47,4.26c0,0,0.29-10.07-4.7-11.91l7.06,2.84
			c0,0-1.03-11.06-5.59-15.04c0,0,11.91,13.48,12.35,19.29c0,0,6.47-7.09,1.76-24.4l4.41,6.52c0,0-4.26-14.89-6.76-16.45
			s10.29,8.79,10.29,8.79s-2.35-16.31-13.53-15.32c0,0,9.41-5.53,15-4.82c5.59,0.71-8.67-20.41-40.58-0.06
			c0,0-23.96,12.97-28.81,36.66c0,0-9.26,14.33-34.7-0.57l7.64,1.7c0,0-30.87-17.59-38.52-15.89c-7.64,1.7,12.64-0.28,12.64-0.28
			s-67.19-18.72-86.44,4.54l7.94,0.28c0,0-7.94-4.54-17.64,0s-56.6,50.21-69.39,26.38c-12.79-23.83-9.57-33.63-9.57-33.63
			S204.93,406.84,189.35,423.15z"/>
		<path d="M439.8,446.82c11.51,20.28,18.86,43.34,20.88,67.96c0.75-4.5,1.33-10.06,0.53-13.49c0.31,0.79,1.3,1.58,4.05-6.06v-5.58
			l4.48,3.23v-6.75l6.88,1.76c0,0,1.49-13.62-9.54-22.29c0.61,0.23,10.25,4.03,13.43,10.85c0,0,11.22-2.93,2.39-18.49l6.58,4.4
			c0,0,0.29-9.84-4.37-12.15l6.76,2.76c0,0-0.78-8.59-4.01-13.56c3.34,4.07,10.55,13.35,10.88,17.96c0,0,6.58-7.34,1.79-25.24
			l4.48,6.75c0,0-3.38-12.02-5.92-15.94c2.85,2.54,9.51,8.02,9.51,8.02s-2.39-16.87-13.75-15.85c0,0,9.57-5.72,15.25-4.99
			c5.68,0.74-8.81-21.12-41.26-0.07C468.85,410.06,445.25,423.06,439.8,446.82z"/>
		<path class="st3" d="M334.99,589.58c8.5,0,18.48,4.54,18.48,4.54l3.99-25.34c2.09,20.61,26.92,18.16,23.44,17.02
			c-3.48-1.13-8.48-24.4-6.32-18.53c2.16,5.86,13.33,10.21,13.33,10.21c12.55-18.53-10.59-44.25-10.59-44.25
			c-11.73-19.2-30.97-44.63-30.97-44.63c-17.64-21.56-55.67-12.1-55.67-12.1s-24.55,11.14-31.17,16.45c0,0-13.23,5.11-14.41,28.56
			C245.11,521.49,246.39,589.58,334.99,589.58z"/>
		<path d="M377.33,533.22c0,0,24.7,23.07,10.59,44.25c0,0-10.98-1.13-13.33-10.21l6.32,18.53c0,0-15.09,7.19-23.44-17.02
			l-3.99,25.34c0,0-25.93-4.16-37.69-7.85c0,0-2.67-5.39,19.5-11.44c0,0,9.74-2.2,13.35-12.83c3.61-10.62,16.61-11.38,16.61-11.38
			S363.22,532.46,377.33,533.22z"/>
	</g>
	<g>
		<path d="M189.52,423.46c-0.11-0.2-0.14-0.43-0.08-0.65c1.88-6.87,31.34-115.69,16.96-124.48c-14.85-9.08-30.28-6.95-34.99-3.69
			c-4.7,3.26-4.85-1.99,2.65-6.52c4.12-2.49,7.65-6.02,11.11-9.27c2.54-2.38,5.12-4.72,7.63-7.11c2.11-2.01,4.01-4.46,6.88-5.49
			c4.39-1.57,10.81-0.91,15.01,0.89c4.42,1.89,7.43,5.6,9.05,9.93c2.28,6.09,3.39,12.57,4.06,18.99c0.6,5.76,1.24,11.96,0.43,17.72
			c-0.61,4.3-2.03,8.55-3.01,12.8c-0.89,3.88-1.76,7.77-2.6,11.67c-2.06,9.53-3.96,19.09-5.62,28.69
			c-1.67,9.7-3.13,19.46-3.93,29.26c-0.59,7.19-1.17,14.85,0.43,21.96c0.21,0.94,0.47,1.86,0.82,2.76c0.3,0.76-0.52,1.47-1.28,1.13
			c-0.74-0.34-1.55,0.34-1.3,1.09c0.96,2.95,2.78,8.23,3.49,8.54c0,0-6.76-6.95-7.35-9.36c-0.43-1.75,0.08,0.31,0.38,1.57
			c0.1,0.39-0.08,0.83-0.46,1c-0.56,0.25-1.03,0.9,0.66,2.53c2.06,1.98-2.01-2.2-4-5.76c-0.43-0.77-1.63-0.57-1.76,0.29
			c-0.32,2.1-0.22,4.57,1.93,4.89c0,0-6.78-1.99-6.33-3.69c0.37-1.42-3.85-0.08-5.27,3.53c-0.29,0.74-1.32,0.83-1.7,0.13
			L189.52,423.46z"/>
		<g class="st2">
			<path d="M201.68,295.81c1.37,0.76,2.93,1.2,4.53,1.39c1.6,0.19,3.26,0.02,4.8-0.53c1.52-0.57,2.94-1.48,3.93-2.72
				c0.57-0.56,0.91-1.28,1.35-1.92c0.35-0.69,0.63-1.41,0.9-2.12c-0.46,0.63-0.81,1.3-1.27,1.9c-0.5,0.57-0.89,1.22-1.48,1.69
				c-1.04,1.07-2.34,1.86-3.73,2.37c-1.4,0.52-2.92,0.7-4.44,0.67c-0.76-0.02-1.53-0.09-2.29-0.23
				C203.19,296.22,202.43,296.03,201.68,295.81z"/>
		</g>
		<path d="M186.37,276.96c0,0,2.04,0,0.7,1.85c-1.34,1.85-3.13,6.91,5.76,5c0,0,8.89-0.92,11.03,1.31c0,0-17.23,0.98-17.28,6.75
			c0,0-13.97,0.31-17.71,5.05c0,0-3.01-0.19,0.32-4.5C172.51,288.11,183.99,281.47,186.37,276.96z"/>
		<g class="st2">
			<path d="M191.8,277.81c1.08-1.41,2.23-2.75,3.49-3.97c1.27-1.2,2.64-2.32,4.18-3.11c1.52-0.82,3.24-1.28,4.97-1.19
				c0.87,0.02,1.73,0.22,2.56,0.52c0.85,0.25,1.63,0.7,2.42,1.13c-1.34-1.17-3.03-2.08-4.92-2.3c-0.94-0.13-1.9-0.06-2.82,0.12
				c-0.92,0.21-1.8,0.55-2.63,0.98c-1.65,0.87-3.06,2.07-4.25,3.42C193.6,274.74,192.56,276.21,191.8,277.81z"/>
		</g>
		<g class="st2">
			<path d="M198.31,278.28c0.55,1.06,1.34,2.01,2.36,2.74c1,0.74,2.35,1.21,3.7,0.98c1.35-0.24,2.4-1.06,3.24-1.95
				c0.37-0.49,0.74-0.97,1.05-1.48c0.26-0.54,0.54-1.07,0.77-1.61c-0.4,0.45-0.75,0.92-1.13,1.38c-0.39,0.44-0.81,0.84-1.2,1.27
				c-0.88,0.73-1.81,1.4-2.89,1.57c-1.07,0.2-2.18-0.13-3.17-0.7C200.06,279.9,199.13,279.15,198.31,278.28z"/>
		</g>
		<g class="st2">
			<path d="M214.44,305.8c-0.12,1.62-0.17,3.24-0.23,4.86l-0.18,4.84c-0.06,1.61-0.13,3.22-0.26,4.82c-0.06,0.8-0.14,1.6-0.29,2.39
				c-0.1,0.8-0.3,1.57-0.71,2.29c1.1-1.28,1.36-3.02,1.67-4.59c0.29-1.61,0.39-3.24,0.46-4.87c0.06-1.63,0.06-3.25-0.03-4.88
				C214.8,309.03,214.68,307.41,214.44,305.8z"/>
		</g>
		<ellipse cx="203.51" cy="275.07" rx="4.56" ry="3.69"/>
		<path d="M203.87,274.48c0,0.54-0.46,0.98-1.02,0.98c-0.56,0-1.02-0.44-1.02-0.98s0.46-0.98,1.02-0.98
			C203.41,273.49,203.87,273.93,203.87,274.48z"/>
		<path d="M205.52,274.03h1.47c0,0,0.44,2.13-1.96,2.93C205.03,276.96,206.4,275.44,205.52,274.03z"/>
		<path d="M198.95,275.07l1.66-0.28l-0.59,2.66C200.03,277.44,199.1,276.96,198.95,275.07z"/>
	</g>
</g>
<path d="M130.93,831.65c4.3-0.78,7.9-5.04,7.8-5.47c-0.1-0.43-2-1.65-3-2c-1-0.35-2.1-0.87-3.5-5.47c-1.4-4.6-0.8-9.99-0.8-9.99
	s0,0-1.6-1.39c-1.6-1.39,0.8-4.6,6.7-8.51c5.9-3.91,11.54-11.12,11.54-11.12s0.67-9.38,0.14-14.59c-0.53-5.21,0.53-13.46,1.33-16.94
	c0.8-3.47,2.2-8.16,2.3-9.73c0.1-1.56-0.4-5.91-2.6-16.24c-2.2-10.34-0.2-29.44,0-42.3c0.2-12.85,6.2-18.41,6.2-18.41
	s-2-3.21-3-5.65c-1-2.43-0.7-10.6,0.6-11.81c1.3-1.22,6.7,1.13,6.7,1.13s1.2-2.78,6.4-6.51c5.2-3.73,11.61-4.17,17.51-4.1
	c5.9,0.07,2,0.45,14.41,0.02c12.41-0.43,18.41,7.21,18.41,7.21s1.3-0.26,2.8,0c1.5,0.26,2.1,2.87,2.1,2.87s2.3-3.04,15.61-3.39
	c13.31-0.35,28.12,7.82,28.12,7.82c1.9-0.35,7.6-9.55,12.01-20.58c4.4-11.03,8.3-17.46,20.91-28.4
	c12.61-10.94,39.72-12.51,49.33-1.3c9.6,11.2-0.5,21.97-3.6,21.1c-3.1-0.87-3.6-4.95-2.6-8.6c1-3.65,0.5-8.16-6.5-10.86
	c-7-2.69-22.61-0.78-31.32,6.6c-8.71,7.38-15.11,17.37-16.61,24.58c-1.5,7.21-12.01,24.14-12.01,24.14s3.2,3.39,7.9,9.81
	c4.7,6.43,3.7,21.1,1.3,27.62c-2.4,6.51-11.81,24.14-12.71,25.53c-0.9,1.39-0.4,3.04-0.4,3.04c3,1.82,6.8,6.95,8.8,9.03
	c2,2.08,14.71,10.34,18.61,13.64c3.9,3.3,4.6,14.42,4.6,16.85c0,2.43,2.7,3.47,5.3,5.82c2.6,2.35,0.3,4.34-0.7,4.43
	c-1,0.09-6.3-6.51-6.3-6.51s2.4,5.3,2.4,6.6c0,1.3-3.1,0.17-4.1-2.17c-1-2.35-3.2-4-3.2-4s0.1,4,0,4.34c-0.1,0.35-2.4-2.17-3.1-3.82
	c-0.7-1.65-2.3-3.21-2.3-3.21s-0.9,2.34-1.7,2.52c-0.8,0.17-1.3-0.87-1.5-1.39c-0.2-0.52-1.1-2.26-2.1-4.08
	c-1-1.82-0.8-3.13-1.6-5.21c-0.8-2.08-3-3.47-5-5.04c-2-1.56-3-4-4.1-5.73c-1.1-1.74-6.3-4.26-6.3-4.26s-1,4.78-1.1,10.68
	c-0.1,5.91-3.6,12.68-4,17.28c-0.4,4.6-1.5,19.28-1.1,23.97c0.4,4.69-3.4,6.77-8,9.38c-4.6,2.61-8.1,6.86-10.51,7.99
	c-2.4,1.13-4.3-0.61-4.8-0.61c-0.5,0-2,0.52-4.7,1.22s-3.1-0.43-3.1-0.43s-4.8,0.96-6.4,1.39c-1.6,0.43-2.6-1.39-2.6-1.39
	s-4.4,0.61-5.2-0.52c-0.8-1.13,0.4-3.39,0.4-3.39s0,0-0.4-0.87c-0.4-0.87,3.5-3.13,9.7-4.26c6.2-1.13,11.21-3.13,17.41-8.34
	c6.2-5.21,5.4-21.71,4-27.62c-1.4-5.91-2.2-24.75-2.4-27.1c-0.2-2.34-1-4.69-1-4.69c-4.3-1.22-9.21-7.12-10.91-10.68
	c-1.7-3.56-6.4-10.86-6.4-10.86s-2.9,5.3-4.4,9.81c-1.5,4.52-4.3,11.64-11.11,20.76c-6.8,9.12-25.21,24.58-30.02,29.01
	c-4.8,4.43-13.21,9.03-13.91,11.29c-0.7,2.26-2.9,6.08-2.9,6.08s0,4.95,0.1,8.77c0.1,3.82-0.4,7.99,0.5,10.86s1.8,7.99,1.1,10.68
	c-0.7,2.69-1.3,5.47-2.8,7.21c-1.5,1.74-4.6-0.09-5.6-0.35c-1-0.26-8.61,2.43-12.11,3.56c-3.5,1.13-4.5-0.61-4.5-0.61
	s-4.6,0.96-6.8,1.22c-2.2,0.26-2.9-0.87-2.9-0.87s-4.6,0.17-5.1-0.78C126.43,834.43,126.63,832.43,130.93,831.65z M169.2,769.46
	c0,0,10.51-14.26,15.11-20.53c4.6-6.27,14.79-15.5,14.79-20.73c0-5.23,1.86-13.12,3.18-17.11c0,0-13.14-3.23-15.44-6.75
	c0,0-6.79-1.9-8.98-6.27c-2.19-4.37-5.91-7.42-5.91-7.42s0,13.88,0,20.44c0,6.56,0.55,14.36-0.55,26.05
	c-1.1,11.69-1.53,17.97-2.19,23.39C168.54,765.94,169.2,769.46,169.2,769.46z M145.45,813.69c0.65,1.31,1.4,1.92,1.24,3.28
	c-0.16,1.36-0.22,2.67,0.76,3.23c0.97,0.56,2.05,0.84,2.05,0.84s2-2.43,1.29-3.46c-0.7-1.03-3.78-2.62-3.99-4.49
	c-0.22-1.87-0.11-2.95-0.11-2.95S144.8,812.38,145.45,813.69z"/>
<path class="st4" d="M749.6,297.27c-3.28,0.1-5.09,0.15-7.83,0.23c4.18,7.46,8.23,14.7,12.07,21.54c-0.85,2.06-1.4,3.41-2.2,5.36
	c-3.33-2.86-6.49-5.58-9.65-8.29c-0.41,0.39-0.83,0.77-1.24,1.16c1.76,2.29,4.03,4.37,5.14,6.94c1.03,2.39,0.38,5.46,1.26,7.96
	c1.16,3.28,1.8,6.09-2.31,9.21c-0.83-1-2.06-2.5-3.29-4c-0.4,0.71-0.8,1.41-1.2,2.12c-1.51-3.61-3.01-7.21-4.52-10.82
	c-0.07,7.93,6.04,15.71-0.74,24.88c-3.52-7.73-6.55-14.39-9.58-21.05c3.88,9.27,0.63,17.91-1.61,28.13
	c-3.99-9.06-8.77-16.33-9.28-25.33c-0.95-0.39-1.96-0.8-3.53-1.45c-0.45,6.62-0.89,13.07-1.32,19.41c-0.8,0.33-1.46,0.61-2.19,0.91
	c-6.41-5.94-4.3-15.18-8.17-22.7c-3.48,3.74-2.5,10.04-9.06,10.73c-1.64-3.92-3.39-8.13-4.83-11.56c-4.78-2.64-8.44-5.83-12.58-6.63
	c-4.33-0.84-7.99-1.87-10.3-5.47c-1.91,0.8-3.24,1.36-4.78,2c-0.88-0.97-1.78-1.97-2.9-3.22c-2.18,0.77-4.49,1.58-6.54,2.3
	c-1.82-1.29-4.12-2.11-4.99-3.71c-1.45-2.66-3.5-3.51-6.04-3.26c-2.78,0.28-4.74-0.36-6.23-2.83c-0.47-0.78-1.8-1.53-2.68-1.48
	c-8,0.48-11.62-6-15.9-9.42c-4.46-1.31-8.01-2.36-10.17-3c-3.87-4.5-0.62-7.21-0.37-9.79c-3.43-0.84-6.79-1.66-9.73-2.38
	c-2.29-3.24-2.09-7.84-8.56-8.16c-1.86,1.4-5.04,3.37-7.68,5.9c-8.13,7.79-16.69,14.98-26.73,21.26
	c-5.35-4.47-14.85,0.23-17.26-9.19c-3.08-0.04-5.76-0.08-8.75-0.12c-5.38-4.56-1.42-10.9-2.49-16.42
	c8.02-8.78,19.73-10.73,29.36-16.56c1.77-0.97,3.54-1.93,5.31-2.9c0.22,0.36,0.44,0.71,0.67,1.07c1.45-1.67,2.89-3.34,4.42-5.1
	c-3.69-6.17-8.21-11.21-15.59-12.77c0.17-1.68,0.28-2.69,0.44-4.24c-2.07-1.55-4.56-3.41-7.49-5.61c2.15-3.49,3.85-6.25,5.62-9.13
	c-6.07-2.4-7.17,2.02-9.4,4.44c-3.75-4.31-7.16-8.23-10.77-12.37c0.05-0.11,0.32-0.78,0.88-2.13c-2.12-0.22-4.25-0.44-5.52-0.57
	c-1.21-5.08-4.91-8.12-2.53-12.65c-1.49,0.08-2.83,0.16-4.17,0.24c-0.42-0.54-1.3-1.28-1.17-1.58c2.85-6.66-4.33-8.6-6.17-13.03
	c-0.58-1.4-2.36-2.31-4-3.81c0.85-2.44,1.64-4.68,2.35-6.73c-1.19-0.78-2.33-1.51-4.07-2.64c1.97-3.01,3.76-5.73,6.84-10.44
	c-4.84,1.19-6.72,1.66-9.52,2.35c-0.23-1.61-0.44-3.11-0.82-5.83c0.51,0.65,0.17,0.25-0.13-0.18c-2.34-3.29-9.01-4.08-6-10.44
	c-4.86-4.1-7.17-10.95-14.99-11.99c-3.92-0.52-7.48-3.8-12.51-6.55c4.91-0.81,8.1-1.34,12.37-2.04c-7.55-6.28-17.35-3.93-23.74-9.94
	c0.85-3.26,3.04-3.72,5.62-3.52c6.72,0.53,13.43,1.19,20.17,1.53c1.88,0.09,3.81-0.77,5.82-2.11c-13.65-2.19-26.06-7.26-38.45-13.14
	c7.18-3.37,18.35-2.7,34.68,2.37c-2.02-2.31-2.78-3.87-4.01-4.44c-4.61-2.14-9.51-3.69-14.04-5.97c-3.26-1.65-6.1-4.12-11.22-7.67
	c4.04-0.37,5.59-0.9,6.95-0.57c4.42,1.05,8.82,2.21,13.11,3.7c4.36,1.52,8.57,3.47,13.71,4.27c-1-1.09-1.79-2.64-3.03-3.19
	c-8.67-3.89-15.77-9.96-25.07-15.96c9.17-1.68,15.94,0.71,20.97,4.54c7.83,5.97,17.07,9.18,25.1,15.36
	c-1.93-5.35-12.3-14.7-20.63-18.89c-0.92-2.2-1.86-4.45-2.88-6.88c0.8-0.09,1.4-0.35,1.83-0.18c9.73,3.91,17.58,10.78,26.05,16.67
	c5.41,3.77,10.56,7.9,17.27,12.96c-2.51-6-4.41-10.55-6.31-15.1c0.49-0.31,0.98-0.62,1.47-0.93c8.69,9.07,17.8,17.78,25.96,27.3
	c8.12,9.48,16.4,18.74,25.69,27.06c4.41,3.95,8.17,8.17,10.57,13.74c1.61,3.74,4.57,6.87,6.53,10.49c1.98,3.66,2.84,7.78,6.64,10.55
	c1.76,1.28,1.86,4.65,3.12,6.84c6,10.43,12.03,20.9,19.77,30.15c3.21,3.84,7.45,6.82,11.29,10.24c6.84-2.86,13.13-5.48,19.2-8.02
	c1.81,1.59,3.29,2.89,5.08,4.46c-5.79,5.85-4.11,14.53-7.46,21.89c5.23,5.66,12.29,8.81,19,12.11c9.11,4.49,18.5,8.9,28.26,11.5
	c11.05,2.94,19.25,9.38,27.59,16.49C728.27,281.52,738.42,288.69,749.6,297.27z"/>
<g>
	<path d="M144.28,859.61h16.53l-49.03,116.46h-3.76L58.05,859.61h16.71l34.88,81.43L144.28,859.61z"/>
	<path d="M179.24,867.08c2.49,0,4.62,0.86,6.39,2.57c1.77,1.72,2.66,3.82,2.66,6.31c0,2.44-0.89,4.54-2.66,6.31
		c-1.77,1.77-3.9,2.66-6.39,2.66c-2.32,0-4.37-0.9-6.14-2.7c-1.77-1.8-2.66-3.89-2.66-6.27c0-2.32,0.88-4.38,2.66-6.18
		C174.87,867.98,176.92,867.08,179.24,867.08z M171.77,899.2h15.11v76.37h-15.11V899.2z"/>
	<path d="M224.9,899.2v17.51l0.83-1.33c7.3-11.79,14.61-17.68,21.91-17.68c5.7,0,11.65,2.88,17.85,8.63l-7.97,13.28
		c-5.26-4.98-10.13-7.47-14.61-7.47c-4.87,0-9.09,2.32-12.66,6.97s-5.35,10.16-5.35,16.52v39.93h-15.19V899.2H224.9z"/>
	<path d="M268.73,911.32l28.39-27.89v15.77h24.16v13.61h-24.16v37.38c0,8.73,3.62,13.09,10.87,13.09c5.42,0,11.15-1.8,17.18-5.4V972
		c-5.81,3.27-12.15,4.9-19.01,4.9c-6.92,0-12.67-2.02-17.27-6.06c-1.44-1.22-2.63-2.59-3.57-4.11c-0.94-1.52-1.73-3.51-2.37-5.98
		c-0.64-2.46-0.95-7.15-0.95-14.07v-33.87h-13.28V911.32z"/>
	<path d="M384.69,975.57v-9.79c-3.21,3.51-6.88,6.25-11,8.2c-4.12,1.95-8.23,2.93-12.33,2.93c-4.81,0-9.26-1.2-13.32-3.61
		c-4.07-2.41-7.14-5.67-9.21-9.79c-2.08-4.12-3.11-10.97-3.11-20.54V899.2h15.11v43.52c0,8.01,1.15,13.61,3.44,16.79
		c2.3,3.18,6.32,4.77,12.08,4.77c7.19,0,13.31-3.51,18.34-10.54V899.2h15.11v76.37H384.69z"/>
	<path d="M469.02,929.66v32.46c0,2.6,0.88,3.9,2.66,3.9c1.83,0,4.68-1.36,8.55-4.07v9.21c-3.43,2.21-6.18,3.72-8.26,4.52
		c-2.08,0.8-4.25,1.2-6.52,1.2c-6.47,0-10.29-2.54-11.46-7.64c-6.42,4.98-13.25,7.47-20.5,7.47c-5.31,0-9.74-1.76-13.28-5.27
		c-3.54-3.51-5.31-7.93-5.31-13.24c0-4.81,1.73-9.12,5.19-12.91c3.46-3.79,8.37-6.79,14.73-9.01l19.34-6.64v-4.07
		c0-9.19-4.59-13.78-13.78-13.78c-8.25,0-16.27,4.26-24.07,12.78v-16.52c5.87-6.92,14.3-10.38,25.32-10.38
		c8.25,0,14.86,2.16,19.84,6.47c1.66,1.38,3.15,3.22,4.48,5.52c1.33,2.3,2.17,4.59,2.53,6.89
		C468.84,918.89,469.02,923.25,469.02,929.66z M454.16,960.46V937.8l-10.13,3.9c-5.15,2.05-8.79,4.11-10.92,6.18
		c-2.13,2.08-3.2,4.66-3.2,7.76c0,3.15,1.01,5.73,3.03,7.72c2.02,1.99,4.63,2.99,7.84,2.99
		C445.61,966.35,450.07,964.39,454.16,960.46z"/>
	<path d="M493.93,859.61h15.11v115.96h-15.11V859.61z"/>
	<path d="M574.19,859.44h99.94l-74.08,101.35h74.08v14.78H569.46l74.18-101.35h-69.45V859.44z"/>
	<path d="M724.44,899.03c11.62,0,21.28,3.75,28.97,11.25c7.69,7.5,11.54,16.92,11.54,28.26c0,11.01-3.9,20.16-11.7,27.43
		c-7.8,7.28-17.63,10.92-29.47,10.92c-11.46,0-21.03-3.69-28.72-11.08c-7.69-7.39-11.54-16.61-11.54-27.68
		c0-11.18,3.89-20.49,11.66-27.93C702.95,902.76,712.71,899.03,724.44,899.03z M723.61,912.65c-7.25,0-13.2,2.38-17.85,7.14
		c-4.65,4.76-6.97,10.82-6.97,18.18c0,7.3,2.38,13.27,7.14,17.89c4.76,4.62,10.87,6.93,18.34,6.93c7.42,0,13.49-2.34,18.22-7.01
		c4.73-4.68,7.1-10.67,7.1-17.97c0-7.25-2.46-13.25-7.39-18.01C737.28,915.03,731.08,912.65,723.61,912.65z"/>
	<path d="M818.24,899.03c11.62,0,21.28,3.75,28.97,11.25c7.69,7.5,11.54,16.92,11.54,28.26c0,11.01-3.9,20.16-11.7,27.43
		c-7.8,7.28-17.63,10.92-29.47,10.92c-11.46,0-21.03-3.69-28.72-11.08c-7.69-7.39-11.54-16.61-11.54-27.68
		c0-11.18,3.89-20.49,11.66-27.93C796.75,902.76,806.5,899.03,818.24,899.03z M817.41,912.65c-7.25,0-13.2,2.38-17.85,7.14
		c-4.65,4.76-6.97,10.82-6.97,18.18c0,7.3,2.38,13.27,7.14,17.89c4.76,4.62,10.87,6.93,18.34,6.93c7.42,0,13.49-2.34,18.22-7.01
		c4.73-4.68,7.1-10.67,7.1-17.97c0-7.25-2.46-13.25-7.39-18.01C831.07,915.03,824.88,912.65,817.41,912.65z"/>
</g>
</svg>
