<?xml version="1.0" encoding="utf-8"?>
<!-- Generator: Adobe Illustrator 24.2.0, SVG Export Plug-In . SVG Version: 6.00 Build 0)  -->
<svg version="1.1" id="Layer_1" xmlns="http://www.w3.org/2000/svg" xmlns:xlink="http://www.w3.org/1999/xlink" x="0px" y="0px"
	 viewBox="0 0 1080 1350" style="enable-background:new 0 0 1080 1350;" xml:space="preserve">
<image style="overflow:visible;" width="1080" height="1350" xlink:href="../CANCEL COVID.jpg" >
</image>
<g>
	<g>
		<rect x="622.9" y="1218.4" transform="matrix(0.7995 -0.6006 0.6006 0.7995 -614.5543 621.5802)" width="2.1" height="26"/>
		<polygon points="702.1,1322.6 688.2,1332.9 687.9,1333 689.9,1335.6 703.9,1325.4 704.1,1325.3 		"/>
	</g>
	<g>
		<polygon points="631.4,1317.3 624.2,1327.4 627.7,1329.9 635,1319.9 631.8,1317.6 		"/>
		<path d="M690,1312.6l-22.4-30.6l19.6-27.2l0.2-0.2l1.5-11.7l15.3-20.7l-1.7-1.2l-15.3,20.7l-11.1,4.7l-17.1,23.7l-16.7-22.9
			l-9.2-3.8l1.3,9.6l3,4.1l4.2-3.1l4.4,6.1l-4.2,3.1l11.2,15.3l-25.7,35.7l2.5,1.8l-7.2,10.1l-4.6-3.3l-2.8,3.9l15.6,11.2l2.8-3.9
			l-4-2.9l7.2-10.1l1.9,1.4l23-32l3.2,4.4l4.2-3.1l4.4,6.1l-4.2,3.1l12.8,17.5l1.9-1.4l8.6,11.7l3.6-2.6l-8.6-11.7L690,1312.6z
			 M627.7,1329.9l-3.6-2.6l7.2-10.1l0.4,0.3l3.1,2.3L627.7,1329.9z M660.5,1279.5l-3.4,4.7l-1,1.4l4.2,3l0.1,0.1l-5.2,7.2l-4.3-3.1
			l-4.4,6.1l4.3,3.1l-12.7,17.6l-0.2-0.2l-0.4-0.3l-7.3-5.3l24.1-33.5l6-8.4l17.1-23.8l9.2-3.9l-1.2,9.6l-3,4.1l-4.3-3.1l-4.4,6.1
			l4.3,3.1l-4.4,6.2l-4.3-3.1l-4.4,6.1l4.3,3.1l-2.8,3.9l-1.6,2.3L660.5,1279.5z"/>
	</g>
	<g>
		<g>
			<path d="M540,1284.8c-0.2,0.7-0.4,1.4-0.8,1.9c-0.4,0.5-0.8,0.9-1.3,1.2c-1.1,0.6-2.4,0.5-3.3-0.2c-0.5-0.4-1-1-1.3-1.8
				c-0.3-0.8-0.5-1.8-0.5-2.9l0-7.3c0-1.1,0.2-2.1,0.5-2.9c0.3-0.8,0.7-1.4,1.3-1.8c0.9-0.7,2.1-0.8,3.3-0.2
				c0.5,0.3,0.9,0.7,1.3,1.2c0.4,0.5,0.7,1.2,0.8,1.9l0.2,0.8l5.3,0l-0.2-1.2c-0.3-1.7-0.8-3.2-1.7-4.5c-0.8-1.3-1.9-2.4-3.1-3.1
				c-2.8-1.6-6.4-1.4-8.9,0.3c-1.3,0.9-2.4,2.3-3.1,3.9c-0.7,1.6-1.1,3.5-1.1,5.6l0,7.3c0,2.1,0.4,4,1.1,5.6c0.7,1.7,1.8,3,3.2,3.9
				c1.4,0.9,3,1.4,4.8,1.4c1.5,0,2.9-0.4,4.1-1.1c1.2-0.7,2.3-1.8,3.1-3.1c0.8-1.3,1.4-2.8,1.6-4.5l0.2-1.2l-5.3,0L540,1284.8z"/>
			<path d="M556.8,1265l-4.3,0l-8.9,28.7l5.6,0l1.7-5.8l7.6,0l1.7,5.8l5.6,0L556.8,1265z M556.9,1282.2l-4.3,0l2.1-7.4L556.9,1282.2
				z"/>
			<polygon points="580.8,1265 580.8,1281.8 571.7,1265 567.1,1265 567.2,1293.7 572.5,1293.7 572.4,1277.1 581.5,1293.6 
				586.1,1293.6 586,1265 			"/>
			<path d="M599.9,1284.6c-0.2,0.7-0.4,1.4-0.8,1.9c-0.4,0.5-0.8,0.9-1.3,1.2c-1.1,0.6-2.4,0.5-3.3-0.2c-0.5-0.4-1-1-1.3-1.8
				c-0.3-0.8-0.5-1.8-0.5-2.9l0-7.3c0-1.1,0.2-2.1,0.5-2.9c0.3-0.8,0.7-1.4,1.3-1.8c0.9-0.7,2.1-0.8,3.3-0.2
				c0.5,0.3,0.9,0.7,1.3,1.2c0.4,0.5,0.7,1.2,0.8,1.9l0.2,0.8l5.3,0l-0.2-1.2c-0.3-1.7-0.8-3.2-1.7-4.5c-0.8-1.3-1.9-2.4-3.1-3.1
				c-2.8-1.6-6.4-1.4-8.9,0.3c-1.3,0.9-2.4,2.3-3.1,3.9c-0.7,1.6-1.1,3.5-1.1,5.6l0,7.3c0,2.1,0.4,4,1.1,5.6c0.7,1.7,1.8,3,3.2,3.9
				c1.4,0.9,3,1.4,4.8,1.4c1.5,0,2.9-0.4,4.1-1.1c1.2-0.7,2.3-1.8,3.1-3.1c0.8-1.3,1.4-2.8,1.6-4.5l0.2-1.2l-5.3,0L599.9,1284.6z"/>
			<polygon points="623.2,1270.3 623.2,1264.7 606.5,1264.8 606.6,1293.4 623.3,1293.4 623.3,1287.7 611.9,1287.8 611.8,1282 
				621.6,1281.9 621.5,1276.3 611.8,1276.3 611.8,1270.4 			"/>
			<polygon points="630.2,1287.7 630.1,1264.7 624.9,1264.7 625,1293.3 641.7,1293.3 641.7,1287.6 			"/>
			<path d="M694.8,1284.1c-0.2,0.7-0.5,1.4-1,1.9c-0.5,0.5-1,0.9-1.7,1.2c-1.6,0.7-3.4,0.5-4.6-0.2c-0.7-0.4-1.3-1-1.7-1.8
				c-0.4-0.8-0.6-1.7-0.6-2.8l0-7.3c0-1.1,0.2-2,0.6-2.8c0.4-0.8,0.9-1.4,1.7-1.8c1.2-0.7,3-0.9,4.6-0.2c0.7,0.3,1.2,0.7,1.7,1.2
				c0.5,0.5,0.8,1.1,1,1.8l0.2,0.7l6.2,0l-0.3-1.3c-0.4-1.7-1.1-3.3-2.1-4.6c-1-1.3-2.3-2.3-3.9-3.1c-1.5-0.7-3.2-1.1-5-1.1
				c-2.2,0-4.1,0.5-5.7,1.4c-1.7,0.9-3,2.2-3.9,3.9c-0.9,1.7-1.4,3.6-1.4,5.7l0,7.3c0,2.1,0.5,4.1,1.4,5.7c0.9,1.7,2.3,3,3.9,3.9
				c1.7,0.9,3.6,1.3,5.8,1.3c1.8,0,3.5-0.4,5-1.1c1.5-0.7,2.8-1.8,3.8-3.1c1-1.3,1.7-2.9,2.1-4.6l0.3-1.3l-6.2,0L694.8,1284.1z"/>
			<polygon points="745.5,1264.2 739.4,1282.8 733.2,1264.2 726.6,1264.3 736.8,1292.9 742.1,1292.8 752.1,1264.1 			"/>
			<path d="M782.1,1268.9c-1-1.6-2.4-2.8-4.2-3.6c-1.8-0.8-3.9-1.2-6.4-1.2l-10.2,0l0.1,28.7l10.1,0c2.4,0,4.6-0.4,6.4-1.2
				c1.8-0.8,3.2-2.1,4.2-3.7c0.9-1.6,1.4-3.5,1.4-5.7l0-7.5C783.5,1272.4,783.1,1270.5,782.1,1268.9z M777.2,1274.5l0,7.8
				c0,1.6-0.4,2.7-1.4,3.5c-1,0.8-2.4,1.3-4.2,1.3l-4.2,0l-0.1-17.4l4.2,0c1.9,0,3.3,0.4,4.3,1.3
				C776.7,1271.8,777.2,1272.9,777.2,1274.5z"/>
			<path d="M728.5,1276.1c-0.8,0-1.5,0.6-1.8,1.5l-2.3,0l0-3.1c0-2.1-0.5-3.9-1.3-5.5c-0.2-0.4-0.5-0.8-0.7-1.1l0.7-0.9
				c0.2,0.1,0.4,0.1,0.6,0.1c1.1,0,1.9-1,1.9-2.3c0-1.3-0.9-2.3-1.9-2.3c-1.1,0-1.9,1-1.9,2.3c0,0.4,0.1,0.7,0.2,1l-0.7,0.9
				c-0.6-0.5-1.2-1-2-1.4c-1.4-0.8-3.1-1.2-4.9-1.2l0-0.7c0.7-0.3,1.2-1.2,1.2-2.2c0-1.3-0.9-2.3-1.9-2.3c-1.1,0-1.9,1-1.9,2.3
				c0,0.9,0.4,1.7,1.1,2l0,0.8c-1.7,0.1-3.3,0.5-4.7,1.3c-0.8,0.4-1.5,0.9-2.1,1.5l-0.8-1c0.1-0.3,0.2-0.6,0.2-1
				c0-1.3-0.9-2.3-1.9-2.3c-1.1,0-1.9,1-1.9,2.3c0,1.3,0.9,2.3,1.9,2.3c0.2,0,0.4-0.1,0.6-0.2l0.8,1.1c-0.2,0.3-0.4,0.6-0.6,1
				c-0.9,1.6-1.3,3.4-1.3,5.5l0,3.1l-2.1,0c-0.3-0.9-1-1.5-1.8-1.5c-1.1,0-1.9,1-1.9,2.3c0,1.3,0.9,2.3,1.9,2.3
				c0.8,0,1.5-0.6,1.8-1.5l2.1,0l0,3.2c0,2.1,0.5,3.9,1.3,5.5c0.2,0.3,0.4,0.6,0.6,0.9l-0.7,1c-0.2-0.1-0.4-0.1-0.6-0.1
				c-1.1,0-1.9,1-1.9,2.3c0,1.3,0.9,2.3,1.9,2.3c1.1,0,1.9-1,1.9-2.3c0-0.4-0.1-0.7-0.2-1l0.7-0.9c0.6,0.6,1.4,1.1,2.2,1.6
				c1.4,0.7,2.9,1.1,4.7,1.2l0,1.8c-0.7,0.4-1.1,1.2-1.1,2.1c0,1.3,0.8,2.3,1.9,2.3c1.1,0,1.9-1,1.9-2.3c0-1-0.5-1.8-1.1-2.1l0-1.7
				c1.8-0.1,3.5-0.5,4.9-1.3c0.8-0.4,1.4-0.9,2-1.5l0.6,0.8c-0.1,0.3-0.2,0.6-0.2,1c0,1.3,0.9,2.3,1.9,2.3c1.1,0,1.9-1,1.9-2.3
				c0-1.3-0.9-2.3-1.9-2.3c-0.2,0-0.4,0.1-0.6,0.2l-0.6-0.9c0.2-0.3,0.5-0.7,0.7-1c0.9-1.6,1.3-3.4,1.3-5.5l0-3.2l2.3,0
				c0.3,0.9,1,1.5,1.8,1.5c1.1,0,1.9-1,1.9-2.3S729.6,1276.1,728.5,1276.1z M719,1271c0.2,0.3,0.3,0.7,0.4,1
				c0.2,0.7,0.4,1.4,0.4,2.2l0,3.5l0,1.6l0,3.1c0,0.9-0.2,1.7-0.4,2.4l-4.1-5.5l-0.6-0.8l-0.2-0.3l-0.4-0.5l-0.4-0.5l-0.8-1.1
				l-4-5.3c0.5-0.7,1.1-1.4,1.8-1.8c0.6-0.3,1.3-0.5,2.1-0.6c0.3,0,0.6-0.1,1-0.1c0.2,0,0.4,0,0.6,0.1c0.9,0.1,1.8,0.3,2.5,0.7
				c0.7,0.4,1.2,0.9,1.6,1.5C718.7,1270.6,718.9,1270.8,719,1271z M717,1287.6c-0.7,0.4-1.6,0.6-2.5,0.7c-0.2,0-0.4,0.1-0.6,0.1
				c-0.3,0-0.7-0.1-1-0.1c-0.8-0.1-1.5-0.3-2.1-0.6c-0.7-0.4-1.3-0.9-1.7-1.6c-0.1-0.2-0.3-0.3-0.4-0.5c-0.2-0.3-0.3-0.7-0.4-1.1
				c-0.2-0.6-0.3-1.3-0.3-2l0-3.1l0-1.6l0-3.5c0-0.6,0.1-1.2,0.2-1.8l3.9,5.3l0.6,0.8l0.2,0.3l0.4,0.5l0.4,0.5l0.8,1l4,5.4
				C718.1,1286.7,717.6,1287.2,717,1287.6z"/>
		</g>
		<rect x="753.5" y="1264.1" transform="matrix(1 -4.273039e-03 4.273039e-03 1 -5.456 3.2445)" width="6.1" height="28.7"/>
	</g>
</g>
</svg>
