<svg xmlns="http://www.w3.org/2000/svg" viewBox="0 0 1450 801.21"><defs><style>.cls-1{fill:#fff;}</style></defs><g id="Layer_1" data-name="Layer 1"><rect width="1366" height="768"/></g><g id="Layer_2" data-name="Layer 2"><g id="logo"><g id="lines"><path class="cls-1" d="M1293.28,755.81a22.89,22.89,0,0,0-3.06,5l.48.22a22.68,22.68,0,0,1,2.86-4.72l6.93,3.62.24-.47-7.34-3.82Z"/><path class="cls-1" d="M1319.6,633.27a82.08,82.08,0,0,1-19.06-2.24l.5-2.07a81.26,81.26,0,0,0,57.58-7.75l1,1.83A83.26,83.26,0,0,1,1319.6,633.27Z"/><path class="cls-1" d="M1251.67,648.54a411,411,0,0,1-46.83-14l.73-2a406.24,406.24,0,0,0,46.59,14Z"/></g><path class="cls-1" d="M1441.88,624.17c-10.61-34-25.33-67.36-54.78-91.76-46.24-37.29-122.59-50.78-176.73-20.67-30.26,18.93-52,50-61.37,84.29-16.21,59.63,9.79,117.26,38,168.53L1181,751.64c8,14.76,19.74,26,27.71,40.74a214.27,214.27,0,0,1-17.49-43,126.22,126.22,0,0,0,35.9,48.42l4.06,3.36-2.45-4.67a130.06,130.06,0,0,1-11.5-31c6.81,9.23,17.37,15.57,26.11,20.81l6.53,3.92-5.2-5.55a175,175,0,0,1-16.14-21c13.9,10.16,37.09,19.14,69.16,26.74l.29.07.28-.09c35.65-11.43,62.18-33.31,72.35-59.27a90.32,90.32,0,0,0,9.87-11.78c-.61,15.4-1.87,30.8-3.26,46.13,8.84-14,14.29-30.07,17.26-46.68-.51,7.68-1.11,15.3-1.4,22.75,12.47-12.52,15-31.21,16.52-49.49,2.84,14.79,4.15,30,6.78,44.4l.33-.65.35,3.27c.12-1.55.22-3.06.32-4.63l3.46-7.1-.9,10.36a229.11,229.11,0,0,0,6.79-23.07,232,232,0,0,0,11.91-32.31l3.57,48.57C1449.64,695.17,1455.34,658.5,1441.88,624.17Zm-71.18,31.45.09.4c-.24-.15-.48-.3-.73-.44Zm-140.76,27.29c6.43-3.38,12.59,12.6,7.7,16-9.37,4.62-13.74-11.33-7.67-16Zm-16.07-34.45a108.43,108.43,0,0,0,15,25.1,39.85,39.85,0,0,0-13.81,3.51c-5.51,2.87-10.18,8.29-16.16,10.5a171.38,171.38,0,0,0,15-39.08Zm-10,41.68-2.34,4.29-.21-.46A42.44,42.44,0,0,0,1203.88,690.14Zm-7.6-8.51c0,.3-.08.62-.13.91l-.22-.5c.09-.14.24-.27.35-.41Zm42.22,99.2c-8.62-5.41-17.74-12.12-22.6-21.47l-3.28-6.31,1.28,7a131.56,131.56,0,0,0,10.54,32.59,123.32,123.32,0,0,1-36.88-60.82c-.52-2-1.12-4.07-1.74-6.09A272.7,272.7,0,0,0,1205,746.25a196.18,196.18,0,0,1-21.19-36c-.22-2.33-.41-4.66-.55-7a133.15,133.15,0,0,0,20.75,23c10.06,19.72,23.29,40.94,34.51,54.52Zm132.32-56.3-.24-.07c-8,27.79-35.2,51.57-72.72,63.65-36.11-8.57-60.78-18.89-73.3-30.6-5.68-8.83-11.31-18.46-16.31-27.91a101.12,101.12,0,0,0,12.11,8.12c-2.44-2.89-4.7-5.87-6.86-8.9q3,2.88,6.28,5.62l-18.17-40.13a34.64,34.64,0,0,1,10-10.12c-2.09,11,8.35,26,20.11,28.5,12.57,2.68,21.88-8.2,17.88-18.82-.09-.61-.22-1.22-.32-1.83l.17.13c-.08-.11-.14-.23-.21-.34-1.3-7.18-4.13-12-8.07-14.64l0-.11a40.92,40.92,0,0,1,15.87,4.9c-4.53-4.35-10.69-7.05-17.3-8.19a104.86,104.86,0,0,1-7.46-52.25c6.73,31.13,28.45,59.37,58.31,75.89-10.12-17-20.38-34.44-24.4-53.46,6.86,21.35,14.59,44,33.23,58.42-.13-17.55,10.72-33.09,15-49.8a145.54,145.54,0,0,0-4.78-54.34c10,17.07,20.31,33.89,33.88,48-17.9,4-35.14,16.83-37.33,33.8a41.85,41.85,0,0,1,16-20.27c-4.36,34,46.23,42.71,34.47-.79,0-.38-.11-.72-.17-1.09a107.9,107.9,0,0,0,16.74,10.72c2.7,18.59,2.45,37.35-2.3,55.92Zm-24.63-53.86c-3.17,12.24-15.26-.13-11.52-7.74,2.72-11.5,14.74.78,11.51,7.74Z"/></g></g></svg>