<?xml version="1.0" encoding="utf-8"?>
<!-- Generator: Adobe Illustrator 25.0.0, SVG Export Plug-In . SVG Version: 6.00 Build 0)  -->
<svg version="1.1" id="Layer_1" xmlns="http://www.w3.org/2000/svg" xmlns:xlink="http://www.w3.org/1999/xlink" x="0px" y="0px"
	 viewBox="0 0 146.6 250" style="enable-background:new 0 0 146.6 250;" xml:space="preserve">
<style type="text/css">
	.st0{fill:#7D832D;}
</style>
<path class="st0" d="M133.5,112.6c-2.2,2.2-3.7,4.8-4.9,7.6c-2.7,2.2-6.1,3.9-8.6,5.3c-7.4,4.2-15.2,7.4-23.5,9.3
	c-6.5,1.5-12.5,3.8-17.9,7.9c-1.3,1-2.5,2.2-3.5,3.5c-1,0.5-1.9,1.2-2.8,1.9c-0.6,0.5-0.4,1.2,0.1,1.6c-1.2,1.5-2.4,3-3.9,4.1
	c1-2.3,1.9-4.6,2.7-7c2.2-6.4,3.9-12.9,5.3-19.6c0.3-1.5,0.6-3.1,0.9-4.6c0.1-0.1,0.1-0.3,0.1-0.5c0-0.1,0-0.1,0-0.2
	c0.2-1.3,0.4-2.6,0.6-3.8c1.6-4.8,5.9-7.7,10.8-9.8c0.1,0.2,0.3,0.3,0.5,0.4c4.8,1.6,10,1.7,15,1.2c4.6-0.4,9.2-1.6,12.9-4.4
	c7.2-5.4,8.7-15.3,11.6-23.2c0.4-1.2-1.5-2-2.1-0.9c-5.9,12.5-18.5,18.4-31.1,22.2c-6,1.8-12.9,4.3-17,8.9
	c0.7-5.9,1.1-11.9,1.3-17.9c0.4,0.2,0.9,0,1.2-0.5c2.1-4.8,6.6-7.8,10.3-11.5c0.1,0,0.2,0,0.3-0.1c5.1-2.1,10.3-4,15.3-6.4
	c4.6-2.2,9.5-5,12.7-9.1c2.6-3.3,3.5-7.7,4.5-11.6c0.8-2.9,1.7-6.3,3.9-8.5c1.2-0.6,2.3-1.3,3.4-2.1c0.9-0.7-0.1-2.2-1.1-1.9
	c-1.5,0.5-2.8,1.3-3.8,2.3c-4.4,2.1-9.5,2.7-13.9,4.5c-5.6,2.2-9.1,6.5-11.6,11.9c-2.9,6.2-5.5,12.5-9.8,18
	C88,83.9,83,86.7,80.2,91.4c0-0.8,0.1-1.7,0.1-2.5c0.1-5.1,0.2-10.2,0.2-15.4c0-0.1,0.1-0.3,0.1-0.4c-0.4-6.7,4.9-11,8.3-16.2
	c3.8-5.9,6.6-12.5,8.2-19.3c1.3-5.9,1.9-13.1-0.4-18.9c-2.1-5.3-8.3-9.1-8.2-15.2c0-1.4-1.8-1.4-2.2-0.3c-4.7,11.3,4.5,23,0.9,34.3
	c-1.7,5.2-6.1,8.9-8,14.1c-1.9,5.3-1.8,12.1-0.5,17.6c-0.1,0.3-0.1,0.7-0.2,1c-0.1,0.2-0.2,0.4-0.2,0.6c0,3.6,0,7.2-0.1,10.8
	c-3.9-4.9-8.1-9.7-11.4-15.1c-3.9-6.5-5.3-13.6-4.9-21.2c0.2-4.4,1.2-9.4-0.5-13.6c-1.9-4.8-7.4-6.5-12-7.5
	c-1.1-0.2-1.9,1.1-1.1,1.9c8.9,9.2,5,21.6,5.1,32.9c0,10.3,9.5,16.1,18.1,19.1c0.3,0.1,0.6,0.1,0.8,0c1.9,2.4,3.9,4.7,5.8,7.1
	c-0.1,5.6-0.3,11.3-0.7,16.9c-4.3-6-12.1-7.5-18.5-10.6C49.7,86.7,46.5,77.4,45.5,68c-0.1-1.2-1.9-1.6-2.2-0.3
	c-1.9,7.9-2.3,18.2,2.5,25.2c2.9,4.2,7.9,5.5,12.7,6c3,0.3,6,0.4,8.9,1.4c2.7,1,5.2,2.5,8,3.4c0.2,0.1,0.4,0.1,0.6,0
	c0.1,0.2,0.2,0.4,0.3,0.6c0.2,0.3,0.5,0.5,0.7,0.5c-0.1,1.9-0.3,3.7-0.5,5.6c-0.2,2.3-0.5,4.7-0.9,7c-0.4,1.2-0.6,2.6-0.6,4
	c-0.6,3.8-1.4,7.6-2.3,11.3c-3.2-4.3-5.2-9.3-9.2-13c-3.3-3-7.9-4.1-12-5.6c-8-2.9-18-6.7-20.6-15.8c-0.4-1.4-2.4-0.8-2.2,0.6
	c1.3,9.4,5.8,18.6,12.2,25.6c3,3.3,6.7,5.9,10.9,7.4c6.1,2.1,12.7,0.1,18.8,1.9c0.3,0.4,0.5,0.8,0.8,1.1c0.2,0.2,0.4,0.3,0.6,0.4
	c-1.3,5-2.8,9.8-4.6,14.7c-0.7,2-1.5,3.9-2.3,5.9c0,0,0,0,0,0.1c-2.3,5.3-4.8,10.5-7.3,15.7c-0.8-2.6-1.5-5.2-2.4-7.7
	c0.3-0.6,0-1.4-0.7-1.6c-0.1-0.3-0.2-0.6-0.4-0.9c-1.8-4-4.9-7-8.5-9.4c-8.1-5.5-17.6-10.1-22-19.4c-0.5-1-2.2-0.5-2.1,0.6
	c1.3,16.7,14.9,30,31.5,31.2c1.3,3.2,2,6.7,3,9.9c0,0.1,0.1,0.2,0.1,0.3c-0.9,2-1.8,4-2.7,6.1c-0.2,0.2-0.3,0.5-0.5,0.7
	c-0.2,0.3-0.2,0.6-0.1,0.9c-0.6,1.4-1.1,2.9-1.6,4.3c-0.7,1.9-1.2,3.8-1.7,5.7c-1.3-10.9-9.3-20.6-18.7-25.8
	c-5.4-3-10.8-6-14.8-10.8c-4.8-5.8-4.5-12.7-5.2-19.8c-0.1-1.3-1.8-1.5-2.2-0.3C7,140.5,7.4,146,7.9,150.9
	c0.5,5.4,1.8,10.5,4.9,15.1c3.2,4.8,7.7,7.9,13.2,9.3c5.8,1.5,12.3,1.4,16.9,5.5l0.1,0.1c2.4,3.7,4,7.9,4.5,12.3
	c-0.1,0.2-0.1,0.3-0.1,0.5c0.1,1.7,0.6,3.3,0.5,5c0,0.3,0.1,0.5,0.2,0.7c-0.7,4.3-1.1,8.6-1.3,12.9c-0.4,1.9-0.5,3.8-0.2,5.6
	c0,0.1,0,0.1,0.1,0.2c0,2.6,0.1,5.3,0.1,7.9c0.2,6,0.5,11.9,0.5,17.9c0,1.5,2.3,1.5,2.3,0c0-10.2-1-20.4-0.7-30.5
	c0.4-1.9,1.2-3.7,2.1-5.3c0.4-0.8,0.8-1.5,1.3-2.2c0.3,0,0.6-0.1,0.8-0.2c0.1,0,0.3-0.1,0.4-0.1c13.2-8.1,29.6-3.9,44.1-5.1
	c6.3-0.5,12.9-2.3,17.1-7.3c4-4.7,5-11.2,6.7-16.9c0.4-1.4-1.7-2-2.2-0.6c-1.2,3.3-4.8,5.8-7.6,7.7c-3.3,2.3-7,4.2-10.8,5.6
	c-9.1,3.3-18.5,3-28,3c-4.1,0-8.2,0.4-12,2.1c-2.9,1.3-5.2,3.7-7.2,6.1c-1.5,1.7-3,3.8-4.3,6.1c0.1-1.2,0.2-2.5,0.4-3.7
	c1-7.1,3.1-13.8,5.7-20.4c1.9-2.4,5.2-3.7,7.8-5c0.9-0.4,1.8-0.9,2.8-1.3c13.1,0.3,26.2,4.3,39.3,1.6c12-2.5,16.3-14.8,19.7-25.1
	c0.4-1.2-1.4-2-2.1-0.9c-2.9,5.1-8.7,8.1-13.9,10.2c-5.7,2.3-11.8,3.9-17.8,5.3c-7.2,1.7-14.7,2.5-21.7,4.9
	c-1.4,0.5-2.7,1.1-4.1,1.7c-0.2,0-0.3,0-0.5,0c-0.6,0-0.9,0.3-1,0.7c-1.2,0.6-2.4,1.2-3.5,1.8c-1,0.5-2.1,1.1-3.1,1.7
	c1.9-4.4,4-8.7,6-13.1c1.1-2.4,2.2-4.8,3.3-7.2c4.2-2,6.8-6.1,9.7-9.6c5-2.6,11.2-2.7,16.7-2.7c6.5,0,12.8,0.2,19.2-1.1
	c6-1.2,10.4-4.8,13.2-10.2c2-4,3.2-8.4,5-12.5c2.5-2.1,4.5-4.7,4.9-7.9C135.5,112.4,134.1,111.9,133.5,112.6z M99.6,104.6
	c9.1-2.8,18.1-7.6,24.3-14.9c-1.6,4.9-3.5,9.6-7.3,13.1c-3.3,3.1-8,4.2-12.4,4.7c-4,0.4-8.3,0.4-12.2-0.6
	C94.6,106.1,97.3,105.3,99.6,104.6z M102.8,63c1.2-2.6,2.5-5.2,4.5-7.3c2.3-2.5,5.3-3.9,8.5-5c2.8-0.9,5.7-1.6,8.5-2.5
	c-2.4,4.6-2.9,10.8-5.1,15.2c-2.3,4.7-7.6,7.6-12.1,9.9c-4.1,2.1-8.4,3.8-12.6,5.5C97.9,73.9,100.3,68.4,102.8,63z M81.8,50.3
	c2.1-4.7,6-8.2,7.5-13.1c3.1-9.6-3.4-19.5-2.2-29.2c1.5,3.3,4.2,6,6.2,9c3.7,5.7,2.7,14.1,1.2,20.4c-1.6,7.1-4.8,14-9,19.9
	c-1.9,2.6-3.9,4.9-5.4,7.5C79.5,60,79.9,54.6,81.8,50.3z M59.3,68.1c-3.8-4-4-8.9-3.5-14.1c0.9-9.3,1.7-19.3-3.7-27.2
	c3.6,1.1,6.8,3,7.6,7.1c1,4.8-0.3,10.1-0.3,15c0.1,7,2.3,13.5,6,19.4c1.4,2.2,2.9,4.3,4.5,6.4C66,73.3,62.2,71.2,59.3,68.1z M63,97
	c-5.2-0.6-10.9-0.5-14.7-4.7c-2.8-3.1-3.5-7.8-3.8-11.8c-0.1-1.8-0.1-3.6,0-5.4C46,81.4,49,87.2,54.6,91.2c5.5,4,13.3,4.8,18.5,9.2
	C69.8,99,66.7,97.4,63,97z M54.3,130.4c-4.6-0.9-8.6-4-11.8-7.3c-4.4-4.7-7.8-10.6-9.8-16.9c3.9,4.3,9.6,7,15,9.1
	c4.3,1.7,9,2.7,12.9,5.2c3.8,2.5,6,6.7,8.3,10.7C64.1,130.5,59.1,131.3,54.3,130.4z M24.9,138.9c4.4,5.7,10.9,9.6,17,13.5
	c4,2.6,7.6,5.1,10,9.4c0.1,0.2,0.2,0.3,0.2,0.5C39.2,160.8,28.3,151.3,24.9,138.9z M31,174.1c-2.6-0.5-5.1-1-7.6-1.8
	c-3-1.1-5.3-3.1-7.4-5.5c-3.7-4.3-5.3-9.7-5.9-15.2c-0.2-1.6-0.4-3.4-0.4-5.1c0.4,2.5,1.1,4.9,2.3,7.2c2.7,5.1,7.4,8.8,12.3,11.8
	c2.6,1.6,5.3,2.9,7.9,4.5c2.7,1.7,5,3.9,7.1,6.2C36.7,175.1,33.9,174.6,31,174.1z M57.7,199.3c6.3-6.2,15.3-4.8,23.3-4.9
	c8.9,0,17.6-1.6,25.7-5.4c3.2-1.5,6.2-3.5,9-5.7c0.7-0.5,1.4-1.1,2-1.7c-1.1,4-2.5,7.9-5.3,10.9c-4.6,5-12.5,5.7-18.8,5.9
	c-12.8,0.4-26.7-2-38.6,3.8C55.8,201.2,56.7,200.2,57.7,199.3z M74,172.9c6.9-1.9,14-2.8,20.9-4.5c5.9-1.5,11.7-3.2,17.3-5.6
	c3.1-1.4,6.2-3.1,8.8-5.4c-1.1,3-2.4,5.9-4,8.7c-3.1,5.2-7.5,8.3-13.5,9.4c-10.8,2-21.6-0.7-32.4-1.7C72,173.5,73,173.1,74,172.9z
	 M124.5,130.5c-1.3,3.3-3.3,6.5-6.2,8.7c-2.4,1.7-5.4,2.5-8.2,3c-9.2,1.6-20.2-0.7-29.5,1.8c6.4-4.8,13.7-6.1,21.3-8.2
	c7.9-2.2,15.3-5.9,22.3-10.1c1-0.6,2-1.2,3-1.8C126.2,126.1,125.4,128.3,124.5,130.5z"/>
</svg>
