<?xml version="1.0" encoding="utf-8"?>
<!-- Generator: Adobe Illustrator 25.0.0, SVG Export Plug-In . SVG Version: 6.00 Build 0)  -->
<svg version="1.1" id="Layer_1" xmlns="http://www.w3.org/2000/svg" xmlns:xlink="http://www.w3.org/1999/xlink" x="0px" y="0px"
	 viewBox="0 0 250 250" style="enable-background:new 0 0 250 250;" xml:space="preserve">
<style type="text/css">
	.st0{fill-rule:evenodd;clip-rule:evenodd;fill:#02B2B0;}
	.st1{fill:#02B2B0;}
</style>
<g>
	<path class="st0" d="M68.9,11.3c7.9-4.5,42.6,5.9,59.6,32.6c6.5,10.2-8.1,62-8.1,62s-1.8-30.2-16-43.1c0,0,12.6,31.6,9.1,46.1
		c0,0-9.9-19-36-37.1c0,0,30.6,33.8,30.4,38.9c0,1.2-1.1,1.7-1.1,1.7S62.9,95.1,50,79.8C37.1,64.6,45.3,24.9,68.9,11.3z"/>
	<path class="st0" d="M106.2,114.8c0,0-37.4-18.5-53.2-20.7C37.2,91.9-0.6,127,6.5,142.9c7.1,15.9,41,26.5,49.1,22.9
		c8.1-3.6,41.8-30,47.5-38.1l-1.8-0.9l-41.5,12.6l-0.8-1.2c0,0,37.1-12.6,42.7-17.5c0,0-1.5-0.9-2.7-0.8c-1.2,0.1-24,0.8-38.9-2.2
		l-2.5-1.3c0,0,38.6,3.7,46.4,0.4L106.2,114.8z"/>
	<path class="st0" d="M106.9,132.1c0,0-33.4,16.7-39.3,40.2c-5.9,23.5,8.3,48.6,21.2,52.4c12.9,3.8,47.4-12.2,51.8-34.3
		c4.4-22.1-21.1-50.3-21.1-50.3s-3.9,32.1-10.4,45.3l-1.1-0.6c0,0,8.4-29.4,6.3-44.3c0,0-14.1,27.8-24.4,38l-1-0.8
		C88.8,177.7,113.6,141.9,106.9,132.1z"/>
	<path class="st0" d="M134.5,136.7c0,0,11.8,32.2,21.5,41c9.7,8.9,72.9,18.7,81.3-0.5c8.4-19.2-10.7-47-31.2-55.5
		c-20.5-8.5-51.3-1.4-68.3,5.5c0,0,32.5,1.4,48.5,12c0,0-1.9,1.4-18-3.2c-16.1-4.6-30.2-4.7-30.2-4.7s34.5,19.1,37.8,29
		c0,0-24-16.4-30.8-19.8C138.2,137.1,134.5,136.7,134.5,136.7z"/>
	<path class="st0" d="M124.4,107.6c0,0,9.2-49.8,19.7-58.4c10.5-8.5,67.3-11.6,69.6,5c2.3,16.6-3.1,50.2-13.7,54.9
		c-10.6,4.6-39.8,13.3-68.1,6.9c0,0,1.9-10.6,41.2-16.5l-1.5-1.3c0,0-30.1-1.2-43.9,13c0,0,8.3-18.6,28.2-32.7
		c3.9-2.8,3.9-5.1,3.9-5.1S138.7,79.6,124.4,107.6z"/>
	<path class="st1" d="M155.5,218.7c2.3-28.2-17.3-65.5-23.2-76c-2.2-4-3.2-6.8-3.6-8.7c0.4-0.6,0.7-1.2,1-1.8c0,0,0,0,0,0l0,0
		c1.7-3.8,2.1-8.9,0.6-13.1c-0.9-2.4-6.7-8.3-12.5-6.6c-5.8,1.6-9.7,7.6-7.7,14.9c1.7,6.1,6.5,10.3,11.5,10.5
		c5.9,7.5,26.6,35.2,28,56.8c1.5,24.9,3.8,29.8,3.8,29.8S155.1,223.2,155.5,218.7z"/>
	<path class="st1" d="M168.1,202.4c-1.6,3.2-5.4,4.4-8.6,2.9c-3.2-1.6-4.4-5.5-2.9-8.6c1.6-3.2,5.5-4.4,8.6-2.9
		C168.4,195.3,169.7,199.2,168.1,202.4z"/>
	<path class="st1" d="M169.9,218.6c-1.6,3.2-5.5,4.5-8.6,2.9c-3.2-1.6-4.4-5.5-2.9-8.6c1.6-3.2,5.5-4.5,8.6-2.9
		C170.2,211.6,171.5,215.5,169.9,218.6z"/>
	<path class="st1" d="M159.9,236.2c-1.6,3.2-5.5,4.4-8.6,2.9c-3.2-1.6-4.4-5.5-2.9-8.6c1.6-3.2,5.5-4.4,8.6-2.9
		C160.2,229.1,161.5,233,159.9,236.2z"/>
	<path class="st1" d="M148,223c-1.6,3.2-5.5,4.4-8.6,2.9c-3.2-1.6-4.4-5.5-2.9-8.6c1.6-3.2,5.5-4.4,8.6-2.9
		C148.3,215.9,149.5,219.8,148,223z"/>
	<path class="st1" d="M147.1,210.3c-1.6,3.2-5.5,4.4-8.6,2.9c-3.2-1.6-4.4-5.5-2.9-8.6c1.6-3.2,5.5-4.4,8.6-2.9
		C147.4,203.3,148.7,207.2,147.1,210.3z"/>
</g>
</svg>
