<?xml version="1.0" encoding="utf-8"?>
<!-- Generator: Adobe Illustrator 25.0.0, SVG Export Plug-In . SVG Version: 6.00 Build 0)  -->
<svg version="1.1" id="Layer_1" xmlns="http://www.w3.org/2000/svg" xmlns:xlink="http://www.w3.org/1999/xlink" x="0px" y="0px"
	 viewBox="0 0 250 250" style="enable-background:new 0 0 250 250;" xml:space="preserve">
<style type="text/css">
	.st0{fill-rule:evenodd;clip-rule:evenodd;fill:#F1E1A5;}
	.st1{fill:#F1E1A5;}
</style>
<g>
	<path class="st0" d="M13.5,185c-4.9-7.6,4-42.8,29.9-61c9.9-7,62.3,5.3,62.3,5.3s-30.1,3.1-42.4,18c0,0,31-14,45.6-11.2
		c0,0-18.5,10.8-35.4,37.6c0,0,32.4-32.1,37.5-32.2c1.2,0,1.8,1.1,1.8,1.1s-15.3,44.6-29.9,58.2C68.2,214.3,28.2,208,13.5,185z"/>
	<path class="st0" d="M115.2,143c0,0-16.8,38.2-18.3,54.1c-1.5,15.9,35.3,52,50.9,44.2c15.5-7.9,24.6-42.2,20.6-50.1
		c-4-7.9-31.9-40.4-40.3-45.7l-0.8,1.9l14.5,40.9l-1.1,0.8c0,0-14.3-36.4-19.4-41.8c0,0-0.8,1.6-0.7,2.7c0.1,1.2,1.9,24-0.4,38.9
		l-1.2,2.5c0,0,2-38.7-1.7-46.4L115.2,143z"/>
	<path class="st0" d="M132.4,141.5c0,0,18.2,32.6,41.9,37.4c23.7,4.8,48.2-10.5,51.4-23.6c3.2-13-14.4-46.7-36.7-50.2
		c-22.3-3.4-49.3,23.4-49.3,23.4s32.2,2.4,45.7,8.4L185,138c0,0-29.8-7-44.6-4.2c0,0,28.4,12.8,39.1,22.7l-0.7,1.1
		C178.8,157.5,141.9,134.3,132.4,141.5z"/>
	<path class="st0" d="M135.7,113.7c0,0,31.6-13.3,40-23.3c8.4-10.1,15.3-73.6-4.2-81.2c-19.5-7.5-46.4,12.9-54,33.7
		c-7.6,20.8,0.9,51.3,8.6,68c0,0,0-32.5,9.8-49c0,0,1.5,1.9-2.4,18.2c-3.8,16.3-3.3,30.4-3.3,30.4s17.5-35.4,27.2-39.1
		c0,0-15.3,24.7-18.4,31.7C136,110,135.7,113.7,135.7,113.7z"/>
	<path class="st0" d="M107.2,125.2c0,0-50.2-6.9-59.2-17c-9-10.1-14.6-66.7,1.8-69.7c16.4-3,50.3,0.8,55.4,11.2
		c5.1,10.4,15.1,39.2,10,67.7c0,0-10.7-1.4-18.4-40.4l-1.3,1.6c0,0,0.2,30.2,15,43.3c0,0-19-7.4-33.9-26.7c-2.9-3.8-5.3-3.7-5.3-3.7
		S78.5,112.2,107.2,125.2z"/>
	<path class="st1" d="M216.7,89c-28.3-1.1-64.7,20.3-74.9,26.7c-3.9,2.4-6.6,3.5-8.5,4c-0.6-0.4-1.2-0.7-1.9-0.9c0,0,0,0,0,0l0,0
		c-3.9-1.5-9-1.7-13.1,0c-2.4,1-7.9,7-6.1,12.8c1.9,5.7,8.1,9.4,15.2,7c6-2,10-7,10-11.9c7.2-6.3,34-28.2,55.4-30.5
		c24.8-2.7,29.6-5.2,29.6-5.2S221.2,89.2,216.7,89z"/>
	<path class="st1" d="M199.8,77.2c3.2,1.4,4.7,5.2,3.2,8.5c-1.4,3.2-5.2,4.7-8.5,3.2c-3.2-1.4-4.7-5.2-3.2-8.5
		C192.8,77.2,196.6,75.7,199.8,77.2z"/>
	<path class="st1" d="M216,74.7c3.2,1.4,4.7,5.2,3.2,8.5c-1.4,3.2-5.2,4.7-8.5,3.2c-3.2-1.4-4.7-5.2-3.2-8.5
		C208.9,74.7,212.7,73.2,216,74.7z"/>
	<path class="st1" d="M234,83.8c3.2,1.4,4.7,5.2,3.2,8.5c-1.4,3.2-5.2,4.7-8.5,3.3c-3.2-1.4-4.7-5.2-3.2-8.5
		C226.9,83.8,230.7,82.4,234,83.8z"/>
	<path class="st1" d="M221.3,96.4c3.2,1.4,4.7,5.2,3.2,8.5c-1.4,3.2-5.2,4.7-8.5,3.2c-3.2-1.4-4.7-5.2-3.2-8.5
		C214.3,96.4,218.1,94.9,221.3,96.4z"/>
	<path class="st1" d="M208.7,97.8c3.2,1.4,4.7,5.2,3.2,8.5c-1.4,3.2-5.2,4.7-8.5,3.2c-3.2-1.4-4.7-5.2-3.2-8.5
		C201.7,97.8,205.5,96.3,208.7,97.8z"/>
</g>
</svg>
