<?xml version="1.0" encoding="utf-8"?>
<!-- Generator: Adobe Illustrator 25.0.0, SVG Export Plug-In . SVG Version: 6.00 Build 0)  -->
<svg version="1.1" id="Layer_1" xmlns="http://www.w3.org/2000/svg" xmlns:xlink="http://www.w3.org/1999/xlink" x="0px" y="0px"
	 viewBox="0 0 250 250" style="enable-background:new 0 0 250 250;" xml:space="preserve">
<style type="text/css">
	.st0{fill-rule:evenodd;clip-rule:evenodd;fill:#B91135;}
	.st1{fill:#B91135;}
</style>
<g>
	<path class="st0" d="M171.6,244.7c-8,4.3-42.4-7.4-58.4-34.7c-6.1-10.4,10.3-61.6,10.3-61.6s0.7,30.3,14.5,43.7
		c0,0-11.5-32-7.5-46.4c0,0,9.3,19.3,34.6,38.3c0,0-29.4-34.9-29.1-40c0.1-1.2,1.2-1.7,1.2-1.7s43.3,18.8,55.6,34.5
		C205.2,192.6,195.6,232,171.6,244.7z"/>
	<path class="st0" d="M137.9,140c0,0,36.7,19.8,52.4,22.6c15.7,2.7,54.7-31,48.2-47.1c-6.6-16.1-40-27.9-48.3-24.6
		c-8.2,3.3-42.8,28.5-48.8,36.4l1.8,1l42-11.1l0.8,1.2c0,0-37.5,11.3-43.3,16c0,0,1.5,1,2.7,0.9c1.2,0,24,0.1,38.8,3.5l2.4,1.4
		c0,0-38.4-5.1-46.4-2L137.9,140z"/>
	<path class="st0" d="M137.9,122.7c0,0,34-15.5,40.7-38.8c6.7-23.2-6.6-48.9-19.3-53.1c-12.7-4.2-47.8,10.5-53,32.5
		c-5.2,21.9,19.3,51,19.3,51s5-31.9,12-44.9l1.1,0.6c0,0-9.4,29.1-7.8,44.1c0,0,15-27.3,25.8-37.2l1,0.8
		C157.6,77.7,131.5,112.6,137.9,122.7z"/>
	<path class="st0" d="M110.4,117.2c0,0-10.7-32.6-20-41.8C81,66.2,18.2,54.1,9.1,73c-9.1,18.9,9.1,47.3,29.2,56.6
		c20.2,9.3,51.2,3.2,68.5-3.1c0,0-32.4-2.6-48.1-13.7c0,0,2-1.3,17.9,3.8c15.9,5.2,30,5.7,30,5.7S72.8,102,69.9,92
		c0,0,23.4,17.2,30.1,20.9C106.8,116.5,110.4,117.2,110.4,117.2z"/>
	<path class="st0" d="M119.5,146.5c0,0-10.9,49.5-21.7,57.6c-10.8,8.2-67.7,9.2-69.4-7.4c-1.7-16.6,4.8-50.1,15.6-54.3
		c10.8-4.3,40.3-11.8,68.3-4.5c0,0-2.3,10.5-41.8,15l1.5,1.4c0,0,30.1,2.3,44.4-11.5c0,0-8.9,18.3-29.4,31.7c-4,2.6-4.1,5-4.1,5
		S104.3,174.1,119.5,146.5z"/>
	<path class="st1" d="M92.3,34.5c-3.3,28.1,15,66.1,20.5,76.8c2.1,4.1,3,6.9,3.3,8.8c-0.4,0.6-0.7,1.2-1.1,1.8c0,0,0,0,0,0l0,0
		c-1.9,3.7-2.4,8.8-1,13c0.8,2.5,6.4,8.5,12.2,7.1c5.9-1.4,10-7.3,8.2-14.6c-1.5-6.2-6.1-10.5-11.1-10.9
		c-5.7-7.7-25.4-36.1-25.9-57.7c-0.7-25-2.8-29.9-2.8-29.9S92.9,29.9,92.3,34.5z"/>
	<path class="st1" d="M79.2,50.3c1.7-3.1,5.6-4.3,8.7-2.6c3.1,1.7,4.3,5.6,2.5,8.7c-1.7,3.1-5.6,4.3-8.7,2.5
		C78.6,57.3,77.5,53.4,79.2,50.3z"/>
	<path class="st1" d="M78,34c1.7-3.1,5.6-4.3,8.7-2.6c3.1,1.7,4.3,5.6,2.6,8.7c-1.7,3.1-5.6,4.3-8.7,2.5C77.4,41,76.3,37.1,78,34z"
		/>
	<path class="st1" d="M88.5,16.8c1.7-3.1,5.6-4.3,8.7-2.5c3.1,1.7,4.3,5.6,2.6,8.7c-1.7,3.1-5.6,4.3-8.7,2.6
		C88,23.8,86.8,19.9,88.5,16.8z"/>
	<path class="st1" d="M100,30.4c1.7-3.1,5.6-4.3,8.7-2.5c3.1,1.7,4.3,5.6,2.6,8.7c-1.7,3.1-5.6,4.3-8.7,2.5
		C99.5,37.4,98.3,33.5,100,30.4z"/>
	<path class="st1" d="M100.4,43.1c1.7-3.1,5.6-4.3,8.7-2.5c3.1,1.7,4.3,5.6,2.5,8.7c-1.7,3.1-5.6,4.3-8.7,2.6
		C99.9,50.1,98.7,46.2,100.4,43.1z"/>
</g>
</svg>
