<?xml version="1.0" encoding="utf-8"?>
<!-- Generator: Adobe Illustrator 25.0.0, SVG Export Plug-In . SVG Version: 6.00 Build 0)  -->
<svg version="1.1" id="Layer_1" xmlns="http://www.w3.org/2000/svg" xmlns:xlink="http://www.w3.org/1999/xlink" x="0px" y="0px"
	 viewBox="0 0 168.1 250" style="enable-background:new 0 0 168.1 250;" xml:space="preserve">
<style type="text/css">
	.st0{fill:#00BE60;}
</style>
<path class="st0" d="M40.8,162.9c-2.7,11.6-7.9,23.1-18.3,30.6c-4.3,3.1-9.5,5.6-11.9,9.9c5.1-2.1,10.3-4.2,15.4-6.4
	c21.9-9,46.4-16.3,64.1-31.3c11.2-9.5,19.1-21.5,25.5-33.9c4.2-8.3,6.3-17.3,12.4-24.6c2-2.4,17.5-18.4,21.3-16.5
	c-1.9-0.9-4.1,0.5-5.9,1.6c-5,3.3-11.5,4.7-17.7,3.9c-15.8-2.2-22.3-15.2-39.6-14.8C71.8,81.9,59.3,89.6,47.7,97
	c6.6,4.4,13.1,8.9,19.7,13.3c-8.1-2.4-16.9-3.3-25.5-2.6c-4.6,9.5-6.4,20-5.4,30.2C37.4,146.6,42.8,154.4,40.8,162.9z"/>
<path class="st0" d="M146.2,243.9c1.7,1.3,3.4,2.5,5.4,3c4.7,1.3,7.5-0.6,5.5-4.3c-1.6-2.9-6.2-5.7-9.3-6.3c-1.4-0.2-2.8-0.2-4-0.9
	c-1.2-0.7-1.9-2.4-1.1-3.4c0.2-0.3,0.5-0.5,0.8-0.7c1.3-1.2,0.8-3.5-0.5-4.7c-1.3-1.2-3.1-1.7-4.7-2.3
	c-18.6-6.4-26.9-26.7-27.9-44.9c-0.7-13.7,2-27.5,7.6-40c3.2-7.3,7.4-14.1,12.4-20.3c0.7-0.8-0.5-2-1.2-1.2
	c-8.7,10.7-14.9,23.3-18.2,36.7c-3.2,13.1-3.4,26.9-0.1,39.9c3,12.3,9,23.8,17.2,33.4c4.9,5.7,11.2,10.6,17,15.3
	C145.5,243.3,145.9,243.6,146.2,243.9z"/>
<path class="st0" d="M143.6,81.8c-0.1-0.4-0.6-0.8-1-0.6c-6.5,2.7-13.7,3.4-20.7,3.3c-5.8-0.1-11.5-0.7-17.1-1.7
	c-11.3-2.1-22.2-6.1-32.2-11.6c-10.1-5.5-19.3-12.6-27.2-20.9c-7.1-7.5-13.7-17.5-15.8-27.8c-0.2-1-1-2.4-1.9-1.9
	c-0.4,0.2-0.9,0.8-1.3,0.5c-0.1-5.7-0.3-12-3.9-16.4c-1-1.3-3-2.4-4.2-1.3c-0.6,0.5-0.8,1.4-0.8,2.3c-0.7,10,5.8,17.3,11.1,24.8
	c5.7,8,10.5,16,17.6,23.1c8.1,8.1,17.6,15,27.8,20.3c10.2,5.3,21.2,9,32.6,10.9c5.5,0.9,11.1,1.4,16.7,1.4c6.7,0,13.6-0.8,19.9-3.4
	C143.4,82.7,143.7,82.3,143.6,81.8z"/>
</svg>
