<?xml version="1.0" encoding="utf-8"?>
<!-- Generator: Adobe Illustrator 25.0.0, SVG Export Plug-In . SVG Version: 6.00 Build 0)  -->
<svg version="1.1" id="Layer_1" xmlns="http://www.w3.org/2000/svg" xmlns:xlink="http://www.w3.org/1999/xlink" x="0px" y="0px"
	 viewBox="0 0 250 250" style="enable-background:new 0 0 250 250;" xml:space="preserve">
<style type="text/css">
	.st0{fill:#A50095;}
</style>
<g>
	<path class="st0" d="M215.2,142.1c-2.9-1.6-5.1-4.2-6.3-8c-3.3-10.3,11.3-19.2,28.1-24.2c-8.7-15.9-21.3-30.3-36.6-41.8
		c-0.7,13.8-3.8,27.3-13.9,37.3c-9.9,9.8-17.3,2-21.4-11.9c-3.7-12.8-4.6-30.9-1.9-45.3c-6.4-2.3-13-4.1-19.7-5.3
		c-11.2-2.2-22.5-3.6-33.8-4.5c0.4,5.2,0.5,10.5,0.5,15.6c0.1,3.8,0,7.8-2.5,10.8c-3.3,3.9-9.9,4.6-15,2.7s-8.9-5.8-12-9.9
		c-4.6-6.1-7.9-12.9-9.9-20c-22.6,0.6-45.2,2.8-67.2,5.3C12,62.1,19.8,80.5,25.4,93.4c1,2.2,1.9,4.5,2.9,6.7
		c6.4-1.1,12.9-2,19.3-2.9c10.1-1.4,22.4-1.9,28.7,5.4c0.4,0.5,0.8,1,1,1.6c0.4,1.3-0.2,2.7-1,3.8c-5.3,8.1-15.7,12.2-25.5,15.8
		c-3.3,1.2-6.7,2.5-10,3.7c4.4,8.7,9.2,17.1,14.7,25.2c3,4.4,6.4,8.7,10,12.8c4-2.2,8.1-4.3,12.1-6.4c6.1-3.1,12.4-6.2,19.4-7.2
		c7-0.9,14.9,0.8,19.3,5.8c5.8,6.6,3.5,16.6-2.5,23c-4.5,4.9-10.7,8.2-16.9,11.3c16.8,10.6,36,18.1,55.7,20.5
		c-3.7-16-4.9-34.6,15.2-38.5c4.9-0.9,10.1,1.2,13.6,4.5s5.5,7.5,7.1,11.8c2.4,6.3,4.1,12.9,5,19.5c5.6-1.5,11.1-3.5,16.5-6.1
		c9.2-4.3,16.7-10.7,22.5-18.3c9.8-12.9,14.5-29.4,13.7-45.1C235.1,143.9,222.8,146.4,215.2,142.1z"/>
	<path class="st0" d="M215.2,142.1c-2.9-1.6-5.1-4.2-6.3-8c-3.3-10.3,11.3-19.2,28.1-24.2c-8.7-15.9-21.3-30.3-36.6-41.8
		c-0.7,13.8-3.8,27.3-13.9,37.3c-9.9,9.8-17.3,2-21.4-11.9c-3.7-12.8-4.6-30.9-1.9-45.3c-6.4-2.3-13-4.1-19.7-5.3
		c-11.2-2.2-22.5-3.6-33.8-4.5c0.4,5.2,0.5,10.5,0.5,15.6c0.1,3.8,0,7.8-2.5,10.8c-3.3,3.9-9.9,4.6-15,2.7s-8.9-5.8-12-9.9
		c-4.6-6.1-7.9-12.9-9.9-20c-21.8,0.6-43.6,2.6-64.9,5c8,5.5,18.8,9.6,25.9,13.6c31.9,17.8,64.5,34.6,96,52.9
		c-13.9-1.1-28,0.4-41.2,4.5c-1.2,0.4-0.6,2,0.6,1.7c14.1-4.4,29.3-5.8,44.2-4.1c12.5,7.4,24.2,15.9,35.8,24.6
		c-18-2-36.3-1.3-54,1.8c-1.2,0.2-0.7,1.9,0.6,1.7c18.4-3.3,37.5-3.8,56.2-1.5c11.6,8.8,23,17.9,34.8,26.5
		c-18.7-2.9-38-1.6-55.9,3.8c-1.2,0.4-0.6,2,0.6,1.7c18.7-5.7,39.1-6.7,58.6-3.2c0.1,0.1,0.3,0.2,0.4,0.3
		c7.1,5.1,16.1,12.2,25.4,16.6c8.9-12.6,13.1-28.2,12.4-43.2C235.1,143.9,222.8,146.4,215.2,142.1z"/>
</g>
</svg>
