<?xml version="1.0" encoding="utf-8"?>
<!-- Generator: Adobe Illustrator 25.0.0, SVG Export Plug-In . SVG Version: 6.00 Build 0)  -->
<svg version="1.1" id="Layer_1" xmlns="http://www.w3.org/2000/svg" xmlns:xlink="http://www.w3.org/1999/xlink" x="0px" y="0px"
	 viewBox="0 0 250 115.8" style="enable-background:new 0 0 250 115.8;" xml:space="preserve">
<style type="text/css">
	.st0{fill:#AAC2BC;}
</style>
<g>
	<path class="st0" d="M220.3,19.1c-0.8-1.2-1.8-2.4-2.9-3.4c-5.8-5.2-14.3-5.8-22.1-6.1c-56.9-2.1-114-1.9-170.9,0.8
		C-5.8,11.8,14.2,59,20.2,74.8c1.9,5,4.3,10.2,8.5,13.5c3.6,2.8,8.3,4,12.8,5c42.2,9.7,85.5,14.8,128.8,15.1
		c13.7,0.1,28.2-0.6,39.4-8.5c9.5-6.8,15-18,17-29.5c2-11.5,0.7-23.2-1.1-34.7C224.7,30,223.5,23.9,220.3,19.1z"/>
</g>
</svg>
