<?xml version="1.0" encoding="utf-8"?>
<!-- Generator: Adobe Illustrator 25.0.0, SVG Export Plug-In . SVG Version: 6.00 Build 0)  -->
<svg version="1.1" id="Layer_1" xmlns="http://www.w3.org/2000/svg" xmlns:xlink="http://www.w3.org/1999/xlink" x="0px" y="0px"
	 viewBox="0 0 200 79.8" style="enable-background:new 0 0 200 79.8;" xml:space="preserve">
<style type="text/css">
	.st0{fill:#133831;}
</style>
<g>
	<g>
		<path class="st0" d="M194.6,19.5c2.4-2.1,0.5-3.8,0.4-4.3c-2.2-3.7-5.1-7.8-10.6-7.8c-6.1,0-9,5-11.3,9.1
			c-2.2,3.8-3.6,6.1-6.2,6.1c-2.5,0-4-2.3-6.2-6.1c-2.3-4-5.2-9.1-11.3-9.1s-9,5-11.3,9.1c-2.2,3.8-3.6,6.1-6.2,6.1
			c-2.5,0-4-2.3-6.2-6.1c-2.3-4-5.2-9.1-11.3-9.1c-6.1,0-9,5-11.3,9.1c-2.2,3.8-3.6,6.1-6.2,6.1c-2.5,0-4-2.3-6.2-6.1
			c-2.3-4-5.2-9.1-11.3-9.1c-6.1,0-9,5-11.3,9.1c-2.2,3.8-3.6,6.1-6.2,6.1c-2.5,0-4-2.3-6.2-6.1c-2.3-4-5.2-9.1-11.3-9.1
			s-9,5-11.3,9.1c-2.2,3.8-3.6,6.1-6.2,6.1s-4-2.3-6.2-6.1c-2.3-4-5.2-9.1-11.3-9.1c-1.6,0-3,1.3-3,3c0,1.6,1.3,3,3,3
			c2.5,0,4,2.3,6.2,6.1c2.3,4,5.2,9.1,11.3,9.1c6.1,0,9-5,11.3-9.1c2.2-3.8,3.6-6.1,6.2-6.1s4,2.3,6.2,6.1c2.3,4,5.2,9.1,11.3,9.1
			c6.1,0,9-5,11.3-9.1c2.2-3.8,3.6-6.1,6.2-6.1c2.5,0,4,2.3,6.2,6.1c2.3,4,5.2,9.1,11.3,9.1c6.1,0,9-5,11.3-9.1
			c2.2-3.8,3.6-6.1,6.2-6.1c2.5,0,4,2.3,6.2,6.1c2.3,4,5.2,9.1,11.3,9.1c6.1,0,9-5,11.3-9.1c2.2-3.8,3.6-6.1,6.2-6.1
			c2.5,0,4,2.3,6.2,6.1c2.3,4,5.2,9.1,11.3,9.1c6.1,0,9-5,11.3-9.1c2.2-3.8,3.6-6.1,6.2-6.1c2.3,0,3.7,1.9,5.6,5.2
			C190.8,19.6,192.4,21.7,194.6,19.5z"/>
	</g>
</g>
<g>
	<g>
		<path class="st0" d="M194.6,40.7c2.4-2.1,0.5-3.8,0.4-4.3c-2.2-3.7-5.1-7.8-10.6-7.8c-6.1,0-9,5-11.3,9.1
			c-2.2,3.8-3.6,6.1-6.2,6.1c-2.5,0-4-2.3-6.2-6.1c-2.3-4-5.2-9.1-11.3-9.1s-9,5-11.3,9.1c-2.2,3.8-3.6,6.1-6.2,6.1
			c-2.5,0-4-2.3-6.2-6.1c-2.3-4-5.2-9.1-11.3-9.1c-6.1,0-9,5-11.3,9.1c-2.2,3.8-3.6,6.1-6.2,6.1c-2.5,0-4-2.3-6.2-6.1
			c-2.3-4-5.2-9.1-11.3-9.1c-6.1,0-9,5-11.3,9.1c-2.2,3.8-3.6,6.1-6.2,6.1c-2.5,0-4-2.3-6.2-6.1c-2.3-4-5.2-9.1-11.3-9.1
			s-9,5-11.3,9.1c-2.2,3.8-3.6,6.1-6.2,6.1s-4-2.3-6.2-6.1c-2.3-4-5.2-9.1-11.3-9.1c-1.6,0-3,1.3-3,3c0,1.6,1.3,3,3,3
			c2.5,0,4,2.3,6.2,6.1c2.3,4,5.2,9.1,11.3,9.1c6.1,0,9-5,11.3-9.1c2.2-3.8,3.6-6.1,6.2-6.1s4,2.3,6.2,6.1c2.3,4,5.2,9.1,11.3,9.1
			c6.1,0,9-5,11.3-9.1c2.2-3.8,3.6-6.1,6.2-6.1c2.5,0,4,2.3,6.2,6.1c2.3,4,5.2,9.1,11.3,9.1c6.1,0,9-5,11.3-9.1
			c2.2-3.8,3.6-6.1,6.2-6.1c2.5,0,4,2.3,6.2,6.1c2.3,4,5.2,9.1,11.3,9.1c6.1,0,9-5,11.3-9.1c2.2-3.8,3.6-6.1,6.2-6.1
			c2.5,0,4,2.3,6.2,6.1c2.3,4,5.2,9.1,11.3,9.1c6.1,0,9-5,11.3-9.1c2.2-3.8,3.6-6.1,6.2-6.1c2.3,0,3.7,1.9,5.6,5.2
			C190.8,40.7,192.4,42.8,194.6,40.7z"/>
	</g>
</g>
<g>
	<g>
		<path class="st0" d="M194.6,61.8c2.4-2.1,0.5-3.8,0.4-4.3c-2.2-3.7-5.1-7.8-10.6-7.8c-6.1,0-9,5-11.3,9.1
			c-2.2,3.8-3.6,6.1-6.2,6.1c-2.5,0-4-2.3-6.2-6.1c-2.3-4-5.2-9.1-11.3-9.1s-9,5-11.3,9.1c-2.2,3.8-3.6,6.1-6.2,6.1
			c-2.5,0-4-2.3-6.2-6.1c-2.3-4-5.2-9.1-11.3-9.1c-6.1,0-9,5-11.3,9.1c-2.2,3.8-3.6,6.1-6.2,6.1c-2.5,0-4-2.3-6.2-6.1
			c-2.3-4-5.2-9.1-11.3-9.1c-6.1,0-9,5-11.3,9.1c-2.2,3.8-3.6,6.1-6.2,6.1c-2.5,0-4-2.3-6.2-6.1c-2.3-4-5.2-9.1-11.3-9.1
			s-9,5-11.3,9.1c-2.2,3.8-3.6,6.1-6.2,6.1s-4-2.3-6.2-6.1c-2.3-4-5.2-9.1-11.3-9.1c-1.6,0-3,1.3-3,3c0,1.6,1.3,3,3,3
			c2.5,0,4,2.3,6.2,6.1c2.3,4,5.2,9.1,11.3,9.1c6.1,0,9-5,11.3-9.1c2.2-3.8,3.6-6.1,6.2-6.1s4,2.3,6.2,6.1c2.3,4,5.2,9.1,11.3,9.1
			c6.1,0,9-5,11.3-9.1c2.2-3.8,3.6-6.1,6.2-6.1c2.5,0,4,2.3,6.2,6.1c2.3,4,5.2,9.1,11.3,9.1c6.1,0,9-5,11.3-9.1
			c2.2-3.8,3.6-6.1,6.2-6.1c2.5,0,4,2.3,6.2,6.1c2.3,4,5.2,9.1,11.3,9.1c6.1,0,9-5,11.3-9.1c2.2-3.8,3.6-6.1,6.2-6.1
			c2.5,0,4,2.3,6.2,6.1c2.3,4,5.2,9.1,11.3,9.1c6.1,0,9-5,11.3-9.1c2.2-3.8,3.6-6.1,6.2-6.1c2.3,0,3.7,1.9,5.6,5.2
			C190.8,61.9,192.4,63.9,194.6,61.8z"/>
	</g>
</g>
</svg>
