<?xml version="1.0" encoding="utf-8"?>
<!-- Generator: Adobe Illustrator 25.0.0, SVG Export Plug-In . SVG Version: 6.00 Build 0)  -->
<svg version="1.1" id="Layer_1" xmlns="http://www.w3.org/2000/svg" xmlns:xlink="http://www.w3.org/1999/xlink" x="0px" y="0px"
	 viewBox="0 0 208 250" style="enable-background:new 0 0 208 250;" xml:space="preserve">
<style type="text/css">
	.st0{fill:#FEA087;}
</style>
<path class="st0" d="M116.5,242.3c23.4-3.1,45.9-10.8,61.3-28.1c18.8-21.2,22.2-51.8,21.3-80.1c-0.8-28.1-5-56.1-9.1-83.9
	c-1.2-8-2.5-16.4-7.1-23.1c-7.7-11.1-22.4-14.6-35.8-16.6c-27.5-4.2-55.3-6.1-83-5.5C51.2,5.2,37,6.5,28,15.6
	c-5.9,6-8.6,14.4-10.7,22.5c-11.5,44-12.4,90.7-2.8,135.1c10,46.7,26.2,72.1,77.4,70.8C99.9,243.9,108.3,243.4,116.5,242.3z"/>
</svg>
