<?xml version="1.0" encoding="utf-8"?>
<!-- Generator: Adobe Illustrator 23.0.1, SVG Export Plug-In . SVG Version: 6.00 Build 0)  -->
<svg version="1.1" id="Layer_1" xmlns="http://www.w3.org/2000/svg" xmlns:xlink="http://www.w3.org/1999/xlink" x="0px" y="0px"
	 viewBox="0 0 300 300" style="enable-background:new 0 0 300 300;" xml:space="preserve">
<style type="text/css">
	.st0{fill:#A6B6DD;}
	.st1{fill:#FFFFFF;}
</style>
<circle class="st0" cx="150" cy="150" r="78.51"/>
<g>
	<path class="st1" d="M137.11,167.44c-1.68,2.03-4.04,3.76-7.08,5.2s-6.96,2.15-11.75,2.15c-5.98,0-10.83-1.83-14.56-5.49
		c-3.73-3.66-5.59-8.42-5.59-14.26v-10.06c0-5.8,1.81-10.54,5.44-14.23c3.63-3.68,8.3-5.53,14.01-5.53c6.15,0,10.8,1.37,13.95,4.12
		c3.14,2.75,4.66,6.5,4.55,11.27l-0.07,0.2h-10.49c0-2.36-0.63-4.11-1.89-5.26c-1.26-1.15-3.15-1.72-5.69-1.72
		c-2.6,0-4.7,1.03-6.29,3.08c-1.59,2.05-2.38,4.72-2.38,8.01v10.13c0,3.35,0.79,6.05,2.37,8.09c1.58,2.04,3.79,3.06,6.63,3.06
		c2.05,0,3.67-0.17,4.85-0.5c1.18-0.33,2.11-0.77,2.8-1.32v-8.6h-8.54v-7.41h19.72V167.44z"/>
	<path class="st1" d="M183.87,154.33c0,5.93-1.88,10.83-5.64,14.68s-8.68,5.77-14.74,5.77c-6.11,0-11.06-1.92-14.86-5.77
		s-5.69-8.74-5.69-14.68v-8.67c0-5.91,1.89-10.8,5.67-14.66s8.72-5.79,14.81-5.79c6.04,0,10.96,1.93,14.76,5.79
		s5.69,8.75,5.69,14.66V154.33z M172.71,145.6c0-3.44-0.81-6.27-2.43-8.47c-1.62-2.21-3.91-3.31-6.86-3.31
		c-3.02,0-5.33,1.1-6.93,3.29c-1.6,2.19-2.4,5.02-2.4,8.49v8.74c0,3.49,0.81,6.33,2.43,8.54s3.94,3.31,6.97,3.31
		c2.93,0,5.21-1.1,6.81-3.31c1.61-2.21,2.42-5.05,2.42-8.54V145.6z"/>
	<path class="st1" d="M201.87,157.02h-11.22v-31.1h11.22V157.02z M201.87,174.09h-11.22v-9.36h11.22V174.09z"/>
</g>
</svg>
