<svg id="Layer_1" data-name="Layer 1" xmlns="http://www.w3.org/2000/svg" viewBox="0 0 381 108.33"><defs><style>.cls-1{fill:#212121;}</style></defs><title>Logo2Vector</title><circle class="cls-1" cx="7.5" cy="54.97" r="7.5"/><path class="cls-1" d="M377.59,49a7.47,7.47,0,0,0-2.8.55,7,7,0,0,1-1.21,13.29,7.5,7.5,0,1,0,4-13.84Z" transform="translate(-4.09 -1.51)"/><path class="cls-1" d="M167.83,36.11c0-2.34-1.26-5.47-3.08-6.84-3-2.23-5.36-2.8-8.95-5a13.35,13.35,0,0,1-5.93-10.72c0-6.49,5.81-12,12.43-12,4,0,6.84,2.39,9,2.39.8,0,1.26-.8,1.37-1.43H173l.51,14.09h-.28C171.93,12.51,167.94,2,162.35,2A5.86,5.86,0,0,0,156.77,8c0,3.7,3.13,5.64,6.1,7.12,3.36,1.71,4.33,1.83,7.52,4.22,2.51,1.88,5.42,5.87,5.42,12.37,0,6-5.13,15.28-15.68,15.28-5.93,0-13.51-4.62-13.51-11.52,0-4.9,4.22-8.55,9.12-8.55,3,0,6.1,2,6.1,5a4.53,4.53,0,0,1-4.62,4.45c-2.68,0-3.47-2-4-3.71-.46-1.25-.75-2.39-1.71-2.39-2.51,0-3.88,2.79-3.88,5.3,0,5.58,5.87,10,10.37,10C164,45.51,167.83,41.52,167.83,36.11Z" transform="translate(-4.09 -1.51)"/><path class="cls-1" d="M207,35.88c0,1.77,2.57,2.62,3.48,2.79v.4A29.89,29.89,0,0,0,200,41.64h-.34V37c-1.48,1.66-5.64,4.11-8.61,4.11S184,38.79,184,35.6V23.91c0-1.77-3-3.59-3.82-4.11v-.39a60.1,60.1,0,0,0,10.94-2.85h.34V34.17c0,3,1.88,4.62,4.05,4.62,1.88,0,3.25-1.43,4.22-2.74V24c0-1.77-3.42-3.65-4.5-4.11v-.4a73.26,73.26,0,0,0,11.51-2.85H207Z" transform="translate(-4.09 -1.51)"/><path class="cls-1" d="M243,53a3.66,3.66,0,0,0,3.88-3.47c0-1.49-1.2-2-1.2-3.48a3.47,3.47,0,0,1,3.59-3.54c2.11,0,4,1.37,4,3.48,0,5-4.78,7.87-9.8,7.87-8.55,0-12.77-8-12.77-14V24c0-2.73-1.14-4.44-3.31-4.44-1.88,0-2.85.91-4.22,2.11V36.11c0,2.68.63,3.76,3,3.76v.46H213v-.46c2.4,0,3-1.08,3-3.76V24c0-1.76-2.63-3.3-3.48-3.82v-.4a39.33,39.33,0,0,0,10.2-3.19h.34v4.33c1.77-1.36,5.65-4.21,8.61-4.21s6,2.28,6,5.47v21C237.71,49.45,238,53,243,53Z" transform="translate(-4.09 -1.51)"/><path class="cls-1" d="M120.34,67.77c0,1.76.57,3.82,2.34,3.82s2.85-1.26,4.68-1.26a4.28,4.28,0,0,1,4.33,4.39,4.36,4.36,0,0,1-4.56,4.22c-4.39,0-8-5.42-8-9.06,0-6.62,5.53-11.41,12-11.41h12.71l10.6,26.46,10.32-26.46h13.63v.4c-2.4,0-5.08,1.2-5.08,3.88V92.11c0,2.68,2.68,3.76,5.08,3.76v.46h-19.1v-.46c2.39,0,5.47-1.08,5.47-3.76V59.84L150.33,96.5h-.46L136.76,64.86V88c0,4.84,2.74,7.92,6.1,7.92v.46H130.09v-.46c2.4,0,6.1-3.08,6.1-7.92V63.32c-1-2.51-2.45-4.22-5.07-4.22C125.87,59.1,120.34,62.81,120.34,67.77Z" transform="translate(-4.09 -1.51)"/><path class="cls-1" d="M208.41,84.87c0,7-6.15,12.2-13.17,12.2s-13.16-5.19-13.16-12.2,6.15-12.2,13.16-12.2S208.41,77.86,208.41,84.87Zm-18.13,0c0,6.38.4,11.68,5,11.68s5-5.3,5-11.68-.4-11.69-5-11.69S190.28,78.48,190.28,84.87Z" transform="translate(-4.09 -1.51)"/><path class="cls-1" d="M238.62,84.87c0,7-6.15,12.2-13.17,12.2s-13.17-5.19-13.17-12.2,6.16-12.2,13.17-12.2S238.62,77.86,238.62,84.87Zm-18.13,0c0,6.38.4,11.68,5,11.68s5-5.3,5-11.68-.4-11.69-5-11.69S220.49,78.48,220.49,84.87Z" transform="translate(-4.09 -1.51)"/><path class="cls-1" d="M272,109a3.65,3.65,0,0,0,3.87-3.47c0-1.49-1.2-2-1.2-3.48a3.47,3.47,0,0,1,3.6-3.54c2.11,0,4,1.37,4,3.48,0,5-4.79,7.87-9.81,7.87-8.55,0-12.77-8-12.77-14V80c0-2.73-1.14-4.44-3.3-4.44-1.88,0-2.85.91-4.22,2.11V92.11c0,2.68.62,3.76,3,3.76v.46H242v-.46c2.39,0,3-1.08,3-3.76V80c0-1.76-2.62-3.3-3.48-3.82v-.4a39.47,39.47,0,0,0,10.21-3.19h.34V77c1.76-1.37,5.64-4.22,8.61-4.22s6,2.28,6,5.47v21C266.72,105.45,267.05,109,272,109Z" transform="translate(-4.09 -1.51)"/><path class="cls-1" d="M189.24,63c-.06-.16-.12-.29-.16-.41a2,2,0,0,1-.09-.35,1.9,1.9,0,0,1-.55.76,2,2,0,0,1-.95.46,1.55,1.55,0,0,1-1.13-.14,1.35,1.35,0,0,1-.58-.92,1.19,1.19,0,0,1,.33-1.12,2.48,2.48,0,0,1,1.34-.68l1.15-.24-.12-.58A1,1,0,0,0,188,59a1.29,1.29,0,0,0-.95-.1,1.35,1.35,0,0,0-.8.43.81.81,0,0,0-.2.72l-.47.1,0,0a1.14,1.14,0,0,1,.26-1,1.94,1.94,0,0,1,1.16-.66,1.89,1.89,0,0,1,1.31.14,1.41,1.41,0,0,1,.7,1l.48,2.29a3.59,3.59,0,0,0,.12.47,4.17,4.17,0,0,0,.19.44Zm-1.79,0a1.84,1.84,0,0,0,1-.5,1.41,1.41,0,0,0,.44-.84l-.18-.89-1.15.23a1.79,1.79,0,0,0-1,.52.88.88,0,0,0-.25.81.83.83,0,0,0,.39.58A1.05,1.05,0,0,0,187.45,63Z" transform="translate(-4.09 -1.51)"/><path class="cls-1" d="M194.46,57.28l.15.82a1.71,1.71,0,0,1,.53-.75A1.69,1.69,0,0,1,196,57a1.45,1.45,0,0,1,1.23.32,2.26,2.26,0,0,1,.58,1.41l.37,2.87-.53.07-.36-2.87a1.74,1.74,0,0,0-.45-1.11,1.12,1.12,0,0,0-.9-.23,1.47,1.47,0,0,0-.87.39,1.64,1.64,0,0,0-.4.8l.42,3.34-.52.07L194,57.34Z" transform="translate(-4.09 -1.51)"/><path class="cls-1" d="M202.83,58.85a3.05,3.05,0,0,1,.4-1.84,1.52,1.52,0,0,1,1.31-.74,1.72,1.72,0,0,1,.86.16A1.79,1.79,0,0,1,206,57l-.13-2.8.52,0,.32,6.85-.43,0-.11-.68a1.62,1.62,0,0,1-.59.6,1.81,1.81,0,0,1-.87.25,1.59,1.59,0,0,1-1.36-.58,2.81,2.81,0,0,1-.56-1.68Zm.53.07a2.38,2.38,0,0,0,.41,1.35,1.14,1.14,0,0,0,1.06.46,1.47,1.47,0,0,0,.84-.26,1.54,1.54,0,0,0,.49-.65l-.1-2.25a1.61,1.61,0,0,0-.54-.64,1.32,1.32,0,0,0-.87-.21,1.12,1.12,0,0,0-1,.61,2.75,2.75,0,0,0-.28,1.5Z" transform="translate(-4.09 -1.51)"/><path class="cls-1" d="M218.84,55.37l-.1,1.22,1,.08,0,.43-1-.08-.24,3.08a1,1,0,0,0,.11.68A.58.58,0,0,0,219,61h.19l.22,0,.05.4a1.07,1.07,0,0,1-.27.06,1.63,1.63,0,0,1-.31,0,1,1,0,0,1-.76-.38,1.51,1.51,0,0,1-.19-1l.24-3.09-.82-.06,0-.43.81.06.1-1.21Z" transform="translate(-4.09 -1.51)"/><path class="cls-1" d="M225.13,58.09a1.69,1.69,0,0,1,1.67-.65,1.41,1.41,0,0,1,1.07.63,2.16,2.16,0,0,1,.18,1.49l-.43,2.9-.52-.08.43-2.91a1.65,1.65,0,0,0-.13-1.14,1.08,1.08,0,0,0-.78-.46,1.48,1.48,0,0,0-1,.13,1.53,1.53,0,0,0-.62.64L224.54,62l-.52-.08,1-6.78.52.08Z" transform="translate(-4.09 -1.51)"/><path class="cls-1" d="M234.23,63.9a1.9,1.9,0,0,1-1.31-1,2.38,2.38,0,0,1-.18-1.76l0-.24a2.54,2.54,0,0,1,1-1.52,1.86,1.86,0,0,1,1.56-.32,1.68,1.68,0,0,1,1.18.84,2.27,2.27,0,0,1,.12,1.57l-.09.39-3.23-.74,0,.14a2.16,2.16,0,0,0,.1,1.41,1.3,1.3,0,0,0,1,.77,2.24,2.24,0,0,0,.81,0,1.77,1.77,0,0,0,.68-.24l.14.4a2.24,2.24,0,0,1-.74.28A2.62,2.62,0,0,1,234.23,63.9Zm1-4.39a1.3,1.3,0,0,0-1.07.2,2,2,0,0,0-.7,1v0l2.65.62,0-.11a1.66,1.66,0,0,0-.09-1.09A1.16,1.16,0,0,0,235.2,59.51Z" transform="translate(-4.09 -1.51)"/></svg>