<?xml version="1.0" encoding="utf-8"?>
<!-- Generator: Adobe Illustrator 23.0.1, SVG Export Plug-In . SVG Version: 6.00 Build 0)  -->
<svg version="1.1" id="Layer_1" xmlns="http://www.w3.org/2000/svg" xmlns:xlink="http://www.w3.org/1999/xlink" x="0px" y="0px"
	 viewBox="0 0 1011.44 163.8" style="enable-background:new 0 0 1011.44 163.8;" xml:space="preserve">
<style type="text/css">
	.st0{fill:#FFFFFF;stroke:#486C7C;stroke-miterlimit:10;}
	.st1{fill:#486C7C;}
	.st2{font-family:'CaslonCP';}
	.st3{font-size:12px;}
	.st4{fill:none;}
	.st5{font-family:'Roboto-Light';}
	.st6{font-size:9px;}
</style>
<g>
	<path class="st0" d="M304.61,142.58H89.9c-4.32,0-7.83-3.51-7.83-7.83V29.04c0-4.32,3.51-7.83,7.83-7.83h214.71
		c4.32,0,7.83,3.51,7.83,7.83v105.71C312.44,139.08,308.93,142.58,304.61,142.58z"/>
	<path class="st0" d="M615.54,142.58H400.83c-4.32,0-7.83-3.51-7.83-7.83V29.04c0-4.32,3.51-7.83,7.83-7.83h214.71
		c4.32,0,7.83,3.51,7.83,7.83v105.71C623.37,139.08,619.86,142.58,615.54,142.58z"/>
	<path class="st0" d="M921.54,142.58H706.83c-4.32,0-7.83-3.51-7.83-7.83V29.04c0-4.32,3.51-7.83,7.83-7.83h214.71
		c4.32,0,7.83,3.51,7.83,7.83v105.71C929.37,139.08,925.86,142.58,921.54,142.58z"/>
	<g>
		<polygon class="st1" points="473.67,38.06 475.69,42.15 480.19,42.8 476.93,45.98 477.7,50.46 473.67,48.35 469.64,50.46 
			470.41,45.98 467.15,42.8 471.66,42.15 		"/>
		<polygon class="st1" points="490.93,38.06 492.94,42.15 497.45,42.8 494.19,45.98 494.96,50.46 490.93,48.35 486.9,50.46 
			487.67,45.98 484.41,42.8 488.91,42.15 		"/>
		<polygon class="st1" points="508.18,38.06 510.2,42.15 514.7,42.8 511.44,45.98 512.21,50.46 508.18,48.35 504.15,50.46 
			504.92,45.98 501.66,42.8 506.17,42.15 		"/>
		<polygon class="st1" points="525.44,38.06 527.45,42.15 531.96,42.8 528.7,45.98 529.47,50.46 525.44,48.35 521.41,50.46 
			522.18,45.98 518.92,42.8 523.42,42.15 		"/>
		<polygon class="st1" points="542.69,38.06 544.71,42.15 549.21,42.8 545.95,45.98 546.72,50.46 542.69,48.35 538.66,50.46 
			539.43,45.98 536.17,42.8 540.68,42.15 		"/>
	</g>
	<text transform="matrix(1 0 0 1 452.8864 77.8068)" class="st1 st2 st3">Anna S. from Antioch</text>
	<rect x="398.97" y="93.39" class="st4" width="218.43" height="41.05"/>
	<text transform="matrix(1 0 0 1 405.9016 100.2448)"><tspan x="0" y="0" class="st1 st5 st6">Fiona really gave me helpful insight on the troubles I </tspan><tspan x="2.01" y="10.8" class="st1 st5 st6">was dealing with, and I owe her for the clarity I now </tspan><tspan x="50.72" y="21.6" class="st1 st5 st6">have. Thank you so much!</tspan></text>
	<g>
		<g>
			<polygon class="st1" points="163.7,38.06 165.72,42.15 170.22,42.8 166.96,45.98 167.73,50.46 163.7,48.35 159.68,50.46 
				160.45,45.98 157.19,42.8 161.69,42.15 			"/>
			<polygon class="st1" points="180.96,38.06 182.97,42.15 187.48,42.8 184.22,45.98 184.99,50.46 180.96,48.35 176.93,50.46 
				177.7,45.98 174.44,42.8 178.94,42.15 			"/>
			<polygon class="st1" points="198.21,38.06 200.23,42.15 204.73,42.8 201.47,45.98 202.24,50.46 198.21,48.35 194.18,50.46 
				194.95,45.98 191.69,42.8 196.2,42.15 			"/>
			<polygon class="st1" points="215.47,38.06 217.48,42.15 221.99,42.8 218.73,45.98 219.5,50.46 215.47,48.35 211.44,50.46 
				212.21,45.98 208.95,42.8 213.45,42.15 			"/>
			<polygon class="st1" points="232.72,38.06 234.74,42.15 239.24,42.8 235.98,45.98 236.75,50.46 232.72,48.35 228.69,50.46 
				229.46,45.98 226.2,42.8 230.71,42.15 			"/>
		</g>
		<text transform="matrix(1 0 0 1 126.4848 77.8068)" class="st1 st2 st3">Abby E. from San Francisco</text>
		<g>
			<rect x="89" y="93.39" class="st4" width="218.43" height="41.05"/>
			<text transform="matrix(1 0 0 1 91.7348 100.2448)"><tspan x="0" y="0" class="st1 st5 st6">My all time favorite tarot reader! It stands out from the </tspan><tspan x="2.44" y="10.8" class="st1 st5 st6">rest, especially because I can book my appointments </tspan><tspan x="7.15" y="21.6" class="st1 st5 st6">online and also choose my own deck! I highly recc.</tspan></text>
		</g>
	</g>
	<g>
		<polygon class="st1" points="779.67,38.06 781.69,42.15 786.19,42.8 782.93,45.98 783.7,50.46 779.67,48.35 775.64,50.46 
			776.41,45.98 773.15,42.8 777.66,42.15 		"/>
		<polygon class="st1" points="796.93,38.06 798.94,42.15 803.45,42.8 800.19,45.98 800.96,50.46 796.93,48.35 792.9,50.46 
			793.67,45.98 790.41,42.8 794.91,42.15 		"/>
		<polygon class="st1" points="814.18,38.06 816.2,42.15 820.7,42.8 817.44,45.98 818.21,50.46 814.18,48.35 810.15,50.46 
			810.92,45.98 807.66,42.8 812.17,42.15 		"/>
		<polygon class="st1" points="831.44,38.06 833.45,42.15 837.96,42.8 834.7,45.98 835.47,50.46 831.44,48.35 827.41,50.46 
			828.18,45.98 824.92,42.8 829.42,42.15 		"/>
		<polygon class="st1" points="848.69,38.06 850.7,42.15 855.21,42.8 851.95,45.98 852.72,50.46 848.69,48.35 844.66,50.46 
			845.43,45.98 842.17,42.8 846.68,42.15 		"/>
	</g>
	<text transform="matrix(1 0 0 1 746.5981 77.8068)" class="st1 st2 st3">Brandon L. from Hayward</text>
	<g>
		<rect x="704.97" y="93.39" class="st4" width="218.43" height="41.05"/>
		<text transform="matrix(1 0 0 1 715.2104 100.2448)"><tspan x="0" y="0" class="st1 st5 st6">Truth be told, I was a bit of a skeptic going into the </tspan><tspan x="-5.4" y="10.8" class="st1 st5 st6">session, but Fiona took such good care of me. I really </tspan><tspan x="43.47" y="21.6" class="st1 st5 st6">like the Golden Thread deck!</tspan></text>
	</g>
</g>
</svg>
