<?xml version="1.0" encoding="utf-8"?>
<!-- Generator: Adobe Illustrator 23.0.1, SVG Export Plug-In . SVG Version: 6.00 Build 0)  -->
<svg version="1.1" id="Layer_1" xmlns="http://www.w3.org/2000/svg" xmlns:xlink="http://www.w3.org/1999/xlink" x="0px" y="0px"
	 viewBox="0 0 560 138.06" style="enable-background:new 0 0 560 138.06;" xml:space="preserve">
<style type="text/css">
	.st0{fill:#486C7C;}
</style>
<g>
	<g>
		<path class="st0" d="M35.07,10.82c2.49,0,4.65,0.31,6.46,0.93c1.82,0.62,3.33,1.44,4.53,2.46c1.2,1.02,2.08,2.1,2.63,3.23
			c0.55,1.13,0.83,2.22,0.83,3.29c0,0.98-0.35,1.86-1.04,2.64c-0.69,0.78-1.56,1.18-2.59,1.18c-0.94,0-1.66-0.24-2.15-0.71
			c-0.49-0.47-1.02-1.24-1.59-2.31c-0.74-1.53-1.62-2.73-2.66-3.59c-1.03-0.86-2.7-1.29-4.98-1.29c-2.12,0-3.83,0.47-5.14,1.4
			c-1.3,0.93-1.95,2.05-1.95,3.36c0,0.81,0.22,1.51,0.66,2.1c0.44,0.59,1.05,1.1,1.83,1.52c0.78,0.42,1.56,0.76,2.35,1
			c0.79,0.24,2.1,0.59,3.93,1.05c2.29,0.54,4.36,1.13,6.22,1.77c1.86,0.65,3.43,1.43,4.73,2.35c1.3,0.92,2.32,2.09,3.05,3.5
			c0.73,1.41,1.09,3.14,1.09,5.19c0,2.45-0.63,4.66-1.9,6.62c-1.26,1.96-3.11,3.49-5.55,4.6c-2.44,1.11-5.33,1.66-8.67,1.66
			c-4.01,0-7.31-0.76-9.91-2.27c-1.85-1.09-3.35-2.54-4.5-4.36c-1.15-1.82-1.73-3.59-1.73-5.3c0-1,0.35-1.85,1.04-2.56
			c0.69-0.71,1.57-1.07,2.64-1.07c0.87,0,1.6,0.28,2.2,0.83s1.11,1.38,1.54,2.46c0.52,1.29,1.07,2.37,1.67,3.24
			c0.6,0.87,1.44,1.58,2.53,2.15c1.09,0.56,2.52,0.84,4.29,0.84c2.44,0,4.42-0.57,5.94-1.7c1.52-1.13,2.28-2.55,2.28-4.25
			c0-1.35-0.41-2.44-1.23-3.28c-0.82-0.84-1.88-1.48-3.18-1.92c-1.3-0.44-3.04-0.91-5.22-1.41c-2.92-0.68-5.36-1.48-7.32-2.39
			c-1.97-0.91-3.53-2.16-4.68-3.74c-1.15-1.58-1.73-3.54-1.73-5.88c0-2.23,0.61-4.22,1.83-5.95c1.22-1.73,2.98-3.07,5.29-4
			C29.24,11.29,31.95,10.82,35.07,10.82 M35.07,9.92c-3.22,0-6.07,0.49-8.48,1.46c-2.46,0.99-4.37,2.45-5.69,4.32
			c-1.32,1.88-1.99,4.06-1.99,6.47c0,2.53,0.64,4.69,1.9,6.41c1.24,1.69,2.93,3.05,5.03,4.02c2.02,0.94,4.54,1.76,7.5,2.45
			c2.14,0.49,3.87,0.96,5.13,1.39c1.16,0.39,2.11,0.97,2.83,1.7c0.66,0.67,0.97,1.54,0.97,2.65c0,1.41-0.63,2.56-1.92,3.53
			c-1.36,1.01-3.17,1.52-5.4,1.52c-1.62,0-2.92-0.25-3.88-0.74c-0.95-0.49-1.69-1.12-2.21-1.86c-0.56-0.81-1.09-1.84-1.58-3.06
			c-0.47-1.21-1.06-2.15-1.76-2.79c-0.77-0.71-1.71-1.07-2.81-1.07c-1.32,0-2.42,0.45-3.29,1.34c-0.86,0.88-1.29,1.95-1.29,3.19
			c0,1.88,0.63,3.83,1.87,5.78c1.22,1.93,2.84,3.5,4.8,4.65c2.73,1.59,6.22,2.4,10.37,2.4c3.45,0,6.5-0.59,9.04-1.74
			c2.58-1.17,4.58-2.83,5.93-4.93c1.35-2.09,2.04-4.49,2.04-7.11c0-2.18-0.4-4.07-1.19-5.6c-0.79-1.53-1.91-2.82-3.32-3.82
			c-1.36-0.97-3.03-1.8-4.96-2.47c-1.87-0.65-3.99-1.26-6.31-1.8c-1.78-0.45-3.09-0.8-3.88-1.04c-0.73-0.22-1.46-0.53-2.18-0.92
			c-0.66-0.36-1.18-0.79-1.54-1.27c-0.33-0.43-0.48-0.95-0.48-1.56c0-1.01,0.52-1.87,1.58-2.63c1.14-0.82,2.69-1.23,4.61-1.23
			c2.06,0,3.55,0.36,4.41,1.08c0.93,0.77,1.74,1.88,2.42,3.28c0.64,1.2,1.22,2.03,1.78,2.57c0.66,0.64,1.59,0.96,2.77,0.96
			c1.3,0,2.4-0.5,3.26-1.48c0.84-0.95,1.26-2.04,1.26-3.24c0-1.2-0.31-2.45-0.92-3.69c-0.61-1.23-1.57-2.41-2.85-3.51
			c-1.28-1.09-2.9-1.98-4.82-2.63C39.92,10.25,37.65,9.92,35.07,9.92L35.07,9.92z"/>
	</g>
	<g>
		<path class="st0" d="M82.2,22.06c1.13,0,2.03,0.37,2.71,1.12c0.68,0.75,1.02,1.88,1.02,3.39v21.9c0,1.44-0.33,2.52-0.98,3.24
			c-0.66,0.72-1.5,1.08-2.53,1.08c-1.03,0-1.89-0.37-2.56-1.12c-0.67-0.75-1.01-1.8-1.01-3.14v-0.97c-0.9,1.14-1.85,2.1-2.85,2.88
			c-1,0.78-2.09,1.35-3.27,1.73c-1.18,0.38-2.53,0.57-4.04,0.57c-1.83,0-3.47-0.38-4.91-1.14c-1.45-0.76-2.57-1.8-3.36-3.13
			C59.47,46.87,59,44.56,59,41.55V26.57c0-1.51,0.34-2.64,1.02-3.39c0.68-0.75,1.59-1.12,2.71-1.12c1.14,0,2.07,0.38,2.77,1.14
			c0.7,0.76,1.05,1.88,1.05,3.38v12.1c0,1.75,0.15,3.23,0.44,4.42c0.29,1.19,0.83,2.12,1.59,2.8c0.77,0.67,1.8,1.01,3.11,1.01
			c1.27,0,2.47-0.38,3.6-1.14c1.13-0.76,1.95-1.74,2.46-2.96c0.42-1.07,0.64-3.41,0.64-7.03v-9.19c0-1.5,0.35-2.62,1.05-3.38
			C80.16,22.44,81.08,22.06,82.2,22.06 M82.2,21.16c-1.38,0-2.53,0.48-3.4,1.42c-0.86,0.92-1.29,2.27-1.29,3.99v9.19
			c0,4.34-0.31,6.04-0.57,6.7c-0.44,1.04-1.14,1.88-2.13,2.55c-0.98,0.66-2,0.98-3.1,0.98c-1.09,0-1.92-0.26-2.52-0.79
			c-0.62-0.55-1.06-1.33-1.31-2.34c-0.28-1.11-0.42-2.53-0.42-4.2v-12.1c0-1.72-0.43-3.06-1.29-3.99c-0.88-0.94-2.03-1.42-3.43-1.42
			c-1.38,0-2.52,0.48-3.38,1.41c-0.84,0.92-1.26,2.26-1.26,4v14.98c0,3.2,0.5,5.61,1.54,7.38c0.88,1.47,2.13,2.64,3.72,3.47
			c1.57,0.82,3.37,1.24,5.33,1.24c1.6,0,3.05-0.21,4.32-0.61c1.28-0.41,2.47-1.04,3.55-1.88c0.51-0.4,1.01-0.84,1.5-1.34
			c0.17,0.99,0.55,1.81,1.14,2.46c0.85,0.94,1.93,1.42,3.23,1.42c1.29,0,2.37-0.46,3.2-1.37c0.81-0.89,1.22-2.18,1.22-3.85v-21.9
			c0-1.74-0.42-3.08-1.26-4C84.72,21.64,83.58,21.16,82.2,21.16L82.2,21.16z"/>
	</g>
	<g>
		<path class="st0" d="M111.61,22.06c1.99,0,3.77,0.43,5.34,1.3c1.57,0.87,2.74,2.09,3.52,3.68c0.5,0.92,0.82,1.92,0.97,2.99
			c0.15,1.07,0.22,2.44,0.22,4.1V48.2c0,1.51-0.35,2.66-1.04,3.43c-0.69,0.78-1.59,1.16-2.7,1.16c-1.13,0-2.04-0.4-2.74-1.19
			c-0.7-0.79-1.05-1.93-1.05-3.41V35.6c0-2.49-0.35-4.4-1.04-5.72c-0.69-1.32-2.07-1.98-4.14-1.98c-1.35,0-2.57,0.4-3.68,1.2
			c-1.11,0.8-1.92,1.91-2.44,3.31c-0.37,1.13-0.55,3.23-0.55,6.31v9.47c0,1.53-0.36,2.68-1.07,3.45c-0.71,0.77-1.63,1.15-2.75,1.15
			c-1.09,0-1.98-0.4-2.69-1.19c-0.7-0.79-1.05-1.93-1.05-3.41V26.35c0-1.44,0.31-2.51,0.94-3.23c0.63-0.71,1.49-1.07,2.57-1.07
			c0.66,0,1.26,0.16,1.8,0.47c0.54,0.31,0.96,0.78,1.29,1.41c0.32,0.63,0.48,1.39,0.48,2.3v0.91c1.33-1.75,2.78-3.04,4.36-3.86
			C107.75,22.47,109.56,22.06,111.61,22.06 M111.61,21.16c-2.18,0-4.16,0.45-5.86,1.33c-1.11,0.58-2.17,1.38-3.17,2.39
			c-0.1-0.49-0.25-0.94-0.46-1.35c-0.4-0.78-0.95-1.38-1.63-1.78c-0.67-0.39-1.43-0.59-2.26-0.59c-1.35,0-2.45,0.46-3.25,1.37
			c-0.77,0.88-1.17,2.16-1.17,3.82V48.2c0,1.7,0.43,3.04,1.28,4c0.88,0.99,2.01,1.49,3.36,1.49c1.38,0,2.53-0.48,3.41-1.44
			c0.87-0.93,1.31-2.3,1.31-4.06v-9.47c0-3.7,0.28-5.32,0.51-6.03c0.45-1.21,1.14-2.16,2.11-2.86c0.96-0.69,1.99-1.03,3.15-1.03
			c1.72,0,2.81,0.49,3.34,1.5c0.62,1.18,0.93,2.97,0.93,5.3v12.6c0,1.7,0.43,3.04,1.28,4c0.88,0.99,2.03,1.49,3.41,1.49
			c1.37,0,2.5-0.49,3.37-1.46c0.84-0.94,1.27-2.3,1.27-4.03V34.13c0-1.69-0.08-3.11-0.23-4.22c-0.16-1.17-0.52-2.28-1.07-3.29
			c-0.84-1.72-2.15-3.09-3.87-4.04C115.69,21.64,113.75,21.16,111.61,21.16L111.61,21.16z"/>
	</g>
	<g>
		<path class="st0" d="M159.3,22c3.32,0,5.93,0.39,7.84,1.18c1.9,0.78,3.24,2.03,4.03,3.72c0.78,1.7,1.18,3.95,1.18,6.76
			c0,1.77,0,3.28-0.01,4.51c-0.01,1.24-0.02,2.61-0.04,4.13c0,1.42,0.23,2.9,0.71,4.44c0.47,1.54,0.71,2.53,0.71,2.98
			c0,0.78-0.36,1.48-1.09,2.12c-0.73,0.64-1.56,0.95-2.48,0.95c-0.78,0-1.54-0.36-2.3-1.09c-0.76-0.73-1.56-1.79-2.41-3.17
			c-1.83,1.42-3.59,2.49-5.3,3.2c-1.71,0.71-3.62,1.07-5.74,1.07c-1.94,0-3.64-0.38-5.11-1.15c-1.47-0.77-2.6-1.8-3.39-3.11
			c-0.79-1.31-1.19-2.73-1.19-4.26c0-2.07,0.65-3.83,1.97-5.29c1.31-1.46,3.11-2.44,5.4-2.93c0.48-0.11,1.67-0.36,3.57-0.75
			c1.9-0.39,3.53-0.74,4.89-1.07c1.36-0.32,2.83-0.72,4.42-1.18c-0.09-1.99-0.49-3.46-1.2-4.39c-0.71-0.93-2.18-1.4-4.42-1.4
			c-1.92,0-3.36,0.27-4.33,0.8c-0.97,0.54-1.8,1.34-2.49,2.41c-0.69,1.07-1.18,1.78-1.47,2.12c-0.29,0.34-0.9,0.51-1.84,0.51
			c-0.85,0-1.58-0.27-2.2-0.82c-0.62-0.54-0.93-1.24-0.93-2.09c0-1.33,0.47-2.62,1.41-3.88c0.94-1.26,2.41-2.29,4.4-3.1
			C153.84,22.41,156.33,22,159.3,22 M156.97,47.84c1.5,0,2.87-0.33,4.14-0.98c1.26-0.66,2.19-1.5,2.78-2.53
			c0.68-1.14,1.02-3.03,1.02-5.65v-1.08c-1.11,0.41-2.72,0.84-4.83,1.29c-2.11,0.45-3.58,0.78-4.39,1
			c-0.81,0.21-1.59,0.63-2.33,1.25c-0.74,0.62-1.11,1.48-1.11,2.59c0,1.14,0.43,2.12,1.3,2.92
			C154.43,47.43,155.57,47.84,156.97,47.84 M159.3,21.1c-3.07,0-5.69,0.43-7.79,1.28c-2.14,0.87-3.75,2.01-4.78,3.39
			c-1.06,1.41-1.59,2.89-1.59,4.42c0,1.12,0.41,2.05,1.23,2.77c0.78,0.69,1.72,1.04,2.8,1.04c1.23,0,2.06-0.27,2.53-0.83
			c0.31-0.38,0.82-1.1,1.53-2.21c0.61-0.94,1.34-1.65,2.17-2.11c0.83-0.46,2.14-0.69,3.9-0.69c1.9,0,3.18,0.36,3.7,1.04
			c0.51,0.67,0.84,1.74,0.97,3.18c-1.31,0.37-2.55,0.7-3.68,0.97c-1.33,0.32-2.97,0.67-4.86,1.06c-1.93,0.39-3.1,0.64-3.59,0.75
			c-2.45,0.53-4.43,1.62-5.87,3.21c-1.46,1.62-2.2,3.6-2.2,5.89c0,1.69,0.44,3.28,1.32,4.73c0.88,1.45,2.14,2.61,3.74,3.45
			c1.59,0.83,3.45,1.25,5.52,1.25c2.23,0,4.28-0.38,6.09-1.13c1.53-0.64,3.11-1.55,4.72-2.72c0.7,1.05,1.37,1.89,2.02,2.51
			c0.93,0.89,1.91,1.35,2.92,1.35c1.14,0,2.17-0.4,3.07-1.18c0.93-0.81,1.4-1.75,1.4-2.8c0-0.37-0.08-1.07-0.74-3.24
			c-0.44-1.45-0.67-2.85-0.67-4.18c0.02-1.5,0.03-2.88,0.04-4.12c0.01-1.24,0.01-2.75,0.01-4.52c0-2.92-0.42-5.32-1.26-7.13
			c-0.88-1.9-2.39-3.31-4.5-4.18C165.47,21.52,162.72,21.1,159.3,21.1L159.3,21.1z M156.97,46.94c-1.18,0-2.09-0.32-2.79-0.96
			c-0.68-0.63-1.01-1.37-1.01-2.26c0-0.83,0.26-1.46,0.79-1.9c0.63-0.53,1.3-0.89,1.97-1.06c0.8-0.21,2.26-0.54,4.35-0.99
			c1.48-0.32,2.73-0.63,3.74-0.93c-0.01,2.36-0.31,4.05-0.9,5.03c-0.51,0.89-1.32,1.62-2.42,2.2
			C159.57,46.64,158.32,46.94,156.97,46.94L156.97,46.94z"/>
	</g>
	<g>
		<path class="st0" d="M198.15,22.06c1.99,0,3.77,0.43,5.34,1.3c1.57,0.87,2.74,2.09,3.52,3.68c0.5,0.92,0.82,1.92,0.97,2.99
			c0.15,1.07,0.22,2.44,0.22,4.1V48.2c0,1.51-0.35,2.66-1.04,3.43c-0.69,0.78-1.59,1.16-2.7,1.16c-1.13,0-2.04-0.4-2.74-1.19
			c-0.7-0.79-1.05-1.93-1.05-3.41V35.6c0-2.49-0.35-4.4-1.04-5.72c-0.69-1.32-2.07-1.98-4.14-1.98c-1.35,0-2.57,0.4-3.68,1.2
			c-1.11,0.8-1.92,1.91-2.44,3.31c-0.37,1.13-0.55,3.23-0.55,6.31v9.47c0,1.53-0.36,2.68-1.07,3.45c-0.71,0.77-1.63,1.15-2.75,1.15
			c-1.09,0-1.98-0.4-2.69-1.19c-0.7-0.79-1.05-1.93-1.05-3.41V26.35c0-1.44,0.31-2.51,0.94-3.23c0.63-0.71,1.49-1.07,2.58-1.07
			c0.66,0,1.26,0.16,1.8,0.47c0.53,0.31,0.96,0.78,1.29,1.41c0.32,0.63,0.49,1.39,0.49,2.3v0.91c1.33-1.75,2.78-3.04,4.36-3.86
			C194.29,22.47,196.1,22.06,198.15,22.06 M198.15,21.16c-2.18,0-4.15,0.45-5.85,1.33c-1.11,0.58-2.17,1.38-3.17,2.39
			c-0.1-0.49-0.25-0.94-0.46-1.35c-0.4-0.78-0.95-1.38-1.63-1.78c-0.67-0.4-1.43-0.59-2.26-0.59c-1.35,0-2.45,0.46-3.25,1.37
			c-0.77,0.88-1.17,2.16-1.17,3.82V48.2c0,1.7,0.43,3.04,1.28,4c0.88,0.99,2.01,1.49,3.36,1.49c1.38,0,2.53-0.48,3.41-1.44
			c0.87-0.93,1.31-2.3,1.31-4.06v-9.47c0-3.7,0.28-5.32,0.51-6.03c0.45-1.21,1.14-2.16,2.11-2.86c0.96-0.69,1.99-1.03,3.15-1.03
			c1.72,0,2.81,0.49,3.34,1.5c0.62,1.18,0.93,2.97,0.93,5.3v12.6c0,1.7,0.43,3.04,1.28,4c0.88,0.99,2.03,1.49,3.41,1.49
			c1.37,0,2.5-0.49,3.37-1.46c0.84-0.94,1.27-2.3,1.27-4.03V34.13c0-1.69-0.08-3.11-0.23-4.22c-0.16-1.17-0.52-2.28-1.07-3.3
			c-0.84-1.72-2.15-3.09-3.87-4.04C202.23,21.64,200.29,21.16,198.15,21.16L198.15,21.16z"/>
	</g>
	<g>
		<path class="st0" d="M241.48,10.82c1.14,0,2.02,0.36,2.64,1.09c0.62,0.73,0.93,1.8,0.93,3.23v33.33c0,1.44-0.33,2.52-1,3.24
			c-0.66,0.72-1.52,1.08-2.57,1.08c-1.03,0-1.89-0.37-2.56-1.12c-0.67-0.75-1.01-1.81-1.01-3.2v-0.75c-1.02,1.16-2.02,2.11-3,2.84
			c-0.99,0.73-2.06,1.28-3.21,1.66c-1.15,0.38-2.41,0.57-3.78,0.57c-1.81,0-3.48-0.38-5.02-1.15c-1.54-0.77-2.87-1.86-4-3.28
			c-1.13-1.42-1.98-3.09-2.56-5.01c-0.58-1.92-0.87-4-0.87-6.23c0-4.72,1.15-8.41,3.46-11.05c2.31-2.64,5.34-3.96,9.11-3.96
			c2.18,0,4.01,0.37,5.51,1.12c1.5,0.75,2.95,1.9,4.38,3.45V15.53c0-1.55,0.31-2.72,0.93-3.52
			C239.46,11.22,240.34,10.82,241.48,10.82 M230.24,46.95c1.33,0,2.54-0.35,3.64-1.04c1.1-0.69,1.97-1.75,2.63-3.18
			c0.65-1.43,0.98-3.22,0.98-5.36c0-2.01-0.33-3.74-0.98-5.19c-0.66-1.45-1.54-2.56-2.66-3.32c-1.12-0.77-2.34-1.15-3.67-1.15
			c-1.38,0-2.62,0.39-3.71,1.18c-1.09,0.78-1.93,1.91-2.53,3.38c-0.6,1.47-0.9,3.17-0.9,5.11c0,2.05,0.32,3.79,0.96,5.23
			c0.64,1.44,1.51,2.52,2.62,3.25C227.72,46.59,228.93,46.95,230.24,46.95 M241.48,9.92c-1.43,0-2.56,0.52-3.35,1.54
			c-0.74,0.95-1.12,2.32-1.12,4.07v9.01c-1-0.88-2.03-1.59-3.07-2.11c-1.61-0.81-3.6-1.22-5.91-1.22c-4.02,0-7.31,1.44-9.79,4.27
			c-2.44,2.8-3.68,6.71-3.68,11.64c0,2.31,0.31,4.49,0.91,6.49c0.61,2.02,1.53,3.81,2.72,5.31c1.2,1.52,2.65,2.71,4.31,3.53
			c1.66,0.82,3.48,1.24,5.43,1.24c1.45,0,2.82-0.21,4.06-0.61c1.24-0.41,2.41-1.01,3.47-1.79c0.56-0.41,1.12-0.89,1.69-1.43
			c0.18,0.97,0.55,1.78,1.12,2.42c0.85,0.94,1.94,1.42,3.23,1.42c1.31,0,2.4-0.46,3.24-1.37c0.82-0.89,1.24-2.18,1.24-3.85V15.14
			c0-1.63-0.38-2.92-1.14-3.81C244.02,10.39,242.9,9.92,241.48,9.92L241.48,9.92z M230.24,46.05c-1.14,0-2.17-0.31-3.13-0.95
			c-0.96-0.63-1.73-1.59-2.29-2.87c-0.58-1.32-0.88-2.96-0.88-4.87c0-1.81,0.28-3.42,0.83-4.77c0.53-1.3,1.28-2.31,2.23-2.99
			c0.94-0.68,1.98-1.01,3.18-1.01c1.15,0,2.19,0.32,3.16,0.99c0.97,0.67,1.76,1.66,2.35,2.95c0.6,1.33,0.9,2.95,0.9,4.82
			c0,2-0.3,3.68-0.9,4.98c-0.58,1.26-1.35,2.2-2.29,2.8C232.44,45.76,231.41,46.05,230.24,46.05L230.24,46.05z"/>
	</g>
	<g>
		<path class="st0" d="M274.77,11.79c0.96,0,1.83,0.36,2.6,1.08c0.52,0.48,0.84,1.07,0.98,1.76c0.14,0.69,0.21,1.67,0.21,2.95v5.15
			h2.77c1.07,0,1.89,0.25,2.45,0.76c0.56,0.51,0.84,1.16,0.84,1.95c0,1.02-0.4,1.73-1.2,2.13c-0.8,0.41-1.95,0.61-3.45,0.61h-1.41
			v13.9c0,1.18,0.04,2.09,0.12,2.73c0.08,0.64,0.3,1.15,0.66,1.55c0.36,0.4,0.95,0.6,1.76,0.6c0.44,0,1.04-0.08,1.8-0.24
			c0.76-0.16,1.35-0.24,1.77-0.24c0.61,0,1.16,0.24,1.65,0.73c0.49,0.49,0.73,1.09,0.73,1.81c0,1.22-0.66,2.15-1.99,2.8
			c-1.33,0.65-3.24,0.97-5.73,0.97c-2.36,0-4.15-0.4-5.37-1.19c-1.22-0.79-2.02-1.89-2.4-3.29c-0.38-1.4-0.57-3.28-0.57-5.62V28.18
			h-1c-1.09,0-1.92-0.26-2.49-0.78c-0.57-0.52-0.86-1.17-0.86-1.97c0-0.79,0.3-1.44,0.9-1.95c0.6-0.51,1.47-0.76,2.62-0.76h0.83
			v-4.54c0-1.22,0.03-2.17,0.1-2.87c0.07-0.69,0.24-1.29,0.54-1.79c0.29-0.52,0.72-0.94,1.27-1.26
			C273.47,11.95,274.09,11.79,274.77,11.79 M274.77,10.89c-0.84,0-1.62,0.2-2.31,0.61c-0.69,0.4-1.23,0.94-1.6,1.59
			c-0.35,0.6-0.58,1.32-0.65,2.15c-0.07,0.72-0.1,1.69-0.1,2.95v3.64c-1.33,0.01-2.38,0.34-3.13,0.97c-0.8,0.67-1.22,1.59-1.22,2.64
			c0,1.06,0.39,1.94,1.15,2.63c0.74,0.67,1.78,1.01,3.09,1.01h0.1v13.61c0,2.41,0.2,4.38,0.6,5.85c0.44,1.62,1.37,2.9,2.77,3.81
			c1.38,0.9,3.3,1.34,5.86,1.34c2.65,0,4.66-0.35,6.12-1.06c2.07-1,2.5-2.52,2.5-3.61c0-0.96-0.34-1.79-1-2.45
			c-0.66-0.66-1.43-1-2.28-1c-0.49,0-1.13,0.08-1.95,0.25c-0.69,0.14-1.24,0.22-1.62,0.22c-0.37,0-0.87-0.05-1.09-0.3
			c-0.24-0.26-0.38-0.61-0.44-1.06c-0.08-0.6-0.12-1.48-0.12-2.61v-13h0.51c1.65,0,2.91-0.23,3.85-0.71c0.77-0.39,1.7-1.22,1.7-2.94
			c0-1.06-0.38-1.94-1.14-2.62c-0.73-0.66-1.76-0.99-3.05-0.99h-1.87v-4.25c0-1.35-0.07-2.37-0.23-3.13
			c-0.17-0.88-0.6-1.63-1.25-2.24C277.05,11.33,275.96,10.89,274.77,10.89L274.77,10.89z"/>
	</g>
	<g>
		<path class="st0" d="M294.88,10.82c1.2,0,2.14,0.39,2.81,1.16c0.67,0.78,1.01,1.92,1.01,3.43v11.21c0.96-1.11,1.9-1.98,2.81-2.63
			c0.91-0.65,1.92-1.13,3.03-1.45s2.3-0.48,3.57-0.48c1.92,0,3.62,0.41,5.11,1.22c1.49,0.81,2.65,1.99,3.5,3.54
			c0.54,0.9,0.9,1.92,1.08,3.03c0.18,1.12,0.28,2.4,0.28,3.86V48.2c0,1.51-0.35,2.66-1.04,3.43c-0.69,0.78-1.61,1.16-2.76,1.16
			c-2.49,0-3.74-1.53-3.74-4.6V35.43c0-2.42-0.36-4.28-1.08-5.58c-0.72-1.3-2.09-1.95-4.1-1.95c-1.35,0-2.56,0.38-3.64,1.15
			c-1.08,0.77-1.89,1.81-2.42,3.14c-0.41,1.13-0.61,3.13-0.61,6.01v9.99c0,1.5-0.34,2.63-1.01,3.42c-0.67,0.78-1.61,1.18-2.81,1.18
			c-2.49,0-3.74-1.53-3.74-4.6V15.42c0-1.53,0.33-2.68,0.98-3.45C292.78,11.2,293.7,10.82,294.88,10.82 M294.88,9.92
			c-1.45,0-2.61,0.49-3.44,1.46c-0.8,0.93-1.2,2.29-1.2,4.03V48.2c0,4.78,2.91,5.5,4.64,5.5c1.47,0,2.64-0.5,3.49-1.49
			c0.82-0.95,1.23-2.3,1.23-4.01V38.2c0-2.76,0.19-4.68,0.56-5.7c0.46-1.15,1.15-2.04,2.1-2.71c0.93-0.66,1.95-0.98,3.12-0.98
			c1.67,0,2.76,0.49,3.31,1.49c0.64,1.16,0.97,2.89,0.97,5.14V48.2c0,4.78,2.91,5.5,4.64,5.5c1.41,0,2.56-0.49,3.43-1.46
			c0.84-0.94,1.27-2.3,1.27-4.03V33.72c0-1.5-0.1-2.85-0.29-4.01c-0.2-1.22-0.6-2.35-1.19-3.34c-0.91-1.67-2.21-2.98-3.84-3.87
			c-1.61-0.88-3.48-1.33-5.54-1.33c-1.35,0-2.64,0.18-3.82,0.52c-1.2,0.35-2.31,0.88-3.3,1.58c-0.46,0.32-0.92,0.7-1.39,1.13v-8.98
			c0-1.73-0.41-3.08-1.23-4.02C297.52,10.42,296.35,9.92,294.88,9.92L294.88,9.92z"/>
	</g>
	<g>
		<path class="st0" d="M340.43,22c2.95,0,5.49,0.62,7.6,1.87c2.11,1.25,3.7,2.86,4.75,4.83c1.05,1.98,1.58,3.99,1.58,6.04
			c0,1.9-0.54,3.13-1.63,3.7c-1.09,0.56-2.62,0.84-4.6,0.84h-14.78c0.02,1.72,0.36,3.23,1.04,4.54c0.67,1.31,1.57,2.3,2.69,2.96
			c1.12,0.66,2.35,1,3.7,1c0.9,0,1.73-0.11,2.48-0.32c0.75-0.21,1.47-0.54,2.17-1c0.7-0.45,1.35-0.94,1.94-1.45
			c0.59-0.52,1.36-1.22,2.3-2.1c0.39-0.33,0.94-0.5,1.66-0.5c0.78,0,1.4,0.21,1.88,0.64c0.48,0.42,0.72,1.02,0.72,1.8
			c0,0.68-0.27,1.48-0.8,2.4c-0.54,0.91-1.34,1.79-2.42,2.63c-1.08,0.84-2.44,1.54-4.07,2.09c-1.63,0.55-3.51,0.83-5.63,0.83
			c-4.86,0-8.63-1.38-11.32-4.15c-2.69-2.77-4.04-6.52-4.04-11.27c0-2.23,0.33-4.3,1-6.22c0.66-1.91,1.63-3.55,2.91-4.91
			c1.27-1.37,2.84-2.41,4.71-3.14C336.09,22.37,338.16,22,340.43,22 M333.34,34.99h13.7c-0.18-2.58-0.88-4.52-2.09-5.8
			c-1.21-1.28-2.8-1.92-4.78-1.92c-1.88,0-3.43,0.65-4.64,1.95C334.33,30.52,333.6,32.44,333.34,34.99 M340.43,21.1
			c-2.37,0-4.57,0.39-6.53,1.16c-1.98,0.77-3.68,1.91-5.04,3.37c-1.35,1.45-2.4,3.21-3.1,5.23c-0.69,2-1.05,4.19-1.05,6.51
			c0,4.96,1.45,8.97,4.3,11.9c2.86,2.94,6.88,4.43,11.97,4.43c2.21,0,4.2-0.3,5.92-0.88c1.72-0.58,3.18-1.34,4.33-2.23
			c1.16-0.9,2.05-1.87,2.65-2.88c0.62-1.07,0.93-2,0.93-2.85c0-1.04-0.34-1.87-1.02-2.47c-0.65-0.57-1.48-0.86-2.48-0.86
			c-0.94,0-1.69,0.24-2.25,0.71c-0.96,0.9-1.73,1.61-2.31,2.11c-0.56,0.49-1.17,0.95-1.83,1.38c-0.62,0.4-1.27,0.7-1.93,0.89
			c-0.66,0.19-1.41,0.28-2.23,0.28c-1.19,0-2.25-0.28-3.24-0.87c-0.98-0.58-1.74-1.43-2.34-2.6c-0.49-0.95-0.79-2.03-0.89-3.23
			h13.84c2.14,0,3.78-0.31,5.01-0.94c1.41-0.73,2.12-2.24,2.12-4.5c0-2.19-0.57-4.36-1.68-6.46c-1.13-2.11-2.84-3.86-5.09-5.18
			C346.24,21.78,343.53,21.1,340.43,21.1L340.43,21.1z M334.37,34.09c0.31-1.85,0.92-3.28,1.83-4.26c1.04-1.12,2.34-1.66,3.98-1.66
			c1.73,0,3.08,0.54,4.12,1.64c0.91,0.96,1.49,2.4,1.75,4.28H334.37L334.37,34.09z"/>
	</g>
	<g>
		<path class="st0" d="M412.04,11.51c1.57,0,2.81,0.31,3.74,0.93c0.92,0.62,1.39,1.81,1.39,3.59v32.12c0,1.55-0.35,2.71-1.04,3.49
			c-0.69,0.78-1.62,1.16-2.78,1.16c-1.09,0-1.98-0.39-2.69-1.16c-0.7-0.78-1.05-1.94-1.05-3.49V20.12l-6.51,25.86
			c-0.43,1.68-0.77,2.91-1.04,3.7s-0.76,1.5-1.48,2.15c-0.72,0.65-1.72,0.97-2.99,0.97c-0.96,0-1.77-0.21-2.44-0.62
			c-0.66-0.42-1.18-0.95-1.55-1.59c-0.37-0.65-0.66-1.36-0.87-2.15c-0.21-0.78-0.43-1.6-0.65-2.45l-6.51-25.86v28.02
			c0,1.55-0.35,2.71-1.04,3.49c-0.69,0.78-1.61,1.16-2.76,1.16c-1.11,0-2.01-0.38-2.71-1.15c-0.7-0.77-1.05-1.93-1.05-3.5V16.02
			c0-1.77,0.46-2.97,1.39-3.59c0.92-0.62,2.17-0.93,3.74-0.93h2.55c1.53,0,2.64,0.14,3.34,0.42c0.69,0.28,1.2,0.78,1.54,1.5
			c0.33,0.72,0.71,1.89,1.14,3.52l5.9,22.23l5.9-22.23c0.42-1.62,0.8-2.8,1.14-3.52c0.33-0.72,0.84-1.22,1.54-1.5
			c0.69-0.28,1.8-0.42,3.34-0.42H412.04 M412.04,10.61h-2.55c-1.66,0-2.86,0.16-3.67,0.48c-0.91,0.36-1.59,1.02-2.02,1.95
			c-0.36,0.78-0.75,1.98-1.19,3.67l-5.03,18.95l-5.03-18.95c-0.44-1.69-0.83-2.89-1.19-3.66c-0.43-0.93-1.11-1.59-2.02-1.95
			c-0.81-0.32-2.01-0.48-3.67-0.48h-2.55c-1.74,0-3.17,0.36-4.24,1.08c-1.18,0.79-1.78,2.25-1.78,4.33v32.12
			c0,1.79,0.43,3.18,1.29,4.11c0.87,0.96,2.01,1.44,3.38,1.44c1.41,0,2.56-0.49,3.43-1.46c0.84-0.94,1.27-2.32,1.27-4.09V27.39
			l4.73,18.81c0.22,0.86,0.44,1.68,0.66,2.47c0.23,0.85,0.55,1.65,0.96,2.36c0.44,0.77,1.07,1.41,1.85,1.91
			c0.81,0.5,1.79,0.76,2.91,0.76c1.5,0,2.7-0.4,3.59-1.2c0.83-0.75,1.42-1.6,1.73-2.53c0.28-0.81,0.62-2.05,1.06-3.77l4.73-18.81
			v20.75c0,1.77,0.43,3.15,1.28,4.09c0.88,0.97,2,1.46,3.35,1.46c1.43,0,2.59-0.49,3.45-1.46c0.84-0.94,1.27-2.32,1.27-4.09V16.02
			c0-2.08-0.6-3.54-1.78-4.33C415.21,10.97,413.78,10.61,412.04,10.61L412.04,10.61z"/>
	</g>
	<g>
		<path class="st0" d="M439.76,22.06c2.29,0,4.36,0.37,6.23,1.11c1.86,0.74,3.46,1.79,4.79,3.16c1.33,1.37,2.34,2.99,3.03,4.87
			c0.69,1.88,1.04,3.96,1.04,6.23c0,2.25-0.35,4.33-1.05,6.23c-0.7,1.9-1.72,3.53-3.05,4.9c-1.33,1.37-2.92,2.41-4.76,3.14
			c-1.85,0.73-3.92,1.09-6.23,1.09c-2.29,0-4.35-0.37-6.17-1.11c-1.83-0.74-3.41-1.79-4.75-3.17c-1.34-1.38-2.35-3-3.05-4.87
			c-0.69-1.87-1.04-3.95-1.04-6.22c0-2.29,0.35-4.38,1.05-6.28c0.7-1.9,1.71-3.53,3.02-4.87c1.31-1.35,2.9-2.39,4.76-3.11
			S437.51,22.06,439.76,22.06 M439.76,47.17c2.29,0,4.11-0.86,5.47-2.59c1.36-1.73,2.04-4.11,2.04-7.16c0-3.08-0.68-5.48-2.04-7.2
			c-1.36-1.72-3.18-2.57-5.47-2.57c-1.48,0-2.78,0.38-3.9,1.15c-1.13,0.77-1.99,1.9-2.6,3.39c-0.61,1.5-0.91,3.24-0.91,5.23
			c0,1.98,0.3,3.7,0.9,5.18c0.6,1.48,1.46,2.61,2.57,3.39C436.93,46.78,438.25,47.17,439.76,47.17 M439.76,21.16
			c-2.35,0-4.54,0.39-6.5,1.16c-1.98,0.77-3.68,1.89-5.08,3.32c-1.39,1.43-2.47,3.18-3.22,5.19c-0.74,1.99-1.11,4.21-1.11,6.6
			c0,2.37,0.37,4.56,1.09,6.53c0.73,1.99,1.83,3.73,3.24,5.19c1.42,1.46,3.12,2.6,5.06,3.38c1.93,0.78,4.12,1.17,6.51,1.17
			c2.41,0,4.62-0.39,6.56-1.16c1.96-0.77,3.66-1.9,5.08-3.35c1.41-1.45,2.5-3.2,3.25-5.22c0.73-1.99,1.11-4.19,1.11-6.54
			c0-2.37-0.37-4.57-1.09-6.54c-0.73-1.99-1.82-3.74-3.23-5.19c-1.41-1.45-3.13-2.58-5.1-3.37
			C444.36,21.55,442.15,21.16,439.76,21.16L439.76,21.16z M439.76,46.27c-1.34,0-2.46-0.33-3.43-1.01
			c-0.97-0.68-1.73-1.69-2.26-2.99c-0.55-1.36-0.83-2.99-0.83-4.84c0-1.87,0.28-3.51,0.85-4.89c0.54-1.32,1.3-2.33,2.28-2.99
			c0.98-0.67,2.09-0.99,3.4-0.99c2.02,0,3.57,0.73,4.76,2.23c1.22,1.55,1.84,3.78,1.84,6.64c0,2.82-0.62,5.05-1.84,6.6
			C443.33,45.54,441.78,46.27,439.76,46.27L439.76,46.27z"/>
	</g>
	<g>
		<path class="st0" d="M475.48,22.06c2.29,0,4.36,0.37,6.23,1.11c1.86,0.74,3.46,1.79,4.79,3.16c1.33,1.37,2.34,2.99,3.03,4.87
			c0.69,1.88,1.04,3.96,1.04,6.23c0,2.25-0.35,4.33-1.05,6.23c-0.7,1.9-1.72,3.53-3.05,4.9c-1.33,1.37-2.92,2.41-4.76,3.14
			c-1.85,0.73-3.92,1.09-6.23,1.09c-2.29,0-4.35-0.37-6.17-1.11c-1.83-0.74-3.41-1.79-4.75-3.17c-1.34-1.38-2.35-3-3.05-4.87
			c-0.69-1.87-1.04-3.95-1.04-6.22c0-2.29,0.35-4.38,1.05-6.28c0.7-1.9,1.71-3.53,3.02-4.87c1.31-1.35,2.9-2.39,4.76-3.11
			C471.17,22.42,473.23,22.06,475.48,22.06 M475.48,47.17c2.29,0,4.11-0.86,5.47-2.59c1.36-1.73,2.04-4.11,2.04-7.16
			c0-3.08-0.68-5.48-2.04-7.2c-1.36-1.72-3.18-2.57-5.47-2.57c-1.48,0-2.78,0.38-3.9,1.15c-1.13,0.77-1.99,1.9-2.6,3.39
			c-0.61,1.5-0.91,3.24-0.91,5.23c0,1.98,0.3,3.7,0.9,5.18c0.6,1.48,1.46,2.61,2.57,3.39C472.65,46.78,473.97,47.17,475.48,47.17
			 M475.48,21.16c-2.35,0-4.54,0.39-6.5,1.16c-1.98,0.77-3.68,1.89-5.08,3.32c-1.39,1.43-2.47,3.18-3.22,5.19
			c-0.74,1.99-1.11,4.21-1.11,6.6c0,2.37,0.37,4.56,1.09,6.53c0.73,1.99,1.83,3.73,3.24,5.19c1.42,1.46,3.12,2.59,5.06,3.38
			c1.93,0.78,4.12,1.17,6.51,1.17c2.41,0,4.62-0.39,6.56-1.16c1.96-0.77,3.66-1.9,5.08-3.35c1.41-1.45,2.5-3.2,3.25-5.22
			c0.73-1.99,1.11-4.19,1.11-6.54c0-2.37-0.37-4.57-1.09-6.54c-0.73-1.99-1.82-3.74-3.23-5.19c-1.41-1.45-3.13-2.58-5.1-3.37
			C480.08,21.55,477.87,21.16,475.48,21.16L475.48,21.16z M475.48,46.27c-1.34,0-2.46-0.33-3.43-1.01
			c-0.97-0.68-1.73-1.69-2.26-2.99c-0.55-1.36-0.83-2.99-0.83-4.84c0-1.87,0.28-3.51,0.85-4.89c0.54-1.32,1.3-2.33,2.28-2.99
			c0.98-0.67,2.09-0.99,3.4-0.99c2.02,0,3.57,0.73,4.76,2.23c1.22,1.55,1.84,3.78,1.84,6.64c0,2.82-0.62,5.05-1.84,6.6
			C479.05,45.54,477.5,46.27,475.48,46.27L475.48,46.27z"/>
	</g>
	<g>
		<path class="st0" d="M514.66,22.06c1.99,0,3.77,0.43,5.34,1.3c1.57,0.87,2.74,2.09,3.52,3.68c0.5,0.92,0.82,1.92,0.97,2.99
			c0.15,1.07,0.22,2.44,0.22,4.1V48.2c0,1.51-0.35,2.66-1.04,3.43c-0.69,0.78-1.59,1.16-2.7,1.16c-1.13,0-2.04-0.4-2.74-1.19
			c-0.7-0.79-1.05-1.93-1.05-3.41V35.6c0-2.49-0.35-4.4-1.04-5.72c-0.69-1.32-2.07-1.98-4.14-1.98c-1.35,0-2.57,0.4-3.68,1.2
			c-1.11,0.8-1.92,1.91-2.44,3.31c-0.37,1.13-0.55,3.23-0.55,6.31v9.47c0,1.53-0.36,2.68-1.07,3.45c-0.71,0.77-1.63,1.15-2.75,1.15
			c-1.09,0-1.98-0.4-2.69-1.19c-0.7-0.79-1.05-1.93-1.05-3.41V26.35c0-1.44,0.31-2.51,0.94-3.23c0.63-0.71,1.49-1.07,2.58-1.07
			c0.66,0,1.26,0.16,1.8,0.47c0.53,0.31,0.96,0.78,1.29,1.41c0.32,0.63,0.49,1.39,0.49,2.3v0.91c1.33-1.75,2.78-3.04,4.36-3.86
			C510.8,22.47,512.61,22.06,514.66,22.06 M514.66,21.16c-2.18,0-4.15,0.45-5.85,1.33c-1.11,0.58-2.17,1.38-3.17,2.39
			c-0.1-0.49-0.25-0.94-0.46-1.35c-0.4-0.78-0.95-1.38-1.63-1.78c-0.67-0.4-1.43-0.59-2.26-0.59c-1.35,0-2.45,0.46-3.25,1.37
			c-0.77,0.88-1.17,2.16-1.17,3.82V48.2c0,1.7,0.43,3.04,1.28,4c0.88,0.99,2.01,1.49,3.36,1.49c1.38,0,2.53-0.48,3.41-1.44
			c0.87-0.93,1.31-2.3,1.31-4.06v-9.47c0-3.7,0.28-5.32,0.51-6.03c0.45-1.21,1.14-2.16,2.11-2.86c0.96-0.69,1.99-1.03,3.15-1.03
			c1.72,0,2.81,0.49,3.34,1.5c0.62,1.18,0.93,2.97,0.93,5.3v12.6c0,1.7,0.43,3.04,1.28,4c0.88,0.99,2.03,1.49,3.41,1.49
			c1.37,0,2.5-0.49,3.37-1.46c0.84-0.94,1.27-2.3,1.27-4.03V34.13c0-1.69-0.08-3.11-0.23-4.22c-0.16-1.17-0.52-2.28-1.07-3.3
			c-0.84-1.72-2.15-3.09-3.87-4.04C518.74,21.64,516.8,21.16,514.66,21.16L514.66,21.16z"/>
	</g>
	<g>
		<path class="st0" d="M538.73,44.46c0.89,0,1.69,0.24,2.41,0.72c0.72,0.48,1.28,1.19,1.69,2.12c0.41,0.93,0.61,2.08,0.61,3.45
			c0,1.83-0.39,3.54-1.16,5.14c-0.78,1.6-1.72,2.86-2.84,3.79c-1.12,0.93-2.13,1.4-3.03,1.4c-0.57,0-1.04-0.19-1.4-0.57
			c-0.36-0.38-0.54-0.82-0.54-1.31c0-0.76,0.38-1.37,1.14-1.83c2.16-1.2,3.24-2.7,3.24-4.51c-1.22,0-2.27-0.37-3.16-1.12
			c-0.89-0.75-1.33-1.8-1.33-3.14c0-1.16,0.43-2.14,1.3-2.93C536.52,44.85,537.55,44.46,538.73,44.46 M538.73,43.56
			c-1.41,0-2.65,0.48-3.68,1.43c-1.06,0.97-1.59,2.18-1.59,3.6c0,1.62,0.55,2.91,1.65,3.83c0.8,0.67,1.71,1.09,2.74,1.26
			c-0.28,1.11-1.17,2.07-2.67,2.9c-1.33,0.81-1.6,1.86-1.6,2.61c0,0.73,0.26,1.38,0.79,1.93c0.53,0.55,1.24,0.85,2.05,0.85
			c1.13,0,2.31-0.53,3.61-1.61c1.21-1.01,2.24-2.39,3.07-4.09c0.83-1.71,1.25-3.57,1.25-5.53c0-1.48-0.23-2.76-0.68-3.81
			c-0.47-1.09-1.15-1.93-2.01-2.51C540.77,43.85,539.79,43.56,538.73,43.56L538.73,43.56z"/>
	</g>
	<g>
		<path class="st0" d="M24.94,79.83c0.96,0,1.83,0.36,2.6,1.08c0.52,0.48,0.84,1.07,0.98,1.76c0.14,0.69,0.21,1.67,0.21,2.95v5.15
			h2.77c1.07,0,1.89,0.25,2.45,0.76c0.56,0.51,0.84,1.16,0.84,1.95c0,1.02-0.4,1.73-1.2,2.13c-0.8,0.41-1.95,0.61-3.45,0.61h-1.41
			v13.9c0,1.18,0.04,2.09,0.12,2.73c0.08,0.64,0.3,1.15,0.66,1.55c0.36,0.4,0.95,0.6,1.76,0.6c0.44,0,1.04-0.08,1.8-0.24
			c0.76-0.16,1.35-0.24,1.77-0.24c0.61,0,1.16,0.24,1.65,0.73c0.49,0.49,0.73,1.09,0.73,1.81c0,1.22-0.66,2.15-1.99,2.8
			c-1.33,0.65-3.24,0.97-5.73,0.97c-2.36,0-4.15-0.4-5.37-1.19c-1.22-0.79-2.02-1.89-2.39-3.29c-0.38-1.4-0.57-3.28-0.57-5.62V96.22
			h-1c-1.09,0-1.92-0.26-2.49-0.78c-0.57-0.52-0.86-1.17-0.86-1.97c0-0.79,0.3-1.44,0.9-1.95c0.6-0.51,1.47-0.76,2.62-0.76h0.83
			v-4.54c0-1.22,0.03-2.17,0.1-2.87c0.06-0.69,0.24-1.29,0.54-1.79c0.29-0.52,0.72-0.94,1.27-1.26
			C23.64,79.99,24.26,79.83,24.94,79.83 M24.94,78.93c-0.84,0-1.62,0.2-2.31,0.61c-0.69,0.4-1.23,0.94-1.6,1.59
			c-0.36,0.6-0.58,1.33-0.65,2.15c-0.07,0.73-0.1,1.69-0.1,2.95v3.64c-1.33,0.01-2.38,0.34-3.13,0.97c-0.8,0.67-1.22,1.59-1.22,2.64
			c0,1.06,0.39,1.94,1.16,2.63c0.74,0.67,1.78,1.01,3.09,1.01h0.1v13.61c0,2.41,0.2,4.38,0.6,5.85c0.44,1.62,1.37,2.9,2.77,3.81
			c1.38,0.9,3.3,1.34,5.86,1.34c2.65,0,4.66-0.35,6.12-1.06c2.07-1,2.5-2.52,2.5-3.61c0-0.96-0.34-1.79-1-2.45
			c-0.66-0.66-1.43-1-2.28-1c-0.49,0-1.13,0.08-1.95,0.25c-0.69,0.14-1.24,0.22-1.62,0.22c-0.37,0-0.87-0.05-1.09-0.3
			c-0.24-0.26-0.38-0.61-0.44-1.06c-0.08-0.6-0.12-1.48-0.12-2.61v-13h0.51c1.65,0,2.91-0.23,3.85-0.71c0.77-0.39,1.7-1.22,1.7-2.93
			c0-1.06-0.38-1.94-1.14-2.62c-0.73-0.66-1.76-0.99-3.05-0.99h-1.87v-4.25c0-1.35-0.07-2.37-0.23-3.13
			c-0.17-0.88-0.6-1.63-1.25-2.24C27.21,79.37,26.13,78.93,24.94,78.93L24.94,78.93z"/>
	</g>
	<g>
		<path class="st0" d="M45.05,78.86c1.2,0,2.14,0.39,2.81,1.16c0.67,0.78,1.01,1.92,1.01,3.43v11.21c0.96-1.11,1.9-1.98,2.81-2.63
			c0.91-0.65,1.92-1.13,3.03-1.45c1.11-0.32,2.3-0.48,3.57-0.48c1.92,0,3.62,0.41,5.11,1.22c1.49,0.81,2.65,1.99,3.5,3.54
			c0.54,0.9,0.9,1.92,1.08,3.03c0.18,1.12,0.28,2.4,0.28,3.86v14.48c0,1.51-0.35,2.66-1.04,3.43c-0.69,0.78-1.61,1.16-2.75,1.16
			c-2.49,0-3.74-1.53-3.74-4.6v-12.76c0-2.42-0.36-4.28-1.08-5.58c-0.72-1.3-2.09-1.95-4.1-1.95c-1.35,0-2.56,0.38-3.64,1.15
			c-1.08,0.77-1.89,1.81-2.42,3.14c-0.41,1.13-0.61,3.13-0.61,6.01v9.99c0,1.5-0.34,2.63-1.01,3.42c-0.67,0.78-1.61,1.18-2.81,1.18
			c-2.49,0-3.74-1.53-3.74-4.6V83.46c0-1.53,0.33-2.68,0.98-3.45C42.95,79.24,43.87,78.86,45.05,78.86 M45.05,77.96
			c-1.45,0-2.61,0.49-3.44,1.46c-0.8,0.93-1.2,2.29-1.2,4.03v32.78c0,4.78,2.91,5.5,4.64,5.5c1.47,0,2.64-0.5,3.49-1.49
			c0.81-0.95,1.23-2.3,1.23-4.01v-9.99c0-2.76,0.19-4.68,0.56-5.7c0.46-1.14,1.15-2.04,2.1-2.71c0.93-0.66,1.95-0.98,3.12-0.98
			c1.67,0,2.76,0.49,3.31,1.49c0.64,1.16,0.97,2.89,0.97,5.14v12.76c0,4.78,2.91,5.5,4.64,5.5c1.41,0,2.56-0.49,3.43-1.46
			c0.84-0.94,1.27-2.3,1.27-4.03v-14.48c0-1.5-0.1-2.85-0.29-4.01c-0.2-1.22-0.6-2.35-1.19-3.34c-0.91-1.67-2.21-2.98-3.84-3.87
			c-1.61-0.88-3.48-1.33-5.54-1.33c-1.35,0-2.64,0.18-3.82,0.52c-1.2,0.35-2.31,0.88-3.3,1.58c-0.46,0.32-0.92,0.7-1.39,1.13v-8.98
			c0-1.73-0.41-3.08-1.23-4.02C47.69,78.46,46.51,77.96,45.05,77.96L45.05,77.96z"/>
	</g>
	<g>
		<path class="st0" d="M90.6,90.04c2.95,0,5.49,0.62,7.6,1.87c2.11,1.25,3.7,2.86,4.75,4.83c1.05,1.98,1.58,3.99,1.58,6.04
			c0,1.9-0.54,3.13-1.63,3.7c-1.09,0.56-2.62,0.84-4.6,0.84H83.51c0.02,1.72,0.36,3.23,1.04,4.54c0.67,1.31,1.57,2.3,2.69,2.96
			s2.35,1,3.7,1c0.9,0,1.73-0.11,2.48-0.32c0.75-0.21,1.47-0.54,2.17-1c0.7-0.45,1.35-0.94,1.94-1.45c0.59-0.52,1.36-1.22,2.3-2.1
			c0.39-0.33,0.94-0.5,1.66-0.5c0.78,0,1.4,0.21,1.88,0.64c0.48,0.42,0.72,1.02,0.72,1.8c0,0.68-0.27,1.48-0.8,2.4
			c-0.54,0.91-1.34,1.79-2.42,2.63c-1.08,0.84-2.44,1.54-4.07,2.09c-1.63,0.55-3.51,0.83-5.63,0.83c-4.85,0-8.63-1.38-11.32-4.15
			c-2.7-2.77-4.04-6.52-4.04-11.27c0-2.23,0.33-4.3,1-6.22c0.66-1.91,1.63-3.55,2.91-4.91c1.27-1.37,2.84-2.41,4.71-3.14
			C86.26,90.41,88.33,90.04,90.6,90.04 M83.51,103.03h13.7c-0.18-2.58-0.88-4.52-2.09-5.8c-1.21-1.28-2.8-1.92-4.78-1.92
			c-1.88,0-3.43,0.65-4.64,1.95C84.5,98.56,83.77,100.48,83.51,103.03 M90.6,89.14c-2.37,0-4.57,0.39-6.53,1.16
			c-1.98,0.77-3.68,1.91-5.04,3.37c-1.35,1.45-2.4,3.21-3.1,5.23c-0.69,2-1.05,4.19-1.05,6.51c0,4.96,1.45,8.97,4.3,11.9
			c2.86,2.94,6.88,4.43,11.97,4.43c2.21,0,4.2-0.3,5.92-0.88c1.72-0.58,3.18-1.34,4.33-2.23c1.16-0.9,2.05-1.87,2.65-2.88
			c0.62-1.06,0.93-2,0.93-2.85c0-1.04-0.34-1.87-1.02-2.47c-0.65-0.57-1.48-0.86-2.48-0.86c-0.94,0-1.69,0.24-2.25,0.72
			c-0.97,0.91-1.73,1.61-2.3,2.11c-0.56,0.49-1.17,0.95-1.83,1.37c-0.62,0.4-1.27,0.7-1.93,0.89c-0.66,0.19-1.41,0.28-2.23,0.28
			c-1.19,0-2.25-0.28-3.24-0.87c-0.96-0.57-1.75-1.45-2.34-2.6c-0.49-0.95-0.79-2.03-0.89-3.23h13.84c2.14,0,3.78-0.31,5.01-0.94
			c1.41-0.73,2.12-2.24,2.12-4.5c0-2.19-0.57-4.36-1.68-6.46c-1.13-2.11-2.84-3.86-5.09-5.18C96.41,89.82,93.7,89.14,90.6,89.14
			L90.6,89.14z M84.54,102.13c0.31-1.85,0.92-3.28,1.83-4.26c1.04-1.12,2.34-1.66,3.98-1.66c1.73,0,3.08,0.54,4.12,1.64
			c0.91,0.96,1.49,2.4,1.75,4.28H84.54L84.54,102.13z"/>
	</g>
	<g>
		<path class="st0" d="M138.51,90.1c1.96,0,3.71,0.2,5.27,0.61c1.56,0.41,2.86,0.95,3.9,1.63c1.04,0.68,1.84,1.44,2.38,2.27
			s0.82,1.64,0.82,2.44c0,0.87-0.29,1.58-0.87,2.13c-0.58,0.55-1.41,0.83-2.48,0.83c-0.78,0-1.44-0.22-1.98-0.66
			c-0.54-0.44-1.17-1.11-1.87-1.99c-0.57-0.74-1.25-1.33-2.02-1.77s-1.83-0.66-3.16-0.66c-1.37,0-2.5,0.29-3.41,0.87
			c-0.9,0.58-1.36,1.31-1.36,2.17c0,0.79,0.33,1.44,1,1.95c0.66,0.51,1.56,0.93,2.69,1.26c1.13,0.33,2.68,0.74,4.65,1.22
			c2.34,0.57,4.26,1.26,5.74,2.05c1.49,0.79,2.61,1.73,3.38,2.81c0.77,1.08,1.15,2.31,1.15,3.7c0,2.09-0.51,3.87-1.52,5.36
			c-1.02,1.49-2.51,2.61-4.5,3.38c-1.98,0.77-4.4,1.15-7.24,1.15c-2.71,0-5.04-0.42-6.98-1.25s-3.37-1.87-4.29-3.11
			c-0.92-1.25-1.38-2.5-1.38-3.75c0-0.83,0.29-1.54,0.89-2.13c0.59-0.59,1.34-0.89,2.24-0.89c0.79,0,1.4,0.19,1.83,0.58
			c0.42,0.39,0.83,0.93,1.22,1.63c0.78,1.35,1.7,2.35,2.78,3.02c1.08,0.66,2.55,1,4.42,1c1.51,0,2.75-0.34,3.72-1.01
			c0.97-0.67,1.45-1.44,1.45-2.31c0-1.33-0.5-2.3-1.51-2.91c-1.01-0.61-2.66-1.19-4.97-1.74c-2.6-0.65-4.72-1.32-6.35-2.03
			c-1.63-0.71-2.94-1.65-3.92-2.81c-0.98-1.16-1.47-2.59-1.47-4.29c0-1.51,0.45-2.94,1.36-4.29c0.9-1.35,2.24-2.42,4-3.23
			C133.89,90.5,136.01,90.1,138.51,90.1 M138.51,89.2c-2.61,0-4.88,0.43-6.75,1.29c-1.91,0.87-3.38,2.06-4.37,3.54
			c-1,1.49-1.51,3.1-1.51,4.79c0,1.91,0.56,3.55,1.68,4.87c1.06,1.26,2.49,2.29,4.25,3.06c1.67,0.73,3.86,1.43,6.5,2.08
			c2.21,0.53,3.8,1.08,4.72,1.64c0.73,0.44,1.08,1.12,1.08,2.14c0,0.21,0,0.83-1.07,1.57c-0.81,0.56-1.89,0.85-3.21,0.85
			c-1.69,0-3.01-0.29-3.94-0.86c-0.95-0.58-1.78-1.49-2.47-2.7c-0.43-0.77-0.9-1.4-1.39-1.85c-0.59-0.54-1.41-0.82-2.43-0.82
			c-1.15,0-2.12,0.39-2.88,1.15c-0.76,0.76-1.15,1.69-1.15,2.77c0,1.45,0.53,2.89,1.56,4.29c1.01,1.37,2.58,2.52,4.66,3.41
			c2.04,0.87,4.51,1.32,7.33,1.32c2.94,0,5.48-0.41,7.56-1.21c2.15-0.83,3.8-2.08,4.92-3.71c1.11-1.63,1.68-3.6,1.68-5.86
			c0-1.57-0.44-2.99-1.31-4.22c-0.84-1.19-2.08-2.23-3.69-3.08c-1.55-0.83-3.55-1.54-5.96-2.13c-1.95-0.47-3.5-0.88-4.61-1.21
			c-1.02-0.3-1.82-0.67-2.39-1.11c-0.45-0.34-0.64-0.72-0.64-1.24c0-0.35,0.1-0.87,0.94-1.42c0.75-0.48,1.73-0.73,2.92-0.73
			c1.16,0,2.08,0.18,2.71,0.55c0.67,0.38,1.26,0.9,1.76,1.54c0.76,0.95,1.41,1.65,2.01,2.14c0.71,0.57,1.56,0.87,2.55,0.87
			c1.3,0,2.35-0.36,3.1-1.08c0.76-0.73,1.15-1.66,1.15-2.78c0-0.97-0.32-1.95-0.96-2.93c-0.61-0.93-1.5-1.78-2.64-2.53
			c-1.12-0.73-2.52-1.32-4.17-1.75C142.38,89.41,140.53,89.2,138.51,89.2L138.51,89.2z"/>
	</g>
	<g>
		<path class="st0" d="M165.23,79.83c0.96,0,1.83,0.36,2.6,1.08c0.52,0.48,0.84,1.07,0.98,1.76c0.14,0.69,0.21,1.67,0.21,2.95v5.15
			h2.77c1.07,0,1.89,0.25,2.45,0.76s0.84,1.16,0.84,1.95c0,1.02-0.4,1.73-1.2,2.13c-0.8,0.41-1.95,0.61-3.45,0.61h-1.41v13.9
			c0,1.18,0.04,2.09,0.12,2.73c0.08,0.64,0.3,1.15,0.66,1.55c0.36,0.4,0.95,0.6,1.76,0.6c0.44,0,1.04-0.08,1.8-0.24
			c0.76-0.16,1.35-0.24,1.77-0.24c0.61,0,1.16,0.24,1.65,0.73c0.49,0.49,0.73,1.09,0.73,1.81c0,1.22-0.66,2.15-1.99,2.8
			s-3.24,0.97-5.73,0.97c-2.36,0-4.15-0.4-5.37-1.19c-1.22-0.79-2.02-1.89-2.39-3.29c-0.38-1.4-0.57-3.28-0.57-5.62V96.22h-1
			c-1.09,0-1.92-0.26-2.49-0.78c-0.57-0.52-0.86-1.17-0.86-1.97c0-0.79,0.3-1.44,0.9-1.95s1.47-0.76,2.62-0.76h0.83v-4.54
			c0-1.22,0.03-2.17,0.1-2.87c0.06-0.69,0.24-1.29,0.54-1.79c0.29-0.52,0.72-0.94,1.27-1.26C163.93,79.99,164.55,79.83,165.23,79.83
			 M165.23,78.93c-0.84,0-1.62,0.2-2.31,0.61c-0.69,0.4-1.23,0.94-1.6,1.59c-0.36,0.6-0.58,1.33-0.65,2.15
			c-0.07,0.73-0.1,1.69-0.1,2.95v3.64c-1.33,0.01-2.38,0.34-3.13,0.97c-0.8,0.67-1.22,1.59-1.22,2.64c0,1.06,0.39,1.94,1.16,2.63
			c0.74,0.67,1.78,1.01,3.09,1.01h0.1v13.61c0,2.41,0.2,4.38,0.6,5.85c0.44,1.62,1.37,2.9,2.77,3.81c1.38,0.9,3.3,1.34,5.86,1.34
			c2.65,0,4.66-0.35,6.12-1.06c2.07-1,2.5-2.52,2.5-3.61c0-0.96-0.34-1.79-1-2.45c-0.66-0.66-1.43-1-2.28-1
			c-0.49,0-1.13,0.08-1.95,0.25c-0.69,0.14-1.24,0.22-1.62,0.22c-0.37,0-0.87-0.05-1.09-0.3c-0.24-0.26-0.38-0.61-0.44-1.06
			c-0.08-0.6-0.12-1.48-0.12-2.61v-13h0.51c1.65,0,2.91-0.23,3.85-0.71c0.77-0.39,1.7-1.22,1.7-2.93c0-1.06-0.38-1.94-1.14-2.62
			c-0.73-0.66-1.76-0.99-3.05-0.99h-1.87v-4.25c0-1.35-0.07-2.37-0.23-3.13c-0.17-0.88-0.6-1.63-1.25-2.24
			C167.5,79.37,166.42,78.93,165.23,78.93L165.23,78.93z"/>
	</g>
	<g>
		<path class="st0" d="M194.97,90.1c2.29,0,4.36,0.37,6.23,1.11c1.86,0.74,3.46,1.79,4.79,3.16c1.33,1.37,2.34,2.99,3.03,4.87
			c0.69,1.88,1.04,3.96,1.04,6.23c0,2.25-0.35,4.33-1.05,6.23c-0.7,1.9-1.72,3.53-3.05,4.9c-1.33,1.37-2.92,2.41-4.76,3.14
			c-1.85,0.73-3.92,1.09-6.23,1.09c-2.29,0-4.35-0.37-6.17-1.11c-1.83-0.74-3.41-1.79-4.75-3.17c-1.34-1.38-2.35-3-3.05-4.87
			c-0.69-1.87-1.04-3.95-1.04-6.22c0-2.29,0.35-4.38,1.05-6.28c0.7-1.9,1.71-3.53,3.02-4.87c1.31-1.35,2.9-2.39,4.76-3.11
			C190.66,90.46,192.72,90.1,194.97,90.1 M194.97,115.21c2.29,0,4.11-0.86,5.47-2.59c1.36-1.73,2.04-4.11,2.04-7.16
			c0-3.08-0.68-5.48-2.04-7.2c-1.36-1.72-3.18-2.57-5.47-2.57c-1.48,0-2.78,0.38-3.9,1.15c-1.13,0.77-1.99,1.9-2.6,3.39
			c-0.61,1.5-0.91,3.24-0.91,5.23c0,1.98,0.3,3.7,0.9,5.18c0.6,1.48,1.46,2.61,2.57,3.39C192.14,114.82,193.46,115.21,194.97,115.21
			 M194.97,89.2c-2.35,0-4.54,0.39-6.5,1.16c-1.98,0.77-3.68,1.89-5.08,3.32c-1.39,1.43-2.47,3.18-3.22,5.19
			c-0.74,1.99-1.11,4.21-1.11,6.6c0,2.37,0.37,4.56,1.09,6.53c0.73,1.99,1.83,3.73,3.24,5.19c1.42,1.46,3.12,2.6,5.06,3.38
			c1.93,0.78,4.12,1.17,6.51,1.17c2.41,0,4.62-0.39,6.56-1.16c1.96-0.77,3.66-1.9,5.08-3.35c1.41-1.45,2.5-3.2,3.25-5.22
			c0.73-1.99,1.11-4.19,1.11-6.54c0-2.37-0.37-4.57-1.09-6.54c-0.73-1.99-1.82-3.74-3.23-5.19c-1.41-1.45-3.13-2.58-5.1-3.37
			C199.57,89.59,197.36,89.2,194.97,89.2L194.97,89.2z M194.97,114.31c-1.34,0-2.46-0.33-3.43-1.01c-0.97-0.68-1.73-1.69-2.26-2.99
			c-0.55-1.36-0.83-2.99-0.83-4.84c0-1.87,0.28-3.51,0.85-4.89c0.54-1.32,1.3-2.33,2.28-2.99c0.98-0.67,2.09-0.99,3.4-0.99
			c2.02,0,3.57,0.73,4.76,2.23c1.22,1.55,1.84,3.78,1.84,6.64c0,2.82-0.62,5.05-1.84,6.6C198.54,113.58,196.99,114.31,194.97,114.31
			L194.97,114.31z"/>
	</g>
	<g>
		<path class="st0" d="M231.33,90.1c1.59,0,3.13,0.4,4.62,1.19c1.5,0.79,2.24,1.85,2.24,3.16c0,0.92-0.32,1.68-0.96,2.28
			c-0.64,0.6-1.32,0.9-2.06,0.9c-0.28,0-0.95-0.17-2.01-0.51c-1.06-0.34-2-0.51-2.81-0.51c-1.11,0-2.01,0.29-2.71,0.87
			c-0.7,0.58-1.25,1.44-1.63,2.59c-0.39,1.14-0.66,2.51-0.8,4.08c-0.15,1.58-0.22,3.5-0.22,5.77v6.31c0,1.53-0.36,2.68-1.08,3.45
			c-0.72,0.77-1.63,1.15-2.74,1.15c-1.09,0-1.98-0.39-2.69-1.16c-0.7-0.78-1.05-1.92-1.05-3.43V95.19c0-3.4,1.23-5.09,3.68-5.09
			c1.26,0,2.16,0.4,2.71,1.19c0.55,0.79,0.86,1.97,0.91,3.52c0.9-1.55,1.83-2.72,2.78-3.52C228.47,90.5,229.74,90.1,231.33,90.1
			 M231.33,89.2c-1.8,0-3.27,0.47-4.38,1.4c-0.56,0.47-1.11,1.05-1.65,1.76c-0.18-0.61-0.42-1.13-0.73-1.58
			c-0.73-1.05-1.89-1.58-3.45-1.58c-2.09,0-4.58,1.04-4.58,5.99v21.04c0,1.74,0.43,3.1,1.29,4.04c0.87,0.97,2,1.46,3.35,1.46
			c1.36,0,2.5-0.48,3.4-1.43c0.88-0.94,1.32-2.3,1.32-4.06v-6.31c0-2.23,0.07-4.15,0.22-5.69c0.14-1.5,0.4-2.81,0.76-3.88
			c0.33-0.98,0.79-1.71,1.36-2.19c0.54-0.45,1.24-0.66,2.14-0.66c0.71,0,1.57,0.16,2.53,0.47c1.52,0.49,2.01,0.56,2.28,0.56
			c0.97,0,1.87-0.38,2.68-1.14c0.82-0.77,1.24-1.76,1.24-2.94c0-1.14-0.47-2.76-2.72-3.95C234.75,89.64,233.06,89.2,231.33,89.2
			L231.33,89.2z"/>
	</g>
	<g>
		<path class="st0" d="M265.75,90.1c0.57,0,1.12,0.15,1.65,0.46c0.53,0.3,0.93,0.72,1.22,1.23c0.29,0.52,0.43,1.06,0.43,1.63
			c-0.07,0.35-0.19,0.85-0.36,1.5c-0.17,0.65-0.37,1.3-0.61,1.97l-9.86,25.8c-0.85,2.27-1.68,4.05-2.49,5.34
			c-0.81,1.29-1.89,2.28-3.23,2.98c-1.34,0.69-3.14,1.04-5.41,1.04c-2.21,0-3.88-0.24-4.98-0.72c-1.11-0.48-1.66-1.36-1.66-2.63
			c0-0.87,0.26-1.54,0.79-2.01c0.53-0.47,1.31-0.71,2.34-0.71c0.41,0,0.8,0.06,1.19,0.17c0.48,0.11,0.89,0.17,1.25,0.17
			c0.87,0,1.55-0.13,2.05-0.39c0.5-0.26,0.95-0.71,1.34-1.34c0.4-0.64,0.85-1.57,1.37-2.81l0.69-1.69l-9.3-23.42
			c-0.57-1.35-0.86-2.33-0.86-2.93c0-0.65,0.17-1.25,0.5-1.8s0.79-1,1.37-1.33c0.58-0.33,1.19-0.5,1.81-0.5
			c1.09,0,1.91,0.35,2.46,1.04c0.55,0.69,1.04,1.68,1.47,2.98l6.4,18.6l6.06-17.3c0.48-1.4,0.91-2.5,1.3-3.29
			c0.39-0.79,0.8-1.33,1.23-1.61S264.95,90.1,265.75,90.1 M265.75,89.2c-0.98,0-1.74,0.18-2.33,0.56c-0.58,0.37-1.09,1.01-1.56,1.97
			c-0.4,0.83-0.86,1.97-1.34,3.4l-5.2,14.85l-5.55-16.15c-0.46-1.4-0.99-2.46-1.62-3.25c-0.73-0.91-1.8-1.38-3.17-1.38
			c-0.78,0-1.54,0.21-2.26,0.62c-0.71,0.41-1.28,0.96-1.7,1.65c-0.42,0.69-0.63,1.46-0.63,2.26c0,0.75,0.3,1.79,0.93,3.29
			l9.16,23.06l-0.55,1.35c-0.5,1.18-0.93,2.09-1.3,2.68c-0.31,0.49-0.64,0.84-0.99,1.02c-0.36,0.19-0.93,0.29-1.63,0.29
			c-0.28,0-0.63-0.05-1.04-0.14c-0.42-0.12-0.9-0.19-1.39-0.19c-1.26,0-2.25,0.31-2.94,0.94c-0.72,0.64-1.09,1.55-1.09,2.68
			c0,1.64,0.76,2.83,2.2,3.46c1.23,0.53,2.98,0.79,5.34,0.79c2.4,0,4.36-0.38,5.83-1.14c1.48-0.76,2.68-1.87,3.57-3.3
			c0.84-1.34,1.71-3.19,2.57-5.51l9.85-25.8c0.25-0.7,0.47-1.39,0.64-2.06c0.17-0.66,0.29-1.17,0.37-1.53l0.02-0.09v-0.09
			c0-0.72-0.18-1.42-0.54-2.07c-0.37-0.66-0.89-1.19-1.55-1.57C267.18,89.39,266.48,89.2,265.75,89.2L265.75,89.2z"/>
	</g>
	<g>
		<path class="st0" d="M275.94,112.5c1.16,0,2.16,0.4,2.98,1.2c0.82,0.8,1.23,1.78,1.23,2.92c0,1.31-0.41,2.34-1.23,3.09
			c-0.82,0.75-1.79,1.12-2.89,1.12c-1.14,0-2.13-0.37-2.96-1.11c-0.83-0.74-1.25-1.77-1.25-3.1c0-1.13,0.4-2.09,1.19-2.91
			C273.8,112.9,274.78,112.5,275.94,112.5 M275.94,111.6c-1.41,0-2.61,0.5-3.58,1.49c-0.96,0.98-1.45,2.17-1.45,3.54
			c0,1.59,0.52,2.86,1.55,3.77c1,0.89,2.2,1.33,3.56,1.33c1.33,0,2.51-0.46,3.5-1.36c1.01-0.92,1.53-2.19,1.53-3.75
			c0-1.39-0.51-2.59-1.5-3.56C278.56,112.09,277.34,111.6,275.94,111.6L275.94,111.6z"/>
	</g>
</g>
</svg>
