<?xml version="1.0" encoding="utf-8"?>
<!-- Generator: Adobe Illustrator 23.0.1, SVG Export Plug-In . SVG Version: 6.00 Build 0)  -->
<svg version="1.1" id="Layer_1" xmlns="http://www.w3.org/2000/svg" xmlns:xlink="http://www.w3.org/1999/xlink" x="0px" y="0px"
	 viewBox="0 0 381 108.33" style="enable-background:new 0 0 381 108.33;" xml:space="preserve">
<style type="text/css">
	.st0{fill:#FFFFFF;}
</style>
<title>Logo2Vector</title>
<circle class="st0" cx="7.5" cy="54.97" r="7.5"/>
<path class="st0" d="M373.5,47.49c-0.96,0-1.91,0.19-2.8,0.55c3.56,1.5,5.24,5.6,3.74,9.17c-0.88,2.1-2.73,3.64-4.95,4.12
	c3.5,2.21,8.13,1.17,10.35-2.33c2.21-3.5,1.17-8.13-2.33-10.35C376.3,47.89,374.91,47.49,373.5,47.49L373.5,47.49z"/>
<path class="st0" d="M163.74,34.6c0-2.34-1.26-5.47-3.08-6.84c-3-2.23-5.36-2.8-8.95-5c-3.6-2.4-5.81-6.4-5.93-10.72
	c0-6.49,5.81-12,12.43-12c4,0,6.84,2.39,9,2.39c0.8,0,1.26-0.8,1.37-1.43h0.33l0.51,14.09h-0.28c-1.3-4.09-5.29-14.6-10.88-14.6
	c-3.18,0.15-5.66,2.82-5.58,6c0,3.7,3.13,5.64,6.1,7.12c3.36,1.71,4.33,1.83,7.52,4.22c2.51,1.88,5.42,5.87,5.42,12.37
	c0,6-5.13,15.28-15.68,15.28c-5.93,0-13.51-4.62-13.51-11.52c0-4.9,4.22-8.55,9.12-8.55c3,0,6.1,2,6.1,5
	c-0.04,2.5-2.11,4.49-4.61,4.45c0,0-0.01,0-0.01,0c-2.68,0-3.47-2-4-3.71c-0.46-1.25-0.75-2.39-1.71-2.39
	c-2.51,0-3.88,2.79-3.88,5.3c0,5.58,5.87,10,10.37,10C159.91,44,163.74,40.01,163.74,34.6z"/>
<path class="st0" d="M202.91,34.37c0,1.77,2.57,2.62,3.48,2.79v0.4c-3.62,0.21-7.17,1.08-10.48,2.57h-0.34v-4.64
	c-1.48,1.66-5.64,4.11-8.61,4.11s-7.05-2.32-7.05-5.51V22.4c0-1.77-3-3.59-3.82-4.11V17.9c3.73-0.6,7.39-1.56,10.94-2.85h0.34v17.61
	c0,3,1.88,4.62,4.05,4.62c1.88,0,3.25-1.43,4.22-2.74V22.49c0-1.77-3.42-3.65-4.5-4.11v-0.4c3.91-0.64,7.76-1.59,11.51-2.85h0.26
	V34.37z"/>
<path class="st0" d="M238.91,51.49c2.02,0.12,3.75-1.41,3.88-3.43c0-0.01,0-0.03,0-0.04c0-1.49-1.2-2-1.2-3.48
	c-0.04-1.92,1.48-3.5,3.4-3.54c0.06,0,0.13,0,0.19,0c2.11,0,4,1.37,4,3.48c0,5-4.78,7.87-9.8,7.87c-8.55,0-12.77-8-12.77-14V22.49
	c0-2.73-1.14-4.44-3.31-4.44c-1.88,0-2.85,0.91-4.22,2.11V34.6c0,2.68,0.63,3.76,3,3.76v0.46h-13.17v-0.46c2.4,0,3-1.08,3-3.76
	V22.49c0-1.76-2.63-3.3-3.48-3.82v-0.4c3.53-0.59,6.96-1.67,10.2-3.19h0.34v4.33c1.77-1.36,5.65-4.21,8.61-4.21s6,2.28,6,5.47v21
	C233.62,47.94,233.91,51.49,238.91,51.49z"/>
<path class="st0" d="M116.25,66.26c0,1.76,0.57,3.82,2.34,3.82c1.77,0,2.85-1.26,4.68-1.26c2.36-0.03,4.3,1.86,4.33,4.23
	c0,0.05,0,0.11,0,0.16c-0.07,2.41-2.09,4.3-4.49,4.22c-0.02,0-0.04,0-0.07,0c-4.39,0-8-5.42-8-9.06c0-6.62,5.53-11.41,12-11.41
	h12.71l10.6,26.46l10.32-26.46h13.63v0.4c-2.4,0-5.08,1.2-5.08,3.88V90.6c0,2.68,2.68,3.76,5.08,3.76v0.46h-19.1v-0.46
	c2.39,0,5.47-1.08,5.47-3.76V58.33l-14.43,36.66h-0.46l-13.11-31.64v23.14c0,4.84,2.74,7.92,6.1,7.92v0.46H126v-0.46
	c2.4,0,6.1-3.08,6.1-7.92V61.81c-1-2.51-2.45-4.22-5.07-4.22C121.78,57.59,116.25,61.3,116.25,66.26z"/>
<path class="st0" d="M204.32,83.36c0,7-6.15,12.2-13.17,12.2s-13.16-5.19-13.16-12.2s6.15-12.2,13.16-12.2
	S204.32,76.35,204.32,83.36z M186.19,83.36c0,6.38,0.4,11.68,5,11.68s5-5.3,5-11.68s-0.4-11.69-5-11.69S186.19,76.97,186.19,83.36z"
	/>
<path class="st0" d="M234.53,83.36c0,7-6.15,12.2-13.17,12.2s-13.17-5.19-13.17-12.2s6.16-12.2,13.17-12.2
	S234.53,76.35,234.53,83.36z M216.4,83.36c0,6.38,0.4,11.68,5,11.68s5-5.3,5-11.68s-0.4-11.69-5-11.69S216.4,76.97,216.4,83.36
	L216.4,83.36z"/>
<path class="st0" d="M267.91,107.49c2.01,0.12,3.74-1.41,3.87-3.42c0-0.02,0-0.03,0-0.05c0-1.49-1.2-2-1.2-3.48
	c-0.04-1.92,1.48-3.5,3.4-3.54c0.07,0,0.14,0,0.2,0c2.11,0,4,1.37,4,3.48c0,5-4.79,7.87-9.81,7.87c-8.55,0-12.77-8-12.77-14V78.49
	c0-2.73-1.14-4.44-3.3-4.44c-1.88,0-2.85,0.91-4.22,2.11V90.6c0,2.68,0.62,3.76,3,3.76v0.46h-13.17v-0.46c2.39,0,3-1.08,3-3.76
	V78.49c0-1.76-2.62-3.3-3.48-3.82v-0.4c3.53-0.6,6.97-1.67,10.21-3.19h0.34v4.41c1.76-1.37,5.64-4.22,8.61-4.22s6,2.28,6,5.47v21
	C262.63,103.94,262.96,107.49,267.91,107.49z"/>
<path class="st0" d="M185.15,61.49c-0.06-0.16-0.12-0.29-0.16-0.41c-0.04-0.11-0.07-0.23-0.09-0.35c-0.12,0.3-0.31,0.56-0.55,0.76
	c-0.27,0.24-0.6,0.39-0.95,0.46c-0.38,0.1-0.78,0.05-1.13-0.14c-0.31-0.21-0.52-0.55-0.58-0.92c-0.09-0.41,0.03-0.83,0.33-1.12
	c0.37-0.36,0.83-0.6,1.34-0.68l1.15-0.24l-0.12-0.58c-0.02-0.32-0.2-0.61-0.48-0.78c-0.29-0.15-0.63-0.19-0.95-0.1
	c-0.31,0.05-0.59,0.2-0.8,0.43c-0.18,0.19-0.25,0.46-0.2,0.72l-0.47,0.1l0,0c-0.08-0.36,0.02-0.73,0.26-1
	c0.3-0.35,0.71-0.58,1.16-0.66c0.44-0.11,0.9-0.06,1.31,0.14c0.37,0.21,0.63,0.58,0.7,1l0.48,2.29c0.03,0.16,0.07,0.32,0.12,0.47
	c0.05,0.15,0.12,0.3,0.19,0.44L185.15,61.49z M183.36,61.49c0.38-0.06,0.73-0.23,1-0.5c0.24-0.22,0.39-0.52,0.44-0.84l-0.18-0.89
	l-1.15,0.23c-0.38,0.06-0.73,0.24-1,0.52c-0.22,0.21-0.31,0.52-0.25,0.81c0.04,0.24,0.18,0.45,0.39,0.58
	C182.84,61.52,183.11,61.55,183.36,61.49L183.36,61.49z"/>
<path class="st0" d="M190.37,55.77l0.15,0.82c0.1-0.29,0.29-0.55,0.53-0.75c0.25-0.19,0.55-0.32,0.86-0.35
	c0.44-0.09,0.89,0.03,1.23,0.32c0.35,0.39,0.56,0.89,0.58,1.41l0.37,2.87l-0.53,0.07l-0.36-2.87c-0.01-0.41-0.17-0.8-0.45-1.11
	c-0.25-0.2-0.58-0.29-0.9-0.23c-0.33,0.03-0.63,0.17-0.87,0.39c-0.2,0.22-0.34,0.5-0.4,0.8l0.42,3.34l-0.52,0.07l-0.57-4.72
	L190.37,55.77z"/>
<path class="st0" d="M198.74,57.34c-0.06-0.64,0.08-1.28,0.4-1.84c0.28-0.46,0.77-0.74,1.31-0.74c0.3-0.02,0.59,0.03,0.86,0.16
	c0.24,0.14,0.45,0.34,0.6,0.57l-0.13-2.8h0.52l0.32,6.85h-0.43l-0.11-0.68c-0.14,0.25-0.34,0.46-0.59,0.6
	c-0.26,0.16-0.56,0.24-0.87,0.25c-0.52,0.04-1.03-0.17-1.36-0.58c-0.36-0.49-0.56-1.07-0.56-1.68L198.74,57.34z M199.27,57.41
	c0,0.48,0.14,0.95,0.41,1.35c0.24,0.33,0.65,0.51,1.06,0.46c0.3,0,0.59-0.09,0.84-0.26c0.22-0.17,0.39-0.39,0.49-0.65l-0.1-2.25
	c-0.12-0.26-0.31-0.48-0.54-0.64c-0.26-0.17-0.56-0.24-0.87-0.21c-0.42,0-0.81,0.23-1,0.61c-0.23,0.46-0.33,0.98-0.28,1.5
	L199.27,57.41z"/>
<path class="st0" d="M214.75,53.86l-0.1,1.22l1,0.08v0.43l-1-0.08l-0.24,3.08c-0.05,0.23-0.01,0.47,0.11,0.68
	c0.1,0.12,0.24,0.2,0.39,0.22h0.19h0.22l0.05,0.4c-0.09,0.03-0.18,0.05-0.27,0.06c-0.1,0.01-0.21,0.01-0.31,0
	c-0.3-0.01-0.58-0.15-0.76-0.38c-0.18-0.3-0.24-0.65-0.19-1l0.24-3.09l-0.82-0.06v-0.43l0.81,0.06l0.1-1.21L214.75,53.86z"/>
<path class="st0" d="M221.04,56.58c0.39-0.52,1.03-0.77,1.67-0.65c0.43,0.03,0.83,0.27,1.07,0.63c0.24,0.46,0.3,0.99,0.18,1.49
	l-0.43,2.9l-0.52-0.08l0.43-2.91c0.09-0.38,0.05-0.79-0.13-1.14c-0.18-0.26-0.47-0.43-0.78-0.46c-0.34-0.08-0.69-0.03-1,0.13
	c-0.27,0.15-0.48,0.37-0.62,0.64l-0.46,3.36l-0.52-0.08l1-6.78l0.52,0.08L221.04,56.58z"/>
<path class="st0" d="M230.14,62.39c-0.57-0.12-1.05-0.48-1.31-1c-0.28-0.54-0.35-1.17-0.18-1.76v-0.24c0.13-0.61,0.49-1.15,1-1.52
	c0.45-0.34,1.02-0.45,1.56-0.32c0.5,0.09,0.93,0.4,1.18,0.84c0.23,0.49,0.27,1.05,0.12,1.57l-0.09,0.39l-3.23-0.74v0.14
	c-0.13,0.47-0.09,0.96,0.1,1.41c0.18,0.41,0.56,0.7,1,0.77c0.27,0.05,0.54,0.05,0.81,0c0.24-0.03,0.47-0.11,0.68-0.24l0.14,0.4
	c-0.23,0.14-0.48,0.23-0.74,0.28C230.84,62.45,230.48,62.45,230.14,62.39z M231.14,58c-0.37-0.09-0.76-0.02-1.07,0.2
	c-0.33,0.25-0.58,0.6-0.7,1l0,0l2.65,0.62v-0.11c0.09-0.36,0.06-0.75-0.09-1.09c-0.16-0.32-0.47-0.55-0.82-0.62L231.14,58z"/>
</svg>
