<?xml version="1.0" encoding="utf-8"?>
<!-- Generator: Adobe Illustrator 25.2.3, SVG Export Plug-In . SVG Version: 6.00 Build 0)  -->
<svg version="1.1" id="Layer_1" xmlns="http://www.w3.org/2000/svg" xmlns:xlink="http://www.w3.org/1999/xlink" x="0px" y="0px"
	 viewBox="0 0 100 100" style="enable-background:new 0 0 100 100;" xml:space="preserve">
<style type="text/css">
	.st0{fill:#FFEE85;stroke:#212121;stroke-miterlimit:10;}
	.st1{fill:#A2DE8E;stroke:#000000;stroke-miterlimit:10;}
	.st2{fill:#FFFFFF;stroke:#000000;stroke-miterlimit:10;}
	.st3{fill:none;stroke:#000000;stroke-miterlimit:10;}
	.st4{fill:#FFFFFF;}
</style>
<g>
	<path class="st0" d="M6.27,69.36c0,0-2.34-5.84,2.05-6.43c0,0,4.97-40.03,43.54-40.33c0,0,35.36,0.88,36.82,39.45
		c0,0,8.47,2.63,0,10.52C88.68,72.58,25.56,77.25,6.27,69.36z"/>
	<polygon class="st1" points="63.25,52.41 53.17,52.41 53.17,42.33 45.87,42.33 45.87,52.41 35.79,52.41 35.79,59.72 45.87,59.72 
		45.87,69.8 53.17,69.8 53.17,59.72 63.25,59.72 	"/>
	<path class="st2" d="M11.82,62.64c0,0,6.14,2.05,13.44,2.63"/>
	<path class="st2" d="M71.73,66.73c0,0,7.01-0.29,13.44-2.78"/>
	<path class="st3" d="M23.8,37.8C23.56,37.8,23.56,37.8,23.8,37.8"/>
	<path class="st3" d="M26.73,37.22C26.97,37.22,26.97,37.22,26.73,37.22"/>
	<path class="st4" d="M75.87,39.07c1.83-0.77,3.86,0.78,4.77,2.54c0.39,0.75,0.67,1.58,0.59,2.42c-0.08,0.84-0.6,1.67-1.4,1.93
		c-1.13,0.37-2.31-0.5-2.99-1.47c-1.04-1.5-1.49-3.39-1.23-5.2"/>
	<path class="st4" d="M82.28,48.35c-0.51,0.64-0.98,1.37-1.06,2.19c-0.09,0.82,0.3,1.73,1.07,2.03c1.07,0.41,2.3-0.74,2.16-1.88
		s-1.36-1.94-2.51-1.86"/>
</g>
</svg>
