<svg xmlns="http://www.w3.org/2000/svg" viewBox="0 0 432 286.62"><defs><style>.cls-1{fill:#f7f237;}.cls-2,.cls-3,.cls-8{fill:#fff;}.cls-2,.cls-5,.cls-7{stroke:#231f20;}.cls-2,.cls-3,.cls-4,.cls-5,.cls-6,.cls-7,.cls-9{stroke-miterlimit:10;}.cls-3,.cls-6,.cls-9{stroke:#000;}.cls-4{stroke:#423d3e;}.cls-5,.cls-7,.cls-9{fill:none;}.cls-5,.cls-6{stroke-width:3px;}</style></defs><g id="BAckground"><rect class="cls-1" width="432" height="286.62"/></g><g id="Dummy"><ellipse cx="320.52" cy="216.94" rx="18.52" ry="21.25"/><path class="cls-2" d="M302.11,162c-7.82-1.5,2.53,20.16,5,18.49,1.38-.89,1.2-3.9,1.2-3.9" transform="translate(-0.02 -0.36)"/><path class="cls-3" d="M329.86,161.14c4.1-6.62,4.92,3.17,3.8,8.62-.48,2.52-4.66,14.57-6.16,5.15" transform="translate(-0.02 -0.36)"/><path class="cls-3" d="M332.25,150.27s-10.63,44.41-11.4,50.37c-10.1-22-22.59-45.66-22.59-45.66Z" transform="translate(-0.02 -0.36)"/><ellipse class="cls-3" cx="309.39" cy="168.09" rx="7.59" ry="8.2"/><ellipse class="cls-3" cx="324.66" cy="166.85" rx="7.59" ry="8.2"/><ellipse class="cls-4" cx="306.63" cy="168.98" rx="1.98" ry="2.12"/><ellipse class="cls-4" cx="321.71" cy="166.87" rx="1.98" ry="2.12"/><path class="cls-5" d="M303.35,157.46c.64-2.79,4.75-.37,8,1.33" transform="translate(-0.02 -0.36)"/><path class="cls-5" d="M322,156.81c1.89-2.14,4.46-2.86,6.47-1.89" transform="translate(-0.02 -0.36)"/><path class="cls-6" d="M301.55,161.11S286.74,133,285.23,131.92c5.52.9,7.3-2,7.3-2l2.82-3.77,3.8,2,2.41-4.89,2.85,1.18,2.59,1.15,2-1.07s3.78-1.38,4.66-1.26c1.08,1,3-.35,3-.35l2.59.87,1.21-.71,2.85,2.26,1.29-1.74,4.66,1.57.6-2.17,3.71,1.14.09-.19,5.09-2-8.63,36.37-.34-7-13.64,4.4-14.06-1Z" transform="translate(-0.02 -0.36)"/><polyline class="cls-7" points="316.21 175.73 317.47 178.61 319.43 175.73"/><path class="cls-7" d="M315.66,187.36s3.16,3.51,5.63-.8c0,5.69-3.45,4.37-3.45,4.37Z" transform="translate(-0.02 -0.36)"/><path class="cls-8" d="M306.37,202.59c-1.31.11-1.82,0-3.12.15l2.63,14.61c.67,1.94,5.69.42,5.69.42S307.74,206.68,306.37,202.59Z" transform="translate(-0.02 -0.36)"/><path class="cls-3" d="M300.21,190.07c.26,2.9-2.15,2.47-2.15,2.47l-5.41-5.06a2.86,2.86,0,0,0-1.43,4l7.45,5.6,4-1.34-3-2.8" transform="translate(-0.02 -0.36)"/><path class="cls-3" d="M305.76,217.85l-3.45-16.8S289.14,195.88,290,193c.21-.7.63-1.56,1.22-1.56,1.83,0,4.88,3.17,4.88,3.17s3.34,0,2-2.07-5.41-5.06-5.41-5.06.23-4.37,3.68-1.61c-6.67-5.75-3.91-7.31-3.22-7.25s6.38,5.47,6.56,6.33,5,3.68,6.55,8.74c.41,4.6-.57,6.33.46,8.28s5.41,16.22,5.41,16.22S306.51,219.75,305.76,217.85Z" transform="translate(-0.02 -0.36)"/><path class="cls-7" d="M294.12,197.17s3.94.19,1.87-2.67" transform="translate(-0.02 -0.36)"/><path class="cls-9" d="M301.62,192.54c1.09,1.24-.19,3.38-2.08,3" transform="translate(-0.02 -0.36)"/><path class="cls-9" d="M300.27,185.75c-2.17-.59-4.43.32-4.37,1.56s-.16,2.48,3.33,1.9l1.82,1.78" transform="translate(-0.02 -0.36)"/><path class="cls-3" d="M300.44,190.36s.6,3.27-2.38,2.18" transform="translate(-0.02 -0.36)"/></g></svg>