<?xml version="1.0" encoding="utf-8"?>
<!-- Generator: Adobe Illustrator 24.1.0, SVG Export Plug-In . SVG Version: 6.00 Build 0)  -->
<svg version="1.1" id="OBJECTS" xmlns="http://www.w3.org/2000/svg" xmlns:xlink="http://www.w3.org/1999/xlink" x="0px" y="0px"
	 viewBox="0 0 315.3 239.2" style="enable-background:new 0 0 315.3 239.2;" xml:space="preserve">
<style type="text/css">
	.st0{clip-path:url(#SVGID_2_);}
	.st1{fill:#608587;}
	.st2{fill:#216168;}
	.st3{fill:#3F2F33;}
	.st4{fill:#377781;}
	.st5{fill:#8EAFB2;}
	.st6{fill:#516C6D;}
	.st7{fill:#236168;}
	.st8{fill:none;stroke:#8EAFB2;stroke-miterlimit:10;}
	.st9{fill:#165154;}
	.st10{display:none;}
	.st11{display:inline;}
	.st12{fill:#C5292D;}
	.st13{fill:#E04652;}
	.st14{fill:#A0222B;}
	.st15{fill:#163748;}
	.st16{fill:#2B596B;}
	.st17{fill:#B51C27;}
	.st18{fill:#123549;}
</style>
<g>
	<g>
		<defs>
			<rect id="SVGID_1_" y="1" width="1400" height="978"/>
		</defs>
		<clipPath id="SVGID_2_">
			<use xlink:href="#SVGID_1_"  style="display:none;overflow:visible;"/>
		</clipPath>
		<g class="st0">
			<rect x="112" y="156.6" class="st1" width="90.4" height="48"/>
			<rect x="207.3" y="148.3" class="st2" width="40.5" height="59.3"/>
			<rect x="207.3" y="197.5" class="st2" width="40.5" height="9.9"/>
			<rect x="66.7" y="148.3" class="st2" width="40.5" height="59.3"/>
			<rect x="66.7" y="197.5" class="st2" width="40.5" height="9.9"/>
			<path class="st3" d="M157.2,137H19.1c0.6,0.3,55.4,24.3,55.4,24.3h82.6h82.6c0,0,54.9-24,55.4-24.3H157.2z"/>
			<path class="st3" d="M157.2,75.5H22.4c0,0,38.8,42.2,57.6,46.7l77.1,0.3l77.1-0.3c18.9-4.5,57.6-46.7,57.6-46.7H157.2z"/>
			<path class="st4" d="M278.1,126.4c-5.1-0.2-21.9-2.4-21.9-2.4l-98.9-0.1L58.3,124c0,0-16.9,2.2-21.9,2.4
				c-7.5,0.2-28.3-0.8-28.3-0.8l5.1,5.8c0,0,2.1,3.7,10.2,3.7c32.8,0,133.8,0.1,133.8,0.1s101-0.1,133.8-0.1
				c8.2,0,10.2-3.7,10.2-3.7l5.1-5.8C306.3,125.6,285.6,126.6,278.1,126.4z"/>
			<polygon class="st5" points="157.2,97.2 74.6,97.2 74.6,118.8 157.2,118.8 239.8,118.8 239.8,97.2 			"/>
			<rect x="66.7" y="148.3" class="st4" width="40.5" height="9.9"/>
			<path class="st6" d="M157.2,134.2l-146.4-5.5l5.1,5.8c0,0,2.1,3.7,10.2,3.7c32.8,0,131,0.1,131,0.1s98.3-0.1,131-0.1
				c8.2,0,10.2-3.7,10.2-3.7l5.1-5.8L157.2,134.2z"/>
			<rect x="89.6" y="100.9" class="st4" width="3.8" height="5.8"/>
			<polygon class="st4" points="157.2,106.8 74.6,106.8 74.6,118.8 157.2,118.8 239.8,118.8 239.8,106.8 			"/>
			<polygon class="st7" points="157.2,116.4 59.1,116.4 59.1,123.9 157.2,123.9 255.3,123.9 255.3,116.4 			"/>
			<polygon class="st5" points="157.2,116.4 59.1,116.4 59.1,120.8 157.2,120.8 255.3,120.8 255.3,116.4 			"/>
			<polygon class="st7" points="157.2,116.4 59.1,116.4 59.1,118.7 157.2,118.7 255.3,118.7 255.3,116.4 			"/>
			<rect x="221" y="100.9" class="st4" width="3.8" height="5.8"/>
			<rect x="190.1" y="100.9" class="st4" width="3.8" height="5.8"/>
			<rect x="66.7" y="158.1" class="st2" width="40.5" height="9.9"/>
			<rect x="66.7" y="168" class="st4" width="40.5" height="9.9"/>
			<rect x="66.7" y="177.8" class="st2" width="40.5" height="9.9"/>
			<polygon class="st5" points="157.2,148.3 107.1,148.3 107.1,163 157.2,163 207.3,163 207.3,148.3 			"/>
			<rect x="66.7" y="187.7" class="st4" width="40.5" height="9.9"/>
			<rect x="66.7" y="148.3" class="st7" width="5.1" height="59.3"/>
			<rect x="102" y="148.3" class="st7" width="5.1" height="59.3"/>
			<rect x="135.2" y="148.3" class="st2" width="6.5" height="59"/>
			<rect x="135.2" y="201.7" class="st3" width="6.5" height="5.5"/>
			<polygon class="st3" points="116.7,163 107.1,163 107.1,207.6 116.7,205.5 			"/>
			<rect x="117.8" y="149.6" class="st7" width="2.7" height="2.7"/>
			<rect x="122.6" y="149.6" class="st7" width="2.7" height="2.7"/>
			<path class="st4" d="M9.1,119.8c0.3,0.3,4.8,5.7,14.9,6.5c0,0,0.5,2.4-0.2,2.8c-0.7,0.3-13-2.5-13-2.5l-1.7-3.4l1.7,1L9.1,119.8z
				"/>
			<polygon class="st4" points="10.8,129.1 5.6,124.9 12.6,127 			"/>
			<path class="st4" d="M26.2,122.2c0.1-0.5,5.8,4,17.5,3.7l-9.6,2.1l-7.9-1c0,0-0.3-1.4,1.4-2.1C27.6,124.9,25.9,123.9,26.2,122.2z
				"/>
			<path class="st7" d="M84,134.2c14,0,49.5-0.2,65.3-0.3l-138.5-5.2l0.4,0.4C14.5,129.7,41.8,134.2,84,134.2z"/>
			<g>
				<line class="st8" x1="62.9" y1="116.5" x2="62.9" y2="118.9"/>
				<line class="st8" x1="66.5" y1="116.5" x2="66.5" y2="118.9"/>
				<line class="st8" x1="70.1" y1="116.5" x2="70.1" y2="118.9"/>
				<line class="st8" x1="73.7" y1="116.5" x2="73.7" y2="118.9"/>
				<line class="st8" x1="77.3" y1="116.5" x2="77.3" y2="118.9"/>
				<line class="st8" x1="80.9" y1="116.5" x2="80.9" y2="118.9"/>
				<line class="st8" x1="84.5" y1="116.5" x2="84.5" y2="118.9"/>
				<line class="st8" x1="88.1" y1="116.5" x2="88.1" y2="118.9"/>
				<line class="st8" x1="91.7" y1="116.5" x2="91.7" y2="118.9"/>
				<line class="st8" x1="95.3" y1="116.5" x2="95.3" y2="118.9"/>
				<line class="st8" x1="98.9" y1="116.5" x2="98.9" y2="118.9"/>
				<line class="st8" x1="102.5" y1="116.5" x2="102.5" y2="118.9"/>
				<line class="st8" x1="106.1" y1="116.5" x2="106.1" y2="118.9"/>
				<line class="st8" x1="109.7" y1="116.5" x2="109.7" y2="118.9"/>
				<line class="st8" x1="113.3" y1="116.5" x2="113.3" y2="118.9"/>
				<line class="st8" x1="116.9" y1="116.5" x2="116.9" y2="118.9"/>
				<line class="st8" x1="120.5" y1="116.5" x2="120.5" y2="118.9"/>
				<line class="st8" x1="124.1" y1="116.5" x2="124.1" y2="118.9"/>
				<line class="st8" x1="127.7" y1="116.5" x2="127.7" y2="118.9"/>
				<line class="st8" x1="131.3" y1="116.5" x2="131.3" y2="118.9"/>
				<line class="st8" x1="134.9" y1="116.5" x2="134.9" y2="118.9"/>
				<line class="st8" x1="138.5" y1="116.5" x2="138.5" y2="118.9"/>
				<line class="st8" x1="142.1" y1="116.5" x2="142.1" y2="118.9"/>
				<line class="st8" x1="145.7" y1="116.5" x2="145.7" y2="118.9"/>
				<line class="st8" x1="149.3" y1="116.5" x2="149.3" y2="118.9"/>
				<line class="st8" x1="152.9" y1="116.5" x2="152.9" y2="118.9"/>
			</g>
			<path class="st3" d="M72.7,121.9L72.7,121.9c-1.4,0-2.6-1.2-2.6-2.6v-0.9h5.1v0.9C75.2,120.7,74.1,121.9,72.7,121.9z"/>
			<rect x="71.5" y="118.5" class="st7" width="2.4" height="2.7"/>
			<path class="st3" d="M87.8,121.9L87.8,121.9c-1.4,0-2.6-1.2-2.6-2.6v-0.9h5.1v0.9C90.3,120.7,89.2,121.9,87.8,121.9z"/>
			<rect x="86.6" y="118.5" class="st7" width="2.4" height="2.7"/>
			<path class="st3" d="M102.8,121.9L102.8,121.9c-1.4,0-2.6-1.2-2.6-2.6v-0.9h5.1v0.9C105.4,120.7,104.3,121.9,102.8,121.9z"/>
			<rect x="101.6" y="118.5" class="st7" width="2.4" height="2.7"/>
			<path class="st3" d="M117.9,121.9L117.9,121.9c-1.4,0-2.6-1.2-2.6-2.6v-0.9h5.1v0.9C120.5,120.7,119.4,121.9,117.9,121.9z"/>
			<rect x="116.7" y="118.5" class="st7" width="2.4" height="2.7"/>
			<path class="st3" d="M133,121.9L133,121.9c-1.4,0-2.6-1.2-2.6-2.6v-0.9h5.1v0.9C135.6,120.7,134.4,121.9,133,121.9z"/>
			<rect x="131.8" y="118.5" class="st7" width="2.4" height="2.7"/>
			<path class="st3" d="M148.1,121.9L148.1,121.9c-1.4,0-2.6-1.2-2.6-2.6v-0.9h5.1v0.9C150.7,120.7,149.5,121.9,148.1,121.9z"/>
			<rect x="146.9" y="118.5" class="st7" width="2.4" height="2.7"/>
			<rect x="72.5" y="110.5" class="st9" width="2.1" height="5.8"/>
			<rect x="61.9" y="110.5" class="st9" width="2.1" height="5.8"/>
			<rect x="86.9" y="110.5" class="st9" width="2.1" height="5.8"/>
			<rect x="101.3" y="110.5" class="st9" width="2.1" height="5.8"/>
			<rect x="115.7" y="110.5" class="st9" width="2.1" height="5.8"/>
			<rect x="130.1" y="110.5" class="st9" width="2.1" height="5.8"/>
			<rect x="144.5" y="110.5" class="st9" width="2.1" height="5.8"/>
			<rect x="120.5" y="100.9" class="st4" width="3.8" height="5.8"/>
			<path class="st4" d="M52.2,68.3c0,0-8.5,1.4-18.1-2.7L33.4,67c0,0,1.4,0,1.4,1.7c0,0-7.5,1.7-16.5-4.8l-1,1c0,0,2.7,2.7,2.7,4.1
				c0,0-1.4,1-4.1-1.7l-0.7,1l9.7,5C24.9,73.4,51.8,77.1,52.2,68.3z"/>
			<path class="st7" d="M71.1,51.2c0,0-1.4-0.3-3.8-2.7c0,0-1.7,3.6,1.9,6.1C72.8,57.1,71.1,51.2,71.1,51.2z"/>
			<rect x="207.3" y="148.3" class="st4" width="40.5" height="9.9"/>
			<rect x="207.3" y="158.1" class="st2" width="40.5" height="9.9"/>
			<rect x="207.3" y="168" class="st4" width="40.5" height="9.9"/>
			<rect x="207.3" y="177.8" class="st2" width="40.5" height="9.9"/>
			<rect x="207.3" y="187.7" class="st4" width="40.5" height="9.9"/>
			<rect x="242.6" y="148.3" class="st7" width="5.1" height="59.3"/>
			<rect x="207.3" y="148.3" class="st7" width="5.1" height="59.3"/>
			<rect x="172.6" y="148.3" class="st2" width="6.5" height="59"/>
			<rect x="172.6" y="201.7" class="st3" width="6.5" height="5.5"/>
			<polygon class="st3" points="197.7,163 207.3,163 207.3,207.6 197.7,205.5 			"/>
			<polygon class="st7" points="157.2,163 107.1,163 107.1,171.6 157.2,171.6 207.3,171.6 207.3,163 			"/>
			<polygon class="st7" points="157.2,151.7 107.1,151.7 107.1,153.7 157.2,153.7 207.3,153.7 207.3,151.7 			"/>
			<polygon class="st7" points="157.2,148.3 107.1,148.3 107.1,150.3 157.2,150.3 207.3,150.3 207.3,148.3 			"/>
			<rect x="193.9" y="149.6" class="st7" width="2.7" height="2.7"/>
			<rect x="189.1" y="149.6" class="st7" width="2.7" height="2.7"/>
			<path class="st4" d="M305.3,119.8c-0.3,0.3-4.8,5.7-14.9,6.5c0,0-0.5,2.4,0.2,2.8c0.7,0.3,13-2.5,13-2.5l1.7-3.4l-1.7,1
				L305.3,119.8z"/>
			<polygon class="st4" points="303.6,129.1 308.7,124.9 301.8,127 			"/>
			<path class="st4" d="M288.2,122.2c-0.1-0.5-5.8,4-17.5,3.7l9.6,2.1l7.9-1c0,0,0.3-1.4-1.4-2.1
				C286.8,124.9,288.5,123.9,288.2,122.2z"/>
			<path class="st7" d="M230.4,134.2c-14,0-49.5-0.2-65.3-0.3l138.5-5.2l-0.4,0.4C299.9,129.7,272.5,134.2,230.4,134.2z"/>
			<g>
				<line class="st8" x1="251.5" y1="116.5" x2="251.5" y2="118.9"/>
				<line class="st8" x1="247.9" y1="116.5" x2="247.9" y2="118.9"/>
				<line class="st8" x1="244.3" y1="116.5" x2="244.3" y2="118.9"/>
				<line class="st8" x1="240.7" y1="116.5" x2="240.7" y2="118.9"/>
				<line class="st8" x1="237.1" y1="116.5" x2="237.1" y2="118.9"/>
				<line class="st8" x1="233.5" y1="116.5" x2="233.5" y2="118.9"/>
				<line class="st8" x1="229.9" y1="116.5" x2="229.9" y2="118.9"/>
				<line class="st8" x1="226.3" y1="116.5" x2="226.3" y2="118.9"/>
				<line class="st8" x1="222.7" y1="116.5" x2="222.7" y2="118.9"/>
				<line class="st8" x1="219.1" y1="116.5" x2="219.1" y2="118.9"/>
				<line class="st8" x1="215.5" y1="116.5" x2="215.5" y2="118.9"/>
				<line class="st8" x1="211.9" y1="116.5" x2="211.9" y2="118.9"/>
				<line class="st8" x1="208.3" y1="116.5" x2="208.3" y2="118.9"/>
				<line class="st8" x1="204.7" y1="116.5" x2="204.7" y2="118.9"/>
				<line class="st8" x1="201.1" y1="116.5" x2="201.1" y2="118.9"/>
				<line class="st8" x1="197.5" y1="116.5" x2="197.5" y2="118.9"/>
				<line class="st8" x1="193.9" y1="116.5" x2="193.9" y2="118.9"/>
				<line class="st8" x1="190.3" y1="116.5" x2="190.3" y2="118.9"/>
				<line class="st8" x1="186.7" y1="116.5" x2="186.7" y2="118.9"/>
				<line class="st8" x1="183.1" y1="116.5" x2="183.1" y2="118.9"/>
				<line class="st8" x1="179.5" y1="116.5" x2="179.5" y2="118.9"/>
				<line class="st8" x1="175.9" y1="116.5" x2="175.9" y2="118.9"/>
				<line class="st8" x1="172.3" y1="116.5" x2="172.3" y2="118.9"/>
				<line class="st8" x1="168.7" y1="116.5" x2="168.7" y2="118.9"/>
				<line class="st8" x1="165.1" y1="116.5" x2="165.1" y2="118.9"/>
				<line class="st8" x1="161.5" y1="116.5" x2="161.5" y2="118.9"/>
			</g>
			<path class="st3" d="M241.7,121.9L241.7,121.9c1.4,0,2.6-1.2,2.6-2.6v-0.9h-5.1v0.9C239.1,120.7,240.3,121.9,241.7,121.9z"/>
			<rect x="240.5" y="118.5" class="st7" width="2.4" height="2.7"/>
			<path class="st3" d="M226.6,121.9L226.6,121.9c1.4,0,2.6-1.2,2.6-2.6v-0.9h-5.1v0.9C224.1,120.7,225.2,121.9,226.6,121.9z"/>
			<rect x="225.4" y="118.5" class="st7" width="2.4" height="2.7"/>
			<path class="st3" d="M211.5,121.9L211.5,121.9c1.4,0,2.6-1.2,2.6-2.6v-0.9H209v0.9C209,120.7,210.1,121.9,211.5,121.9z"/>
			<rect x="210.3" y="118.5" class="st7" width="2.4" height="2.7"/>
			<path class="st3" d="M196.5,121.9L196.5,121.9c1.4,0,2.6-1.2,2.6-2.6v-0.9h-5.1v0.9C193.9,120.7,195,121.9,196.5,121.9z"/>
			<rect x="195.3" y="118.5" class="st7" width="2.4" height="2.7"/>
			<path class="st3" d="M181.4,121.9L181.4,121.9c1.4,0,2.6-1.2,2.6-2.6v-0.9h-5.1v0.9C178.8,120.7,179.9,121.9,181.4,121.9z"/>
			<rect x="180.2" y="118.5" class="st7" width="2.4" height="2.7"/>
			<path class="st3" d="M166.3,121.9L166.3,121.9c1.4,0,2.6-1.2,2.6-2.6v-0.9h-5.1v0.9C163.7,120.7,164.9,121.9,166.3,121.9z"/>
			<rect x="165.1" y="118.5" class="st7" width="2.4" height="2.7"/>
			<polygon class="st9" points="157.2,110.5 59.1,110.5 59.1,111.6 157.2,111.6 255.3,111.6 255.3,110.5 			"/>
			<polygon class="st9" points="157.2,113.3 59.1,113.3 59.1,114.3 157.2,114.3 255.3,114.3 255.3,113.3 			"/>
			<rect x="239.8" y="110.5" class="st9" width="2.1" height="5.8"/>
			<rect x="250.5" y="110.5" class="st9" width="2.1" height="5.8"/>
			<rect x="225.4" y="110.5" class="st9" width="2.1" height="5.8"/>
			<rect x="211" y="110.5" class="st9" width="2.1" height="5.8"/>
			<rect x="196.6" y="110.5" class="st9" width="2.1" height="5.8"/>
			<rect x="182.2" y="110.5" class="st9" width="2.1" height="5.8"/>
			<rect x="167.8" y="110.5" class="st9" width="2.1" height="5.8"/>
			<polygon class="st4" points="157.2,99.9 74.6,99.9 74.6,101.6 157.2,101.6 239.8,101.6 239.8,99.9 			"/>
			<path class="st6" d="M251.5,70.1c-1.8-2.5-8.2-14-8.2-14h-86.1H71.1c0,0-6.4,11.6-8.2,14c-3.2,4.4-43.5,0.4-43.5,0.4
				s2.7,10.5,17.5,10.5c23.6,0,120.3,1.5,120.3,1.5s96.7-1.5,120.3-1.5c14.7,0,17.5-10.5,17.5-10.5S254.7,74.4,251.5,70.1z"/>
			<path class="st4" d="M251.5,65.3c-1.8-2.5-8.2-14-8.2-14h-86.1H71.1c0,0-6.4,11.6-8.2,14c-3.2,4.4-43.5,5.2-43.5,5.2
				s6.6,5,17.5,5.7c23.6,1.4,120.3,2.5,120.3,2.5s96.8-1.1,120.3-2.5c10.9-0.6,17.5-5.7,17.5-5.7S254.7,69.6,251.5,65.3z"/>
			<path class="st4" d="M262.2,68.3c0,0,8.5,1.4,18.1-2.7L281,67c0,0-1.4,0-1.4,1.7c0,0,7.5,1.7,16.5-4.8l1,1c0,0-2.7,2.7-2.7,4.1
				c0,0,1.4,1,4.1-1.7l0.7,1l-9.7,5C289.5,73.4,262.5,77.1,262.2,68.3z"/>
			<path class="st7" d="M243.3,51.2c0,0,1.4-0.3,3.8-2.7c0,0,1.7,3.6-1.9,6.1C241.5,57.1,243.3,51.2,243.3,51.2z"/>
			<path class="st7" d="M243.3,51.2h-86.1H71.1c0,0-1,1.8-2.3,4.1h88.4h88.4C244.3,53,243.3,51.2,243.3,51.2z"/>
			<path class="st7" d="M157.2,76.6c-13.9,0.2-108.6,1.1-137.8-6.2c0,0,6.6,5,17.5,5.7c23.6,1.4,120.3,2.5,120.3,2.5
				s96.8-1.1,120.3-2.5c10.9-0.6,17.5-5.7,17.5-5.7C265.8,77.7,171.1,76.8,157.2,76.6z"/>
			<path class="st7" d="M160.7,188h-7.4c-3,0-5.4-2.4-5.4-5.4v-14.2h18.2v14.2C166.1,185.6,163.7,188,160.7,188z"/>
			<path class="st5" d="M147.9,172.9v8.1c0,0.9,0.2,1.8,0.5,2.6h17.2c0.3-0.8,0.5-1.7,0.5-2.6v-8.1H147.9z"/>
			<circle class="st7" cx="125.8" cy="178.3" r="7.4"/>
			<rect x="121.5" y="184.3" class="st3" width="8.6" height="2.7"/>
			<circle class="st7" cx="187.9" cy="178.3" r="7.4"/>
			<rect x="183.6" y="184.3" class="st3" width="8.6" height="2.7"/>
		</g>
	</g>
	<g class="st10">
		<g class="st11">
			<rect x="140.6" y="34.9" class="st12" width="29.2" height="23.3"/>
			<rect x="140.6" y="34.9" class="st13" width="5.3" height="23.3"/>
			<rect x="53.2" y="39.6" class="st14" width="26.3" height="167.8"/>
			<rect x="53.2" y="39.6" class="st12" width="17.2" height="167.8"/>
			<rect x="53.2" y="39.6" class="st13" width="6.5" height="167.8"/>
			<rect x="47.8" y="207.4" class="st15" width="38.4" height="26.3"/>
			<rect x="47.8" y="207.4" class="st16" width="19.1" height="26.3"/>
			<rect x="44.6" y="50.5" class="st17" width="46.6" height="7.7"/>
			<rect x="44.6" y="50.5" class="st13" width="20.3" height="7.7"/>
			<rect x="49.4" y="33.3" class="st17" width="34.6" height="7.7"/>
			<rect x="230.6" y="39.6" class="st14" width="26.3" height="167.8"/>
			<rect x="230.6" y="39.6" class="st12" width="17.7" height="167.8"/>
			<rect x="230.6" y="39.6" class="st13" width="6.4" height="167.8"/>
			<rect x="218.8" y="50.5" class="st17" width="46.6" height="7.7"/>
			<rect x="218.8" y="50.5" class="st13" width="24.5" height="7.7"/>
			<rect x="223.9" y="207.4" class="st15" width="38.4" height="26.3"/>
			<rect x="223.9" y="207.4" class="st16" width="19.2" height="26.3"/>
			<polygon class="st17" points="156.9,55.9 153.2,55.9 19.2,55.9 19.2,69.5 153.2,69.5 156.9,69.5 290.8,69.5 290.8,55.9 			"/>
			<polygon class="st14" points="156.9,62.7 153.2,62.7 19.2,62.7 19.2,69.5 153.2,69.5 156.9,69.5 290.8,69.5 290.8,62.7 			"/>
			<rect x="226.1" y="33.3" class="st17" width="34.6" height="7.7"/>
			<path class="st18" d="M231.2,18.4c-13.7,0-60.9,1-76.1,1.4c-15.3-0.3-62.4-1.4-76.1-1.4C49.4,18.4,9.6,5.5,9.6,5.5v8.9
				c0,0,32.5,13.4,69.8,13.4c16.7,0,60.9-0.8,75.6-1.1c14.7,0.3,58.9,1.1,75.6,1.1c37.3,0,69.8-13.4,69.8-13.4V5.5
				C300.4,5.5,260.7,18.4,231.2,18.4z"/>
			<path class="st12" d="M290.8,16.3c0,0-37.1,7.9-64.8,7.9c-12.8,0-56.7,1.6-71,2.1c-14.4-0.5-58.2-2.1-71-2.1
				c-27.6,0-64.8-7.9-64.8-7.9v17l131.2,3.6L155,37l4.6-0.1l131.2-3.6L290.8,16.3L290.8,16.3z"/>
			<path class="st14" d="M155,32.9c-14.4-0.5-58.2-2.1-71-2.1c-27.6,0-64.8-7.9-64.8-7.9v10.4l131.2,3.6L155,37l4.6-0.1l131.2-3.6
				V22.9c0,0-37.1,7.9-64.8,7.9C213.3,30.7,169.4,32.4,155,32.9z"/>
		</g>
	</g>
</g>
</svg>
