<?xml version="1.0" encoding="utf-8"?>
<!-- Generator: Adobe Illustrator 24.1.0, SVG Export Plug-In . SVG Version: 6.00 Build 0)  -->
<svg version="1.1" id="OBJECTS" xmlns="http://www.w3.org/2000/svg" xmlns:xlink="http://www.w3.org/1999/xlink" x="0px" y="0px"
	 viewBox="0 0 315.3 239.2" style="enable-background:new 0 0 315.3 239.2;" xml:space="preserve">
<style type="text/css">
	.st0{display:none;}
	.st1{display:inline;}
	.st2{display:inline;clip-path:url(#SVGID_2_);}
	.st3{fill:#608587;}
	.st4{fill:#216168;}
	.st5{fill:#3F2F33;}
	.st6{fill:#377781;}
	.st7{fill:#8EAFB2;}
	.st8{fill:#516C6D;}
	.st9{fill:#236168;}
	.st10{fill:none;stroke:#8EAFB2;stroke-miterlimit:10;}
	.st11{fill:#165154;}
	.st12{fill:#C5292D;}
	.st13{fill:#E04652;}
	.st14{fill:#A0222B;}
	.st15{fill:#163748;}
	.st16{fill:#2B596B;}
	.st17{fill:#B51C27;}
	.st18{fill:#123549;}
</style>
<g>
	<g class="st0">
		<defs>
			<rect id="SVGID_1_" y="1" width="1400" height="978"/>
		</defs>
		<clipPath id="SVGID_2_" class="st1">
			<use xlink:href="#SVGID_1_"  style="overflow:visible;"/>
		</clipPath>
		<g class="st2">
			<rect x="652.1" y="663.8" class="st3" width="127.8" height="67.9"/>
			<rect x="786.7" y="652" class="st4" width="57.2" height="83.8"/>
			<rect x="786.7" y="721.7" class="st4" width="57.2" height="13.9"/>
			<rect x="588.1" y="652" class="st4" width="57.2" height="83.8"/>
			<rect x="588.1" y="721.7" class="st4" width="57.2" height="13.9"/>
			<path class="st5" d="M716,636.1H520.9c0.8,0.4,78.3,34.3,78.3,34.3H716h116.8c0,0,77.5-33.9,78.3-34.3H716z"/>
			<path class="st5" d="M716,549.2H525.5c0,0,54.8,59.7,81.5,66l109,0.5l109-0.5c26.7-6.3,81.5-66,81.5-66H716z"/>
			<path class="st6" d="M886.8,621.1c-7.1-0.2-31-3.3-31-3.3L716,617.6l-139.8,0.2c0,0-23.9,3.1-31,3.3c-10.6,0.3-40-1.1-40-1.1
				l7.3,8.2c0,0,2.9,5.2,14.5,5.2c46.3,0,189,0.1,189,0.1s142.7-0.1,189-0.1c11.6,0,14.5-5.2,14.5-5.2l7.3-8.2
				C926.8,620,897.4,621.4,886.8,621.1z"/>
			<polygon class="st7" points="716,579.8 599.2,579.8 599.2,610.3 716,610.3 832.8,610.3 832.8,579.8 			"/>
			<rect x="588.1" y="652" class="st6" width="57.2" height="13.9"/>
			<path class="st8" d="M716,632.1l-206.9-7.8l7.3,8.2c0,0,2.9,5.2,14.5,5.2c46.3,0,185.2,0.1,185.2,0.1s138.9-0.1,185.2-0.1
				c11.6,0,14.5-5.2,14.5-5.2l7.3-8.2L716,632.1z"/>
			<rect x="620.5" y="585.1" class="st6" width="5.3" height="8.2"/>
			<polygon class="st6" points="716,593.4 599.2,593.4 599.2,610.3 716,610.3 832.8,610.3 832.8,593.4 			"/>
			<polygon class="st9" points="716,606.9 577.4,606.9 577.4,617.6 716,617.6 854.6,617.6 854.6,606.9 			"/>
			<polygon class="st7" points="716,606.9 577.4,606.9 577.4,613.2 716,613.2 854.6,613.2 854.6,606.9 			"/>
			<polygon class="st9" points="716,606.9 577.4,606.9 577.4,610.2 716,610.2 854.6,610.2 854.6,606.9 			"/>
			<rect x="806.1" y="585.1" class="st6" width="5.3" height="8.2"/>
			<rect x="762.5" y="585.1" class="st6" width="5.3" height="8.2"/>
			<rect x="588.1" y="665.9" class="st4" width="57.2" height="13.9"/>
			<rect x="588.1" y="679.9" class="st6" width="57.2" height="13.9"/>
			<rect x="588.1" y="693.8" class="st4" width="57.2" height="13.9"/>
			<polygon class="st7" points="716,652 645.3,652 645.3,672.8 716,672.8 786.7,672.8 786.7,652 			"/>
			<rect x="588.1" y="707.7" class="st6" width="57.2" height="13.9"/>
			<rect x="588.1" y="652" class="st9" width="7.3" height="83.8"/>
			<rect x="638" y="652" class="st9" width="7.3" height="83.8"/>
			<rect x="685" y="652" class="st4" width="9.2" height="83.3"/>
			<rect x="685" y="727.6" class="st5" width="9.2" height="7.8"/>
			<polygon class="st5" points="658.8,672.8 645.3,672.8 645.3,735.8 658.8,732.9 			"/>
			<rect x="660.3" y="653.9" class="st9" width="3.9" height="3.9"/>
			<rect x="667.1" y="653.9" class="st9" width="3.9" height="3.9"/>
			<path class="st6" d="M506.7,611.8c0.5,0.5,6.8,8.1,21.1,9.1c0,0,0.7,3.5-0.2,3.9c-1,0.5-18.4-3.5-18.4-3.5l-2.4-4.8l2.4,1.5
				L506.7,611.8z"/>
			<polygon class="st6" points="509.1,624.9 501.8,619.1 511.6,622 			"/>
			<path class="st6" d="M530.9,615.2c0.1-0.7,8.2,5.6,24.7,5.2l-13.5,3l-11.1-1.5c0,0-0.5-1.9,1.9-2.9
				C532.8,619.1,530.4,617.6,530.9,615.2z"/>
			<path class="st9" d="M612.5,632.1c19.8,0,69.9-0.3,92.3-0.4l-195.8-7.3l0.5,0.6C514.4,625.8,553,632.1,612.5,632.1z"/>
			<g>
				<line class="st10" x1="582.7" y1="607.2" x2="582.7" y2="610.6"/>
				<line class="st10" x1="587.8" y1="607.2" x2="587.8" y2="610.6"/>
				<line class="st10" x1="592.9" y1="607.2" x2="592.9" y2="610.6"/>
				<line class="st10" x1="598" y1="607.2" x2="598" y2="610.6"/>
				<line class="st10" x1="603.1" y1="607.2" x2="603.1" y2="610.6"/>
				<line class="st10" x1="608.2" y1="607.2" x2="608.2" y2="610.6"/>
				<line class="st10" x1="613.3" y1="607.2" x2="613.3" y2="610.6"/>
				<line class="st10" x1="618.4" y1="607.2" x2="618.4" y2="610.6"/>
				<line class="st10" x1="623.5" y1="607.2" x2="623.5" y2="610.6"/>
				<line class="st10" x1="628.5" y1="607.2" x2="628.5" y2="610.6"/>
				<line class="st10" x1="633.6" y1="607.2" x2="633.6" y2="610.6"/>
				<line class="st10" x1="638.7" y1="607.2" x2="638.7" y2="610.6"/>
				<line class="st10" x1="643.8" y1="607.2" x2="643.8" y2="610.6"/>
				<line class="st10" x1="648.9" y1="607.2" x2="648.9" y2="610.6"/>
				<line class="st10" x1="654" y1="607.2" x2="654" y2="610.6"/>
				<line class="st10" x1="659.1" y1="607.2" x2="659.1" y2="610.6"/>
				<line class="st10" x1="664.2" y1="607.2" x2="664.2" y2="610.6"/>
				<line class="st10" x1="669.2" y1="607.2" x2="669.2" y2="610.6"/>
				<line class="st10" x1="674.3" y1="607.2" x2="674.3" y2="610.6"/>
				<line class="st10" x1="679.4" y1="607.2" x2="679.4" y2="610.6"/>
				<line class="st10" x1="684.5" y1="607.2" x2="684.5" y2="610.6"/>
				<line class="st10" x1="689.6" y1="607.2" x2="689.6" y2="610.6"/>
				<line class="st10" x1="694.7" y1="607.2" x2="694.7" y2="610.6"/>
				<line class="st10" x1="699.8" y1="607.2" x2="699.8" y2="610.6"/>
				<line class="st10" x1="704.9" y1="607.2" x2="704.9" y2="610.6"/>
				<line class="st10" x1="709.9" y1="607.2" x2="709.9" y2="610.6"/>
			</g>
			<path class="st5" d="M596.6,614.8L596.6,614.8c-2,0-3.6-1.6-3.6-3.6v-1.2h7.3v1.2C600.2,613.1,598.6,614.8,596.6,614.8z"/>
			<rect x="594.9" y="609.9" class="st9" width="3.4" height="3.9"/>
			<path class="st5" d="M617.9,614.8L617.9,614.8c-2,0-3.6-1.6-3.6-3.6v-1.2h7.3v1.2C621.5,613.1,619.9,614.8,617.9,614.8z"/>
			<rect x="616.2" y="609.9" class="st9" width="3.4" height="3.9"/>
			<path class="st5" d="M639.2,614.8L639.2,614.8c-2,0-3.6-1.6-3.6-3.6v-1.2h7.3v1.2C642.8,613.1,641.2,614.8,639.2,614.8z"/>
			<rect x="637.5" y="609.9" class="st9" width="3.4" height="3.9"/>
			<path class="st5" d="M660.5,614.8L660.5,614.8c-2,0-3.6-1.6-3.6-3.6v-1.2h7.3v1.2C664.2,613.1,662.5,614.8,660.5,614.8z"/>
			<rect x="658.8" y="609.9" class="st9" width="3.4" height="3.9"/>
			<path class="st5" d="M681.8,614.8L681.8,614.8c-2,0-3.6-1.6-3.6-3.6v-1.2h7.3v1.2C685.5,613.1,683.8,614.8,681.8,614.8z"/>
			<rect x="680.1" y="609.9" class="st9" width="3.4" height="3.9"/>
			<path class="st5" d="M703.2,614.8L703.2,614.8c-2,0-3.6-1.6-3.6-3.6v-1.2h7.3v1.2C706.8,613.1,705.2,614.8,703.2,614.8z"/>
			<rect x="701.5" y="609.9" class="st9" width="3.4" height="3.9"/>
			<rect x="596.3" y="598.7" class="st11" width="2.9" height="8.2"/>
			<rect x="581.3" y="598.7" class="st11" width="2.9" height="8.2"/>
			<rect x="616.7" y="598.7" class="st11" width="2.9" height="8.2"/>
			<rect x="637" y="598.7" class="st11" width="2.9" height="8.2"/>
			<rect x="657.4" y="598.7" class="st11" width="2.9" height="8.2"/>
			<rect x="677.7" y="598.7" class="st11" width="2.9" height="8.2"/>
			<rect x="698.1" y="598.7" class="st11" width="2.9" height="8.2"/>
			<rect x="664.2" y="585.1" class="st6" width="5.3" height="8.2"/>
			<path class="st6" d="M567.7,539c0,0-12.1,2-25.6-3.8l-1,1.9c0,0,1.9,0,1.9,2.4c0,0-10.7,2.4-23.3-6.8l-1.5,1.5
				c0,0,3.9,3.9,3.9,5.8c0,0-1.9,1.5-5.8-2.4l-1,1.5l13.7,7.1C529.1,546.2,567.1,551.5,567.7,539z"/>
			<path class="st9" d="M594.4,514.9c0,0-1.9-0.5-5.3-3.9c0,0-2.4,5.1,2.7,8.6C596.8,523.1,594.4,514.9,594.4,514.9z"/>
			<rect x="786.7" y="652" class="st6" width="57.2" height="13.9"/>
			<rect x="786.7" y="665.9" class="st4" width="57.2" height="13.9"/>
			<rect x="786.7" y="679.9" class="st6" width="57.2" height="13.9"/>
			<rect x="786.7" y="693.8" class="st4" width="57.2" height="13.9"/>
			<rect x="786.7" y="707.7" class="st6" width="57.2" height="13.9"/>
			<rect x="836.7" y="652" class="st9" width="7.3" height="83.8"/>
			<rect x="786.7" y="652" class="st9" width="7.3" height="83.8"/>
			<rect x="737.8" y="652" class="st4" width="9.2" height="83.3"/>
			<rect x="737.8" y="727.6" class="st5" width="9.2" height="7.8"/>
			<polygon class="st5" points="773.2,672.8 786.7,672.8 786.7,735.8 773.2,732.9 			"/>
			<polygon class="st9" points="716,672.8 645.3,672.8 645.3,685 716,685 786.7,685 786.7,672.8 			"/>
			<polygon class="st9" points="716,656.9 645.3,656.9 645.3,659.8 716,659.8 786.7,659.8 786.7,656.9 			"/>
			<polygon class="st9" points="716,652 645.3,652 645.3,654.9 716,654.9 786.7,654.9 786.7,652 			"/>
			<rect x="767.9" y="653.9" class="st9" width="3.9" height="3.9"/>
			<rect x="761.1" y="653.9" class="st9" width="3.9" height="3.9"/>
			<path class="st6" d="M925.3,611.8c-0.5,0.5-6.8,8.1-21.1,9.1c0,0-0.7,3.5,0.2,3.9c1,0.5,18.4-3.5,18.4-3.5l2.4-4.8l-2.4,1.5
				L925.3,611.8z"/>
			<polygon class="st6" points="922.9,624.9 930.2,619.1 920.4,622 			"/>
			<path class="st6" d="M901.1,615.2c-0.1-0.7-8.2,5.6-24.7,5.2l13.5,3l11.1-1.5c0,0,0.5-1.9-1.9-2.9
				C899.2,619.1,901.6,617.6,901.1,615.2z"/>
			<path class="st9" d="M819.5,632.1c-19.8,0-69.9-0.3-92.3-0.4l195.8-7.3l-0.5,0.6C917.6,625.8,879,632.1,819.5,632.1z"/>
			<g>
				<line class="st10" x1="849.3" y1="607.2" x2="849.3" y2="610.6"/>
				<line class="st10" x1="844.2" y1="607.2" x2="844.2" y2="610.6"/>
				<line class="st10" x1="839.1" y1="607.2" x2="839.1" y2="610.6"/>
				<line class="st10" x1="834" y1="607.2" x2="834" y2="610.6"/>
				<line class="st10" x1="828.9" y1="607.2" x2="828.9" y2="610.6"/>
				<line class="st10" x1="823.8" y1="607.2" x2="823.8" y2="610.6"/>
				<line class="st10" x1="818.7" y1="607.2" x2="818.7" y2="610.6"/>
				<line class="st10" x1="813.6" y1="607.2" x2="813.6" y2="610.6"/>
				<line class="st10" x1="808.6" y1="607.2" x2="808.6" y2="610.6"/>
				<line class="st10" x1="803.5" y1="607.2" x2="803.5" y2="610.6"/>
				<line class="st10" x1="798.4" y1="607.2" x2="798.4" y2="610.6"/>
				<line class="st10" x1="793.3" y1="607.2" x2="793.3" y2="610.6"/>
				<line class="st10" x1="788.2" y1="607.2" x2="788.2" y2="610.6"/>
				<line class="st10" x1="783.1" y1="607.2" x2="783.1" y2="610.6"/>
				<line class="st10" x1="778" y1="607.2" x2="778" y2="610.6"/>
				<line class="st10" x1="772.9" y1="607.2" x2="772.9" y2="610.6"/>
				<line class="st10" x1="767.9" y1="607.2" x2="767.9" y2="610.6"/>
				<line class="st10" x1="762.8" y1="607.2" x2="762.8" y2="610.6"/>
				<line class="st10" x1="757.7" y1="607.2" x2="757.7" y2="610.6"/>
				<line class="st10" x1="752.6" y1="607.2" x2="752.6" y2="610.6"/>
				<line class="st10" x1="747.5" y1="607.2" x2="747.5" y2="610.6"/>
				<line class="st10" x1="742.4" y1="607.2" x2="742.4" y2="610.6"/>
				<line class="st10" x1="737.3" y1="607.2" x2="737.3" y2="610.6"/>
				<line class="st10" x1="732.2" y1="607.2" x2="732.2" y2="610.6"/>
				<line class="st10" x1="727.1" y1="607.2" x2="727.1" y2="610.6"/>
				<line class="st10" x1="722.1" y1="607.2" x2="722.1" y2="610.6"/>
			</g>
			<path class="st5" d="M835.4,614.8L835.4,614.8c2,0,3.6-1.6,3.6-3.6v-1.2h-7.3v1.2C831.8,613.1,833.4,614.8,835.4,614.8z"/>
			<rect x="833.8" y="609.9" class="st9" width="3.4" height="3.9"/>
			<path class="st5" d="M814.1,614.8L814.1,614.8c2,0,3.6-1.6,3.6-3.6v-1.2h-7.3v1.2C810.5,613.1,812.1,614.8,814.1,614.8z"/>
			<rect x="812.4" y="609.9" class="st9" width="3.4" height="3.9"/>
			<path class="st5" d="M792.8,614.8L792.8,614.8c2,0,3.6-1.6,3.6-3.6v-1.2h-7.3v1.2C789.2,613.1,790.8,614.8,792.8,614.8z"/>
			<rect x="791.1" y="609.9" class="st9" width="3.4" height="3.9"/>
			<path class="st5" d="M771.5,614.8L771.5,614.8c2,0,3.6-1.6,3.6-3.6v-1.2h-7.3v1.2C767.9,613.1,769.5,614.8,771.5,614.8z"/>
			<rect x="769.8" y="609.9" class="st9" width="3.4" height="3.9"/>
			<path class="st5" d="M750.2,614.8L750.2,614.8c2,0,3.6-1.6,3.6-3.6v-1.2h-7.3v1.2C746.5,613.1,748.2,614.8,750.2,614.8z"/>
			<rect x="748.5" y="609.9" class="st9" width="3.4" height="3.9"/>
			<path class="st5" d="M728.8,614.8L728.8,614.8c2,0,3.6-1.6,3.6-3.6v-1.2h-7.3v1.2C725.2,613.1,726.8,614.8,728.8,614.8z"/>
			<rect x="727.1" y="609.9" class="st9" width="3.4" height="3.9"/>
			<polygon class="st11" points="716,598.7 577.4,598.7 577.4,600.2 716,600.2 854.6,600.2 854.6,598.7 			"/>
			<polygon class="st11" points="716,602.6 577.4,602.6 577.4,604 716,604 854.6,604 854.6,602.6 			"/>
			<rect x="832.8" y="598.7" class="st11" width="2.9" height="8.2"/>
			<rect x="847.8" y="598.7" class="st11" width="2.9" height="8.2"/>
			<rect x="812.4" y="598.7" class="st11" width="2.9" height="8.2"/>
			<rect x="792.1" y="598.7" class="st11" width="2.9" height="8.2"/>
			<rect x="771.7" y="598.7" class="st11" width="2.9" height="8.2"/>
			<rect x="751.4" y="598.7" class="st11" width="2.9" height="8.2"/>
			<rect x="731" y="598.7" class="st11" width="2.9" height="8.2"/>
			<polygon class="st6" points="716,583.7 599.2,583.7 599.2,586.1 716,586.1 832.8,586.1 832.8,583.7 			"/>
			<path class="st8" d="M849.3,541.5c-2.5-3.5-11.6-19.9-11.6-19.9H716H594.4c0,0-9.1,16.3-11.6,19.9c-4.5,6.2-61.5,0.5-61.5,0.5
				s3.9,14.8,24.7,14.8c33.4,0,170.1,2.1,170.1,2.1s136.7-2.1,170.1-2.1c20.8,0,24.7-14.8,24.7-14.8S853.7,547.7,849.3,541.5z"/>
			<path class="st6" d="M849.3,534.7c-2.5-3.5-11.6-19.8-11.6-19.8H716H594.4c0,0-9.1,16.3-11.6,19.8c-4.5,6.2-61.5,7.3-61.5,7.3
				s9.3,7.1,24.7,8c33.3,2,170.1,3.6,170.1,3.6s136.8-1.6,170.1-3.6c15.4-0.9,24.7-8,24.7-8S853.7,540.9,849.3,534.7z"/>
			<path class="st6" d="M864.3,539c0,0,12.1,2,25.6-3.8l1,1.9c0,0-1.9,0-1.9,2.4c0,0,10.7,2.4,23.3-6.8l1.5,1.5c0,0-3.9,3.9-3.9,5.8
				c0,0,1.9,1.5,5.8-2.4l1,1.5l-13.7,7.1C902.9,546.2,864.9,551.5,864.3,539z"/>
			<path class="st9" d="M837.6,514.9c0,0,1.9-0.5,5.3-3.9c0,0,2.4,5.1-2.7,8.6C835.2,523.1,837.6,514.9,837.6,514.9z"/>
			<path class="st9" d="M837.6,514.9H716H594.4c0,0-1.4,2.5-3.3,5.8H716h124.9C839,517.4,837.6,514.9,837.6,514.9z"/>
			<path class="st9" d="M716,550.8c-19.6,0.3-153.5,1.6-194.8-8.8c0,0,9.3,7.1,24.7,8c33.3,2,170.1,3.6,170.1,3.6
				s136.8-1.6,170.1-3.6c15.4-0.9,24.7-8,24.7-8C869.5,552.3,735.7,551,716,550.8z"/>
			<path class="st9" d="M721,708.2h-10.4c-4.2,0-7.6-3.4-7.6-7.6v-20h25.7v20C728.6,704.8,725.2,708.2,721,708.2z"/>
			<path class="st7" d="M702.9,686.9v11.4c0,1.3,0.3,2.5,0.7,3.6h24.3c0.4-1.1,0.7-2.3,0.7-3.6v-11.4H702.9z"/>
			<circle class="st9" cx="671.7" cy="694.4" r="10.4"/>
			<rect x="665.6" y="702.9" class="st5" width="12.1" height="3.9"/>
			<circle class="st9" cx="759.4" cy="694.4" r="10.4"/>
			<rect x="753.3" y="702.9" class="st5" width="12.1" height="3.9"/>
		</g>
	</g>
	<g>
		<g>
			<rect x="140.6" y="34.9" class="st12" width="29.2" height="23.3"/>
			<rect x="140.6" y="34.9" class="st13" width="5.3" height="23.3"/>
			<rect x="53.2" y="39.6" class="st14" width="26.3" height="167.8"/>
			<rect x="53.2" y="39.6" class="st12" width="17.2" height="167.8"/>
			<rect x="53.2" y="39.6" class="st13" width="6.5" height="167.8"/>
			<rect x="47.8" y="207.4" class="st15" width="38.4" height="26.3"/>
			<rect x="47.8" y="207.4" class="st16" width="19.1" height="26.3"/>
			<rect x="44.6" y="50.5" class="st17" width="46.6" height="7.7"/>
			<rect x="44.6" y="50.5" class="st13" width="20.3" height="7.7"/>
			<rect x="49.4" y="33.3" class="st17" width="34.6" height="7.7"/>
			<rect x="230.6" y="39.6" class="st14" width="26.3" height="167.8"/>
			<rect x="230.6" y="39.6" class="st12" width="17.7" height="167.8"/>
			<rect x="230.6" y="39.6" class="st13" width="6.4" height="167.8"/>
			<rect x="218.8" y="50.5" class="st17" width="46.6" height="7.7"/>
			<rect x="218.8" y="50.5" class="st13" width="24.5" height="7.7"/>
			<rect x="223.9" y="207.4" class="st15" width="38.4" height="26.3"/>
			<rect x="223.9" y="207.4" class="st16" width="19.2" height="26.3"/>
			<polygon class="st17" points="156.9,55.9 153.2,55.9 19.2,55.9 19.2,69.5 153.2,69.5 156.9,69.5 290.8,69.5 290.8,55.9 			"/>
			<polygon class="st14" points="156.9,62.7 153.2,62.7 19.2,62.7 19.2,69.5 153.2,69.5 156.9,69.5 290.8,69.5 290.8,62.7 			"/>
			<rect x="226.1" y="33.3" class="st17" width="34.6" height="7.7"/>
			<path class="st18" d="M231.2,18.4c-13.7,0-60.9,1-76.1,1.4c-15.3-0.3-62.4-1.4-76.1-1.4C49.4,18.4,9.6,5.5,9.6,5.5v8.9
				c0,0,32.5,13.4,69.8,13.4c16.7,0,60.9-0.8,75.6-1.1c14.7,0.3,58.9,1.1,75.6,1.1c37.3,0,69.8-13.4,69.8-13.4V5.5
				C300.4,5.5,260.7,18.4,231.2,18.4z"/>
			<path class="st12" d="M290.8,16.3c0,0-37.1,7.9-64.8,7.9c-12.8,0-56.7,1.6-71,2.1c-14.4-0.5-58.2-2.1-71-2.1
				c-27.6,0-64.8-7.9-64.8-7.9v17l131.2,3.6L155,37l4.6-0.1l131.2-3.6L290.8,16.3L290.8,16.3z"/>
			<path class="st14" d="M155,32.9c-14.4-0.5-58.2-2.1-71-2.1c-27.6,0-64.8-7.9-64.8-7.9v10.4l131.2,3.6L155,37l4.6-0.1l131.2-3.6
				V22.9c0,0-37.1,7.9-64.8,7.9C213.3,30.7,169.4,32.4,155,32.9z"/>
		</g>
	</g>
</g>
</svg>
