<?xml version="1.0" encoding="utf-8"?>
<!-- Generator: Adobe Illustrator 25.0.0, SVG Export Plug-In . SVG Version: 6.00 Build 0)  -->
<svg version="1.0" id="Layer_1" xmlns="http://www.w3.org/2000/svg" xmlns:xlink="http://www.w3.org/1999/xlink" x="0px" y="0px"
	 width="400px" height="131.95px" viewBox="0 0 400 131.95" style="enable-background:new 0 0 400 131.95;" xml:space="preserve">
<style type="text/css">
	.st0{fill:#010101;}
	.st1{font-family:'nevis-Bold';}
	.st2{font-size:101.4969px;}
	.st3{letter-spacing:-7;}
	.st4{letter-spacing:-2;}
	.st5{font-size:144.9956px;}
	.st6{letter-spacing:-3;}
</style>
<g>
	<path class="st0" d="M245.72,40.26c1.25-1.25,1.25-3.29,0-4.54c-1.25-1.25-3.29-1.25-4.54,0l-6.42,6.42l-1.88,1.88l-4.15-4.15
		c-2.5-2.51-6.57-2.51-9.08,0l-3.21,3.21c-0.25,0.25-0.46,0.53-0.66,0.81c-4.36-1.72-9.09-2.69-14.06-2.69
		c-21.24,0-38.52,17.28-38.52,38.52s17.28,38.52,38.52,38.52s38.52-17.28,38.52-38.52c0-4.96-0.98-9.7-2.69-14.06
		c0.28-0.2,0.56-0.41,0.81-0.66l3.21-3.21c2.51-2.51,2.51-6.57,0-9.08l-4.15-4.15l1.88-1.88L245.72,40.26L245.72,40.26z
		 M201.72,60.47c-10.62,0-19.26,8.64-19.26,19.26c0,1.77-1.44,3.21-3.21,3.21s-3.21-1.44-3.21-3.21c0-14.16,11.52-25.68,25.68-25.68
		c1.77,0,3.21,1.44,3.21,3.21C204.93,59.03,203.49,60.47,201.72,60.47z"/>
	<path class="st0" d="M255.29,45.41c-1.25-1.25-3.29-1.25-4.54,0s-1.25,3.29,0,4.54l3.21,3.21c0.63,0.63,1.45,0.94,2.27,0.94
		c0.82,0,1.64-0.31,2.27-0.94c1.25-1.25,1.25-3.29,0-4.54L255.29,45.41L255.29,45.41z"/>
	<path class="st0" d="M231.49,30.69c0.63,0.63,1.45,0.94,2.27,0.94c0.82,0,1.64-0.31,2.27-0.94c1.25-1.25,1.25-3.29,0-4.54
		l-3.21-3.21c-1.25-1.25-3.29-1.25-4.54,0c-1.25,1.25-1.25,3.29,0,4.54L231.49,30.69L231.49,30.69z"/>
	<path class="st0" d="M243.45,28.36c1.77,0,3.21-1.44,3.21-3.21v-6.42c0-1.77-1.44-3.21-3.21-3.21c-1.77,0-3.21,1.44-3.21,3.21v6.42
		C240.24,26.93,241.67,28.36,243.45,28.36z"/>
	<path class="st0" d="M262.71,34.9h-6.42c-1.77,0-3.21,1.44-3.21,3.21c0,1.77,1.44,3.21,3.21,3.21h6.42c1.77,0,3.21-1.44,3.21-3.21
		C265.92,36.34,264.48,34.9,262.71,34.9z"/>
	<path class="st0" d="M250.87,30.69c0.63,0.63,1.45,0.94,2.27,0.94s1.64-0.31,2.27-0.94l6.42-6.42c1.25-1.25,1.25-3.29,0-4.54
		c-1.25-1.25-3.29-1.25-4.54,0l-6.42,6.42C249.61,27.41,249.61,29.44,250.87,30.69L250.87,30.69z"/>
</g>
<text transform="matrix(1 0 0 1 6.4077 113.231)"><tspan x="0" y="0" class="st1 st2 st3">K</tspan><tspan x="63.95" y="0" class="st1 st2 st4">ab</tspan><tspan x="172.37" y="0" class="st1 st5 st6"> </tspan><tspan x="218.3" y="0" class="st1 st2 st4">om!</tspan></text>
</svg>
