<svg width="50" height="50" viewBox="0 0 50 50" fill="none" xmlns="http://www.w3.org/2000/svg">
<path d="M49.4777 24.1114C49.4214 23.9299 49.2961 23.7772 49.1284 23.6855C46.9902 22.5159 44.3389 21.987 41.4019 22.135C41.9903 20.6202 42.3458 19.0659 42.4428 17.5295C42.666 13.9945 41.5043 10.9717 39.1715 9.01799C36.8387 7.06437 33.6366 6.43253 30.1549 7.23869C27.6998 7.80715 25.3107 9.04729 23.2139 10.8147C23.0781 10.6141 22.937 10.4165 22.7895 10.2245C22.5878 9.96203 22.3794 9.69963 22.1701 9.44455C20.8414 7.82433 19.3672 6.35665 17.7887 5.08243C17.4723 4.82687 17.0065 4.87394 16.7486 5.18751C16.4906 5.50109 16.5381 5.96251 16.8547 6.21788C18.355 7.42912 19.7572 8.82541 21.0226 10.3683C21.222 10.6114 21.4207 10.8616 21.613 11.1118C21.7889 11.3408 21.9559 11.5775 22.1122 11.8194C22.0117 11.9182 21.9122 12.0186 21.8135 12.1199C21.8083 12.1253 21.803 12.1308 21.7977 12.1362C20.0966 13.8832 18.712 15.9458 17.7956 18.1995C17.7649 18.2747 17.7339 18.3499 17.7041 18.4256C17.4999 18.3757 17.2954 18.3321 17.0908 18.2946L15.2708 16.0752C15.7594 15.3046 17.1505 12.833 17.0713 9.78049C17.0609 9.37609 16.7185 9.05725 16.3132 9.06711C15.905 9.07746 15.5825 9.41369 15.5931 9.81809C15.6513 12.066 14.7952 13.9431 14.2781 14.8649L11.6424 11.6511C12.1711 10.7513 13.1917 8.67678 13.1265 6.16154C13.1161 5.75714 12.7762 5.43771 12.3684 5.44816C11.9602 5.45851 11.6377 5.79474 11.6483 6.19913C11.694 7.96398 11.0905 9.50803 10.6314 10.4183L8.10675 7.33966C7.84925 7.0257 7.38354 6.97795 7.06679 7.23302C6.74985 7.4881 6.70164 7.94933 6.95914 8.2632L9.48564 11.3439C8.49576 11.6033 6.85119 11.8718 5.10686 11.4637C4.70917 11.3706 4.31119 11.6145 4.21734 12.0081C4.12349 12.4018 4.36955 12.7963 4.76694 12.8893C5.53698 13.0695 6.28621 13.1387 6.98329 13.1387C8.52356 13.1387 9.8081 12.8008 10.4951 12.5748L13.1309 15.7885C12.1142 16.1013 10.0842 16.5469 7.87469 16.0299C7.477 15.9368 7.07912 16.1807 6.98527 16.5744C6.89141 16.968 7.13748 17.3625 7.53487 17.4554C8.3744 17.6518 9.19196 17.7274 9.95381 17.7274C11.9157 17.7273 13.5036 17.2263 14.1236 16.9989L15.0489 18.1271C15.0019 18.1281 14.9549 18.1303 14.908 18.132C13.7606 18.1727 12.6229 18.4187 11.5627 18.856C10.0538 19.4783 8.72408 20.4759 7.62951 21.794C7.52057 21.6657 7.41253 21.5362 7.30635 21.4067C4.56692 18.0663 2.69403 14.3478 1.89028 10.6531C1.15307 7.26447 1.4088 4.1337 2.60727 1.79454C6.02674 0.878128 10.3577 1.87422 14.5482 4.55333C14.8912 4.77267 15.3489 4.67501 15.5703 4.33507C15.7917 3.99522 15.6931 3.5419 15.35 3.32257C10.6724 0.332521 5.76411 -0.704688 1.88318 0.477346C1.70001 0.533108 1.54602 0.657229 1.45336 0.823245C-1.62826 6.3508 0.306633 15.1949 6.15845 22.3303C6.34783 22.5613 6.54282 22.7914 6.73861 23.0167C6.25654 23.7745 5.83874 24.6098 5.49261 25.5158C4.1364 29.0653 4.04225 33.2902 5.22752 37.4126C6.41259 41.5345 8.73995 45.076 11.7807 47.3847C14.0518 49.1091 16.5225 50 18.9425 50C19.8319 50 20.7143 49.8797 21.5776 49.6361C23.1601 49.1896 24.5772 48.3565 25.7739 47.1931C27.5278 48.4021 29.5058 49.0797 31.5347 49.1563C34.5352 49.2698 37.2904 47.9167 39.5703 46.0819C41.5871 44.459 43.3817 42.6446 44.9043 40.6893C45.1537 40.369 45.0938 39.9091 44.7705 39.6621C44.4473 39.4151 43.9829 39.4744 43.7335 39.7946C42.2806 41.6604 40.5661 43.3932 38.6379 44.945C36.597 46.5878 34.2912 47.7947 31.5911 47.6926C29.9025 47.6287 28.2477 47.0777 26.7636 46.0912C27.4377 45.234 28.0162 44.2503 28.4853 43.1539C29.8072 43.8607 32.1132 44.8158 34.9205 44.8158C35.4162 44.8158 35.9699 44.6703 35.9541 44.0608C35.9437 43.6564 35.6048 43.3366 35.196 43.3475C32.4151 43.4184 30.104 42.372 29.0017 41.7619C29.0813 41.5113 29.155 41.258 29.2226 41.0018L32.2672 38.5516C33.0366 39.0371 35.6685 40.5282 38.9656 40.5282C39.4491 40.5282 39.9816 40.3601 39.9618 39.7737C39.9514 39.3693 39.61 39.0509 39.2037 39.0603C36.6197 39.1262 34.4771 38.1297 33.4857 37.5709L37.165 34.6099C38.1002 35.1551 40.3004 36.241 42.996 36.241C43.4769 36.241 43.9849 36.0591 43.9695 35.4868C43.9591 35.0824 43.62 34.7631 43.2114 34.7734C41.1773 34.8254 39.4067 34.1188 38.4061 33.611L41.9012 30.7984C42.2181 30.5433 42.2663 30.0821 42.0088 29.7682C41.7513 29.4543 41.2857 29.4065 40.9688 29.6616L37.4716 32.4759C37.2276 31.5987 36.9589 30.1934 37.1291 28.6267C37.1501 28.6055 37.1711 28.5843 37.192 28.5631C38.6153 27.121 39.8235 25.4572 40.7293 23.65C43.5667 23.392 46.117 23.7968 48.1481 24.8275C49.147 28.4436 48.1362 33.0366 45.35 37.4882C45.1348 37.8319 45.2417 38.2835 45.5888 38.4965C45.9359 38.7096 46.3916 38.6037 46.6066 38.2599C49.692 33.331 50.7385 28.1739 49.4777 24.1114ZM19.1523 18.7827C20.1095 16.4256 21.6811 14.2095 23.5545 12.4775C23.5553 12.4768 23.5559 12.4758 23.5566 12.4751C27.894 8.46623 33.5503 7.21427 37.3161 9.49387C37.1697 9.57844 37.027 9.6633 36.8869 9.74836C36.8761 9.7549 36.8649 9.76154 36.8541 9.76809C34.3303 11.3067 32.2675 13.4318 30.9241 16.058C30.9222 16.0617 30.9205 16.0652 30.9187 16.0687C29.4162 19.044 28.4699 22.2898 26.3643 24.9401C26.3564 24.9501 26.3484 24.9601 26.3405 24.9701C25.2404 23.3131 23.9163 21.8768 22.4188 20.7399C21.3537 19.9312 20.2446 19.306 19.1176 18.8699C19.1293 18.8408 19.1405 18.8117 19.1523 18.7827ZM20.6461 48.3572C18.0403 48.9079 15.2329 48.1603 12.6802 46.2221C9.89003 44.1035 7.7483 40.8324 6.64959 37.0112C5.16482 31.8471 5.91238 26.7416 8.25472 23.4044C8.26271 23.3943 8.27129 23.3847 8.27888 23.3741C9.27822 21.9601 10.5448 20.9031 11.9839 20.2716C11.9825 20.2926 11.9818 20.3127 11.9804 20.3337C11.6765 24.9026 13.3566 29.2289 15.8928 32.9718C18.5773 36.9341 20.386 41.4048 20.6112 46.206C20.6446 46.9225 20.6552 47.64 20.6461 48.3572ZM25.1346 45.7294C25.1203 45.745 25.1073 45.7615 25.0946 45.7782C24.2373 46.7072 23.2384 47.4227 22.1279 47.8922C22.1279 47.2882 22.1137 46.6841 22.0835 46.0808C21.957 43.5514 21.5046 41.0679 20.6133 38.6896C20.4628 38.2879 20.3012 37.8902 20.129 37.4972C19.3083 35.623 18.2682 33.8505 17.1205 32.1556C15.6672 30.0097 14.2749 27.7843 13.7359 25.2197C13.3639 23.4495 13.3405 21.6234 13.5031 19.8276C13.5046 19.8114 13.5066 19.7945 13.508 19.7783C13.5274 19.7741 13.5467 19.7695 13.566 19.7654C15.0264 19.4594 16.5311 19.5759 17.9505 20.0205C23.4476 21.7419 26.9155 27.4802 27.9574 32.8033C28.9338 37.791 27.852 42.7439 25.1346 45.7294ZM29.6541 38.7674C29.8795 36.9745 29.8389 35.096 29.5319 33.2062C29.5931 33.1893 29.6541 33.1712 29.7152 33.1534C29.983 33.0756 30.2484 32.9902 30.5114 32.8976C30.5132 35.0605 31.0856 36.7743 31.3337 37.4158L29.6541 38.7674ZM32.5539 36.4341C32.2872 35.6098 31.9062 34.0769 32.0081 32.2829C32.0102 32.2579 32.2265 32.1774 32.2487 32.1665C33.1019 31.7476 33.9173 31.255 34.6902 30.7044C35.0022 30.482 35.3067 30.2489 35.6038 30.0075C35.6548 31.5396 36.0037 32.7993 36.2331 33.4732L32.5539 36.4341ZM39.5684 22.658C38.1545 25.6495 35.872 28.2676 33.054 30.04C31.9796 30.7158 30.8233 31.27 29.6101 31.6537C29.5887 31.6604 29.2478 31.7683 29.2461 31.7632C29.0243 30.8161 28.7396 29.8835 28.3917 28.9742C28.0366 28.044 27.6216 27.151 27.1519 26.3044C27.1641 26.29 27.1757 26.2756 27.1878 26.2612C29.7044 23.2617 30.6938 19.4594 32.5734 16.1022C32.58 16.0904 32.5866 16.0786 32.5933 16.0669C33.957 13.6403 36.1483 11.8085 38.5723 10.4731C38.5763 10.4708 38.5806 10.4687 38.5846 10.4664C41.4585 13.2291 41.7285 18.087 39.5684 22.658Z" fill="#96613A"/>
</svg>
