<svg width="50" height="51" viewBox="0 0 50 51" fill="none" xmlns="http://www.w3.org/2000/svg">
<path d="M47.4603 8.95237C45.2479 5.12032 41.8854 2.25012 37.9925 0.870436C34.0447 -0.528584 30.025 -0.233684 26.6739 1.70114C23.3229 3.63586 21.0575 6.96951 20.2953 11.0879C19.8068 13.7273 19.9763 16.4873 20.7616 19.1483C18.5349 18.6964 16.1557 18.7761 13.778 19.3971C10.6761 20.2075 7.78087 21.8914 5.40555 24.2667C2.27668 27.3956 0.374471 31.3863 0.0494949 35.5037C-0.280169 39.6791 1.04513 43.4854 3.78135 46.2216C6.04984 48.49 9.04133 49.7892 12.4325 49.9786C12.7069 49.9939 12.9822 50.0016 13.2589 50.0015C16.2513 50.0014 19.3586 49.1109 22.0954 47.4564C22.5569 47.1774 22.7049 46.5771 22.4258 46.1156C22.1469 45.654 21.5466 45.5063 21.085 45.7852C15.7252 49.0254 9.36669 48.7347 5.45731 45.1213C5.67311 39.7291 10.1266 35.4086 15.5709 35.4086C18.221 35.4086 20.7366 34.5661 22.8454 32.9723C24.4755 31.7404 25.7755 30.0929 26.6051 28.2373C27.3608 28.8881 28.1638 29.4702 29.0056 29.9774C29.5595 33.2163 28.8114 36.8238 26.9242 39.9459C26.6452 40.4074 26.7933 41.0078 27.2548 41.2868C27.4128 41.3823 27.587 41.4277 27.759 41.4277C28.0896 41.4277 28.4121 41.2597 28.5956 40.9562C30.4577 37.8756 31.3328 34.3562 31.0987 31.0471C31.405 31.1772 31.7148 31.2991 32.0283 31.4102C33.6694 31.9918 35.3229 32.2807 36.9357 32.2807C39.2025 32.2807 41.3889 31.71 43.3469 30.5795C46.698 28.6448 48.9632 25.3111 49.7255 21.1928C50.4773 17.1315 49.6728 12.7844 47.4603 8.95237ZM15.5709 33.4555C9.75133 33.4555 4.8804 37.5936 3.74522 43.0817C0.545065 38.1052 1.68961 30.7446 6.78661 25.6476C10.9494 21.4848 16.706 19.8335 21.5721 21.3698C21.8622 22.0344 22.1914 22.6886 22.5606 23.3282C23.2873 24.587 24.1389 25.7411 25.0917 26.7735C23.6574 30.7341 19.8213 33.4555 15.5709 33.4555ZM32.6807 29.5693C29.2255 28.3448 26.2321 25.7815 24.2518 22.3517C20.2746 15.4627 21.6602 7.15699 27.3012 3.60412C32.455 5.20762 35.4764 10.6281 34.0672 15.8875C33.2323 19.0031 33.6607 22.2573 35.2735 25.0506C36.4698 27.1227 38.212 28.7567 40.3034 29.8033C37.9302 30.5659 35.2935 30.4952 32.6807 29.5693ZM42.7195 28.6764C40.2817 27.9192 38.2486 26.2975 36.965 24.0742C35.613 21.7326 35.2539 19.0047 35.9537 16.393C37.46 10.7718 34.7236 4.99572 29.7163 2.47882C35.3513 0.675821 42.165 3.68635 45.7691 9.92886C49.7463 16.8178 48.3607 25.1238 42.7195 28.6764Z" fill="#96613A"/>
<path d="M25.0458 42.9302C24.789 42.9302 24.5371 43.0347 24.3554 43.2163C24.1728 43.3979 24.0693 43.6499 24.0693 43.9067C24.0693 44.1635 24.1728 44.4154 24.3554 44.597C24.5371 44.7787 24.788 44.8832 25.0458 44.8832C25.3026 44.8832 25.5546 44.7787 25.7362 44.597C25.9178 44.4154 26.0223 44.1635 26.0223 43.9067C26.0223 43.6499 25.9178 43.3979 25.7362 43.2163C25.5546 43.0347 25.3026 42.9302 25.0458 42.9302Z" fill="#96613A"/>
</svg>
