<?xml version="1.0" encoding="utf-8"?>
<!-- Generator: Adobe Illustrator 23.0.1, SVG Export Plug-In . SVG Version: 6.00 Build 0)  -->
<svg version="1.1" id="Layer_1" xmlns="http://www.w3.org/2000/svg" xmlns:xlink="http://www.w3.org/1999/xlink" x="0px" y="0px"
	 viewBox="0 0 792 612" style="enable-background:new 0 0 792 612;" xml:space="preserve">
<style type="text/css">
	.st0{fill:#BD3A40;}
	.st1{fill:url(#SVGID_1_);}
	.st2{fill:url(#SVGID_2_);}
	.st3{fill:url(#SVGID_3_);}
	.st4{opacity:0.3;fill:#BFA79B;}
	.st5{clip-path:url(#SVGID_5_);fill:#825726;}
	.st6{clip-path:url(#SVGID_5_);fill:#72461C;}
	.st7{opacity:0.4;clip-path:url(#SVGID_5_);fill:#FBCCC5;}
	.st8{opacity:0.3;fill:#F9CCB3;}
	.st9{opacity:0.2;fill:url(#SVGID_6_);}
	.st10{fill:url(#SVGID_7_);}
	.st11{fill:url(#SVGID_8_);}
	.st12{fill:url(#SVGID_9_);}
	.st13{fill:url(#SVGID_10_);}
	.st14{fill:url(#SVGID_11_);}
	.st15{fill:url(#SVGID_12_);}
	.st16{fill:url(#SVGID_13_);}
	.st17{fill:url(#SVGID_14_);}
	.st18{fill:url(#SVGID_15_);}
	.st19{fill:url(#SVGID_16_);}
	.st20{fill:url(#SVGID_17_);}
	.st21{fill:url(#SVGID_18_);}
	.st22{fill:url(#SVGID_19_);}
	.st23{fill:url(#SVGID_20_);}
	.st24{fill:url(#SVGID_21_);}
	.st25{fill:url(#SVGID_22_);}
	.st26{fill:url(#SVGID_23_);}
	.st27{fill:url(#SVGID_24_);}
	.st28{fill:url(#SVGID_25_);}
	.st29{fill:url(#SVGID_26_);}
	.st30{fill:url(#SVGID_27_);}
	.st31{fill:url(#SVGID_28_);}
	.st32{fill:url(#SVGID_29_);}
</style>
<g>
	<path class="st0" d="M388.47,475.89c-67.53,0-127.32-52.29-142.16-124.33c-1.18-5.72-2.16-12.15-2.75-18.08
		c-0.08-0.86-0.06-1.71,0.07-2.53c0.1-12.4,13.01-24.37,39.29-36.49c23.53-10.85,55.51-20.69,90.04-27.7
		c30.85-6.26,61.36-9.7,85.93-9.7c36.93,0,56.34,7.21,59.35,22.04c0.01,0.04,0.02,0.08,0.02,0.12c0.08,0.44,0.15,0.86,0.2,1.27
		c0.33,1.29,0.61,2.57,0.87,3.85c7.22,0.96,14.14,3.23,20.35,6.68c13.76,7.66,23.68,21.03,27.91,37.65
		c3.35,13.15,2.91,28.15-1.17,40.14c-6.6,19.39-23.33,34.89-47.11,43.62c-6.93,2.54-14.37,4.44-22.19,5.68
		c-20.12,28.77-49.24,48.27-82.44,55.11C406.05,474.99,397.24,475.89,388.47,475.89C388.47,475.89,388.47,475.89,388.47,475.89z
		 M524.71,328.29c0.02,13.64-1.65,27.16-4.97,40.18c4.86-3.65,8.28-7.86,9.76-12.23C532.17,348.4,531.25,335.44,524.71,328.29z"/>
	<g>
		<linearGradient id="SVGID_1_" gradientUnits="userSpaceOnUse" x1="521.6212" y1="331.5431" x2="594.4346" y2="250.7202">
			<stop  offset="3.198754e-03" style="stop-color:#EDCFB8"/>
			<stop  offset="0.5603" style="stop-color:#F7E6DB"/>
			<stop  offset="1" style="stop-color:#EDCFB8"/>
		</linearGradient>
		<path class="st1" d="M477.19,407.04c-10.21,0-20.77-1.12-31.33-3.37l3.96-18.58c22.11,4.71,43.9,3.79,61.35-2.62
			c15.18-5.57,25.99-14.95,29.66-25.74c4.28-12.57,2.01-34.53-13.38-43.09c-13.5-7.51-32.24-3.04-44.55,10.62l-14.12-12.71
			c18.18-20.19,46.74-26.29,67.91-14.51c11.33,6.3,19.53,17.45,23.08,31.38c2.89,11.34,2.53,24.21-0.95,34.44
			c-5.61,16.49-20.21,29.79-41.1,37.46C505.53,404.78,491.71,407.04,477.19,407.04z"/>
		<linearGradient id="SVGID_2_" gradientUnits="userSpaceOnUse" x1="272.6058" y1="408.232" x2="513.1711" y2="358.0716">
			<stop  offset="3.198754e-03" style="stop-color:#EDCFB8"/>
			<stop  offset="0.5603" style="stop-color:#F7E6DB"/>
			<stop  offset="1" style="stop-color:#EDCFB8"/>
		</linearGradient>
		<path class="st2" d="M255.38,329.77c0.54,5.46,1.45,11.54,2.58,17.05c15.95,77.42,86.04,128.4,156.56,113.88
			s114.75-89.07,98.8-166.49c-1.13-5.51-1.72-11.2-3.39-16.42L255.38,329.77z"/>
		<linearGradient id="SVGID_3_" gradientUnits="userSpaceOnUse" x1="389.989" y1="260.8149" x2="376.2517" y2="345.7829">
			<stop  offset="0" style="stop-color:#D3B494"/>
			<stop  offset="0.6361" style="stop-color:#E3CEC0"/>
			<stop  offset="0.8457" style="stop-color:#E5D1C2"/>
			<stop  offset="0.9706" style="stop-color:#ECD9CA"/>
			<stop  offset="1" style="stop-color:#EFDDCD"/>
		</linearGradient>
		<path class="st3" d="M510.3,278.36c-3.4-16.76-63.16-18.79-133.49-4.52s-124.57,39.42-121.17,56.18
			c3.4,16.76,63.16,18.79,133.49,4.52S513.71,295.12,510.3,278.36z"/>
		<path class="st4" d="M255.64,329.97c1.41,6.97,12.57,11.39,30.17,13.15c6.99-26.39,39.15-52.52,83.53-67.76
			C302.68,289.84,252.36,313.8,255.64,329.97z"/>
		<g>
			<defs>
				
					<ellipse id="SVGID_4_" transform="matrix(0.98 -0.1988 0.1988 0.98 -52.8343 82.2181)" cx="382.98" cy="304.19" rx="129.92" ry="30.97"/>
			</defs>
			<clipPath id="SVGID_5_">
				<use xlink:href="#SVGID_4_"  style="overflow:visible;"/>
			</clipPath>
			
				<ellipse transform="matrix(0.98 -0.1988 0.1988 0.98 -56.849 83.461)" class="st5" cx="387.16" cy="324.8" rx="110.8" ry="35.57"/>
			
				<ellipse transform="matrix(0.98 -0.1988 0.1988 0.98 -58.2363 83.8905)" class="st6" cx="388.6" cy="331.92" rx="88.16" ry="28.3"/>
			
				<ellipse transform="matrix(0.98 -0.1988 0.1988 0.98 -59.8023 68.8206)" class="st7" cx="312.78" cy="332.19" rx="13.8" ry="3.98"/>
			<path class="st7" d="M438.42,298.51c0.35,1.72-1.66,3.57-4.49,4.14c-2.82,0.57-5.4-0.35-5.75-2.07c-0.02-0.1-0.03-0.2-0.03-0.3
				c-2.46,1.24-5.57,2.32-9.02,3.02c-8.81,1.79-16.52,0.46-17.21-2.97c-0.69-3.42,5.89-7.65,14.7-9.44
				c8.81-1.79,16.52-0.45,17.21,2.97c0.16,0.8-0.07,1.65-0.65,2.5C435.81,295.99,438.1,296.9,438.42,298.51z"/>
		</g>
		<path class="st8" d="M398.03,299.43c-7.23,10.45-64.18-6.29-66.31-28.87c-2.08-22.09,49.56-36.57,46.03-56.19
			c-3.3-18.38-50.99-18.84-52.38-34.71c-1.32-15.01,40.25-27.04,38.25-34.97c-2.71-10.71-79.35,7.86-84.26-5.58
			c-3.93-10.76,38.61-40.87,86.43-50.78c5.39-1.12,56.24-11.66,64.5,5.05c9.27,18.75-45.18,51.26-35.81,76.79
			c8.25,22.47,58.47,19.19,59.35,31.79c1.03,14.78-67.94,20.54-74.22,51.33C375.29,274.37,403.56,291.44,398.03,299.43z"/>
		<ellipse class="st8" cx="463.35" cy="203.11" rx="5.11" ry="3.95"/>
		
			<ellipse transform="matrix(0.8972 -0.4415 0.4415 0.8972 -31.3696 130.6338)" class="st8" cx="264.97" cy="132.71" rx="8.8" ry="5.58"/>
	</g>
	<g>
		<path class="st0" d="M531.12,497.06c-6.41,0-12.38-1.03-17.81-3.08c-2.86,1.11-5.92,1.69-9.05,1.69H484.8
			c-2.2,0-4.36-0.29-6.46-0.85c-5.22,1.49-10.64,2.24-16.17,2.24c-12.01,0-22.8-3.28-32.19-9.75c-4.58,5.13-11.24,8.36-18.64,8.36
			h-42.94c-1.27,0-2.56-0.1-3.84-0.31c-1.28,0.2-2.57,0.31-3.84,0.31h-42.94c-5.4,0-10.5-1.77-14.66-4.79
			c-4.16,3.03-9.26,4.79-14.66,4.79h-19.12c-5.4,0-10.5-1.77-14.66-4.79c-4.16,3.03-9.26,4.79-14.66,4.79h-19.12
			c-4.83,0-9.52-1.42-13.51-3.99c-2.94,1.35-6.05,2.46-9.28,3.33c-5.06,1.36-10.51,2.05-16.19,2.05c-5.78,0-11.3-0.7-16.41-2.08
			c-3.38-0.91-6.61-2.09-9.67-3.53c-7.83,3.72-16.26,5.61-25.15,5.61c-15.16,0-28.37-5.22-39.28-15.51
			c-11.37-10.65-17.47-24.94-17.62-41.29l0-0.23c0-7.87,1.43-15.35,4.24-22.25c2.84-6.97,6.89-13.13,12.04-18.3
			c5.14-5.17,11.24-9.23,18.13-12.08c6.85-2.83,14.24-4.26,21.97-4.26c9.11,0,17.7,1.88,25.59,5.59c7.84-3.71,16.61-5.59,26.16-5.59
			c8.15,0,15.81,1.41,22.78,4.19c0.9,0.36,1.79,0.74,2.68,1.15c3.99-2.57,8.68-3.99,13.51-3.99h42.15c1.05,0,2.1,0.07,3.15,0.2
			c1.05-0.13,2.1-0.2,3.15-0.2h42.15c1.05,0,2.1,0.07,3.15,0.2c1.05-0.13,2.1-0.2,3.15-0.2h42.94c1.27,0,2.56,0.1,3.84,0.31
			c1.28-0.2,2.57-0.31,3.84-0.31h42.94c7.37,0,13.96,3.12,18.52,8.14c3.06-2.04,6.33-3.79,9.81-5.23
			c6.85-2.83,14.24-4.26,21.97-4.26c5.68,0,11.22,0.75,16.53,2.24c2.15-0.6,4.36-0.9,6.62-0.9H512c5.62,0,11.06,0.67,16.17,1.98
			c4.07,1.05,7.88,2.49,11.39,4.32c4.48-3.97,10.34-6.3,16.58-6.3h27.03c3.37,0,6.69,0.69,9.75,1.99c3.06-1.3,6.38-1.99,9.75-1.99
			h39.98c1.26,0,2.53,0.1,3.8,0.3c1.27-0.2,2.54-0.3,3.8-0.3h42.94c13.79,0,25,11.21,25,25v13.47c0,3.28-0.64,6.51-1.88,9.51
			c0.03,0.54,0.05,1.08,0.05,1.62v11.21c0,0.78-0.04,1.57-0.11,2.34c1.27,3.04,1.93,6.31,1.93,9.65v13.38c0,13.79-11.21,25-25,25
			h-42.94c-1.11,0-2.22-0.08-3.34-0.23c-1.12,0.15-2.24,0.23-3.34,0.23h-41.76c-0.15,0-0.31,0-0.46-0.01
			c-0.15,0.01-0.29,0.01-0.44,0.01h-20.95c-3.62,0-7.13-0.77-10.34-2.23c-3.21,1.46-6.73,2.23-10.34,2.23h-17.54
			C537.61,496.62,534.21,497.06,531.12,497.06z"/>
		<linearGradient id="SVGID_6_" gradientUnits="userSpaceOnUse" x1="396" y1="406.4079" x2="396" y2="482.785">
			<stop  offset="5.547496e-03" style="stop-color:#F8BD28"/>
			<stop  offset="1" style="stop-color:#F9A81A"/>
		</linearGradient>
		<path class="st9" d="M531.12,490.06c-6.54,0-12.55-1.04-17.89-3.09c-2.77,1.23-5.82,1.86-8.96,1.86H484.8
			c-2.21,0-4.37-0.32-6.45-0.95c-5.2,1.44-10.63,2.17-16.19,2.17c-12.66,0-23.83-3.51-33.26-10.44c-3.4,5.48-10,9.22-17.57,9.22
			h-42.94c-1.27,0-2.55-0.11-3.84-0.34c-1.29,0.23-2.57,0.34-3.84,0.34h-42.94c-5.69,0-10.96-2.16-14.66-5.67
			c-3.7,3.51-8.97,5.67-14.66,5.67h-19.12c-5.69,0-10.96-2.16-14.66-5.67c-3.7,3.51-8.97,5.67-14.66,5.67h-19.12
			c-4.79,0-9.4-1.54-12.99-4.25c-3.44,1.61-7.16,2.89-11.09,3.82c-4.64,1.1-9.65,1.66-14.89,1.66c-5.34,0-10.42-0.57-15.1-1.68
			c-3.9-0.93-7.58-2.2-10.98-3.78c-7.75,3.63-16.19,5.47-25.14,5.47c-13.84,0-25.9-4.19-35.85-12.47
			c-10.36-8.56-15.92-20.05-16.05-33.23l0-0.16c0-6.36,1.3-12.4,3.87-17.95c2.59-5.6,6.27-10.55,10.95-14.69
			c4.67-4.14,10.22-7.4,16.49-9.68c6.24-2.27,12.99-3.42,20.06-3.42c9.2,0,17.8,1.83,25.6,5.45c7.69-3.62,16.47-5.45,26.15-5.45
			c7.51,0,14.55,1.14,20.93,3.38c1.72,0.61,3.41,1.29,5.05,2.06c3.59-2.71,8.21-4.25,12.99-4.25h42.15c1.04,0,2.1,0.07,3.15,0.22
			c1.05-0.15,2.1-0.22,3.15-0.22h42.15c1.04,0,2.1,0.07,3.15,0.22c1.05-0.15,2.1-0.22,3.15-0.22h42.94c1.27,0,2.55,0.11,3.84,0.34
			c1.29-0.23,2.57-0.34,3.84-0.34h42.94c7.52,0,14.03,3.58,17.44,8.96c3.82-2.76,8.11-5.02,12.8-6.72
			c6.24-2.27,12.99-3.42,20.06-3.42c5.72,0,11.29,0.73,16.58,2.18c2.12-0.66,4.32-0.99,6.58-0.99H512c5.2,0,10.22,0.54,14.93,1.61
			c4.99,1.13,9.54,2.84,13.54,5.08c3.73-4.14,9.46-6.69,15.67-6.69h27.03c3.43,0,6.79,0.78,9.75,2.24c2.96-1.46,6.32-2.24,9.75-2.24
			h39.98c1.25,0,2.52,0.11,3.8,0.33c1.27-0.22,2.54-0.33,3.8-0.33h42.94c11.03,0,20,7.91,20,17.63v11.87c0,2.66-0.68,5.27-1.97,7.64
			c0.1,0.72,0.15,1.44,0.15,2.16v9.88c0,0.93-0.08,1.85-0.24,2.76c1.36,2.42,2.07,5.09,2.07,7.81v11.8c0,9.72-8.97,17.63-20,17.63
			h-42.94c-1.1,0-2.22-0.09-3.34-0.26c-1.12,0.17-2.24,0.26-3.34,0.26h-41.76c-0.16,0-0.31-0.01-0.47-0.01
			c-0.15,0.01-0.29,0.01-0.44,0.01h-20.95c-3.69,0-7.25-0.88-10.34-2.54c-3.09,1.65-6.65,2.54-10.34,2.54h-18.11
			C537.16,489.67,533.96,490.06,531.12,490.06z"/>
		<linearGradient id="SVGID_7_" gradientUnits="userSpaceOnUse" x1="395.9999" y1="397.3992" x2="395.9999" y2="475.7128">
			<stop  offset="5.547496e-03" style="stop-color:#F8BD28"/>
			<stop  offset="1" style="stop-color:#F9A81A"/>
		</linearGradient>
		<path class="st10" d="M708.19,405.6c0-8.28-6.72-15-15-15h-42.94c-1.31,0-2.58,0.19-3.8,0.5c-1.21-0.32-2.48-0.5-3.8-0.5h-39.98
			c-3.72,0-7.13,1.37-9.75,3.61c-2.65-2.27-6.08-3.61-9.75-3.61h-27.03c-6.39,0-12.02,4.04-14.13,9.98
			c-1.15-1.01-2.37-1.96-3.69-2.83c-3.68-2.43-7.93-4.28-12.64-5.49c-4.3-1.11-8.91-1.67-13.69-1.67h-27.2
			c-2.29,0-4.45,0.53-6.39,1.45c-5.27-1.84-10.87-2.79-16.76-2.79c-6.41,0-12.52,1.18-18.15,3.5c-5.66,2.33-10.66,5.66-14.86,9.89
			c-0.81,0.81-1.57,1.66-2.31,2.53c-0.23-8.09-6.84-14.58-14.98-14.58h-42.94c-1.33,0-2.61,0.19-3.84,0.51
			c-1.23-0.32-2.51-0.51-3.84-0.51h-42.94c-1.08,0-2.13,0.12-3.15,0.34c-1.01-0.22-2.07-0.34-3.15-0.34h-42.15
			c-1.08,0-2.13,0.12-3.15,0.34c-1.01-0.22-2.07-0.34-3.15-0.34h-42.15c-4.96,0-9.34,2.42-12.07,6.13
			c-2.43-1.54-5.04-2.88-7.82-3.99c-5.79-2.31-12.21-3.48-19.08-3.48c-9.85,0-18.71,2.37-26.15,6.95c-0.29-0.19-0.58-0.37-0.88-0.55
			c-7.45-4.25-15.77-6.4-24.72-6.4c-6.41,0-12.52,1.18-18.15,3.5c-5.66,2.34-10.66,5.66-14.86,9.89c-4.21,4.23-7.53,9.28-9.86,15.02
			c-2.32,5.7-3.5,11.92-3.5,18.48c0,0.05,0,0.09,0,0.14c0.12,13.55,5.15,25.36,14.48,34.11c8.99,8.48,19.89,12.78,32.41,12.78
			c8.73,0,16.93-2.18,24.37-6.49c0.26-0.15,0.51-0.31,0.75-0.48c0.13,0.08,0.26,0.17,0.39,0.25c3.6,2.14,7.6,3.82,11.91,4.98
			c4.26,1.15,8.91,1.74,13.8,1.74c4.8,0,9.38-0.57,13.6-1.71c4.27-1.15,8.26-2.8,11.85-4.93c0.49-0.29,0.95-0.61,1.42-0.91
			c2.73,3.73,7.13,6.16,12.1,6.16h19.12c7.2,0,13.21-5.08,14.66-11.85c1.45,6.77,7.46,11.85,14.66,11.85h19.12
			c7.2,0,13.21-5.08,14.66-11.85c1.45,6.77,7.46,11.85,14.66,11.85h42.94c1.33,0,2.61-0.19,3.84-0.51c1.23,0.32,2.51,0.51,3.84,0.51
			h42.94c8.27,0,14.97-6.69,15-14.95c1.06,1.23,2.2,2.42,3.41,3.56c8.99,8.48,19.89,12.78,32.41,12.78c5.69,0,11.16-0.95,16.34-2.79
			c1.92,0.89,4.04,1.4,6.29,1.4h19.47c3.25,0,6.25-1.03,8.71-2.78c5.17,2.74,11.29,4.17,18.15,4.17c2.57,0,5.56-0.44,9.44-1.39
			h18.71c3.96,0,7.63-1.55,10.34-4.14c2.71,2.58,6.38,4.14,10.34,4.14h20.95c0.14,0,0.28-0.02,0.42-0.02
			c0.16,0.01,0.32,0.02,0.48,0.02h41.76c1.15,0,2.27-0.14,3.34-0.39c1.08,0.25,2.19,0.39,3.34,0.39h42.94c8.28,0,15-6.72,15-15
			V453.4c0-2.97-0.86-5.73-2.35-8.06c0.34-1.25,0.52-2.57,0.52-3.94v-11.21c0-1.14-0.13-2.25-0.37-3.31
			c1.39-2.27,2.19-4.95,2.19-7.81V405.6z"/>
		<g>
			<linearGradient id="SVGID_8_" gradientUnits="userSpaceOnUse" x1="125.096" y1="456.8229" x2="125.8939" y2="424.1107">
				<stop  offset="6.911580e-03" style="stop-color:#A12531"/>
				<stop  offset="0.5154" style="stop-color:#AE2E37"/>
				<stop  offset="1" style="stop-color:#BD3A40"/>
			</linearGradient>
			<path class="st11" d="M136.18,452.1c1.01,0,1.96-0.05,2.82-0.15c0.87-0.1,1.73-0.25,2.59-0.46c0.85-0.2,1.73-0.46,2.63-0.78
				c0.9-0.32,1.9-0.7,3-1.13l2.43,14.12c-5.16,2.98-10.78,4.48-16.86,4.48c-8.6,0-15.98-2.9-22.12-8.69
				c-6.43-6.03-9.69-13.8-9.78-23.34c0-4.64,0.8-8.91,2.39-12.82c1.59-3.91,3.79-7.28,6.61-10.1c2.81-2.83,6.13-5.03,9.95-6.61
				s7.97-2.37,12.43-2.37c6.34,0,12.11,1.48,17.3,4.43l-2.35,13.82c-4.26-1.62-8.11-2.43-11.56-2.43c-4.84,0-8.51,1.4-11.02,4.19
				c-2.51,2.8-3.76,6.73-3.76,11.8c0,2.52,0.34,4.77,1.02,6.76c0.68,1.99,1.67,3.67,2.98,5.04c1.3,1.38,2.9,2.43,4.8,3.15
				C131.58,451.73,133.74,452.1,136.18,452.1z"/>
			<linearGradient id="SVGID_9_" gradientUnits="userSpaceOnUse" x1="183.4334" y1="458.2458" x2="184.2313" y2="425.5336">
				<stop  offset="6.911580e-03" style="stop-color:#A12531"/>
				<stop  offset="0.5154" style="stop-color:#AE2E37"/>
				<stop  offset="1" style="stop-color:#BD3A40"/>
			</linearGradient>
			<path class="st12" d="M151.25,436.28c0-8.84,2.81-16.28,8.43-22.34c6-6.46,14.11-9.69,24.34-9.69c4.98,0,9.49,0.8,13.52,2.41
				c4.03,1.61,7.46,3.83,10.3,6.67c2.84,2.84,5.03,6.22,6.56,10.15c1.54,3.93,2.3,8.19,2.3,12.8c0,2.78-0.32,5.5-0.96,8.17
				c-0.64,2.67-1.59,5.18-2.85,7.54c-1.26,2.36-2.82,4.53-4.67,6.52c-1.85,1.98-3.99,3.69-6.41,5.13c-2.42,1.43-5.11,2.55-8.08,3.35
				c-2.97,0.8-6.21,1.2-9.71,1.2c-3.59,0-6.89-0.41-9.89-1.22c-3-0.81-5.71-1.94-8.15-3.39c-2.43-1.45-4.57-3.17-6.41-5.17
				c-1.84-2-3.38-4.18-4.61-6.54c-1.23-2.36-2.16-4.86-2.78-7.5C151.56,441.72,151.25,439.03,151.25,436.28z M184.01,452.01
				c2.29,0,4.24-0.48,5.84-1.46c1.61-0.97,2.93-2.22,3.96-3.74c1.03-1.52,1.78-3.22,2.26-5.11c0.48-1.88,0.72-3.72,0.72-5.52
				c0-2.35-0.3-4.5-0.89-6.45c-0.59-1.96-1.45-3.65-2.56-5.08c-1.12-1.43-2.46-2.57-4.04-3.41c-1.58-0.84-3.34-1.3-5.28-1.39
				c-2.32,0.06-4.29,0.58-5.91,1.56c-1.62,0.99-2.95,2.25-3.98,3.8s-1.78,3.29-2.26,5.21c-0.48,1.93-0.72,3.85-0.72,5.76
				c0,2.26,0.3,4.35,0.89,6.28c0.59,1.93,1.45,3.59,2.56,5c1.11,1.41,2.47,2.51,4.06,3.32C180.26,451.6,182.04,452.01,184.01,452.01
				z"/>
			<linearGradient id="SVGID_10_" gradientUnits="userSpaceOnUse" x1="242.9051" y1="459.6964" x2="243.7029" y2="426.9841">
				<stop  offset="6.911580e-03" style="stop-color:#A12531"/>
				<stop  offset="0.5154" style="stop-color:#AE2E37"/>
				<stop  offset="1" style="stop-color:#BD3A40"/>
			</linearGradient>
			<path class="st13" d="M222.98,405.6h42.15v13.47H242.1v12.34h21.29v11.3H242.1v24.08h-19.12V405.6z"/>
			<linearGradient id="SVGID_11_" gradientUnits="userSpaceOnUse" x1="291.3201" y1="460.8772" x2="292.118" y2="428.165">
				<stop  offset="6.911580e-03" style="stop-color:#A12531"/>
				<stop  offset="0.5154" style="stop-color:#AE2E37"/>
				<stop  offset="1" style="stop-color:#BD3A40"/>
			</linearGradient>
			<path class="st14" d="M271.43,405.6h42.15v13.47h-23.03v12.34h21.29v11.3h-21.29v24.08h-19.12V405.6z"/>
			<linearGradient id="SVGID_12_" gradientUnits="userSpaceOnUse" x1="340.7076" y1="462.0818" x2="341.5055" y2="429.3696">
				<stop  offset="6.911580e-03" style="stop-color:#A12531"/>
				<stop  offset="0.5154" style="stop-color:#AE2E37"/>
				<stop  offset="1" style="stop-color:#BD3A40"/>
			</linearGradient>
			<path class="st15" d="M319.87,405.6h42.94v13.47h-21.38v11.12h19.56v11.21h-19.56v11.99h21.38v13.38h-42.94V405.6z"/>
			<linearGradient id="SVGID_13_" gradientUnits="userSpaceOnUse" x1="391.2942" y1="463.3156" x2="392.0921" y2="430.6034">
				<stop  offset="6.911580e-03" style="stop-color:#A12531"/>
				<stop  offset="0.5154" style="stop-color:#AE2E37"/>
				<stop  offset="1" style="stop-color:#BD3A40"/>
			</linearGradient>
			<path class="st16" d="M370.49,405.6h42.94v13.47h-21.38v11.12h19.56v11.21h-19.56v11.99h21.38v13.38h-42.94V405.6z"/>
			<linearGradient id="SVGID_14_" gradientUnits="userSpaceOnUse" x1="456.3575" y1="464.9025" x2="457.1553" y2="432.1903">
				<stop  offset="6.911580e-03" style="stop-color:#A12531"/>
				<stop  offset="0.5154" style="stop-color:#AE2E37"/>
				<stop  offset="1" style="stop-color:#BD3A40"/>
			</linearGradient>
			<path class="st17" d="M467.64,452.1c1.01,0,1.96-0.05,2.82-0.15c0.87-0.1,1.73-0.25,2.59-0.46c0.85-0.2,1.73-0.46,2.63-0.78
				c0.9-0.32,1.9-0.7,3-1.13l2.43,14.12c-5.16,2.98-10.78,4.48-16.86,4.48c-8.6,0-15.98-2.9-22.12-8.69
				c-6.43-6.03-9.69-13.8-9.78-23.34c0-4.64,0.8-8.91,2.39-12.82c1.59-3.91,3.79-7.28,6.61-10.1c2.81-2.83,6.13-5.03,9.95-6.61
				s7.97-2.37,12.43-2.37c6.34,0,12.11,1.48,17.3,4.43l-2.35,13.82c-4.26-1.62-8.11-2.43-11.56-2.43c-4.84,0-8.51,1.4-11.02,4.19
				c-2.51,2.8-3.76,6.73-3.76,11.8c0,2.52,0.34,4.77,1.02,6.76c0.68,1.99,1.67,3.67,2.98,5.04c1.3,1.38,2.9,2.43,4.8,3.15
				C463.04,451.73,465.2,452.1,467.64,452.1z"/>
			<linearGradient id="SVGID_15_" gradientUnits="userSpaceOnUse" x1="513.4092" y1="466.294" x2="514.207" y2="433.5818">
				<stop  offset="6.911580e-03" style="stop-color:#A12531"/>
				<stop  offset="0.5154" style="stop-color:#AE2E37"/>
				<stop  offset="1" style="stop-color:#BD3A40"/>
			</linearGradient>
			<path class="st18" d="M541.41,466.61c-3.79,1.04-6.53,1.56-8.21,1.56c-10.75,0-17.5-4.9-20.25-14.69l-2.43-9.91h-4.17v23.21
				h-19.47V405.6h27.2c3.53,0,6.85,0.4,9.95,1.2s5.8,1.96,8.1,3.48c2.3,1.52,4.11,3.4,5.43,5.63c1.32,2.23,1.98,4.8,1.98,7.69
				c0,2.14-0.27,4.06-0.8,5.76c-0.54,1.7-1.31,3.22-2.32,4.56c-1.02,1.35-2.25,2.54-3.72,3.58s-3.12,1.97-4.97,2.78l0.39,2.13
				c0.09,0.49,0.17,0.91,0.26,1.26c0.09,0.35,0.16,0.64,0.22,0.87l0.48,1.87c0.35,1.1,0.75,2.04,1.2,2.8s1.02,1.39,1.72,1.87
				c0.7,0.48,1.56,0.83,2.59,1.04c1.03,0.22,2.28,0.33,3.76,0.33c0.23,0,0.6-0.03,1.11-0.09c0.51-0.06,1.17-0.14,1.98-0.26V466.61z
				 M521.73,424.46c0-1.13-0.24-2.06-0.72-2.8c-0.48-0.74-1.14-1.32-1.98-1.74c-0.84-0.42-1.83-0.71-2.96-0.87s-2.35-0.24-3.65-0.24
				h-6.08v12.25h3.39l2.87-0.13c1.13-0.09,2.24-0.24,3.32-0.46c1.09-0.22,2.06-0.56,2.93-1.04c0.87-0.48,1.56-1.11,2.09-1.91
				C521.47,426.72,521.73,425.7,521.73,424.46z"/>
			<linearGradient id="SVGID_16_" gradientUnits="userSpaceOnUse" x1="572.1062" y1="467.7256" x2="572.9041" y2="435.0134">
				<stop  offset="6.911580e-03" style="stop-color:#A12531"/>
				<stop  offset="0.5154" style="stop-color:#AE2E37"/>
				<stop  offset="1" style="stop-color:#BD3A40"/>
			</linearGradient>
			<path class="st19" d="M558.22,405.6h27.03l17.73,61.19h-20.95l-2.35-11.73h-15.82l-2.52,11.73h-20.08L558.22,405.6z M577.6,444.1
				l-5.82-26.77l-6,26.77H577.6z"/>
			<linearGradient id="SVGID_17_" gradientUnits="userSpaceOnUse" x1="624.4006" y1="469.0011" x2="625.1985" y2="436.2889">
				<stop  offset="6.911580e-03" style="stop-color:#A12531"/>
				<stop  offset="0.5154" style="stop-color:#AE2E37"/>
				<stop  offset="1" style="stop-color:#BD3A40"/>
			</linearGradient>
			<path class="st20" d="M603.89,453.92l20.95-35.37h-20.08V405.6h39.98v12.95l-20.42,35.37h21.34v12.86h-41.76V453.92z"/>
			<linearGradient id="SVGID_18_" gradientUnits="userSpaceOnUse" x1="672.968" y1="470.1857" x2="673.7658" y2="437.4735">
				<stop  offset="6.911580e-03" style="stop-color:#A12531"/>
				<stop  offset="0.5154" style="stop-color:#AE2E37"/>
				<stop  offset="1" style="stop-color:#BD3A40"/>
			</linearGradient>
			<path class="st21" d="M652.33,405.6h42.94v13.47h-21.38v11.12h19.56v11.21h-19.56v11.99h21.38v13.38h-42.94V405.6z"/>
		</g>
		<g>
			<linearGradient id="SVGID_19_" gradientUnits="userSpaceOnUse" x1="127.374" y1="480.0067" x2="125.2389" y2="421.2895">
				<stop  offset="8.172328e-03" style="stop-color:#FFD11D"/>
				<stop  offset="0.2575" style="stop-color:#FEC41E"/>
				<stop  offset="0.7542" style="stop-color:#F8A21F"/>
				<stop  offset="1" style="stop-color:#F5901F"/>
			</linearGradient>
			<path class="st22" d="M132.79,469.17c-8.83,0-16.5-3.02-22.81-8.96c-6.61-6.19-10-14.28-10.09-24.05c0-4.75,0.83-9.19,2.46-13.21
				c1.64-4.02,3.93-7.53,6.82-10.43c2.89-2.91,6.35-5.2,10.28-6.82c3.93-1.62,8.24-2.45,12.81-2.45c6.49,0,12.47,1.54,17.79,4.56
				l0.61,0.35L148,423.87l-1.14-0.43c-4.13-1.57-7.9-2.37-11.2-2.37c-4.52,0-7.98,1.3-10.27,3.86c-2.33,2.59-3.5,6.34-3.5,11.13
				c0,2.4,0.33,4.56,0.97,6.43c0.63,1.84,1.56,3.41,2.76,4.68c1.19,1.26,2.69,2.24,4.43,2.9c1.77,0.68,3.84,1.02,6.14,1.02
				c0.98,0,1.89-0.05,2.71-0.15c0.83-0.1,1.66-0.24,2.47-0.44s1.67-0.45,2.52-0.75c0.89-0.32,1.88-0.69,2.97-1.12l1.14-0.45
				l2.76,16.02l-0.6,0.35C144.86,467.62,139.02,469.17,132.79,469.17z M132.27,405.25c-4.31,0-8.36,0.77-12.05,2.29
				c-3.69,1.52-6.92,3.67-9.62,6.39c-2.7,2.72-4.85,6.01-6.39,9.78c-1.54,3.77-2.32,7.96-2.32,12.44c0.08,9.19,3.27,16.8,9.46,22.61
				c5.92,5.59,13.13,8.42,21.44,8.42c5.64,0,10.94-1.35,15.76-4l-2.11-12.22c-0.67,0.26-1.3,0.49-1.89,0.7
				c-0.93,0.33-1.85,0.6-2.73,0.81c-0.89,0.21-1.8,0.37-2.7,0.48c-0.89,0.11-1.88,0.16-2.94,0.16c-2.54,0-4.85-0.39-6.85-1.15
				c-2.03-0.77-3.77-1.92-5.17-3.4c-1.4-1.47-2.47-3.29-3.2-5.4c-0.71-2.08-1.08-4.46-1.08-7.08c0-5.3,1.35-9.49,4.01-12.47
				c2.69-3,6.65-4.53,11.76-4.53c3.24,0,6.86,0.7,10.77,2.08l2.03-11.94C143.6,406.58,138.16,405.25,132.27,405.25z"/>
			<linearGradient id="SVGID_20_" gradientUnits="userSpaceOnUse" x1="185.4847" y1="477.8936" x2="183.3496" y2="419.1763">
				<stop  offset="8.172328e-03" style="stop-color:#FFD11D"/>
				<stop  offset="0.2575" style="stop-color:#FEC41E"/>
				<stop  offset="0.7542" style="stop-color:#F8A21F"/>
				<stop  offset="1" style="stop-color:#F5901F"/>
			</linearGradient>
			<path class="st23" d="M184.01,469.17c-3.66,0-7.08-0.42-10.15-1.25c-3.07-0.83-5.9-2.01-8.4-3.5c-2.5-1.49-4.74-3.29-6.63-5.35
				c-1.89-2.06-3.49-4.33-4.76-6.76c-1.26-2.42-2.23-5.02-2.87-7.73c-0.64-2.7-0.96-5.49-0.96-8.31c0-9.06,2.93-16.8,8.7-23.02
				c6.17-6.64,14.6-10.01,25.07-10.01c5.09,0,9.76,0.84,13.89,2.48c4.13,1.65,7.71,3.97,10.64,6.89c2.92,2.92,5.21,6.45,6.79,10.49
				c1.57,4.02,2.37,8.45,2.37,13.16c0,2.84-0.33,5.67-0.98,8.4c-0.65,2.74-1.64,5.35-2.94,7.78c-1.29,2.42-2.92,4.69-4.82,6.73
				c-1.91,2.04-4.14,3.83-6.63,5.31c-2.49,1.47-5.29,2.64-8.33,3.45C190.94,468.76,187.59,469.17,184.01,469.17z M184.01,405.25
				c-9.89,0-17.83,3.15-23.6,9.37c-5.42,5.83-8.16,13.12-8.16,21.66c0,2.67,0.31,5.31,0.91,7.85c0.6,2.55,1.51,4.99,2.69,7.26
				c1.18,2.27,2.68,4.4,4.46,6.33c1.77,1.92,3.85,3.6,6.19,4.99c2.34,1.4,5,2.5,7.9,3.28c2.9,0.79,6.14,1.18,9.63,1.18
				c3.4,0,6.58-0.39,9.45-1.16c2.86-0.77,5.5-1.86,7.83-3.24c2.33-1.38,4.41-3.05,6.19-4.95c1.79-1.91,3.31-4.04,4.52-6.31
				c1.21-2.27,2.14-4.73,2.76-7.3c0.62-2.58,0.93-5.25,0.93-7.94c0-4.46-0.75-8.64-2.23-12.43c-1.48-3.78-3.61-7.08-6.34-9.8
				c-2.73-2.73-6.08-4.9-9.96-6.45C193.27,406.04,188.84,405.25,184.01,405.25z M184.01,453.01c-2.12,0-4.07-0.45-5.8-1.33
				c-1.71-0.87-3.19-2.08-4.39-3.59c-1.19-1.5-2.11-3.29-2.74-5.33c-0.62-2.01-0.94-4.22-0.94-6.57c0-1.98,0.25-4,0.75-6
				c0.5-2.03,1.31-3.89,2.4-5.53c1.11-1.67,2.55-3.05,4.29-4.1c1.77-1.07,3.92-1.65,6.4-1.71c2.15,0.09,4.07,0.6,5.77,1.51
				c1.7,0.9,3.16,2.14,4.36,3.68c1.19,1.53,2.11,3.35,2.73,5.41c0.62,2.04,0.93,4.31,0.93,6.74c0,1.87-0.25,3.81-0.75,5.77
				c-0.5,1.99-1.31,3.81-2.4,5.42c-1.11,1.64-2.54,2.99-4.27,4.03C188.62,452.47,186.48,453.01,184.01,453.01z M183.97,420.85
				c-2.06,0.05-3.88,0.53-5.35,1.42c-1.49,0.9-2.72,2.08-3.66,3.5c-0.96,1.45-1.67,3.1-2.12,4.9c-0.46,1.84-0.69,3.7-0.69,5.52
				c0,2.15,0.28,4.16,0.85,5.98c0.55,1.8,1.36,3.37,2.39,4.67c1.02,1.29,2.28,2.31,3.73,3.05c1.44,0.74,3.09,1.11,4.89,1.11
				c2.1,0,3.89-0.44,5.33-1.31c1.48-0.89,2.7-2.05,3.64-3.44c0.96-1.42,1.67-3.03,2.12-4.79c0.46-1.8,0.69-3.57,0.69-5.27
				c0-2.24-0.29-4.31-0.85-6.16c-0.56-1.83-1.36-3.43-2.4-4.76c-1.02-1.31-2.27-2.37-3.72-3.14
				C187.38,421.36,185.75,420.93,183.97,420.85z"/>
			<linearGradient id="SVGID_21_" gradientUnits="userSpaceOnUse" x1="245.4974" y1="475.7114" x2="243.3623" y2="416.994">
				<stop  offset="8.172328e-03" style="stop-color:#FFD11D"/>
				<stop  offset="0.2575" style="stop-color:#FEC41E"/>
				<stop  offset="0.7542" style="stop-color:#F8A21F"/>
				<stop  offset="1" style="stop-color:#F5901F"/>
			</linearGradient>
			<path class="st24" d="M243.1,467.78h-21.12V404.6h44.15v15.47H243.1v10.34h21.29v13.3H243.1V467.78z M223.98,465.78h17.12v-24.08
				h21.29v-9.3H241.1v-14.34h23.03V406.6h-40.15V465.78z"/>
			<linearGradient id="SVGID_22_" gradientUnits="userSpaceOnUse" x1="293.8773" y1="473.9521" x2="291.7421" y2="415.2348">
				<stop  offset="8.172328e-03" style="stop-color:#FFD11D"/>
				<stop  offset="0.2575" style="stop-color:#FEC41E"/>
				<stop  offset="0.7542" style="stop-color:#F8A21F"/>
				<stop  offset="1" style="stop-color:#F5901F"/>
			</linearGradient>
			<path class="st25" d="M291.55,467.78h-21.12V404.6h44.15v15.47h-23.03v10.34h21.29v13.3h-21.29V467.78z M272.43,465.78h17.12
				v-24.08h21.29v-9.3h-21.29v-14.34h23.03V406.6h-40.15V465.78z"/>
			<linearGradient id="SVGID_23_" gradientUnits="userSpaceOnUse" x1="342.6478" y1="472.1786" x2="340.5126" y2="413.4613">
				<stop  offset="8.172328e-03" style="stop-color:#FFD11D"/>
				<stop  offset="0.2575" style="stop-color:#FEC41E"/>
				<stop  offset="0.7542" style="stop-color:#F8A21F"/>
				<stop  offset="1" style="stop-color:#F5901F"/>
			</linearGradient>
			<path class="st26" d="M363.81,467.78h-44.94V404.6h44.94v15.47h-21.38v9.12h19.56v13.21h-19.56v9.99h21.38V467.78z
				 M320.87,465.78h40.94V454.4h-21.38v-13.99h19.56v-9.21h-19.56v-13.12h21.38V406.6h-40.94V465.78z"/>
			<linearGradient id="SVGID_24_" gradientUnits="userSpaceOnUse" x1="393.1974" y1="470.3405" x2="391.0622" y2="411.6231">
				<stop  offset="8.172328e-03" style="stop-color:#FFD11D"/>
				<stop  offset="0.2575" style="stop-color:#FEC41E"/>
				<stop  offset="0.7542" style="stop-color:#F8A21F"/>
				<stop  offset="1" style="stop-color:#F5901F"/>
			</linearGradient>
			<path class="st27" d="M414.42,467.78h-44.94V404.6h44.94v15.47h-21.38v9.12h19.56v13.21h-19.56v9.99h21.38V467.78z
				 M371.49,465.78h40.94V454.4h-21.38v-13.99h19.56v-9.21h-19.56v-13.12h21.38V406.6h-40.94V465.78z"/>
			<linearGradient id="SVGID_25_" gradientUnits="userSpaceOnUse" x1="458.3941" y1="467.9697" x2="456.2589" y2="409.2523">
				<stop  offset="8.172328e-03" style="stop-color:#FFD11D"/>
				<stop  offset="0.2575" style="stop-color:#FEC41E"/>
				<stop  offset="0.7542" style="stop-color:#F8A21F"/>
				<stop  offset="1" style="stop-color:#F5901F"/>
			</linearGradient>
			<path class="st28" d="M464.25,469.17c-8.83,0-16.5-3.02-22.81-8.96c-6.61-6.19-10-14.28-10.09-24.05c0-4.75,0.83-9.19,2.46-13.21
				c1.63-4.02,3.93-7.53,6.82-10.43c2.89-2.91,6.35-5.2,10.28-6.82c3.93-1.62,8.24-2.45,12.81-2.45c6.49,0,12.47,1.54,17.79,4.56
				l0.61,0.35l-2.67,15.71l-1.14-0.43c-4.13-1.57-7.9-2.37-11.21-2.37c-4.52,0-7.97,1.3-10.27,3.86c-2.33,2.59-3.5,6.34-3.5,11.13
				c0,2.4,0.33,4.56,0.97,6.43c0.63,1.84,1.56,3.41,2.76,4.68c1.2,1.26,2.69,2.24,4.43,2.9c1.77,0.68,3.84,1.02,6.14,1.02
				c0.98,0,1.89-0.05,2.71-0.15c0.83-0.1,1.66-0.24,2.47-0.44c0.82-0.19,1.67-0.45,2.53-0.75c0.89-0.32,1.88-0.69,2.97-1.12
				l1.14-0.45l2.76,16.02l-0.6,0.35C476.32,467.62,470.48,469.17,464.25,469.17z M463.73,405.25c-4.31,0-8.36,0.77-12.05,2.29
				c-3.68,1.52-6.92,3.67-9.62,6.39c-2.7,2.72-4.85,6.01-6.39,9.78c-1.54,3.77-2.32,7.96-2.32,12.44c0.08,9.19,3.27,16.8,9.46,22.61
				c5.92,5.59,13.13,8.42,21.44,8.42c5.64,0,10.94-1.35,15.76-4l-2.11-12.22c-0.67,0.26-1.3,0.49-1.89,0.7
				c-0.93,0.33-1.85,0.6-2.73,0.81c-0.89,0.21-1.8,0.37-2.7,0.48c-0.89,0.11-1.88,0.16-2.94,0.16c-2.54,0-4.85-0.39-6.85-1.15
				c-2.03-0.77-3.77-1.92-5.17-3.4c-1.4-1.47-2.47-3.29-3.2-5.4c-0.71-2.08-1.08-4.46-1.08-7.08c0-5.3,1.35-9.49,4.01-12.46
				c2.69-3,6.65-4.53,11.76-4.53c3.24,0,6.86,0.7,10.78,2.08l2.03-11.94C475.06,406.58,469.62,405.25,463.73,405.25z"/>
			<linearGradient id="SVGID_26_" gradientUnits="userSpaceOnUse" x1="514.3842" y1="465.9337" x2="512.249" y2="407.2163">
				<stop  offset="8.172328e-03" style="stop-color:#FFD11D"/>
				<stop  offset="0.2575" style="stop-color:#FEC41E"/>
				<stop  offset="0.7542" style="stop-color:#F8A21F"/>
				<stop  offset="1" style="stop-color:#F5901F"/>
			</linearGradient>
			<path class="st29" d="M533.2,469.17c-11.2,0-18.34-5.19-21.21-15.42l-2.25-9.18h-2.39v23.21h-21.47V404.6h28.21
				c3.6,0,7.03,0.41,10.2,1.23c3.2,0.82,6.02,2.04,8.41,3.61c2.42,1.6,4.35,3.6,5.74,5.95c1.4,2.38,2.12,5.14,2.12,8.2
				c0,2.23-0.29,4.27-0.85,6.06c-0.57,1.8-1.4,3.43-2.48,4.86c-1.07,1.42-2.4,2.7-3.94,3.8c-1.32,0.94-2.81,1.8-4.43,2.56l0.25,1.36
				c0.08,0.47,0.17,0.87,0.25,1.2l0.69,2.73c0.31,0.97,0.68,1.85,1.09,2.54c0.37,0.64,0.85,1.16,1.42,1.55
				c0.58,0.4,1.33,0.7,2.23,0.89c0.95,0.2,2.15,0.3,3.55,0.3c0.21,0,0.54-0.03,0.99-0.08c0.5-0.06,1.15-0.14,1.95-0.26l1.14-0.16
				v16.43l-0.74,0.2C537.76,468.65,534.99,469.17,533.2,469.17z M505.34,442.58h5.96l2.62,10.67c2.63,9.36,8.94,13.93,19.28,13.93
				c1.48,0,3.9-0.45,7.21-1.33v-12.6c-0.33,0.04-0.61,0.08-0.86,0.11c-0.54,0.06-0.94,0.09-1.22,0.09c-1.54,0-2.88-0.12-3.97-0.35
				c-1.15-0.24-2.14-0.65-2.95-1.2c-0.81-0.56-1.49-1.29-2.01-2.19c-0.48-0.83-0.92-1.84-1.29-3.01l-0.71-2.79
				c-0.09-0.37-0.18-0.81-0.28-1.33l-0.53-2.9l0.73-0.32c1.78-0.78,3.39-1.68,4.79-2.68c1.37-0.98,2.55-2.11,3.5-3.37
				c0.94-1.25,1.67-2.68,2.17-4.26c0.5-1.59,0.76-3.43,0.76-5.46c0-2.7-0.62-5.12-1.84-7.18c-1.23-2.09-2.96-3.87-5.12-5.3
				c-2.2-1.45-4.82-2.58-7.8-3.34c-3-0.77-6.27-1.16-9.7-1.16h-26.21v59.19h17.47V442.58z M506.34,432.06h-1v-14.25h7.08
				c1.34,0,2.62,0.08,3.79,0.25c1.23,0.17,2.33,0.5,3.26,0.96c1,0.5,1.8,1.2,2.37,2.09c0.58,0.9,0.88,2.03,0.88,3.35
				c0,1.44-0.32,2.65-0.95,3.61c-0.61,0.93-1.43,1.69-2.44,2.24c-0.96,0.53-2.04,0.91-3.22,1.15c-1.11,0.22-2.27,0.38-3.44,0.47
				l-2.9,0.13L506.34,432.06z M507.34,430.06h2.39l2.82-0.13c1.06-0.08,2.14-0.23,3.17-0.44c0.98-0.2,1.87-0.51,2.65-0.94
				c0.73-0.4,1.3-0.92,1.73-1.58c0.41-0.63,0.62-1.47,0.62-2.52c0-0.93-0.19-1.69-0.56-2.26c-0.38-0.59-0.9-1.04-1.59-1.39
				c-0.74-0.37-1.63-0.63-2.65-0.77c-1.08-0.15-2.26-0.23-3.51-0.23h-5.08V430.06z"/>
			<linearGradient id="SVGID_27_" gradientUnits="userSpaceOnUse" x1="571.994" y1="463.8388" x2="569.8588" y2="405.1215">
				<stop  offset="8.172328e-03" style="stop-color:#FFD11D"/>
				<stop  offset="0.2575" style="stop-color:#FEC41E"/>
				<stop  offset="0.7542" style="stop-color:#F8A21F"/>
				<stop  offset="1" style="stop-color:#F5901F"/>
			</linearGradient>
			<path class="st30" d="M604.31,467.78h-23.1l-2.35-11.73h-14.19l-2.52,11.73h-22.2l17.5-63.19H586l0.21,0.72L604.31,467.78z
				 M582.86,465.78h18.8L584.5,406.6h-25.52l-16.39,59.19h17.96l2.52-11.73h17.45L582.86,465.78z M578.85,445.1h-14.31l7.26-32.41
				L578.85,445.1z M567.03,443.1h9.33l-4.6-21.13L567.03,443.1z"/>
			<linearGradient id="SVGID_28_" gradientUnits="userSpaceOnUse" x1="625.2448" y1="461.9024" x2="623.1096" y2="403.1851">
				<stop  offset="8.172328e-03" style="stop-color:#FFD11D"/>
				<stop  offset="0.2575" style="stop-color:#FEC41E"/>
				<stop  offset="0.7542" style="stop-color:#F8A21F"/>
				<stop  offset="1" style="stop-color:#F5901F"/>
			</linearGradient>
			<path class="st31" d="M646.65,467.78h-43.76v-14.14l20.19-34.1h-19.32V404.6h41.98v14.22l-0.13,0.23l-19.56,33.87h20.6V467.78z
				 M604.89,465.78h39.76v-10.86h-22.07l21.16-36.64V406.6h-37.98v10.95h20.83l-21.7,36.65V465.78z"/>
			<linearGradient id="SVGID_29_" gradientUnits="userSpaceOnUse" x1="674.6667" y1="460.1052" x2="672.5316" y2="401.3879">
				<stop  offset="8.172328e-03" style="stop-color:#FFD11D"/>
				<stop  offset="0.2575" style="stop-color:#FEC41E"/>
				<stop  offset="0.7542" style="stop-color:#F8A21F"/>
				<stop  offset="1" style="stop-color:#F5901F"/>
			</linearGradient>
			<path class="st32" d="M696.26,467.78h-44.94V404.6h44.94v15.47h-21.38v9.12h19.56v13.21h-19.56v9.99h21.38V467.78z
				 M653.33,465.78h40.94V454.4h-21.38v-13.99h19.56v-9.21h-19.56v-13.12h21.38V406.6h-40.94V465.78z"/>
		</g>
	</g>
</g>
</svg>
