<?xml version="1.0" encoding="utf-8"?>
<!-- Generator: Adobe Illustrator 23.0.1, SVG Export Plug-In . SVG Version: 6.00 Build 0)  -->
<svg version="1.1" id="Layer_1" xmlns="http://www.w3.org/2000/svg" xmlns:xlink="http://www.w3.org/1999/xlink" x="0px" y="0px"
	 viewBox="0 0 265.39 119.23" style="enable-background:new 0 0 265.39 119.23;" xml:space="preserve">
<style type="text/css">
	.st0{fill:#BD3A40;}
	.st1{fill:url(#SVGID_1_);}
	.st2{fill:url(#SVGID_2_);}
	.st3{fill:url(#SVGID_3_);}
	.st4{opacity:0.3;fill:#BFA79B;}
	.st5{clip-path:url(#SVGID_5_);fill:#825726;}
	.st6{clip-path:url(#SVGID_5_);fill:#72461C;}
	.st7{opacity:0.4;clip-path:url(#SVGID_5_);fill:#FBCCC5;}
	.st8{opacity:0.3;fill:#F9CCB3;}
	.st9{opacity:0.2;fill:url(#SVGID_6_);}
	.st10{fill:url(#SVGID_7_);}
	.st11{fill:url(#SVGID_8_);}
	.st12{fill:url(#SVGID_9_);}
	.st13{fill:url(#SVGID_10_);}
	.st14{fill:url(#SVGID_11_);}
	.st15{fill:url(#SVGID_12_);}
	.st16{fill:url(#SVGID_13_);}
	.st17{fill:url(#SVGID_14_);}
	.st18{fill:url(#SVGID_15_);}
	.st19{fill:url(#SVGID_16_);}
	.st20{fill:url(#SVGID_17_);}
	.st21{fill:url(#SVGID_18_);}
	.st22{fill:url(#SVGID_19_);}
	.st23{fill:url(#SVGID_20_);}
	.st24{fill:url(#SVGID_21_);}
	.st25{fill:url(#SVGID_22_);}
	.st26{fill:url(#SVGID_23_);}
	.st27{fill:url(#SVGID_24_);}
	.st28{fill:url(#SVGID_25_);}
	.st29{fill:url(#SVGID_26_);}
	.st30{fill:url(#SVGID_27_);}
	.st31{fill:url(#SVGID_28_);}
	.st32{fill:url(#SVGID_29_);}
	.st33{fill:url(#SVGID_30_);}
	.st34{fill:url(#SVGID_31_);}
	.st35{fill:url(#SVGID_32_);}
	.st36{fill:url(#SVGID_33_);}
	.st37{fill:url(#SVGID_34_);}
	.st38{fill:url(#SVGID_35_);}
	.st39{fill:url(#SVGID_36_);}
	.st40{fill:url(#SVGID_37_);}
	.st41{fill:url(#SVGID_38_);}
	.st42{fill:url(#SVGID_39_);}
	.st43{fill:url(#SVGID_40_);}
	.st44{fill:url(#SVGID_41_);}
	.st45{fill:url(#SVGID_42_);}
	.st46{fill:url(#SVGID_43_);}
	.st47{fill:url(#SVGID_44_);}
	.st48{fill:url(#SVGID_45_);}
	.st49{fill:url(#SVGID_46_);}
	.st50{fill:url(#SVGID_47_);}
	.st51{fill:url(#SVGID_48_);}
	.st52{fill:url(#SVGID_49_);}
	.st53{fill:url(#SVGID_50_);}
	.st54{fill:url(#SVGID_51_);}
	.st55{fill:url(#SVGID_52_);}
	.st56{fill:url(#SVGID_53_);}
	.st57{fill:url(#SVGID_54_);}
	.st58{fill:url(#SVGID_55_);}
	.st59{fill:url(#SVGID_56_);}
	.st60{fill:url(#SVGID_57_);}
	.st61{fill:url(#SVGID_58_);}
	.st62{fill:url(#SVGID_59_);}
	.st63{fill:url(#SVGID_60_);}
</style>
<path class="st0" d="M67.16,102.81c-23.82,0-43.2-19.38-43.2-43.2s19.38-43.2,43.2-43.2h131.08c23.82,0,43.19,19.38,43.19,43.2
	s-19.38,43.2-43.19,43.2H67.16z"/>
<path class="st0" d="M198.23,95.81H67.16c-21.01,0-38.2-17.19-38.2-38.2v0c0-21.01,17.19-38.2,38.2-38.2h131.08
	c21.01,0,38.2,17.19,38.2,38.2v0C236.43,78.62,219.24,95.81,198.23,95.81z"/>
<linearGradient id="SVGID_1_" gradientUnits="userSpaceOnUse" x1="132.6953" y1="22.1635" x2="132.6953" y2="73.0229">
	<stop  offset="5.547496e-03" style="stop-color:#F8BD28"/>
	<stop  offset="1" style="stop-color:#F9A81A"/>
</linearGradient>
<path class="st1" d="M198.23,96.2H67.16c-21.01,0-38.2-17.19-38.2-38.2v0c0-21.01,17.19-38.2,38.2-38.2h131.08
	c21.01,0,38.2,17.19,38.2,38.2v0C236.43,79.01,219.24,96.2,198.23,96.2z"/>
<g>
	<g>
		<linearGradient id="SVGID_2_" gradientUnits="userSpaceOnUse" x1="79.5855" y1="83.9119" x2="80.7354" y2="50.5639">
			<stop  offset="6.911580e-03" style="stop-color:#A12531"/>
			<stop  offset="0.5154" style="stop-color:#AE2E37"/>
			<stop  offset="1" style="stop-color:#BD3A40"/>
		</linearGradient>
		<path class="st2" d="M61.96,37.73h11.37l15.58,21.02V37.73h10.15v39.04H87.69L72.05,56.41v20.35H61.96V37.73z"/>
		<linearGradient id="SVGID_3_" gradientUnits="userSpaceOnUse" x1="119.2148" y1="85.2784" x2="120.3647" y2="51.9304">
			<stop  offset="6.911580e-03" style="stop-color:#A12531"/>
			<stop  offset="0.5154" style="stop-color:#AE2E37"/>
			<stop  offset="1" style="stop-color:#BD3A40"/>
		</linearGradient>
		<path class="st3" d="M106.48,37.73h27.39v8.6h-13.64v7.1h12.48v7.15h-12.48v7.65h13.64v8.54h-27.39V37.73z"/>
		<linearGradient id="SVGID_5_" gradientUnits="userSpaceOnUse" x1="153.6655" y1="86.4664" x2="154.8154" y2="53.1183">
			<stop  offset="6.911580e-03" style="stop-color:#A12531"/>
			<stop  offset="0.5154" style="stop-color:#AE2E37"/>
			<stop  offset="1" style="stop-color:#BD3A40"/>
		</linearGradient>
		<path style="fill:url(#SVGID_5_);" d="M147.38,57.36L136.9,37.73h12.87l4.6,9.87l4.6-9.87h13.14l-10.59,19.63l10.92,19.41H159.3
			l-4.94-9.7l-4.94,9.7h-12.87L147.38,57.36z"/>
		<linearGradient id="SVGID_6_" gradientUnits="userSpaceOnUse" x1="187.2815" y1="87.6256" x2="188.4314" y2="54.2775">
			<stop  offset="6.911580e-03" style="stop-color:#A12531"/>
			<stop  offset="0.5154" style="stop-color:#AE2E37"/>
			<stop  offset="1" style="stop-color:#BD3A40"/>
		</linearGradient>
		<path style="fill:url(#SVGID_6_);" d="M182.23,45.99h-8.1v-8.26h29.45v8.26h-8.1v30.78h-13.25V45.99z"/>
	</g>
	<g>
		<linearGradient id="SVGID_7_" gradientUnits="userSpaceOnUse" x1="80.8527" y1="73.2137" x2="80.1768" y2="48.203">
			<stop  offset="8.172328e-03" style="stop-color:#FFD11D"/>
			<stop  offset="0.2575" style="stop-color:#FEC41E"/>
			<stop  offset="0.7542" style="stop-color:#F8A21F"/>
			<stop  offset="1" style="stop-color:#F5901F"/>
		</linearGradient>
		<path class="st10" d="M100.16,78.32H87.03L73.16,60.26v18.05H60.7v-41.4h13.15l13.8,18.62V36.91h12.51V78.32z M88.2,75.95h9.6
			V39.28h-7.78v23.41L72.65,39.28h-9.59v36.67h7.73V53.3L88.2,75.95z"/>
		<linearGradient id="SVGID_8_" gradientUnits="userSpaceOnUse" x1="120.5002" y1="72.1421" x2="119.8242" y2="47.1315">
			<stop  offset="8.172328e-03" style="stop-color:#FFD11D"/>
			<stop  offset="0.2575" style="stop-color:#FEC41E"/>
			<stop  offset="0.7542" style="stop-color:#F8A21F"/>
			<stop  offset="1" style="stop-color:#F5901F"/>
		</linearGradient>
		<path class="st11" d="M134.99,78.32h-29.76v-41.4h29.76v10.96h-13.64v4.73h12.48v9.52h-12.48v5.29h13.64V78.32z M107.59,75.95
			h25.03v-6.17h-13.64V59.76h12.48v-4.79h-12.48v-9.46h13.64v-6.23h-25.03V75.95z"/>
		<linearGradient id="SVGID_9_" gradientUnits="userSpaceOnUse" x1="154.6186" y1="71.22" x2="153.9426" y2="46.2093">
			<stop  offset="8.172328e-03" style="stop-color:#FFD11D"/>
			<stop  offset="0.2575" style="stop-color:#FEC41E"/>
			<stop  offset="0.7542" style="stop-color:#F8A21F"/>
			<stop  offset="1" style="stop-color:#F5901F"/>
		</linearGradient>
		<path class="st12" d="M174.39,78.32H158.5l-4.21-8.28l-4.21,8.28h-15.6l11.48-20.6l-11.11-20.8h15.59l3.85,8.25l3.85-8.25h15.88
			l-11.22,20.8L174.39,78.32z M159.95,75.95h10.39L160.1,57.74l9.96-18.46h-10.41l-5.36,11.49l-5.36-11.49H138.8l9.85,18.46
			l-10.15,18.21h10.13l5.66-11.13L159.95,75.95z"/>
		<linearGradient id="SVGID_10_" gradientUnits="userSpaceOnUse" x1="189.5439" y1="70.2761" x2="188.8679" y2="45.2654">
			<stop  offset="8.172328e-03" style="stop-color:#FFD11D"/>
			<stop  offset="0.2575" style="stop-color:#FEC41E"/>
			<stop  offset="0.7542" style="stop-color:#F8A21F"/>
			<stop  offset="1" style="stop-color:#F5901F"/>
		</linearGradient>
		<path class="st13" d="M196.6,78.32h-15.62V47.54h-8.1V36.91h31.81v10.63h-8.1V78.32z M183.34,75.95h10.89V45.17h8.1v-5.9h-27.08
			v5.9h8.1V75.95z"/>
	</g>
</g>
</svg>
