<?xml version="1.0" encoding="utf-8"?>
<!-- Generator: Adobe Illustrator 23.0.1, SVG Export Plug-In . SVG Version: 6.00 Build 0)  -->
<svg version="1.1" id="Layer_1" xmlns="http://www.w3.org/2000/svg" xmlns:xlink="http://www.w3.org/1999/xlink" x="0px" y="0px"
	 viewBox="0 0 265.39 119.23" style="enable-background:new 0 0 265.39 119.23;" xml:space="preserve">
<style type="text/css">
	.st0{fill:#BD3A40;}
	.st1{fill:url(#SVGID_1_);}
	.st2{fill:url(#SVGID_2_);}
	.st3{fill:url(#SVGID_3_);}
	.st4{opacity:0.3;fill:#BFA79B;}
	.st5{clip-path:url(#SVGID_5_);fill:#825726;}
	.st6{clip-path:url(#SVGID_5_);fill:#72461C;}
	.st7{opacity:0.4;clip-path:url(#SVGID_5_);fill:#FBCCC5;}
	.st8{opacity:0.3;fill:#F9CCB3;}
	.st9{opacity:0.2;fill:url(#SVGID_6_);}
	.st10{fill:url(#SVGID_7_);}
	.st11{fill:url(#SVGID_8_);}
	.st12{fill:url(#SVGID_9_);}
	.st13{fill:url(#SVGID_10_);}
	.st14{fill:url(#SVGID_11_);}
	.st15{fill:url(#SVGID_12_);}
	.st16{fill:url(#SVGID_13_);}
	.st17{fill:url(#SVGID_14_);}
	.st18{fill:url(#SVGID_15_);}
	.st19{fill:url(#SVGID_16_);}
	.st20{fill:url(#SVGID_17_);}
	.st21{fill:url(#SVGID_18_);}
	.st22{fill:url(#SVGID_19_);}
	.st23{fill:url(#SVGID_20_);}
	.st24{fill:url(#SVGID_21_);}
	.st25{fill:url(#SVGID_22_);}
	.st26{fill:url(#SVGID_23_);}
	.st27{fill:url(#SVGID_24_);}
	.st28{fill:url(#SVGID_25_);}
	.st29{fill:url(#SVGID_26_);}
	.st30{fill:url(#SVGID_27_);}
	.st31{fill:url(#SVGID_28_);}
	.st32{fill:url(#SVGID_29_);}
	.st33{fill:url(#SVGID_30_);}
	.st34{fill:url(#SVGID_31_);}
	.st35{fill:url(#SVGID_32_);}
	.st36{fill:url(#SVGID_33_);}
	.st37{fill:url(#SVGID_34_);}
	.st38{fill:url(#SVGID_35_);}
	.st39{fill:url(#SVGID_36_);}
	.st40{fill:url(#SVGID_37_);}
	.st41{fill:url(#SVGID_38_);}
</style>
<path class="st0" d="M67.16,98.81c-23.82,0-43.2-19.38-43.2-43.2s19.38-43.2,43.2-43.2h131.08c23.82,0,43.19,19.38,43.19,43.2
	s-19.38,43.2-43.19,43.2H67.16z"/>
<path class="st0" d="M198.23,91.81H67.16c-21.01,0-38.2-17.19-38.2-38.2v0c0-21.01,17.19-38.2,38.2-38.2h131.08
	c21.01,0,38.2,17.19,38.2,38.2v0C236.43,74.62,219.24,91.81,198.23,91.81z"/>
<linearGradient id="SVGID_1_" gradientUnits="userSpaceOnUse" x1="132.6953" y1="18.1635" x2="132.6953" y2="69.0229">
	<stop  offset="5.547496e-03" style="stop-color:#F8BD28"/>
	<stop  offset="1" style="stop-color:#F9A81A"/>
</linearGradient>
<path class="st1" d="M198.23,92.2H67.16c-21.01,0-38.2-17.19-38.2-38.2v0c0-21.01,17.19-38.2,38.2-38.2h131.08
	c21.01,0,38.2,17.19,38.2,38.2v0C236.43,75.01,219.24,92.2,198.23,92.2z"/>
<g>
	<linearGradient id="SVGID_2_" gradientUnits="userSpaceOnUse" x1="68.0326" y1="53.6143" x2="99.9725" y2="53.6143">
		<stop  offset="6.911580e-03" style="stop-color:#A12531"/>
		<stop  offset="0.5154" style="stop-color:#AE2E37"/>
		<stop  offset="1" style="stop-color:#BD3A40"/>
	</linearGradient>
	<path class="st2" d="M68.03,34.36h13.89c2.88,0,5.44,0.28,7.68,0.85c2.24,0.57,4.13,1.39,5.66,2.49s2.7,2.43,3.5,4.01
		c0.8,1.58,1.2,3.38,1.2,5.4c0,1.97-0.46,3.73-1.37,5.28c-0.91,1.55-2.16,2.87-3.75,3.95c-1.59,1.08-3.44,1.91-5.57,2.49
		c-2.12,0.57-4.4,0.86-6.82,0.86h-2.35v13.18H68.03V34.36z M82.53,51.92c1.93,0,3.45-0.4,4.54-1.2c1.09-0.8,1.64-2.01,1.64-3.61
		c0-0.78-0.16-1.47-0.48-2.05c-0.32-0.58-0.76-1.07-1.31-1.46c-0.56-0.39-1.21-0.69-1.96-0.89c-0.75-0.2-1.56-0.3-2.43-0.3h-2.41
		v9.41c0.26,0.04,0.58,0.06,0.98,0.08C81.5,51.91,81.98,51.92,82.53,51.92z"/>
	<linearGradient id="SVGID_3_" gradientUnits="userSpaceOnUse" x1="102.9461" y1="53.6143" x2="128.3778" y2="53.6143">
		<stop  offset="6.911580e-03" style="stop-color:#A12531"/>
		<stop  offset="0.5154" style="stop-color:#AE2E37"/>
		<stop  offset="1" style="stop-color:#BD3A40"/>
	</linearGradient>
	<path class="st3" d="M102.95,34.36h12.09v30.24h13.34v8.26h-25.43V34.36z"/>
	<linearGradient id="SVGID_5_" gradientUnits="userSpaceOnUse" x1="128.2346" y1="53.6143" x2="167.0657" y2="53.6143">
		<stop  offset="6.911580e-03" style="stop-color:#A12531"/>
		<stop  offset="0.5154" style="stop-color:#AE2E37"/>
		<stop  offset="1" style="stop-color:#BD3A40"/>
	</linearGradient>
	<path style="fill:url(#SVGID_5_);" d="M138.9,34.36h17.01l11.16,38.5h-13.18l-1.48-7.38h-9.95l-1.59,7.38h-12.63L138.9,34.36z
		 M151.1,58.59l-3.66-16.85l-3.77,16.85H151.1z"/>
	<linearGradient id="SVGID_6_" gradientUnits="userSpaceOnUse" x1="162.5742" y1="53.6143" x2="197.3581" y2="53.6143">
		<stop  offset="6.911580e-03" style="stop-color:#A12531"/>
		<stop  offset="0.5154" style="stop-color:#AE2E37"/>
		<stop  offset="1" style="stop-color:#BD3A40"/>
	</linearGradient>
	<path style="fill:url(#SVGID_6_);" d="M173.68,62.15l-11.1-27.78h11.7l5.41,17.28l5.36-17.28h12.31l-11.65,27.78v10.72h-12.03
		V62.15z"/>
</g>
<g>
	<linearGradient id="SVGID_7_" gradientUnits="userSpaceOnUse" x1="83.0196" y1="76.6912" x2="84.1791" y2="33.7898">
		<stop  offset="8.172328e-03" style="stop-color:#FFD11D"/>
		<stop  offset="0.2575" style="stop-color:#FEC41E"/>
		<stop  offset="0.7542" style="stop-color:#F8A21F"/>
		<stop  offset="1" style="stop-color:#F5901F"/>
	</linearGradient>
	<path class="st10" d="M81.12,73.87H67.03v-40.5h14.89c2.95,0,5.61,0.3,7.93,0.88c2.35,0.59,4.37,1.48,6,2.65
		c1.66,1.18,2.94,2.65,3.81,4.37c0.87,1.71,1.31,3.68,1.31,5.85c0,2.14-0.51,4.09-1.5,5.78c-0.98,1.67-2.34,3.11-4.04,4.27
		c-1.67,1.14-3.65,2.03-5.87,2.63c-2.2,0.59-4.58,0.9-7.08,0.9h-1.35V73.87z M69.03,71.87h10.09V58.69h3.35
		c2.33,0,4.53-0.28,6.56-0.83c2-0.54,3.78-1.33,5.26-2.35c1.46-1,2.62-2.22,3.45-3.63c0.82-1.39,1.23-2.99,1.23-4.77
		c0-1.85-0.37-3.52-1.09-4.95c-0.73-1.43-1.8-2.65-3.19-3.65c-1.42-1.02-3.21-1.8-5.32-2.33c-2.15-0.54-4.66-0.82-7.44-0.82H69.03
		V71.87z M82.53,52.92c-0.56,0-1.05-0.01-1.47-0.03c-0.44-0.02-0.8-0.05-1.08-0.09l-0.86-0.12V41.4h3.41c0.96,0,1.86,0.11,2.69,0.33
		c0.86,0.23,1.62,0.58,2.27,1.04c0.68,0.48,1.22,1.08,1.61,1.8c0.4,0.73,0.6,1.58,0.6,2.53c0,1.93-0.69,3.42-2.05,4.42
		C86.39,52.45,84.67,52.92,82.53,52.92z M81.12,50.89c0.01,0,0.02,0,0.03,0c0.39,0.02,0.85,0.03,1.38,0.03
		c1.71,0,3.04-0.34,3.95-1.01c0.83-0.61,1.23-1.53,1.23-2.8c0-0.61-0.12-1.14-0.36-1.57c-0.25-0.45-0.58-0.82-1.01-1.12
		c-0.46-0.32-1.01-0.57-1.64-0.74c-0.66-0.18-1.39-0.27-2.17-0.27h-1.41V50.89z"/>
	<linearGradient id="SVGID_8_" gradientUnits="userSpaceOnUse" x1="115.015" y1="77.5559" x2="116.1745" y2="34.6545">
		<stop  offset="8.172328e-03" style="stop-color:#FFD11D"/>
		<stop  offset="0.2575" style="stop-color:#FEC41E"/>
		<stop  offset="0.7542" style="stop-color:#F8A21F"/>
		<stop  offset="1" style="stop-color:#F5901F"/>
	</linearGradient>
	<path class="st11" d="M129.38,73.87h-27.43v-40.5h14.09v30.24h13.34V73.87z M103.95,71.87h23.43v-6.26h-13.34V35.36h-10.09V71.87z"
		/>
	<linearGradient id="SVGID_9_" gradientUnits="userSpaceOnUse" x1="147.5347" y1="78.4348" x2="148.6942" y2="35.5334">
		<stop  offset="8.172328e-03" style="stop-color:#FFD11D"/>
		<stop  offset="0.2575" style="stop-color:#FEC41E"/>
		<stop  offset="0.7542" style="stop-color:#F8A21F"/>
		<stop  offset="1" style="stop-color:#F5901F"/>
	</linearGradient>
	<path class="st12" d="M168.4,73.87h-15.33l-1.48-7.38h-8.33l-1.59,7.38h-14.76l11.22-40.5h18.52L168.4,73.87z M154.7,71.87h11.03
		l-10.58-36.5h-15.5l-10.11,36.5h10.51l1.59-7.38h11.58L154.7,71.87z M152.34,59.59h-9.93l5.04-22.48L152.34,59.59z M144.91,57.59
		h4.95l-2.44-11.21L144.91,57.59z"/>
	<linearGradient id="SVGID_10_" gradientUnits="userSpaceOnUse" x1="178.739" y1="79.2782" x2="179.8985" y2="36.3768">
		<stop  offset="8.172328e-03" style="stop-color:#FFD11D"/>
		<stop  offset="0.2575" style="stop-color:#FEC41E"/>
		<stop  offset="0.7542" style="stop-color:#F8A21F"/>
		<stop  offset="1" style="stop-color:#F5901F"/>
	</linearGradient>
	<path class="st13" d="M186.71,73.87h-14.03V62.34L161.1,33.36h13.92l4.67,14.92l4.63-14.92h14.55l-12.15,28.98V73.87z
		 M174.68,71.87h10.03v-9.92l11.15-26.58h-10.06l-6.09,19.64l-6.15-19.64h-9.49l10.63,26.59V71.87z"/>
</g>
</svg>
