<svg width="50" height="50" viewBox="0 0 50 50" fill="none" xmlns="http://www.w3.org/2000/svg">
<g clip-path="url(#clip0)">
<path d="M41.7969 34.1714C46.32 34.1714 50 30.4915 50 25.9683C50 21.445 46.32 17.7651 41.7969 17.7651H27.246C26.7067 17.7651 26.2694 18.2023 26.2694 18.7417C26.2694 19.2811 26.7067 19.7183 27.246 19.7183H38.8383V24.6673C38.8383 30.3201 36.4364 35.6875 32.2378 39.453H13.3762C13.405 39.4251 13.4345 39.3981 13.463 39.3696C14.5931 38.2396 15.3042 36.8132 15.4653 35.3531C15.6353 33.8124 15.1815 32.4165 14.1876 31.4226C12.6139 29.849 10.058 29.7231 7.875 30.9188C7.20508 28.9027 6.86484 26.8055 6.86484 24.6673V19.7183H18.457C18.9964 19.7183 19.4336 19.2811 19.4336 18.7417C19.4336 18.2023 18.9964 17.7651 18.457 17.7651H5.88818C5.34893 17.7651 4.91162 18.2023 4.91162 18.7417V24.6673C4.91162 27.2349 5.35791 29.7487 6.23652 32.1512C5.10879 33.2807 4.39902 34.7054 4.23818 36.1636C4.10205 37.3971 4.3667 38.5371 4.9874 39.453H0.976562C0.437207 39.453 0 39.8902 0 40.4296C0 43.5527 2.54092 46.0937 5.66406 46.0937H8.69189C9.14561 48.3196 11.1187 49.9999 13.4766 49.9999H32.2265C34.5845 49.9999 36.5575 48.3196 37.0111 46.0937H40.039C43.1622 46.0937 45.703 43.5527 45.703 40.4296C45.703 39.8902 45.2658 39.453 44.7265 39.453H35.017C36.478 37.8687 37.6862 36.0873 38.6134 34.1715H41.7969V34.1714ZM13.5238 35.139C13.4113 36.1593 12.8992 37.1713 12.0817 37.9886V37.9887C11.2645 38.806 10.2525 39.3181 9.23213 39.4307C8.86533 39.4712 8.51572 39.4563 8.1917 39.3903C8.09043 38.1737 8.87617 37.0209 10.0971 36.7036C11.7089 36.2849 12.8902 35.0399 13.3081 33.5407C13.513 34.0051 13.5888 34.5504 13.5238 35.139ZM6.17939 36.3778C6.29199 35.3575 6.8041 34.3455 7.62148 33.5282C8.58447 32.5652 9.79082 32.0579 10.8705 32.0579C11.0904 32.0579 11.305 32.0796 11.5112 32.1222C11.6147 33.3404 10.8285 34.4957 9.60605 34.8133C7.99434 35.232 6.81299 36.477 6.39512 37.9763C6.19033 37.5116 6.11445 36.9664 6.17939 36.3778ZM40.039 44.1405H36.1327C35.5935 44.1405 35.1562 44.5777 35.1562 45.1171C35.1562 46.7325 33.8419 48.0468 32.2265 48.0468H13.4766C11.8611 48.0468 10.5469 46.7325 10.5469 45.1171C10.5469 44.5777 10.1096 44.1405 9.57031 44.1405H5.66406C3.95566 44.1405 2.51318 42.9802 2.0835 41.4062H43.6195C43.1898 42.9802 41.7474 44.1405 40.039 44.1405ZM41.7969 19.7183C45.2432 19.7183 48.0469 22.522 48.0469 25.9683C48.0469 29.4146 45.2432 32.2183 41.7969 32.2183H39.4437C39.7262 31.4524 39.9664 30.6702 40.1618 29.8745H41.7969C43.9508 29.8745 45.7031 28.1222 45.7031 25.9683C45.7031 23.8144 43.9508 22.062 41.7969 22.062H40.7914V19.7183H41.7969ZM40.7914 24.0151H41.7969C42.8738 24.0151 43.75 24.8913 43.75 25.9683C43.75 27.0452 42.8738 27.9214 41.7969 27.9214H40.5461C40.7071 26.8517 40.7914 25.7646 40.7914 24.6673V24.0151Z" fill="#96613A"/>
<path d="M30.0388 13.6649C29.6574 14.0462 29.6574 14.6646 30.0388 15.046C30.2295 15.2367 30.4794 15.3321 30.7293 15.3321C30.9793 15.3321 31.2291 15.2367 31.4198 15.046C33.1442 13.3215 33.1442 10.5156 31.4198 8.79124C30.9533 8.32483 30.6964 7.70461 30.6964 7.04495C30.6964 6.38528 30.9533 5.76516 31.4198 5.29866C31.8012 4.91731 31.8012 4.29895 31.4198 3.9176C31.0386 3.53625 30.4204 3.53625 30.0387 3.9176C29.2033 4.75295 28.7432 5.8636 28.7432 7.04495C28.7432 8.22629 29.2033 9.33694 30.0387 10.1723C31.0017 11.1352 31.0017 12.7019 30.0388 13.6649Z" fill="#96613A"/>
<path d="M14.2832 13.665C13.9018 14.0463 13.9018 14.6647 14.2832 15.0461C14.4739 15.2368 14.7238 15.3322 14.9737 15.3322C15.2236 15.3322 15.4735 15.2368 15.6642 15.0461C17.3886 13.3216 17.3886 10.5158 15.6642 8.79134C14.7013 7.82845 14.7013 6.26165 15.6642 5.29876C16.0456 4.91741 16.0456 4.29905 15.6642 3.9176C15.2828 3.53625 14.6646 3.53625 14.2831 3.9176C12.5586 5.64202 12.5586 8.44798 14.2831 10.1724C15.246 11.1353 15.246 12.702 14.2832 13.665Z" fill="#96613A"/>
<path d="M22.1612 13.6649C21.7799 14.0463 21.7799 14.6646 22.1612 15.046C22.3519 15.2367 22.6018 15.332 22.8518 15.332C23.1018 15.332 23.3516 15.2366 23.5423 15.046C25.7673 12.821 25.7673 9.20056 23.5423 6.97546C22.8333 6.26648 22.4429 5.3239 22.4429 4.32126C22.4429 3.31863 22.8333 2.37605 23.5423 1.66707C23.9236 1.28572 23.9236 0.667358 23.5423 0.286011C23.1609 -0.0953369 22.5428 -0.0953369 22.1611 0.286011C21.0833 1.36384 20.4897 2.79695 20.4897 4.32126C20.4897 5.84558 21.0833 7.27869 22.1611 8.35652C23.6247 9.82009 23.6247 12.2013 22.1612 13.6649Z" fill="#96613A"/>
<path d="M22.8516 17.7656C22.5947 17.7656 22.3428 17.8691 22.1611 18.0508C21.9795 18.2334 21.875 18.4844 21.875 18.7422C21.875 18.999 21.9794 19.251 22.1611 19.4326C22.3428 19.6143 22.5947 19.7188 22.8516 19.7188C23.1084 19.7188 23.3604 19.6143 23.5419 19.4326C23.7235 19.251 23.8281 18.999 23.8281 18.7422C23.8281 18.4844 23.7236 18.2334 23.5419 18.0508C23.3604 17.8691 23.1084 17.7656 22.8516 17.7656Z" fill="#96613A"/>
</g>
<defs>
<clipPath id="clip0">
<rect width="50" height="50" fill="white"/>
</clipPath>
</defs>
</svg>
