<svg width="50" height="50" viewBox="0 0 50 50" fill="none" xmlns="http://www.w3.org/2000/svg">
<mask id="mask0" mask-type="alpha" maskUnits="userSpaceOnUse" x="0" y="0" width="50" height="50">
<rect width="50" height="50" fill="#C4C4C4"/>
</mask>
<g mask="url(#mask0)">
<path d="M38.6136 45.6195C40.8276 43.6307 42.2487 41.0188 42.6152 38.2651C42.9867 35.4726 42.2336 32.8684 40.4943 30.9324C38.7551 28.9963 36.2463 27.9692 33.4301 28.0404C31.6253 28.086 29.8326 28.5815 28.1907 29.4683C28.1784 27.9402 27.7951 26.3856 27.0557 24.9074C26.091 22.9788 24.5802 21.3078 22.6868 20.0751C20.1926 18.4513 17.3019 17.7546 14.5473 18.1134C11.7538 18.4772 9.4333 19.8787 8.01334 22.0599C6.83606 23.8682 6.39723 26.0174 6.74422 28.2753C6.7723 28.458 6.80558 28.6402 6.84413 28.8223C7.26038 30.7915 8.27855 32.7125 9.74791 34.2833C9.9957 34.5482 10.4113 34.5621 10.6762 34.3142C10.9412 34.0665 10.9549 33.6509 10.7072 33.3859C7.82948 30.3096 7.13635 26.0849 8.97044 23.0097C12.5489 22.4017 16.0114 24.7315 16.7686 28.3142C17.1372 30.0581 18.0415 31.5963 19.3836 32.7623C20.421 33.6637 21.6859 34.29 23.0224 34.5778C22.6992 35.1657 22.4279 35.775 22.2112 36.3995C20.1568 37.2145 17.6789 37.224 15.3619 36.4163C15.0194 36.2969 14.6449 36.4778 14.5255 36.8203C14.4846 36.9376 14.479 37.0585 14.5029 37.1718C14.5489 37.3893 14.7043 37.5782 14.9295 37.6567C17.2157 38.4536 19.6534 38.54 21.7984 37.9257C21.7554 38.1454 21.7183 38.3662 21.6887 38.588C21.5343 39.7488 21.5742 40.877 21.7985 41.9383C22.1138 43.43 22.7934 44.7894 23.8096 45.9206C25.5489 47.8568 28.0577 48.8838 30.8738 48.8126C33.6509 48.7425 36.3996 47.6084 38.6136 45.6195ZM18.0539 28.0425C17.2445 24.2129 13.8439 21.5831 10.0745 21.5994C12.9042 18.8013 17.9071 18.5308 21.9701 21.176C25.2885 23.3363 27.1758 26.8949 26.8416 30.3107C26.4446 30.594 26.0599 30.9016 25.6904 31.2335C24.9631 31.8868 24.322 32.6077 23.7752 33.3784C20.9694 32.9853 18.645 30.8395 18.0539 28.0425ZM22.9909 38.7612C23.3161 36.3172 24.5866 33.9908 26.5682 32.2107C30.5483 28.6353 36.2067 28.3919 39.3293 31.6099C38.9909 35.2243 35.8441 37.9665 32.1871 37.7706C30.0208 37.6546 27.9389 38.3891 26.3251 39.8389C25.1279 40.9144 24.295 42.2881 23.8971 43.8099C23.0652 42.3543 22.745 40.6094 22.9909 38.7612ZM24.9747 45.2431C25.134 43.5336 25.9183 41.9701 27.2029 40.8162C28.5557 39.6009 30.3009 38.9851 32.1169 39.0824C36.0255 39.2918 39.4459 36.6878 40.4057 33.0426C42.3759 36.5 41.3425 41.4025 37.7358 44.6425C33.7557 48.2178 28.0972 48.4612 24.9747 45.2431Z" fill="#96613A"/>
<path d="M13.1368 35.5957C13.1011 35.4267 12.9973 35.2755 12.8525 35.1812C12.7076 35.0863 12.5274 35.0532 12.3584 35.0889C12.1894 35.1247 12.038 35.2278 11.9439 35.3732C11.8496 35.518 11.8158 35.6977 11.8516 35.8673C11.8873 36.0363 11.9911 36.1876 12.1359 36.2819C12.2807 36.3761 12.461 36.4098 12.63 36.3741C12.799 36.3384 12.9503 36.2346 13.0445 36.0898C13.1388 35.945 13.1725 35.7647 13.1368 35.5957Z" fill="#96613A"/>
<path d="M4.99965 23.5C2.59753 16.7741 15.2107 13.4127 14.2498 4.76509C17.6128 5.24552 18.5737 10.5302 18.5737 10.5302C18.5737 10.5302 26.9804 7.76549 26.5 2C36.1085 8.24552 31.5451 16.7757 31.5451 16.7757C31.5451 16.7757 36.3494 16.7757 37.3102 13.4127C44.0361 20.1387 40.6732 29.2667 40.6732 29.2667M22 18.5C22.4804 16.8986 24.0783 13.4127 26 13.4127C25.5196 17.2561 25.5392 18.0392 26.5 19" stroke="#96613A" stroke-width="1.5" stroke-linecap="round"/>
</g>
</svg>
